<?xml version="1.0" encoding="UTF-8" standalone="no"?>
<svg
   xmlns:dc="http://purl.org/dc/elements/1.1/"
   xmlns:cc="http://creativecommons.org/ns#"
   xmlns:rdf="http://www.w3.org/1999/02/22-rdf-syntax-ns#"
   xmlns:svg="http://www.w3.org/2000/svg"
   xmlns="http://www.w3.org/2000/svg"
   xmlns:sodipodi="http://sodipodi.sourceforge.net/DTD/sodipodi-0.dtd"
   xmlns:inkscape="http://www.inkscape.org/namespaces/inkscape"
   width="164.453"
   height="28"
   viewBox="0 0 164.453 28"
   version="1.1"
   id="svg1005"
   sodipodi:docname="Branch_logo.svg"
   inkscape:version="0.92.3 (2405546, 2018-03-11)">
  <metadata
     id="metadata1009">
    <rdf:RDF>
      <cc:Work
         rdf:about="">
        <dc:format>image/svg+xml</dc:format>
        <dc:type
           rdf:resource="http://purl.org/dc/dcmitype/StillImage" />
        <dc:title></dc:title>
      </cc:Work>
    </rdf:RDF>
  </metadata>
  <sodipodi:namedview
     pagecolor="#ffffff"
     bordercolor="#666666"
     borderopacity="1"
     objecttolerance="10"
     gridtolerance="10"
     guidetolerance="10"
     inkscape:pageopacity="0"
     inkscape:pageshadow="2"
     inkscape:window-width="1853"
     inkscape:window-height="1025"
     id="namedview1007"
     showgrid="false"
     inkscape:zoom="2.4687904"
     inkscape:cx="82.226501"
     inkscape:cy="14"
     inkscape:window-x="67"
     inkscape:window-y="27"
     inkscape:window-maximized="1"
     inkscape:current-layer="svg1005"
     borderlayer="true" />
  <defs
     id="defs971">
    <style
       id="style969">.a{fill:#a435f0;}</style>
  </defs>
  <g
     transform="translate(-145.38091,-192.36748)"
     id="g1003">
    <path
       class="a"
       d="m 138.9,142.19 v 3.29 l 5.7,-3.29 5.7,3.29 v -3.29 l -5.7,-3.29 z"
       id="path973"
       inkscape:connector-curvature="0"
       style="fill:#a435f0" />
    <path
       d="m 147.4,247.723 a 2.712,2.712 0 1 1 -5.422,0.028 V 240.5 H 139 v 7.5 a 4.853,4.853 0 0 0 1.6,3.9 5.992,5.992 0 0 0 4.071,1.36 6.137,6.137 0 0 0 4.09,-1.36 4.9,4.9 0 0 0 1.627,-3.97 V 240.5 H 147.4 Z"
       transform="translate(-0.091,-91.992)"
       id="path975"
       inkscape:connector-curvature="0" />
    <path
       d="m 443.616,236.7 a 6.374,6.374 0 0 0 -4.687,1.8 6.442,6.442 0 0 0 -1.829,4.76 v 0.1 a 6.145,6.145 0 0 0 1.829,4.659 6.625,6.625 0 0 0 4.76,1.755 6.929,6.929 0 0 0 5.422,-2.435 l -2.215,-1.277 a 4.478,4.478 0 0 1 -3.106,1.195 3.409,3.409 0 0 1 -3.74,-3.106 h 9.64 c 0,0 0.064,-0.607 0.064,-1.186 a 6.2,6.2 0 0 0 -1.728,-4.466 5.784,5.784 0 0 0 -4.41,-1.799 z m -3.483,5.137 a 2.669,2.669 0 0 1 1.094,-1.829 3.869,3.869 0 0 1 2.389,-0.79 3.185,3.185 0 0 1 2.2,0.818 2.436,2.436 0 0 1 0.937,1.8 z"
       transform="translate(-270.332,-88.546)"
       id="path977"
       inkscape:connector-curvature="0" />
    <path
       d="m 797.654,249.58 -3.621,-9.08 H 791 l 5.11,12.6 -0.588,1.369 c -0.6,1.369 -1.213,1.617 -1.884,1.617 h -1.084 v 2.647 h 1.342 c 1.939,0 3.207,-0.974 4.42,-3.832 1.241,-2.941 6.1,-14.4 6.093,-14.4 h -3.033 z"
       transform="translate(-591.153,-91.833)"
       id="path979"
       inkscape:connector-curvature="0" />
    <path
       d="m 288.683,194.727 a 6.064,6.064 0 0 0 -3.97,-1.431 5.821,5.821 0 0 0 -4.439,1.921 6.627,6.627 0 0 0 -1.774,4.727 6.7,6.7 0 0 0 1.774,4.746 5.909,5.909 0 0 0 4.439,1.893 5.612,5.612 0 0 0 3.97,-1.45 v 1.177 h 2.959 V 188.7 h -2.959 z m -0.882,8 a 3.635,3.635 0 0 1 -2.693,1.111 3.55,3.55 0 0 1 -2.638,-1.111 4.234,4.234 0 0 1 0,-5.556 3.515,3.515 0 0 1 2.638,-1.111 3.649,3.649 0 0 1 2.693,1.111 4.026,4.026 0 0 1 0,5.556 z"
       transform="translate(-126.771,-45.223)"
       id="path981"
       inkscape:connector-curvature="0" />
    <path
       d="m 604.231,237.8 a 5.2,5.2 0 0 0 -4.218,1.829 3.531,3.531 0 0 0 -3.327,-1.829 4.184,4.184 0 0 0 -3.354,1.544 v -1.3 H 590.4 v 12.425 h 2.932 v -7.141 a 2.606,2.606 0 0 1 2.417,-2.886 c 1.406,0 2.224,1.057 2.224,2.766 v 7.279 h 2.927 v -7.159 c 0,-1.7 1.011,-2.886 2.463,-2.886 1.406,0 2.224,1.057 2.224,2.766 v 7.279 h 2.959 V 242.8 c 0.004,-3.254 -1.732,-5 -4.315,-5 z"
       transform="translate(-409.278,-89.549)"
       id="path983"
       inkscape:connector-curvature="0" />
    <path
       class="a"
       d="m 1004.6,188 a 4.292,4.292 0 0 0 -3.97,2.334 V 183 H 999 v 17.719 h 1.617 v -2.04 a 4.291,4.291 0 0 0 4.025,2.353 c 3.207,0 5.2,-2.481 5.2,-6.47 0,-4.054 -2.01,-6.562 -5.242,-6.562 z m -0.239,11.616 c -2.408,0 -3.8,-1.856 -3.8,-5.091 0,-3.253 1.36,-5.11 3.74,-5.11 2.445,0 3.841,1.856 3.841,5.091 0,3.235 -1.376,5.11 -3.784,5.11 z"
       transform="translate(-779.736,-40.047)"
       id="path985"
       inkscape:connector-curvature="0"
       style="fill:#a435f0" />
    <path
       class="a"
       d="m 1142.1,248.08 c 0,2.831 -1.865,3.841 -3.455,3.841 a 2.741,2.741 0 0 1 -2.169,-0.79 c -0.533,-0.625 -0.763,-1.627 -0.763,-3.336 V 240.7 h -1.613 v 7.766 a 5.227,5.227 0 0 0 1.1,3.759 4.5,4.5 0 0 0 6.9,-0.947 v 1.847 h 1.617 V 240.7 h -1.617 z"
       transform="translate(-902.225,-92.174)"
       id="path987"
       inkscape:connector-curvature="0"
       style="fill:#a435f0" />
    <path
       class="a"
       d="m 1259.368,243.108 -1.636,-0.386 c -1.572,-0.349 -2.426,-0.781 -2.426,-2.077 0,-1.222 1,-1.948 2.674,-1.948 a 4.01,4.01 0 0 1 3.308,1.691 l 0.028,0.037 1.241,-1.048 -0.028,-0.037 a 5.666,5.666 0 0 0 -4.521,-2.04 c -2.6,0 -4.347,1.415 -4.347,3.52 0,2.105 1.342,2.849 3.511,3.364 l 1.709,0.414 c 1.443,0.358 2.555,0.735 2.555,2.086 0,1.4 -1.1,2.206 -3.014,2.233 a 4.494,4.494 0 0 1 -3.979,-2.1 l -0.028,-0.037 -1.314,0.937 0.018,0.037 a 5.933,5.933 0 0 0 5.119,2.592 c 2.987,-0.028 4.843,-1.47 4.843,-3.768 0,-2.298 -1.781,-3.038 -3.713,-3.47 z"
       transform="translate(-1010.103,-89.09)"
       id="path989"
       inkscape:connector-curvature="0"
       style="fill:#a435f0" />
    <rect
       class="a"
       width="1.617"
       height="2.628"
       transform="translate(254.586,142.953)"
       id="rect991"
       x="0"
       y="0"
       style="fill:#a435f0" />
    <rect
       class="a"
       width="1.617"
       height="12.434"
       transform="translate(254.586,148.502)"
       id="rect993"
       x="0"
       y="0"
       style="fill:#a435f0" />
    <path
       class="a"
       d="m 1427.887,237.4 a 4.112,4.112 0 0 0 -3.869,2.16 v -1.875 h -1.618 v 12.434 h 1.618 v -7.38 a 4.091,4.091 0 0 1 1.029,-2.849 3.213,3.213 0 0 1 2.481,-0.993 2.786,2.786 0 0 1 2.169,0.79 c 0.643,0.689 0.763,1.847 0.763,3.75 v 6.681 h 1.617 v -7.03 c 0,-2.785 -0.331,-3.6 -1.1,-4.485 a 3.992,3.992 0 0 0 -3.09,-1.203 z"
       transform="translate(-1163.59,-89.186)"
       id="path995"
       inkscape:connector-curvature="0"
       style="fill:#a435f0" />
    <path
       class="a"
       d="m 1555.907,246.268 a 4.459,4.459 0 0 1 -4.108,2.72 c -1.994,0 -4.126,-1.25 -4.126,-4.751 V 244.1 h 9.383 v -0.248 c 0,-3.979 -2.086,-6.451 -5.441,-6.451 -3.308,0 -5.615,2.638 -5.615,6.424 0,4.136 2.151,6.608 5.744,6.608 a 5.728,5.728 0 0 0 5.4,-3.373 l 0.018,-0.037 -1.241,-0.8 z m -4.292,-7.508 a 3.786,3.786 0 0 1 3.685,4.007 h -7.582 c 0.23,-2.472 1.71,-4.007 3.897,-4.007 z"
       transform="translate(-1275.262,-89.18)"
       id="path997"
       inkscape:connector-curvature="0"
       style="fill:#a435f0" />
    <path
       class="a"
       d="m 1682.368,243.108 -1.636,-0.386 c -1.571,-0.349 -2.426,-0.781 -2.426,-2.077 0,-1.222 1,-1.948 2.674,-1.948 a 4.01,4.01 0 0 1 3.308,1.691 l 0.028,0.037 1.241,-1.048 -0.028,-0.037 a 5.666,5.666 0 0 0 -4.521,-2.04 c -2.6,0 -4.347,1.415 -4.347,3.52 0,2.105 1.342,2.849 3.51,3.364 l 1.709,0.414 c 1.443,0.358 2.555,0.735 2.555,2.086 0,1.4 -1.1,2.206 -3.014,2.233 a 4.5,4.5 0 0 1 -3.979,-2.1 l -0.028,-0.037 -1.314,0.937 0.018,0.037 a 5.933,5.933 0 0 0 5.119,2.592 c 2.978,-0.028 4.834,-1.47 4.843,-3.768 0.01,-2.298 -1.78,-3.038 -3.712,-3.47 z"
       transform="translate(-1393.406,-89.09)"
       id="path999"
       inkscape:connector-curvature="0"
       style="fill:#a435f0" />
    <path
       class="a"
       d="m 1798.568,243.108 -1.636,-0.386 c -1.572,-0.349 -2.426,-0.781 -2.426,-2.077 0,-1.222 1,-1.948 2.674,-1.948 a 4.011,4.011 0 0 1 3.308,1.691 l 0.028,0.037 1.241,-1.048 -0.027,-0.037 a 5.666,5.666 0 0 0 -4.522,-2.04 c -2.6,0 -4.347,1.415 -4.347,3.52 0,2.105 1.342,2.849 3.51,3.364 l 1.709,0.414 c 1.443,0.358 2.555,0.735 2.555,2.086 0,1.4 -1.1,2.206 -3.014,2.233 a 4.494,4.494 0 0 1 -3.979,-2.1 l -0.027,-0.037 -1.314,0.937 0.018,0.037 a 5.933,5.933 0 0 0 5.119,2.592 c 2.987,-0.028 4.843,-1.47 4.843,-3.768 0,-2.298 -1.781,-3.038 -3.713,-3.47 z"
       transform="translate(-1498.927,-89.09)"
       id="path1001"
       inkscape:connector-curvature="0"
       style="fill:#a435f0" />
  </g>
  <text
     x="10.274652"
     y="26.969852"
     font-size="112.17px"
     letter-spacing="0px"
     word-spacing="0px"
     style="font-size:37.96618271px;line-height:110.00000238%;font-family:sans-serif;letter-spacing:0px;word-spacing:0px;fill:#183f3f;fill-opacity:1;stroke:#3a292e;stroke-width:1.42367256;stroke-opacity:0"
     xml:space="preserve"
     id="text22"><tspan
       x="10.274652"
       y="26.969852"
       id="tspan20"
       style="font-family:'Argon PERSONAL';fill:#183f3f;fill-opacity:1;stroke:#3a292e;stroke-width:1.42367256;stroke-opacity:0">BRANCH</tspan></text>
</svg>
