<?xml version="1.0" encoding="UTF-8" standalone="no"?>
<!-- Created with Inkscape (http://www.inkscape.org/) -->

<svg
   xmlns:dc="http://purl.org/dc/elements/1.1/"
   xmlns:cc="http://creativecommons.org/ns#"
   xmlns:rdf="http://www.w3.org/1999/02/22-rdf-syntax-ns#"
   xmlns:svg="http://www.w3.org/2000/svg"
   xmlns="http://www.w3.org/2000/svg"
   xmlns:sodipodi="http://sodipodi.sourceforge.net/DTD/sodipodi-0.dtd"
   xmlns:inkscape="http://www.inkscape.org/namespaces/inkscape"
   version="1.1"
   id="svg4874"
   xml:space="preserve"
   width="180"
   height="180"
   viewBox="0 0 180 180"
   sodipodi:docname="circle_gecko.svg"
   inkscape:version="0.92.3 (2405546, 2018-03-11)"
   inkscape:export-filename="/home/asap/Documents/Businesses/GeckoTeams/Marketing/Logo/Circle_Logo.png"
   inkscape:export-xdpi="95"
   inkscape:export-ydpi="95"><metadata
     id="metadata4880"><rdf:RDF><cc:Work
         rdf:about=""><dc:format>image/svg+xml</dc:format><dc:type
           rdf:resource="http://purl.org/dc/dcmitype/StillImage" /><dc:title></dc:title></cc:Work></rdf:RDF></metadata><defs
     id="defs4878"><clipPath
       clipPathUnits="userSpaceOnUse"
       id="clipPath4890"><path
         d="M 0,0 H 851 V 315 H 0 Z"
         id="path4888"
         inkscape:connector-curvature="0" /></clipPath><clipPath
       clipPathUnits="userSpaceOnUse"
       id="clipPath4898"><path
         d="M -32768,32767 H 32767 V -32768 H -32768 Z"
         id="path4896"
         inkscape:connector-curvature="0" /></clipPath><linearGradient
       x1="0"
       y1="0"
       x2="1"
       y2="0"
       gradientUnits="userSpaceOnUse"
       gradientTransform="matrix(0,290.06207,290.06207,0,425.5,-1)"
       spreadMethod="pad"
       id="linearGradient4910"><stop
         style="stop-opacity:0.2;stop-color:#ffffff"
         offset="0"
         id="stop4900" /><stop
         style="stop-opacity:0.99888609;stop-color:#ffffff"
         offset="0.20602165"
         id="stop4902" /><stop
         style="stop-opacity:0.99888609;stop-color:#ffffff"
         offset="0.733161"
         id="stop4904" /><stop
         style="stop-opacity:1;stop-color:#ffffff"
         offset="0.80485915"
         id="stop4906" /><stop
         style="stop-opacity:1;stop-color:#ffffff"
         offset="1"
         id="stop4908" /></linearGradient><mask
       maskUnits="userSpaceOnUse"
       x="0"
       y="0"
       width="1"
       height="1"
       id="mask4912"><g
         id="g4922"><g
           clip-path="url(#clipPath4898)"
           id="g4920"><g
             id="g4918"><g
               id="g4916"><path
                 d="M -32768,32767 H 32767 V -32768 H -32768 Z"
                 style="fill:url(#linearGradient4910);stroke:none"
                 id="path4914"
                 inkscape:connector-curvature="0" /></g></g></g></g></mask><linearGradient
       x1="0"
       y1="0"
       x2="1"
       y2="0"
       gradientUnits="userSpaceOnUse"
       gradientTransform="matrix(0,290.06207,290.06207,0,425.5,-1)"
       spreadMethod="pad"
       id="linearGradient4938"><stop
         style="stop-opacity:1;stop-color:#cedc35"
         offset="0"
         id="stop4928" /><stop
         style="stop-opacity:1;stop-color:#ffffff"
         offset="0.20602165"
         id="stop4930" /><stop
         style="stop-opacity:1;stop-color:#ffffff"
         offset="0.733161"
         id="stop4932" /><stop
         style="stop-opacity:1;stop-color:#ffffff"
         offset="0.80485915"
         id="stop4934" /><stop
         style="stop-opacity:1;stop-color:#ffffff"
         offset="1"
         id="stop4936" /></linearGradient><clipPath
       clipPathUnits="userSpaceOnUse"
       id="clipPath4948"><path
         d="M 0,315 H 851 V 0 H 0 Z"
         id="path4946"
         inkscape:connector-curvature="0" /></clipPath><clipPath
       clipPathUnits="userSpaceOnUse"
       id="clipPath5004"><path
         d="M 0,315 H 851 V 0 H 0 Z"
         id="path5002"
         inkscape:connector-curvature="0" /></clipPath><clipPath
       clipPathUnits="userSpaceOnUse"
       id="clipPath5020"><path
         d="M 360.332,315 425.5,96.413 H 851 V 315 Z"
         id="path5018"
         inkscape:connector-curvature="0" /></clipPath><clipPath
       clipPathUnits="userSpaceOnUse"
       id="clipPath5032"><path
         d="M 419.09,67.914 851,96.413 H 425.5 L 362.953,306.211 360.332,315 Z"
         id="path5030"
         inkscape:connector-curvature="0" /></clipPath><clipPath
       clipPathUnits="userSpaceOnUse"
       id="clipPath5040"><path
         d="M -32768,32767 H 32767 V -32768 H -32768 Z"
         id="path5038"
         inkscape:connector-curvature="0" /></clipPath><linearGradient
       x1="0"
       y1="0"
       x2="1"
       y2="0"
       gradientUnits="userSpaceOnUse"
       gradientTransform="matrix(0,227.52463,227.52463,0,605.6662,67.129654)"
       spreadMethod="pad"
       id="linearGradient5048"><stop
         style="stop-opacity:0.2;stop-color:#ffffff"
         offset="0"
         id="stop5042" /><stop
         style="stop-opacity:1;stop-color:#ffffff"
         offset="0.20091254"
         id="stop5044" /><stop
         style="stop-opacity:1;stop-color:#ffffff"
         offset="1"
         id="stop5046" /></linearGradient><mask
       maskUnits="userSpaceOnUse"
       x="0"
       y="0"
       width="1"
       height="1"
       id="mask5050"><g
         id="g5060"><g
           clip-path="url(#clipPath5040)"
           id="g5058"><g
             id="g5056"><g
               id="g5054"><path
                 d="M -32768,32767 H 32767 V -32768 H -32768 Z"
                 style="fill:url(#linearGradient5048);stroke:none"
                 id="path5052"
                 inkscape:connector-curvature="0" /></g></g></g></g></mask><linearGradient
       x1="0"
       y1="0"
       x2="1"
       y2="0"
       gradientUnits="userSpaceOnUse"
       gradientTransform="matrix(0,227.52463,227.52463,0,605.6662,67.129654)"
       spreadMethod="pad"
       id="linearGradient5072"><stop
         style="stop-opacity:1;stop-color:#0e302e"
         offset="0"
         id="stop5066" /><stop
         style="stop-opacity:1;stop-color:#ffffff"
         offset="0.20091254"
         id="stop5068" /><stop
         style="stop-opacity:1;stop-color:#ffffff"
         offset="1"
         id="stop5070" /></linearGradient></defs><sodipodi:namedview
     pagecolor="#ffffff"
     bordercolor="#666666"
     borderopacity="1"
     objecttolerance="10"
     gridtolerance="10"
     guidetolerance="10"
     inkscape:pageopacity="0"
     inkscape:pageshadow="2"
     inkscape:window-width="1853"
     inkscape:window-height="1025"
     id="namedview4876"
     showgrid="false"
     inkscape:zoom="0.30141008"
     inkscape:cx="-613.78174"
     inkscape:cy="210"
     inkscape:window-x="67"
     inkscape:window-y="27"
     inkscape:window-maximized="1"
     inkscape:current-layer="g4882" /><g
     id="g4882"
     inkscape:groupmode="layer"
     inkscape:label="facebook"
     transform="matrix(1.3333333,0,0,-1.3333333,0,180)"><g
       id="g4950"
       transform="matrix(1.5931836,0,0,1.5931836,67.499999,135)"
       inkscape:export-filename="/media/asap/a7352e73-b318-4d06-b76b-68d83a8ff5291/Businesses/Charity/ComePlayGlasgow/Marketign/Facebook/ProfilePhoto.png"
       inkscape:export-xdpi="299.73334"
       inkscape:export-ydpi="299.73334"><path
         d="m 0,0 c -23.399,0 -42.368,-18.969 -42.368,-42.368 0,-3.879 0.532,-7.631 1.508,-11.2 4.249,4.646 9.294,8.382 16.144,10.252 -0.702,1.29 -1.212,2.485 -1.943,3.524 -2.596,3.687 -2.612,7.767 -0.022,11.378 1.501,2.093 1.67,4.329 0.701,6.753 -0.72,1.799 -0.906,3.812 -1.543,5.644 0.66,-0.642 1.344,-1.258 2.015,-1.889 0.497,-0.466 0.991,-0.934 1.486,-1.402 0.304,0.659 0.726,1.289 0.89,1.981 0.538,2.277 0.983,4.576 1.519,7.127 3.38,-2.314 1.101,-4.97 1.468,-7.669 1.109,1.352 2.217,2.703 3.51,4.28 1.643,-2.994 -1.51,-4.427 -1.397,-6.709 2.401,-0.832 3.843,3.344 6.929,1.098 -1.624,-0.847 -2.994,-1.34 -4.072,-2.199 -0.765,-0.61 -1.137,-1.713 -1.685,-2.597 0.861,-0.118 1.724,-0.23 2.585,-0.358 1.303,-0.195 2.583,-0.543 3.921,-0.504 -2.421,-0.454 -4.809,-1.076 -7.226,-1.546 -3.922,-0.764 -6.382,-4.582 -5.293,-8.408 0.165,-0.576 0.788,-1.048 1.262,-1.502 1.167,-1.122 2.751,-1.999 3.482,-3.347 1.626,-2.993 4.223,-2.417 6.655,-2.134 0.752,0.087 1.836,1.293 1.964,2.112 0.7,4.515 4.575,8.614 9.056,9.098 3.982,0.43 7.983,0.682 11.968,1.087 2.927,0.298 5.253,-0.553 6.658,-3.249 1.478,-2.834 1.505,-5.679 -0.71,-8.113 -2.405,-2.644 -5.162,-4.972 -7.532,-7.644 -1.829,-2.062 -3.844,-3.498 -6.546,-4.175 -3.082,-0.773 -5.924,-1.028 -8.126,1.724 -3.348,-1.316 -4.721,-6.027 -2.887,-8.96 0.982,-1.571 1.484,-3.436 2.358,-5.085 0.392,-0.742 1.081,-1.71 1.777,-1.847 5.434,-1.067 6.264,-1.649 9.536,3.615 1.084,1.744 1.676,3.794 2.902,5.451 0.038,-0.014 0.04,-0.015 0.078,-0.029 -0.1,-1.61 -0.641,-3.149 -0.899,-4.733 -0.107,-0.662 -0.101,-1.341 -0.145,-2.012 0.605,0.194 1.294,0.264 1.8,0.605 1.393,0.941 2.709,1.995 4.1,3.038 0.294,-0.755 -0.804,-2.797 -2.954,-5.721 1.631,0.081 2.941,0.286 4.22,0.161 0.869,-0.085 1.693,-0.632 2.537,-0.972 -0.721,-0.4 -1.405,-0.908 -2.172,-1.17 -1.33,-0.454 -2.806,-0.481 -4.128,-0.959 l 7.857,-2.068 -0.199,-1.252 c -1.603,0 -3.209,-0.066 -4.808,0.019 -1.757,0.094 -3.503,0.394 -5.257,0.559 -0.004,-0.007 -0.005,-0.008 -0.009,-0.015 0.831,-1.261 1.662,-2.522 2.493,-3.783 l -0.57,-0.562 c -1.151,0.755 -2.555,1.299 -3.404,2.308 -2.104,2.5 -4.592,2.903 -7.505,1.998 -3.614,-1.124 -7.451,0.202 -9.75,3.237 -1.023,1.35 -2.282,2.522 -3.609,3.967 -3.387,-4.99 -7.347,-8.702 -11.936,-11.177 7.063,-5.272 15.825,-8.394 25.316,-8.394 23.399,0 42.368,18.969 42.368,42.368 C 42.368,-18.969 23.399,0 0,0"
         style="fill:#012c2a;fill-opacity:1;fill-rule:nonzero;stroke:none"
         id="path4952"
         inkscape:connector-curvature="0" /></g></g></svg>