<?xml version="1.0" encoding="UTF-8"?>
<svg width="91.155mm" height="99.278mm" version="1.1" viewBox="0 0 91.155 99.278" xmlns="http://www.w3.org/2000/svg" xmlns:cc="http://creativecommons.org/ns#" xmlns:dc="http://purl.org/dc/elements/1.1/" xmlns:rdf="http://www.w3.org/1999/02/22-rdf-syntax-ns#" xmlns:xlink="http://www.w3.org/1999/xlink">
 <defs>
  <clipPath id="XMLID_3_">
   <use width="100%" height="100%" xlink:href="#XMLID_1_"/>
  </clipPath>
 </defs>
 <metadata>
  <rdf:RDF>
   <cc:Work rdf:about="">
    <dc:format>image/svg+xml</dc:format>
    <dc:type rdf:resource="http://purl.org/dc/dcmitype/StillImage"/>
    <dc:title/>
   </cc:Work>
  </rdf:RDF>
 </metadata>
 <g transform="translate(-6.139 -25.196)">
  <g fill-opacity=".3" stroke-linecap="round" stroke-width="2">
   <circle cx="40.645" cy="96.384" r="27.09" fill="#f00" stroke="#f00"/>
   <circle cx="34.229" cy="53.286" r="27.09" fill="#000080" stroke="#000080"/>
   <circle cx="69.204" cy="68.953" r="27.09" fill="#f0f" stroke="#f0f"/>
  </g>
  <g transform="matrix(4.0992 0 0 4.0992 -1633.6 -889.89)">
   <path d="m405.12 224.83c-0.0269 2e-3 -0.0551 5e-3 -0.0845 0.01-0.22722 0.0408-0.42449 0.24496-0.34288 0.76754 0 0-0.0328-0.0326-0.0491-0.0815 0 0-0.21209 0.4569-0.24476 0.70185-0.0326 0.24496 0.147 0.63675 0.52251 0.84904 0.31453 0.17781 0.34365 0.43979 0.34534 0.74001-0.0208 3e-3 -0.0406 7e-3 -0.0602 0.0112-0.14064 0.0151-0.57418 0.0634-0.64543 0.10876-0.0838 0.0533-0.87575 1.1426-0.87575 1.1426l-0.38651-0.87465c0.0758-0.0492 0.1566-0.10915 0.16818-0.15536 0.0202-0.0813-0.10817-0.32539-0.0878-0.47781 2e-3 -0.01 2e-3 -7e-3 3e-3 -0.0164a0.25749 0.25749 0 0 0 0.16926-0.24149 0.25749 0.25749 0 0 0-0.25757-0.25758 0.25749 0.25749 0 0 0-0.25758 0.25758 0.25749 0.25749 0 0 0 0 2e-3l-0.26002 0.17962c-0.0383 0.0264-0.0573 0.0563-0.0635 0.0872a0.25749 0.25749 0 0 0-0.25268-0.20905 0.25749 0.25749 0 0 0-0.18125 0.075 0.23562 0.23562 0 0 0 0-0.0104 0.23562 0.23562 0 0 0-0.23549-0.23576 0.23562 0.23562 0 0 0-0.23578 0.23576 0.23562 0.23562 0 0 0 0.16463 0.22432s7e-3 0.29975 0.0374 0.37096c0.0273 0.0646 0.35777 0.0999 0.42275 0.10658 2e-3 5e-3 3e-3 9e-3 5e-3 0.0144 9e-3 0.0239 0.0162 0.0484 0.0264 0.0717 0.0117 0.0265 0.0272 0.0737 0.0551 0.0883 0.0572 0.0301 0.37489 0.0542 0.45354 0.06 0.0856 0.24421 0.50708 1.4298 0.64435 1.4367 0.0858 4e-3 0.47685-0.42336 0.79126-0.78225-0.18407 0.59574-0.38109 1.3342-0.42494 1.6526-0.0117 0.0856-0.0246 0.33859 0.0621 0.60346 6e-3 0.10086 0.0146 0.22397 0.024 0.35324-0.60912-0.0211-0.78692-0.74654-0.85911-1.2601-0.1134-0.80696-0.79708-1.1245-1.1835-1.1159-0.0257 5.3e-4 -0.0502 3e-3 -0.073 6e-3 -0.36578 0.0552-0.36487 0.29283-0.2246 0.26629 0.14028-0.0263 0.64786-0.11587 0.98096 0.50206 0.33324 0.61793-0.57089 2.0546 1.2306 2.3266 0.0617 9e-3 0.12397 0.0162 0.18644 0.0213 3e-3 0.0321 0.0125 0.1589 0.0125 0.1589l-0.62061-0.0403c-0.024-0.0475-0.13663-0.2619-0.24287-0.30145-0.11908-0.0442-0.29606-3e-3 -0.32926 0.0442-0.0332 0.0471-0.0415 0.2492-0.1578 0.32681-0.11628 0.0775-0.30991 0.0804-0.30991 0.0804s0.19662-0.0333 0.26302-0.10249c0 0-0.011-0.1301-0.14391-0.14664-0.13281-0.0167-0.1938 0.0859-0.1938 0.0859s0.0415 0.0192 0.0526 0.0801c0 0-0.14127-0.13011-0.29355 3e-3 -0.15228 0.13281-0.0415 0.39295 0.11911 0.40122 0.16056 8e-3 0.18534-0.11067 0.18534-0.11067s0.014 0.0359 6e-3 0.0774c0 0 0.36521 8e-3 0.50643-0.0109 0.13056-0.0179 0.40864-0.12476 0.45328-0.14201 0.14534 0.0534 1.0392 0.37822 1.112 0.311 0.0404-0.0372 0.0889-0.39585 0.12783-0.74519 0.25718-0.0579 0.49131-0.18863 0.65879-0.39603 0.0184-0.0227 0.056-0.0699 0.0919-0.12102 0.15898-0.0698 0.27699-0.1421 0.28374-0.15782 2e-3 -2e-3 1e-3 -4e-3 2e-3 -5e-3 0.39653-0.10056 0.92674-0.23261 0.96706-0.21914 0.0464 0.0154 0.0191 0.5163 4e-3 0.76454-0.0662 0.14074-0.29841 0.6362-0.29574 0.67078 3e-3 0.0331 0.0375 0.0329 0.10195 0.0668 0.0644 0.0339 0.0339 0.0557 0.0815 0.11393 0.0476 0.0581 0.20469 0.0867 0.20469 0.0867-0.0137-0.0872 0.0354-0.13792 0.0354-0.13792-6e-3 0.21202 0.12293 0.24415 0.21668 0.24749 0.0937 3e-3 0.21984-0.0689 0.2085-0.22514-0.0113-0.15628-0.16108-0.21233-0.16108-0.21233s0.17214 6e-3 0.21587 0.12075c0.0437 0.1144 0.0136 0.20715 0.0136 0.20715s0.10035 3e-3 0.17061-0.0376c0.0703-0.0402 0.10517-0.16462 0.0226-0.26956-0.0825-0.10495-0.20797-0.0777-0.20797-0.0777 0.0343-0.0267 0.1653-0.0637 0.25131 0.0341 0.086 0.0977 0.0561 0.24966 0.0561 0.24966 0.0462 0.016 0.18763 0.0309 0.22297-0.12074 0.0355-0.15148-0.0617-0.30411-0.17144-0.30091-0.10987 3e-3 -0.15156 0.0785-0.15156 0.0785s-0.18463-0.0349-0.30064-0.10794c-0.11412-0.0719-0.17279-0.35068-0.1747-0.35978 0.0196-0.17979 0.12825-1.1945 0.0684-1.2603-0.0479-0.0527-0.88492 0.0909-1.3288 0.17117-2e-3 -0.0493-4e-3 -0.0956-9e-3 -0.12892-0.0725-0.57392-3e-3 -1.2005 0.12402-1.7627 0.0286-0.12695 0.0363-0.19104 0.079-0.31345 0.0211-0.0606 0.043-0.12096 0.0641-0.18153 0.18295 0.25123 0.78854 1.0796 0.84958 1.0796 0.0666 0 0.99605-0.38005 1.1044-0.42438 0.12328 0.11903 0.34697 0.12892 0.34697 0.12892l0.0114-0.51188c-0.0974-0.0347-0.18588-9e-3 -0.18588-9e-3 0.0748-0.0904 0.1837-0.0592 0.1837-0.0592l7e-3 4e-3a0.19842 0.19842 0 0 0-2e-3 0.033 0.19842 0.19842 0 0 0 0.19817 0.19843 0.19842 0.19842 0 0 0 0.19841-0.19843 0.19842 0.19842 0 0 0-0.19841-0.19843 0.19842 0.19842 0 0 0-0.0752 0.015c-0.27535-0.27137-0.56315-0.0231-0.55603 0.25703-0.16438 0.0547-0.92084 0.3046-0.97741 0.25512-0.0628-0.0549-0.3927-0.80794-0.52605-1.0276-0.13334-0.21962-0.40012-0.29-0.40012-0.29-0.0454-8e-3 -0.0783-0.0315-0.10303-0.0581 2e-3 -0.0306 1e-3 -0.0639 5e-3 -0.0842 0.022-0.10935 0.0563-0.2188 0.10167-0.32081-0.25988-0.031-0.42738-0.20279-0.42738-0.20279 0.47138 0.18936 0.91627 0.0968 1.1102 0.0131 0.19376-0.0837 0.41863-0.77091 0.39223-0.89865-0.024-0.11655-0.23527-0.29888-0.30555-0.41702 0 0 0.0556-0.0974 0.0349-0.26112-0.0207-0.16375-0.0782-0.22432-0.0782-0.22432 0.0813-0.47071-0.26358-0.55984-0.26358-0.55984 0.0969 0.13654 0.1014 0.30391 0.1014 0.30391s-0.13218-0.30865-0.37887-0.38786c-0.24669-0.0792-0.65197-0.0616-0.65197-0.0616 0.10575 0.10575 0.11446 0.33934 0.11448 0.33934 0 0-0.12369-0.39093-0.5266-0.37014zm0.16163 0.60482c0.0125-1e-3 0.0252-1e-3 0.0387 0 0.0144 1e-3 0.0295 4e-3 0.0452 8e-3 0.34657 0.0963 0.28864 0.57757 0.28864 0.57757-0.53911 0.30802-0.61586-0.13465-0.61599-0.13465 0-0.15224 0.058-0.43319 0.2434-0.45137zm1.3328 0.1491c0.0123-5.3e-4 0.0255 4e-4 0.0395 4e-3 0.0684 0.0171 0.10665 0.20186 0.0978 0.23386 3e-3 0.10002-0.0417 0.22432-0.0417 0.22432s-0.20941-0.14299-0.23221-0.3298c6e-3 -0.0284 0.0502-0.12684 0.13655-0.13219zm-0.46745 0.65987-2.8e-4 2.8e-4c0.0191 1.3e-4 0.0386 5e-3 0.0551 0.0134 0.0332 0.0179 0.0534 0.0491 0.06 0.0818-0.024-0.0222-0.0494-0.0395-0.075-0.0461-0.0128-3e-3 -0.0252-4e-3 -0.0376-3e-3 -6e-3 2e-3 -0.0123 2e-3 -0.0185 4e-3 -3e-3 1e-3 -6e-3 2e-3 -9e-3 3e-3l-9e-3 4e-3c-0.0114 5e-3 -0.0217 0.0118-0.0311 0.021-0.01 9e-3 -0.0183 0.0195-0.0262 0.0313-0.0156 0.024-0.0272 0.0526-0.0387 0.0834-9e-3 -0.032-7e-3 -0.0668 4e-3 -0.0998 6e-3 -0.0164 0.0143-0.0328 0.0267-0.0469 6e-3 -7e-3 0.0131-0.013 0.0202-0.0193 8e-3 -5e-3 0.0157-0.011 0.0245-0.0145 0.0174-8e-3 0.0355-0.0119 0.0545-0.0125zm0.65633 2.8e-4c0.0191 5.2e-4 0.0372 4e-3 0.0545 0.0125 9e-3 4e-3 0.0165 9e-3 0.0245 0.0142 7e-3 6e-3 0.0145 0.0123 0.0202 0.0196 0.0123 0.014 0.0211 0.0301 0.027 0.0466 0.0116 0.0329 0.0124 0.0678 4e-3 0.0998-0.0115-0.0308-0.023-0.0591-0.0387-0.0831-8e-3 -0.0119-0.0159-0.0229-0.0256-0.0316-9e-3 -9e-3 -0.0199-0.0159-0.0314-0.021l-8e-3 -4e-3c-3e-3 -2e-3 -6e-3 -1e-3 -9e-3 -2e-3 -6e-3 -3e-3 -0.0125-3e-3 -0.0188-4e-3 -0.0124-1e-3 -0.0248-3.3e-4 -0.0376 3e-3 -0.0256 7e-3 -0.051 0.0235-0.075 0.0458 7e-3 -0.0326 0.0271-0.0635 0.0602-0.0815 0.0164-9e-3 0.0357-0.0132 0.0548-0.0134zm-0.66777 0.13873c0.0373-8e-3 0.0603 0.0603 0.0357 0.0891-0.0108 0.0127-0.023 0.0138-0.0371 7e-3 -0.032-0.0165-0.0277-0.0587-0.0155-0.0872 6e-3 -5e-3 0.0116-7e-3 0.0169-8e-3zm0.67922 0c5e-3 1e-3 0.0109 4e-3 0.0166 8e-3 0.0121 0.0285 0.0167 0.0707-0.0153 0.0872-0.014 7e-3 -0.0265 6e-3 -0.0373-7e-3 -0.0246-0.0287-2e-3 -0.0968 0.036-0.0889zm-1.5037 0.299h8.1e-4c0.0153 5.3e-4 0.0267 6e-3 0.0403 0.0136-0.0106 0.012-0.0236 0.0181-0.0319 0.024-8e-3 5e-3 -0.0106 9e-3 -0.0145 0.0131 0.0228 0.02 0.21022 0.17845 0.45492 0.19379 0.26123 0.0162 0.3511-0.0654 0.56338-0.0654 0.15535 0 0.31923 0.0915 0.46991 0.0352 0.0444-0.0166 0.0729-0.0456 0.10903-0.0733 8e-3 0.13121-0.12271 0.24166-0.22405 0.29846-0.0459 0.0256-0.0893 0.0548-0.13901 0.0733-0.0434 0.016-0.0875 0.0131-0.13246 0.0196-0.0915 0.0133-0.18138 0.0162-0.27367 8e-3 -0.0565-5e-3 -0.11351-4e-3 -0.16981-0.0101-0.19413-0.0212-0.37217-0.11621-0.50832-0.25676-0.0429-0.0443-0.0814-0.0933-0.11284-0.14637-5e-3 -9e-3 -0.0435-0.0643-0.0379-0.0755-1.4e-4 2.8e-4 -5e-5 5.6e-4 -2e-3 1e-3 -5e-3 6e-3 -0.0106 0.0129-0.0164 0.0207-6e-3 8e-3 -0.0115 0.0184-0.0202 0.0316-0.0114-0.0108-0.0169-0.0251-0.0169-0.0406s6e-3 -0.0309 0.0163-0.0433c5e-3 -6e-3 0.0123-0.0123 0.0204-0.0161 8e-3 -4e-3 0.0168-5e-3 0.0243-5e-3zm-3.4937 0.43992c-0.12578-3e-3 -0.22696 0.0945-0.21396 0.2265 0.0173 0.17602 0.15863 0.20361 0.15863 0.20361s-5e-3 0.22811 0.01 0.28265c0.0149 0.0545 0.16626 0.0717 0.16626 0.0717l-0.0174-0.21069c-0.10413-0.0447-0.18844-0.1959-0.16844-0.33471 0.0199-0.13881 0.19597-0.20088 0.19597-0.20088-0.044-0.0254-0.0889-0.0373-0.13083-0.0382zm0.38569 0.48789h2.6e-4a0.25749 0.25749 0 0 0-2e-3 0.0207 0.25749 0.25749 0 0 0 2e-3 0.0207l-0.0242-0.0218a0.23562 0.23562 0 0 0 0.024-0.0196zm0.51351 0.0341c0.0227 0.0789 0.10579 0.15671 0.16844 0.20061 0.0588 0.0412 0.0971 0.0894 0.0921 0.16354-9e-3 -9e-3 -0.0206-0.0161-0.0327-0.0232-0.10109-0.0818-0.25456-0.0649-0.25459-0.0649l-0.0575-0.0987a0.25749 0.25749 0 0 0 0.0842-0.17744zm2.9489 0.50097c0.10415 0.0119 0.25811 0.23631 2e-3 1.1153-0.2564 0.87902-0.10077 1.5516-0.24585 1.8611-0.14494 0.3095-0.83764 0.50153-0.67186-0.84113 0.23107-1.8723 0.8066-2.1478 0.91608-2.1353zm3.2555 0.5593c-0.0694 1e-3 -0.14574 0.0287-0.19161 0.0466 0 0-0.11464-0.0408-0.15291 0.0305 0 0 0.2371 0.0484 0.18617 0.28292 0 0 0.0179 0.0257 0.0281 0.0461 0 0 0.0587-0.0333 0.16054-0.0281 0 0-0.1071 0.0205-0.15045 0.0714 0 0 0.0306 0.0357 0.018 0.0791 0 0-0.0254-0.0614-0.079-0.0818 0 0-0.0879 0.1454-0.23522 0.11993 0 0-0.0299 0.0892 0.0848 0.16054 0.11468 0.0713 0.18613-0.0179 0.20905-0.0766 0 0-5e-3 0.14809-0.13518 0.14555-0.13002-3e-3 -0.15836-0.0894-0.15836-0.0894s-0.0964 0.0305-0.0837 0.14283c0.0128 0.11214 0.10032 0.15836 0.16326 0.17089 0.10189 0.0204 0.18344-0.079 0.18344-0.079s0.16162 0.0688 0.2355 3e-3c0.0739-0.0663 0.111-0.18873-0.0215-0.23713 0 0 0.1363-0.0278 0.13109-0.15782-5e-3 -0.13001-0.13246-0.18098-0.13246-0.18098s0.13013-0.0842 0.0919-0.25757c-0.0191-0.0867-0.0818-0.11166-0.15127-0.11039zm-6.4709 0.93626s0.46127 0.14108 0.48981 1.0646c0.0267 0.8641 0.56387 1.2789 1.1559 1.2895 0.0109 0.13974 0.0158 0.19947 0.0229 0.28728-0.0553-5e-3 -0.11021-0.0109-0.16436-0.0191-1.7143-0.25896-0.88864-1.6086-1.1712-2.214-0.10081-0.21588-0.21545-0.34216-0.33307-0.4083zm2.8096 2.259c-0.0795 0.0932-0.17462 0.1725-0.28128 0.23277-0.0931 0.0526-0.19243 0.0884-0.29464 0.11366 0.0146-0.13992 0.0202-0.20113 0.0286-0.28756 0.16025 0.0445 0.36419 4e-3 0.54731-0.0589zm-2.5008 0.46936c-0.0191 1.3e-4 -0.0414 7e-3 -0.067 0.0259 0 0 0.0775 0.0525 0.0886 0.12729 0 0 0.047-0.0332 0.0635-0.0913 9e-5 0-0.0278-0.0623-0.085-0.0619z" fill="#000080" stroke-width=".013335"/>
   <g transform="matrix(.013335 0 0 .013335 400.69 224.6)">
    <path class="st1" d="m141.02 213.87s-6.01-69.9 31.94-106.73" fill="none" stroke="#68b72e" stroke-miterlimit="10" stroke-width="4"/>
    <path class="st0" d="m145.13 160.88c-0.7-2.01-0.36-4.2-1.23-6.25-1.8-4.22-5.41-6.64-9.79-7.58-7.06-1.5-14.02-0.3-20.28-4.37-3.38 7.73-2.09 16.45 3.55 22.71 3.62 4.02 7.67 5.22 12.91 5.25 6.24 0.03 10.31-3.48 14.84-9.76z" fill="#68b72e"/>
    <path class="st0" d="m145.46 161.04c5.01-3.61 12.72-3.22 18.15-1.04 5.23 2.11 8.15 6.22 11.85 10.22 2.09 2.25 4.21 4.32 7.18 5.34 1.77 0.61 3.62 0.43 5.39 0.9-5.98 6.18-15.14 8.77-23.76 8.63-4.62-0.08-9.26-1.56-13-4.37-5.05-3.81-6.66-10.71-7.01-13.37-0.32-2.31 0.38-4.66 1.2-6.31z" fill="#68b72e"/>
    <g fill="#bb272d">
     <path class="st2" d="m170.9 106.54c-3.63 0.69-6.49 1.1-9.77 3.1-3.66 2.23-6.32 4.43-9.02 7.79-4.91 6.13-5.42 16.54-0.38 22.81 5.16 6.42 15.62 6.85 21.51 1.2 10.6-10.16 12.87-25.45 5.55-38.36"/>
     <path class="st2" d="m174.76 97.68c-2.43-6.34-6.69-12.13-12.7-15.66-9.89-5.82-24.81-4.98-31.08 5.72-5.77 9.84-2.63 21.77 8.55 25.71 11.81 4.16 26.12-2.1 34.27-10.77"/>
     <path class="st2" d="m180.03 99.48c2.95-1.39 5.7-5.5 7.28-8.24 3-5.18 4.13-12.18 3.77-18.09-0.56-9.31-6.89-18.87-17.24-17.81-7.32 0.75-11.74 9.56-12.96 16.02-0.85 4.51 0 9.66 1.69 13.92 1.11 2.79 2.56 5.73 4.34 8.15 2.64 3.58 7.08 5.61 13.12 6.05z"/>
     <path class="st2" d="m182.07 106.15c-1.18 7.47 0.92 15.52 5.95 21.26 5.48 6.25 13.81 9.54 21.19 4.35 5.78-4.06 8.66-12.17 5.33-18.78-5.86-11.63-20.8-11.6-32.47-6.83z"/>
     <path class="st2" d="m182.7 105.17c8.98 0.02 18.43 1.57 26.69-3.06 6.57-3.68 10.87-12.1 8.5-19.67-2.46-7.86-12.8-10.05-19.59-7.07-4.33 1.9-9.1 4.85-11.78 8.84-3.24 4.86-6.19 13.98-3.82 20.96z"/>
    </g>
    <rect class="st3" x="576.35" y="298.39" width="9.55" height="71.45" fill="#666"/>
    <path class="st4" d="m593.1 343.4c-0.07-2.82-3.1-5.09-6.81-5.09h-9.93c-3.72 0-6.75 2.26-6.81 5.09l-1.81 76.54c-0.07 2.9 3 5.27 6.81 5.27h13.55c3.81 0 6.88-2.38 6.81-5.27-0.06-2.62 0.41-5.58-0.25-8.13-0.91-3.47-5.3-4.24-8.54-6.19-2.34-1.41-3.99-3.13-4.26-5.35-0.14-1.16 0.69-2.46 0.53-3.51-0.16-1.11-1.36-2.33-1.71-3.48-0.44-1.46-0.57-3.06-0.42-4.58 0.38-3.88 3.85-6.44 6.98-9.28 2.88-2.61 4.15-4.97 4.28-8.44 0.13-3.31-2.75-3.43-4.82-5.68-1.24-1.35-0.55-2.96 0.95-4 1.33-0.93 3.93-0.69 5.15-1.74 1.66-1.43 0.55-5.08 0.51-6.86-0.06-3.11-0.13-6.21-0.21-9.3z" clip-path="url(#XMLID_3_)" fill="#a02b31"/>
    <path class="st3" d="m581.89 324.29c9.27 0 35.54-4.89 34.51-23.7-1.03-18.8-26.27-61.3-35.03-61.3s-34 42.5-35.03 61.3 25.24 23.7 34.51 23.7" fill="#666"/>
    <path class="st5" d="m175.82 203.35h-67.52c-4.83 0-8.61 4.16-8.14 8.97l6.34 65.19c0.41 4.19 3.93 7.39 8.14 7.39h54.84c4.21 0 7.73-3.2 8.14-7.39l6.34-65.19c0.47-4.81-3.31-8.97-8.14-8.97z" fill="#c66b44"/>
    <circle class="st6" cx="177.42" cy="103.7" r="10.49" fill="#f5aa3b" stroke="#bb272d" stroke-miterlimit="10"/>
   </g>
  </g>
  <g transform="matrix(4.0908 -.2619 .2619 4.0908 -1700.4 -747.16)">
   <path d="m420.12 221.78c0.0269 2e-3 0.0551 5e-3 0.0845 0.01 0.22722 0.0408 0.42449 0.24496 0.34288 0.76754 0 0 0.0328-0.0326 0.0491-0.0815 0 0 0.21209 0.4569 0.24476 0.70185 0.0326 0.24496-0.147 0.63675-0.52251 0.84904-0.31453 0.17781-0.34365 0.43979-0.34534 0.74001 0.0208 3e-3 0.0406 7e-3 0.0602 0.0112 0.14064 0.0151 0.57418 0.0634 0.64543 0.10876 0.0838 0.0533 0.87575 1.1426 0.87575 1.1426l0.38651-0.87465c-0.0758-0.0492-0.1566-0.10915-0.16818-0.15536-0.0202-0.0813 0.10817-0.32539 0.0878-0.47781-2e-3 -0.01-2e-3 -7e-3 -3e-3 -0.0164a0.25749 0.25749 0 0 1-0.16926-0.24149 0.25749 0.25749 0 0 1 0.25757-0.25758 0.25749 0.25749 0 0 1 0.25758 0.25758 0.25749 0.25749 0 0 1 0 2e-3l0.26002 0.17962c0.0383 0.0264 0.0573 0.0563 0.0635 0.0872a0.25749 0.25749 0 0 1 0.25268-0.20905 0.25749 0.25749 0 0 1 0.18125 0.075 0.23562 0.23562 0 0 1 0-0.0104 0.23562 0.23562 0 0 1 0.23549-0.23576 0.23562 0.23562 0 0 1 0.23578 0.23576 0.23562 0.23562 0 0 1-0.16463 0.22432s-7e-3 0.29975-0.0374 0.37096c-0.0273 0.0646-0.35777 0.0999-0.42275 0.10658-2e-3 5e-3 -3e-3 9e-3 -5e-3 0.0144-9e-3 0.0239-0.0162 0.0484-0.0264 0.0717-0.0117 0.0265-0.0272 0.0737-0.0551 0.0883-0.0572 0.0301-0.37489 0.0542-0.45354 0.06-0.0856 0.24421-0.50708 1.4298-0.64435 1.4367-0.0858 4e-3 -0.47685-0.42336-0.79126-0.78225 0.18407 0.59574 0.38109 1.3342 0.42494 1.6526 0.0117 0.0856 0.0246 0.33859-0.0621 0.60346-6e-3 0.10086-0.0146 0.22397-0.024 0.35324 0.60912-0.0211 0.78692-0.74654 0.85911-1.2601 0.1134-0.80696 0.79708-1.1245 1.1835-1.1159 0.0257 5.3e-4 0.0502 3e-3 0.073 6e-3 0.36578 0.0552 0.36487 0.29283 0.2246 0.26629-0.14028-0.0263-0.64786-0.11587-0.98096 0.50206-0.33324 0.61793 0.57089 2.0546-1.2306 2.3266-0.0617 9e-3 -0.12397 0.0162-0.18644 0.0213-3e-3 0.0321-0.0125 0.1589-0.0125 0.1589l0.62061-0.0403c0.024-0.0475 0.13663-0.2619 0.24287-0.30145 0.11908-0.0442 0.29606-3e-3 0.32926 0.0442 0.0332 0.0471 0.0415 0.2492 0.1578 0.32681 0.11628 0.0775 0.30991 0.0804 0.30991 0.0804s-0.19662-0.0333-0.26302-0.10249c0 0 0.011-0.1301 0.14391-0.14664 0.13281-0.0167 0.1938 0.0859 0.1938 0.0859s-0.0415 0.0192-0.0526 0.0801c0 0 0.14127-0.13011 0.29355 3e-3 0.15228 0.13281 0.0415 0.39295-0.11911 0.40122-0.16056 8e-3 -0.18534-0.11067-0.18534-0.11067s-0.014 0.0359-6e-3 0.0774c0 0-0.36521 8e-3 -0.50643-0.0109-0.13056-0.0179-0.40864-0.12476-0.45328-0.14201-0.14534 0.0534-1.0392 0.37822-1.112 0.311-0.0404-0.0372-0.0889-0.39585-0.12783-0.74519-0.25718-0.0579-0.49131-0.18863-0.65879-0.39603-0.0184-0.0227-0.056-0.0699-0.0919-0.12102-0.15898-0.0698-0.27699-0.1421-0.28374-0.15782-2e-3 -2e-3 -1e-3 -4e-3 -2e-3 -5e-3 -0.39653-0.10056-0.92674-0.23261-0.96706-0.21914-0.0464 0.0154-0.0191 0.5163-4e-3 0.76454 0.0662 0.14074 0.29841 0.6362 0.29574 0.67078-3e-3 0.0331-0.0375 0.0329-0.10195 0.0668-0.0644 0.0339-0.0339 0.0557-0.0815 0.11393-0.0476 0.0581-0.20469 0.0867-0.20469 0.0867 0.0137-0.0872-0.0354-0.13792-0.0354-0.13792 6e-3 0.21202-0.12293 0.24415-0.21668 0.24749-0.0937 3e-3 -0.21984-0.0689-0.2085-0.22514 0.0113-0.15628 0.16108-0.21233 0.16108-0.21233s-0.17214 6e-3 -0.21587 0.12075c-0.0437 0.1144-0.0136 0.20715-0.0136 0.20715s-0.10035 3e-3 -0.17061-0.0376c-0.0703-0.0402-0.10517-0.16462-0.0226-0.26956 0.0825-0.10495 0.20797-0.0777 0.20797-0.0777-0.0343-0.0267-0.1653-0.0637-0.25131 0.0341-0.086 0.0977-0.0561 0.24966-0.0561 0.24966-0.0462 0.016-0.18763 0.0309-0.22297-0.12074-0.0355-0.15148 0.0617-0.30411 0.17144-0.30091 0.10987 3e-3 0.15156 0.0785 0.15156 0.0785s0.18463-0.0349 0.30064-0.10794c0.11412-0.0719 0.17279-0.35068 0.1747-0.35978-0.0196-0.17979-0.12825-1.1945-0.0684-1.2603 0.0479-0.0527 0.88492 0.0909 1.3288 0.17117 2e-3 -0.0493 4e-3 -0.0956 9e-3 -0.12892 0.0725-0.57392 3e-3 -1.2005-0.12402-1.7627-0.0286-0.12695-0.0363-0.19104-0.079-0.31345-0.0211-0.0606-0.043-0.12096-0.0641-0.18153-0.18295 0.25123-0.78854 1.0796-0.84958 1.0796-0.0666 0-0.99605-0.38005-1.1044-0.42438-0.12328 0.11903-0.34697 0.12892-0.34697 0.12892l-0.0114-0.51188c0.0974-0.0347 0.18588-9e-3 0.18588-9e-3 -0.0748-0.0904-0.1837-0.0592-0.1837-0.0592l-7e-3 4e-3a0.19842 0.19842 0 0 1 2e-3 0.033 0.19842 0.19842 0 0 1-0.19817 0.19843 0.19842 0.19842 0 0 1-0.19841-0.19843 0.19842 0.19842 0 0 1 0.19841-0.19843 0.19842 0.19842 0 0 1 0.0752 0.015c0.27535-0.27137 0.56315-0.0231 0.55603 0.25703 0.16438 0.0547 0.92084 0.3046 0.97741 0.25512 0.0628-0.0549 0.3927-0.80794 0.52605-1.0276 0.13334-0.21962 0.40012-0.29 0.40012-0.29 0.0454-8e-3 0.0783-0.0315 0.10303-0.0581-2e-3 -0.0306-1e-3 -0.0639-5e-3 -0.0842-0.022-0.10935-0.0563-0.2188-0.10167-0.32081 0.25988-0.031 0.42738-0.20279 0.42738-0.20279-0.47138 0.18936-0.91627 0.0968-1.1102 0.0131-0.19376-0.0837-0.41863-0.77091-0.39223-0.89865 0.024-0.11655 0.23527-0.29888 0.30555-0.41702 0 0-0.0556-0.0974-0.0349-0.26112 0.0207-0.16376 0.0782-0.22433 0.0782-0.22433-0.0813-0.47071 0.26358-0.55984 0.26358-0.55984-0.0969 0.13654-0.1014 0.30391-0.1014 0.30391s0.13218-0.30865 0.37887-0.38786c0.24669-0.0792 0.65197-0.0616 0.65197-0.0616-0.10575 0.10575-0.11446 0.33934-0.11448 0.33934 0 0 0.12369-0.39093 0.5266-0.37014zm-0.16163 0.60482c-0.0125-1e-3 -0.0252-1e-3 -0.0387 0-0.0144 1e-3 -0.0295 4e-3 -0.0452 8e-3 -0.34657 0.0963-0.28864 0.57757-0.28864 0.57757 0.53911 0.30802 0.61586-0.13465 0.61599-0.13465 0-0.15224-0.058-0.43319-0.2434-0.45137zm-1.3328 0.1491c-0.0123-5.3e-4 -0.0255 4e-4 -0.0395 4e-3 -0.0684 0.0171-0.10665 0.20186-0.0978 0.23386-3e-3 0.10002 0.0417 0.22432 0.0417 0.22432s0.20941-0.14299 0.23221-0.3298c-6e-3 -0.0284-0.0502-0.12684-0.13655-0.13219zm0.46745 0.65987 2.9e-4 2.9e-4c-0.0191 1.3e-4 -0.0386 5e-3 -0.0551 0.0134-0.0332 0.0179-0.0534 0.0491-0.06 0.0818 0.024-0.0222 0.0494-0.0395 0.075-0.0461 0.0128-3e-3 0.0252-4e-3 0.0376-3e-3 6e-3 2e-3 0.0123 2e-3 0.0185 4e-3 3e-3 1e-3 6e-3 2e-3 9e-3 3e-3l9e-3 4e-3c0.0114 5e-3 0.0217 0.0118 0.0311 0.021 0.01 9e-3 0.0183 0.0195 0.0262 0.0313 0.0156 0.024 0.0272 0.0526 0.0387 0.0834 9e-3 -0.032 7e-3 -0.0668-4e-3 -0.0998-6e-3 -0.0164-0.0143-0.0328-0.0267-0.0469-6e-3 -7e-3 -0.0131-0.013-0.0202-0.0193-8e-3 -5e-3 -0.0157-0.011-0.0245-0.0145-0.0174-8e-3 -0.0355-0.0119-0.0545-0.0125zm-0.65633 2.9e-4c-0.0191 5.3e-4 -0.0372 4e-3 -0.0545 0.0125-9e-3 4e-3 -0.0165 9e-3 -0.0245 0.0142-7e-3 6e-3 -0.0145 0.0123-0.0202 0.0196-0.0123 0.014-0.0211 0.0301-0.027 0.0466-0.0116 0.0329-0.0124 0.0678-4e-3 0.0998 0.0115-0.0308 0.023-0.0591 0.0387-0.0831 8e-3 -0.0119 0.0159-0.0229 0.0256-0.0316 9e-3 -9e-3 0.0199-0.0159 0.0314-0.021l8e-3 -4e-3c3e-3 -2e-3 6e-3 -1e-3 9e-3 -2e-3 6e-3 -3e-3 0.0125-3e-3 0.0188-4e-3 0.0124-1e-3 0.0248-3.2e-4 0.0376 3e-3 0.0256 7e-3 0.051 0.0235 0.075 0.0458-7e-3 -0.0326-0.0271-0.0635-0.0602-0.0815-0.0164-9e-3 -0.0357-0.0132-0.0548-0.0134zm0.66777 0.13873c-0.0373-8e-3 -0.0603 0.0603-0.0357 0.0891 0.0108 0.0127 0.023 0.0138 0.0371 7e-3 0.032-0.0165 0.0277-0.0587 0.0155-0.0872-6e-3 -5e-3 -0.0116-7e-3 -0.0169-8e-3zm-0.67922 0c-5e-3 1e-3 -0.0109 4e-3 -0.0166 8e-3 -0.0121 0.0285-0.0167 0.0707 0.0153 0.0872 0.014 7e-3 0.0265 6e-3 0.0373-7e-3 0.0246-0.0287 2e-3 -0.0968-0.036-0.0889zm1.5037 0.299h-8.2e-4c-0.0153 5.3e-4 -0.0267 6e-3 -0.0403 0.0136 0.0106 0.012 0.0236 0.0181 0.0319 0.024 8e-3 5e-3 0.0106 9e-3 0.0145 0.0131-0.0228 0.02-0.21022 0.17845-0.45492 0.19379-0.26123 0.0162-0.3511-0.0654-0.56338-0.0654-0.15535 0-0.31923 0.0915-0.46991 0.0352-0.0444-0.0166-0.0729-0.0456-0.10903-0.0733-8e-3 0.13121 0.12271 0.24166 0.22405 0.29846 0.0459 0.0256 0.0893 0.0548 0.13901 0.0733 0.0434 0.016 0.0875 0.0131 0.13246 0.0196 0.0915 0.0133 0.18138 0.0162 0.27367 8e-3 0.0565-5e-3 0.11351-4e-3 0.16981-0.0101 0.19413-0.0212 0.37217-0.11621 0.50832-0.25676 0.0429-0.0443 0.0814-0.0933 0.11284-0.14637 5e-3 -9e-3 0.0435-0.0643 0.0379-0.0755 1.4e-4 2.9e-4 5e-5 5.6e-4 2e-3 1e-3 5e-3 6e-3 0.0106 0.0129 0.0164 0.0207 6e-3 8e-3 0.0115 0.0184 0.0202 0.0316 0.0114-0.0108 0.0169-0.0251 0.0169-0.0406s-6e-3 -0.0309-0.0163-0.0433c-5e-3 -6e-3 -0.0123-0.0123-0.0204-0.0161-8e-3 -4e-3 -0.0168-5e-3 -0.0243-5e-3zm3.4937 0.43992c0.12578-3e-3 0.22696 0.0945 0.21396 0.2265-0.0173 0.17602-0.15863 0.20361-0.15863 0.20361s5e-3 0.22811-0.01 0.28265c-0.0149 0.0545-0.16626 0.0717-0.16626 0.0717l0.0174-0.21069c0.10413-0.0447 0.18844-0.1959 0.16844-0.33471-0.0199-0.13881-0.19597-0.20088-0.19597-0.20088 0.044-0.0254 0.0889-0.0373 0.13083-0.0382zm-0.38569 0.48789h-2.6e-4a0.25749 0.25749 0 0 1 2e-3 0.0207 0.25749 0.25749 0 0 1-2e-3 0.0207l0.0242-0.0218a0.23562 0.23562 0 0 1-0.024-0.0196zm-0.51351 0.0341c-0.0227 0.0789-0.10579 0.15671-0.16844 0.20061-0.0588 0.0412-0.0971 0.0894-0.0921 0.16354 9e-3 -9e-3 0.0206-0.0161 0.0327-0.0232 0.10109-0.0818 0.25456-0.0649 0.25459-0.0649l0.0575-0.0987a0.25749 0.25749 0 0 1-0.0842-0.17744zm-2.9489 0.50097c-0.10415 0.0119-0.25811 0.23631-2e-3 1.1153 0.2564 0.87902 0.10077 1.5516 0.24585 1.8611 0.14494 0.3095 0.83764 0.50153 0.67186-0.84113-0.23107-1.8723-0.8066-2.1478-0.91608-2.1353zm-3.2555 0.5593c0.0694 1e-3 0.14574 0.0287 0.19161 0.0466 0 0 0.11464-0.0408 0.15291 0.0305 0 0-0.2371 0.0484-0.18617 0.28292 0 0-0.0179 0.0257-0.0281 0.0461 0 0-0.0587-0.0333-0.16054-0.0281 0 0 0.1071 0.0205 0.15045 0.0714 0 0-0.0306 0.0357-0.018 0.0791 0 0 0.0254-0.0614 0.079-0.0818 0 0 0.0879 0.1454 0.23522 0.11993 0 0 0.0299 0.0892-0.0848 0.16054-0.11468 0.0713-0.18613-0.0179-0.20905-0.0766 0 0 5e-3 0.14809 0.13518 0.14555 0.13002-3e-3 0.15836-0.0894 0.15836-0.0894s0.0964 0.0305 0.0837 0.14283c-0.0128 0.11214-0.10032 0.15836-0.16326 0.17089-0.10189 0.0204-0.18344-0.079-0.18344-0.079s-0.16162 0.0688-0.2355 3e-3c-0.0739-0.0663-0.111-0.18873 0.0215-0.23713 0 0-0.1363-0.0278-0.13109-0.15782 5e-3 -0.13001 0.13246-0.18098 0.13246-0.18098s-0.13013-0.0842-0.0919-0.25757c0.0191-0.0867 0.0818-0.11166 0.15127-0.11039zm6.4709 0.93626s-0.46127 0.14108-0.48981 1.0646c-0.0267 0.8641-0.56387 1.2789-1.1559 1.2895-0.0109 0.13974-0.0158 0.19947-0.0229 0.28728 0.0553-5e-3 0.11021-0.0109 0.16436-0.0191 1.7143-0.25896 0.88864-1.6086 1.1712-2.214 0.10081-0.21588 0.21545-0.34216 0.33307-0.4083zm-2.8096 2.259c0.0795 0.0932 0.17462 0.1725 0.28128 0.23277 0.0931 0.0526 0.19243 0.0884 0.29464 0.11366-0.0146-0.13992-0.0202-0.20113-0.0286-0.28756-0.16025 0.0445-0.36419 4e-3 -0.54731-0.0589zm2.5008 0.46936c0.0191 1.3e-4 0.0414 7e-3 0.067 0.0259 0 0-0.0775 0.0525-0.0886 0.12729 0 0-0.047-0.0332-0.0635-0.0913-9e-5 0 0.0278-0.0623 0.085-0.0619z" fill="#f0f" stroke-width=".013335"/>
   <g transform="matrix(-.013335 0 0 .013335 424.5 221.05)">
    <path class="st1" d="m141.02 213.87s-6.01-69.9 31.94-106.73" fill="none" stroke="#68b72e" stroke-miterlimit="10" stroke-width="4"/>
    <path class="st0" d="m145.13 160.88c-0.7-2.01-0.36-4.2-1.23-6.25-1.8-4.22-5.41-6.64-9.79-7.58-7.06-1.5-14.02-0.3-20.28-4.37-3.38 7.73-2.09 16.45 3.55 22.71 3.62 4.02 7.67 5.22 12.91 5.25 6.24 0.03 10.31-3.48 14.84-9.76z" fill="#68b72e"/>
    <path class="st0" d="m145.46 161.04c5.01-3.61 12.72-3.22 18.15-1.04 5.23 2.11 8.15 6.22 11.85 10.22 2.09 2.25 4.21 4.32 7.18 5.34 1.77 0.61 3.62 0.43 5.39 0.9-5.98 6.18-15.14 8.77-23.76 8.63-4.62-0.08-9.26-1.56-13-4.37-5.05-3.81-6.66-10.71-7.01-13.37-0.32-2.31 0.38-4.66 1.2-6.31z" fill="#68b72e"/>
    <g fill="#bb272d">
     <path class="st2" d="m170.9 106.54c-3.63 0.69-6.49 1.1-9.77 3.1-3.66 2.23-6.32 4.43-9.02 7.79-4.91 6.13-5.42 16.54-0.38 22.81 5.16 6.42 15.62 6.85 21.51 1.2 10.6-10.16 12.87-25.45 5.55-38.36"/>
     <path class="st2" d="m174.76 97.68c-2.43-6.34-6.69-12.13-12.7-15.66-9.89-5.82-24.81-4.98-31.08 5.72-5.77 9.84-2.63 21.77 8.55 25.71 11.81 4.16 26.12-2.1 34.27-10.77"/>
     <path class="st2" d="m180.03 99.48c2.95-1.39 5.7-5.5 7.28-8.24 3-5.18 4.13-12.18 3.77-18.09-0.56-9.31-6.89-18.87-17.24-17.81-7.32 0.75-11.74 9.56-12.96 16.02-0.85 4.51 0 9.66 1.69 13.92 1.11 2.79 2.56 5.73 4.34 8.15 2.64 3.58 7.08 5.61 13.12 6.05z"/>
     <path class="st2" d="m182.07 106.15c-1.18 7.47 0.92 15.52 5.95 21.26 5.48 6.25 13.81 9.54 21.19 4.35 5.78-4.06 8.66-12.17 5.33-18.78-5.86-11.63-20.8-11.6-32.47-6.83z"/>
     <path class="st2" d="m182.7 105.17c8.98 0.02 18.43 1.57 26.69-3.06 6.57-3.68 10.87-12.1 8.5-19.67-2.46-7.86-12.8-10.05-19.59-7.07-4.33 1.9-9.1 4.85-11.78 8.84-3.24 4.86-6.19 13.98-3.82 20.96z"/>
    </g>
    <rect class="st3" x="576.35" y="298.39" width="9.55" height="71.45" fill="#666"/>
    <path class="st4" d="m593.1 343.4c-0.07-2.82-3.1-5.09-6.81-5.09h-9.93c-3.72 0-6.75 2.26-6.81 5.09l-1.81 76.54c-0.07 2.9 3 5.27 6.81 5.27h13.55c3.81 0 6.88-2.38 6.81-5.27-0.06-2.62 0.41-5.58-0.25-8.13-0.91-3.47-5.3-4.24-8.54-6.19-2.34-1.41-3.99-3.13-4.26-5.35-0.14-1.16 0.69-2.46 0.53-3.51-0.16-1.11-1.36-2.33-1.71-3.48-0.44-1.46-0.57-3.06-0.42-4.58 0.38-3.88 3.85-6.44 6.98-9.28 2.88-2.61 4.15-4.97 4.28-8.44 0.13-3.31-2.75-3.43-4.82-5.68-1.24-1.35-0.55-2.96 0.95-4 1.33-0.93 3.93-0.69 5.15-1.74 1.66-1.43 0.55-5.08 0.51-6.86-0.06-3.11-0.13-6.21-0.21-9.3z" clip-path="url(#XMLID_3_)" fill="#a02b31"/>
    <path class="st3" d="m581.89 324.29c9.27 0 35.54-4.89 34.51-23.7-1.03-18.8-26.27-61.3-35.03-61.3s-34 42.5-35.03 61.3 25.24 23.7 34.51 23.7" fill="#666"/>
    <path class="st5" d="m175.82 203.35h-67.52c-4.83 0-8.61 4.16-8.14 8.97l6.34 65.19c0.41 4.19 3.93 7.39 8.14 7.39h54.84c4.21 0 7.73-3.2 8.14-7.39l6.34-65.19c0.47-4.81-3.31-8.97-8.14-8.97z" fill="#c66b44"/>
    <circle class="st6" cx="177.42" cy="103.7" r="10.49" fill="#f5aa3b" stroke="#bb272d" stroke-miterlimit="10"/>
   </g>
  </g>
  <g transform="matrix(.61737 0 0 .61737 -217.12 -140.51)">
   <g transform="matrix(-.10421 0 0 .064662 450.47 370.21)" fill="#f00">
    <path transform="matrix(-.8363 0 0 1.3478 1237 -1297.7)" d="m1038 875.46c-2.8833-0.0433-5.9737 0.2025-9.2793 0.79688-17.04 3.06-31.839 18.371-25.719 57.561 0 0-2.4499-2.4511-3.6699-6.1211 0 0-15.921 34.28-18.371 52.65s11.022 47.75 39.182 63.67c23.625 13.356 25.893 32.856 26.014 55.414-1.7557 0.2262-3.451 0.5183-5.0898 0.8789-14.624 1.6634-43.288 5.2368-47.936 8.1973-6.28 4-65.68 85.67-65.68 85.67l-28.963-65.555c5.5296-3.6407 11.769-8.359 12.604-11.686 1.52-6.1-8.1296-24.39-6.5996-35.82 0.0599-0.4504 0.11596-0.7851 0.17578-1.2227a19.31 19.31 0 0 0 12.725-18.127 19.31 19.31 0 0 0-19.311-19.309 19.31 19.31 0 0 0-19.311 19.309 19.31 19.31 0 0 0 6e-3 0.1113l-19.506 13.459c-2.8258 1.9485-4.2826 4.1385-4.7754 6.416a19.31 19.31 0 0 0-18.934-15.535 19.31 19.31 0 0 0-13.609 5.6231 17.67 17.67 0 0 0 0.0391-0.793 17.67 17.67 0 0 0-17.67-17.67 17.67 17.67 0 0 0-17.67 17.67 17.67 17.67 0 0 0 12.301 16.828h-0.0117s0.56055 22.469 2.8106 27.809c1.9082 4.5202 24.438 7.2876 31.566 8.0644 0.78125 2.1582 1.6116 4.2993 2.5332 6.3965 0.88 1.99 2.0291 5.5192 4.1191 6.6192 3.9427 2.0734 25.787 3.9084 34.004 4.539 8.6024 24.339 38.586 107.21 48.338 107.7 6.3397 0.3155 35.766-31.67 59.178-58.354-13.761 44.593-28.443 99.827-31.719 123.61-0.87908 6.4112-1.845 25.348 4.6309 45.184 1.8748 31.452 7.0996 94.457 7.0996 94.457l-46.531-3.0293c-2.3535-4.5751-10.639-19.794-18.209-22.611-8.93-3.32-22.209-0.2097-24.699 3.3203s-3.1101 18.68-11.83 24.5c-8.72 5.81-23.25 6.0195-23.25 6.0195s14.739-2.4897 19.719-7.6797c0 0-0.82907-9.76-10.789-11-9.96-1.25-14.531 6.4395-14.531 6.4395 0 0 3.1114 1.4515 3.9414 6.0215 0 0-10.59-9.7611-22.01 0.209-11.42 9.9599-3.1103 29.48 8.9297 30.1s13.91-8.2989 13.91-8.2989 1.0399 2.7006 0.41992 5.8106c0 0 27.4 0.6199 37.99-0.8301 9.2445-1.2658 28.915-8.6662 34.008-10.617 16.327 5.9436 78.226 28.043 83.371 23.297 4.241-3.9121 9.8036-55.84 12.656-85.322 18.198 4.941 44.119-4.5758 60.107-12.459 1.2183 0.9509 2.3244 1.7983 3.0391 2.3477 16.298 12.524 39.603 20.084 64.988 22.822 6.5252 0.7042 13.118 1.1119 19.73 1.2812-0.092 1.7578-0.1815 3.3334-0.2715 4.9414-6.4608 13.782-22.506 48.274-22.32 50.668 0.19 2.48 2.8204 2.4697 7.6503 5.0098 4.8301 2.5399 2.5394 4.171 6.1094 8.541 3.57 4.36 15.352 6.5 15.352 6.5-1.02-6.54 2.6484-10.35 2.6484-10.35-0.43 15.9 9.22 18.308 16.25 18.559 7.03 0.2499 16.491-5.1492 15.641-16.869-0.8499-11.72-12.07-15.93-12.07-15.93s12.9 0.4886 16.18 9.0586c3.28 8.58 1.0215 15.541 1.0215 15.541s7.5288 0.19 12.799-2.83 7.8912-12.351 1.7012-20.221c-6.19-7.8701-15.59-5.8086-15.59-5.8086 2.57-2 12.38-4.7812 18.83 2.5488s4.209 18.711 4.209 18.711c3.46 1.2 14.071 2.329 16.721-9.041 2.66-11.36-4.6215-22.81-12.852-22.57-8.24 0.25-11.359 5.8906-11.359 5.8906s-13.839-2.6098-22.539-8.0898c-8.1112-5.1092-12.502-24.12-13.066-26.699 0.2532-2.3973 0.4985-4.7285 0.834-8.0293 4.7493-0.2734 9.4821-0.6324 14.18-1.0723 161.54-15.136 80.486-95.076 110.37-129.46 29.87-34.383 75.38-29.397 87.959-27.936 12.579 1.4765 12.651-11.745-20.148-14.816-32.799-3.0496-101.82 13.867-112.66 61.762-6.4315 28.388-22.167 68.443-75.932 70.113 1.7189-22.212 2.6731-42.96 0.4883-45.363-3.5853-3.9446-66.272 6.7834-99.608 12.81-0.1407-3.7553-0.3833-7.1051-0.7031-9.6406-5.44-43.04-0.2094-90.03 9.3106-132.19 2.15-9.52 2.7297-14.341 5.9296-23.521 1.5808-4.5244 3.1364-9.0567 4.711-13.582 18.15 24.809 59.649 80.934 63.799 80.934 4.8167 0 70.598-26.792 82.826-31.787 9.2494 8.9143 26.023 9.6465 26.023 9.6465l0.8516-38.391c-7.3-2.6-13.941-0.6504-13.941-0.6504 5.61-6.78 13.791-4.4395 13.791-4.4395l0.5527 0.2696a14.88 14.88 0 0 0-0.2226 2.4609 14.88 14.88 0 0 0 14.879 14.881 14.88 14.88 0 0 0 14.881-14.881 14.88 14.88 0 0 0-14.881-14.881 14.88 14.88 0 0 0-5.5957 1.1036c-20.707-20.484-42.436-1.6627-41.814 19.418-19.105 6.2721-69.409 22.36-73.228 19.02-4.71-4.12-29.461-60.591-39.461-77.061s-30-21.76-30-21.76c-3.4273-0.6225-5.9531-2.3665-7.8125-4.373 0.073-2.4019 0.1431-4.699 0.4629-6.2871 1.65-8.2 4.2289-16.42 7.6289-24.07-19.49-2.32-32.039-15.199-32.039-15.199 35.35 14.2 68.71 7.2702 83.25 0.9902 14.53-6.28 31.38-57.811 29.4-67.391-1.8-8.74-17.64-22.429-22.91-31.289 0 0 4.1789-7.2903 2.6289-19.57s-5.8691-16.82-5.8691-16.82c6.1-35.3-19.77-42-19.77-42 7.27 10.24 7.5996 22.789 7.5996 22.789s-9.9102-23.128-28.41-29.068-48.891-4.6211-48.891-4.6211c7.93 7.93 8.5898 25.439 8.5898 25.439s-8.6793-27.398-36.551-27.816zm10.482 45.342c1.547-0.0116 3.2038 0.21195 4.9785 0.70508 25.99 7.22 21.66 43.32 21.66 43.32-40.43 23.1-46.199-10.109-46.209-10.109 0-11.772 4.6154-33.804 19.57-33.916zm99.346 11.238c0.7183 0.0122 1.4724 0.10883 2.2637 0.30664 5.13 1.28 7.99 15.131 7.33 17.531 0.18 7.5-3.1093 16.818-3.1093 16.818s-15.71-10.709-17.42-24.719c0.4441-2.2022 3.9923-10.055 10.936-9.9375zm13.463 49.518c1.43 0.05 2.7898 0.32945 4.0898 0.93945 0.66 0.26 1.2399 0.70008 1.8399 1.0801 0.53 0.48 1.1015 0.91094 1.5215 1.4609 0.93 1.05 1.5697 2.26 2.0097 3.5 0.87 2.47 0.9491 5.0785 0.2891 7.4785-0.86-2.31-1.7185-4.4402-2.8985-6.2402-0.58-0.89-1.2016-1.7094-1.9316-2.3594-0.7-0.69-1.4896-1.2001-2.3496-1.5801l-0.6504-0.27929c-0.22-0.1-0.4692-0.14094-0.6992-0.21094-0.47-0.19-0.9304-0.20859-1.4004-0.30859-0.93-0.08-1.8603-0.0408-2.8203 0.19922-1.92 0.48999-3.8192 1.7792-5.6192 3.4492 0.49-2.44 2.0198-4.7789 4.5098-6.1289 1.23-0.66 2.6794-0.99 4.1094-1zm-49.228 0.01c1.43 0.01 2.8693 0.34 4.1093 1 2.49 1.34 4.0198 3.6789 4.5098 6.1289-1.8-1.66-3.6991-2.9592-5.6191-3.4492-0.96-0.25-1.8903-0.28922-2.8203-0.19922-0.47 0.1-0.9304 0.1286-1.4004 0.3086-0.23 0.08-0.4793 0.11093-0.6993 0.21093l-0.6503 0.2793c-0.86 0.38-1.6497 0.89008-2.3497 1.5801-0.73 0.65-1.3416 1.4713-1.9316 2.3613-1.17 1.8-2.0384 3.9283-2.8984 6.2383-0.67-2.4-0.581-5.0085 0.289-7.4785 0.44-1.23 1.0798-2.45 2.0098-3.5 0.42-0.55 0.9895-0.98094 1.5195-1.4609 0.6-0.38 1.1799-0.82007 1.8399-1.0801 1.3-0.61 2.6618-0.88946 4.0918-0.93946zm49.498 10.359c0.5643-0.0381 1.1874 0.15617 1.8418 0.66992 0.91 2.14 1.2496 5.301-1.1504 6.541-1.05 0.54-1.981 0.46-2.791-0.5-1.7144-1.9988-0.3458-6.5458 2.0996-6.7109zm-49.768 6e-3c2.4455 0.16009 3.814 4.708 2.0996 6.7148-0.81 0.95-1.741 1.04-2.791 0.5-2.4-1.24-2.0604-4.401-1.1504-6.541 0.6544-0.51563 1.2775-0.71078 1.8418-0.67383zm-62.352 22.465c1.15 0.04 1.9995 0.4096 3.0195 1.0196-0.79 0.9-1.7589 1.351-2.3789 1.791-0.57 0.38-0.7901 0.6483-1.0801 0.9883 1.71 1.5 15.759 13.381 34.109 14.531 19.59 1.22 26.32-4.9004 42.24-4.9004 11.65 0 23.94 6.8706 35.24 2.6406 3.33-1.24 5.4794-3.4297 8.1894-5.5097 0.6 9.84-9.2105 18.119-16.81 22.379-3.44 1.92-6.6997 4.11-10.43 5.5-3.25 1.2-6.5597 0.9807-9.9297 1.4707-6.86 1-13.609 1.2089-20.529 0.6289-4.24-0.35-8.5105-0.29-12.73-0.75-14.56-1.59-27.899-8.71-38.109-19.25-3.22-3.32-6.1107-6.9985-8.4708-10.978-0.4099-0.68-3.2696-4.8299-2.8496-5.6699-0.01 0.02-0.031 0.038-0.051 0.059-0.38 0.4599-0.7888 0.9803-1.2188 1.5703-0.44 0.61-0.8812 1.3693-1.5312 2.3593-0.86-0.81-1.2598-1.8888-1.2598-3.0488 0.02-1.16 0.4407-2.3102 1.2207-3.2402 0.4-0.47 0.9291-0.9192 1.5391-1.1992s1.2603-0.4007 1.8203-0.3907zm-262.05 32.982c-9.4326-0.1927-17.03 7.098-16.055 16.998 1.3 13.2 11.9 15.25 11.9 15.25s-0.38172 17.109 0.73828 21.199 12.461 5.3906 12.461 5.3906l-1.3008-15.81c-7.81-3.35-14.139-14.69-12.639-25.1 1.49-10.41 14.689-15.061 14.689-15.061-3.3025-1.9075-6.6507-2.8029-9.7949-2.8671zm28.941 36.611a19.31 19.31 0 0 0-0.0762 1.5351 19.31 19.31 0 0 0 0.0664 1.5176l-1.7891-1.6015a17.67 17.67 0 0 0 1.7988-1.4512zm38.479 2.7949c1.8097 5.8318 8.0138 11.546 12.645 14.791 4.41 3.09 7.2606 6.6998 6.8906 12.26-0.672-0.6456-1.4991-1.2351-2.4141-1.7715-7.5809-6.1355-19.115-4.8379-19.115-4.8379l-4.3125-7.3945a19.31 19.31 0 0 0 6.3066-13.047zm220.29 37.289c0.3229-0.016 0.6125-0.01 0.8691 0.022 7.81 0.8899 19.341 17.721 0.1113 83.641s-7.5497 116.35-18.43 139.56c-10.87 23.21-62.811 37.62-50.381-63.07 16.788-136.02 57.818-159.66 67.83-160.15zm244.99 41.973c-5.2062 0.095-10.914 2.1503-14.354 3.4903 0 0-8.6007-3.061-11.471 2.289 0 0 17.779 3.6307 13.959 21.221 0 0 1.3415 1.9095 2.1015 3.4395 0 0 4.3991-2.4896 12.039-2.0996 0 0-8.0293 1.5296-11.279 5.3496 0 0 2.2898 2.6797 1.3398 5.9297 0 0-1.9096-4.5892-5.9296-6.1192 0 0-6.5809 10.9-17.631 8.9903 0 0-2.2504 6.689 6.3496 12.039s13.962-1.3402 15.682-5.7402c0 0-0.3808 11.09-10.131 10.9s-11.891-6.6895-11.891-6.6895-7.2196 2.289-6.2696 10.709c0.96 8.41 7.5203 11.871 12.24 12.811 7.64 1.53 13.76-5.9297 13.76-5.9297s12.13 5.1594 17.67 0.1894c5.5401-4.97 8.3111-14.149-1.6289-17.779 0 0 10.24-2.1015 9.8497-11.852-0.38-9.75-9.9415-13.568-9.9415-13.568s9.7509-6.3105 6.8809-19.31c-1.435-6.5-6.1394-8.3646-11.346-8.2696zm6.082 105.17c-10.546 3.6802-20.818 10.708-29.857 22.721-25.338 33.686 48.702 108.79-105.02 123.2-4.0882 0.3833-8.2268 0.7016-12.393 0.9532 0.4926-4.9611 0.996-10.119 1.5254-15.926 52.361-1.0968 99.459-24.177 101.83-71.703 2.5589-51.389 43.92-59.248 43.92-59.248zm-175.08 100.93c0.3176-0.01 0.5481 0.015 0.6855 0.061 0.8896 0.2971 1.3868 3.5096 1.6329 8.3164-1.7084-0.2421-3.3787-0.5123-4.9707-0.8203-5.3081-1.0296-10.047-2.7507-14.936-4.2696 8.7916-1.9593 15.352-3.2461 17.588-3.2871zm-43.455 9.3867c3.0151 2.8658 7.8186 5.5692 10.551 7.1778 9.9748 5.8713 22.124 9.8628 35.246 11.894-0.1576 5.9685-0.412 12.109-0.6914 17.977-18.607-0.4982-36.957-2.9851-53.293-8.7168-9.8409-3.4502-18.605-8.0055-25.852-13.385-0.4627-0.3435-1.2893-1.1833-2.2461-2.1816 4.548-2.5498 7.4721-4.5719 7.7558-5.2324 0.072-0.1694 0.1408-0.3541 0.211-0.5313 8.9631-2.2568 18.755-4.6773 28.318-7.002zm-249.65 59.318c-1.4309 0.01-3.1068 0.5428-5.0293 1.9453 0 0 5.8106 3.9389 6.6406 9.5489 0 0 3.5295-2.4897 4.7695-6.8497 8e-3 0-2.088-4.674-6.3809-4.6445z" fill="#f00" stroke-width=".94192"/>
   </g>
   <g transform="matrix(.087149 0 0 .087149 383.17 357.81)">
    <path class="st1" d="m141.02 213.87s-6.01-69.9 31.94-106.73" fill="none" stroke="#68b72e" stroke-miterlimit="10" stroke-width="4"/>
    <path class="st0" d="m145.13 160.88c-0.7-2.01-0.36-4.2-1.23-6.25-1.8-4.22-5.41-6.64-9.79-7.58-7.06-1.5-14.02-0.3-20.28-4.37-3.38 7.73-2.09 16.45 3.55 22.71 3.62 4.02 7.67 5.22 12.91 5.25 6.24 0.03 10.31-3.48 14.84-9.76z" fill="#68b72e"/>
    <path class="st0" d="m145.46 161.04c5.01-3.61 12.72-3.22 18.15-1.04 5.23 2.11 8.15 6.22 11.85 10.22 2.09 2.25 4.21 4.32 7.18 5.34 1.77 0.61 3.62 0.43 5.39 0.9-5.98 6.18-15.14 8.77-23.76 8.63-4.62-0.08-9.26-1.56-13-4.37-5.05-3.81-6.66-10.71-7.01-13.37-0.32-2.31 0.38-4.66 1.2-6.31z" fill="#68b72e"/>
    <g fill="#bb272d">
     <path class="st2" d="m170.9 106.54c-3.63 0.69-6.49 1.1-9.77 3.1-3.66 2.23-6.32 4.43-9.02 7.79-4.91 6.13-5.42 16.54-0.38 22.81 5.16 6.42 15.62 6.85 21.51 1.2 10.6-10.16 12.87-25.45 5.55-38.36"/>
     <path class="st2" d="m174.76 97.68c-2.43-6.34-6.69-12.13-12.7-15.66-9.89-5.82-24.81-4.98-31.08 5.72-5.77 9.84-2.63 21.77 8.55 25.71 11.81 4.16 26.12-2.1 34.27-10.77"/>
     <path class="st2" d="m180.03 99.48c2.95-1.39 5.7-5.5 7.28-8.24 3-5.18 4.13-12.18 3.77-18.09-0.56-9.31-6.89-18.87-17.24-17.81-7.32 0.75-11.74 9.56-12.96 16.02-0.85 4.51 0 9.66 1.69 13.92 1.11 2.79 2.56 5.73 4.34 8.15 2.64 3.58 7.08 5.61 13.12 6.05z"/>
     <path class="st2" d="m182.07 106.15c-1.18 7.47 0.92 15.52 5.95 21.26 5.48 6.25 13.81 9.54 21.19 4.35 5.78-4.06 8.66-12.17 5.33-18.78-5.86-11.63-20.8-11.6-32.47-6.83z"/>
     <path class="st2" d="m182.7 105.17c8.98 0.02 18.43 1.57 26.69-3.06 6.57-3.68 10.87-12.1 8.5-19.67-2.46-7.86-12.8-10.05-19.59-7.07-4.33 1.9-9.1 4.85-11.78 8.84-3.24 4.86-6.19 13.98-3.82 20.96z"/>
    </g>
    <rect class="st3" x="576.35" y="298.39" width="9.55" height="71.45" fill="#666"/>
    <path class="st4" d="m593.1 343.4c-0.07-2.82-3.1-5.09-6.81-5.09h-9.93c-3.72 0-6.75 2.26-6.81 5.09l-1.81 76.54c-0.07 2.9 3 5.27 6.81 5.27h13.55c3.81 0 6.88-2.38 6.81-5.27-0.06-2.62 0.41-5.58-0.25-8.13-0.91-3.47-5.3-4.24-8.54-6.19-2.34-1.41-3.99-3.13-4.26-5.35-0.14-1.16 0.69-2.46 0.53-3.51-0.16-1.11-1.36-2.33-1.71-3.48-0.44-1.46-0.57-3.06-0.42-4.58 0.38-3.88 3.85-6.44 6.98-9.28 2.88-2.61 4.15-4.97 4.28-8.44 0.13-3.31-2.75-3.43-4.82-5.68-1.24-1.35-0.55-2.96 0.95-4 1.33-0.93 3.93-0.69 5.15-1.74 1.66-1.43 0.55-5.08 0.51-6.86-0.06-3.11-0.13-6.21-0.21-9.3z" clip-path="url(#XMLID_3_)" fill="#a02b31"/>
    <path class="st3" d="m581.89 324.29c9.27 0 35.54-4.89 34.51-23.7-1.03-18.8-26.27-61.3-35.03-61.3s-34 42.5-35.03 61.3 25.24 23.7 34.51 23.7" fill="#666"/>
    <path class="st5" d="m175.82 203.35h-67.52c-4.83 0-8.61 4.16-8.14 8.97l6.34 65.19c0.41 4.19 3.93 7.39 8.14 7.39h54.84c4.21 0 7.73-3.2 8.14-7.39l6.34-65.19c0.47-4.81-3.31-8.97-8.14-8.97z" fill="#c66b44"/>
    <circle class="st6" cx="177.42" cy="103.7" r="10.49" fill="#f5aa3b" stroke="#bb272d" stroke-miterlimit="10"/>
   </g>
  </g>
 </g>
</svg>
