<?xml version="1.0" encoding="UTF-8" standalone="no"?>
<svg
   xmlns:dc="http://purl.org/dc/elements/1.1/"
   xmlns:cc="http://creativecommons.org/ns#"
   xmlns:rdf="http://www.w3.org/1999/02/22-rdf-syntax-ns#"
   xmlns:svg="http://www.w3.org/2000/svg"
   xmlns="http://www.w3.org/2000/svg"
   xmlns:sodipodi="http://sodipodi.sourceforge.net/DTD/sodipodi-0.dtd"
   xmlns:inkscape="http://www.inkscape.org/namespaces/inkscape"
   width="164.453"
   height="43"
   viewBox="0 0 164.453 43"
   version="1.1"
   id="svg1005"
   sodipodi:docname="cpg-business-logo.svg"
   inkscape:version="0.92.3 (2405546, 2018-03-11)">
  <metadata
     id="metadata1009">
    <rdf:RDF>
      <cc:Work
         rdf:about="">
        <dc:format>image/svg+xml</dc:format>
        <dc:type
           rdf:resource="http://purl.org/dc/dcmitype/StillImage" />
        <dc:title></dc:title>
      </cc:Work>
    </rdf:RDF>
  </metadata>
  <sodipodi:namedview
     pagecolor="#ffffff"
     bordercolor="#666666"
     borderopacity="1"
     objecttolerance="10"
     gridtolerance="10"
     guidetolerance="10"
     inkscape:pageopacity="0"
     inkscape:pageshadow="2"
     inkscape:window-width="1853"
     inkscape:window-height="1025"
     id="namedview1007"
     showgrid="false"
     inkscape:zoom="2.4687904"
     inkscape:cx="10.126415"
     inkscape:cy="14"
     inkscape:window-x="67"
     inkscape:window-y="27"
     inkscape:window-maximized="1"
     inkscape:current-layer="svg1005" />
  <defs
     id="defs971">
    <style
       id="style969">.a{fill:#a435f0;}</style>
  </defs>
  <g
     id="g1740"
     transform="matrix(0.86173033,0,0,0.86173033,-1.7719047,1.167839)">
    <g
       style="fill:#012c2a;fill-opacity:0.94509804"
       transform="matrix(0.1492071,0,0,-0.1492071,2.0562183,39.285719)"
       id="g4410">
      <path
         inkscape:connector-curvature="0"
         id="path3068"
         style="fill:#012c2a;fill-opacity:0.94509804;fill-rule:nonzero;stroke:none;stroke-width:0.10006127"
         d="m 991.19631,12.342593 h -1.84113 l 0.14009,32.68301 -15.91975,9.546846 -38.88681,-6.82618 -0.78948,-0.150092 -0.41826,0.690423 -8.94952,13.097019 -7.29746,-14.571922 -0.78448,-1.565959 -1.1337,1.326813 -23.0281,26.288095 -15.70561,-29.377987 -8.02292,29.574107 -3.78631,-22.808965 -0.28518,-1.672024 -1.44989,0.857525 -18.71545,11.088789 -14.54191,-8.619277 4.02347,-39.560221 h -2.79572 l -4.48074,40.563835 17.968,9.771983 16.27997,-9.237655 c 0.58135,-0.330203 1.28078,-0.352216 1.88115,-0.06004 0.60037,0.291178 1.01862,0.856524 1.12569,1.521932 l 4.42571,27.398776 7.29447,-29.330959 c 0.20612,-0.825506 0.89454,-1.438881 1.73106,-1.540944 0.83451,-0.102062 1.649,0.3262 2.04325,1.078661 l 12.5807,24.002696 22.09453,-25.377538 c 0.44427,-0.509312 1.10667,-0.766469 1.77608,-0.681417 0.66841,0.08105 1.25077,0.4903 1.55896,1.09467 l 6.96326,13.587319 9.71199,-14.38881 c 0.44927,-0.665407 1.24076,-1.004615 2.02724,-0.868532 l 37.83616,6.530999 17.37064,-10.562467 z m -402.36739,0 h -7.04832 c 2.89377,3.094895 4.57981,6.77815 4.57981,10.734572 0,14.590934 -12.0804,18.577374 -28.00115,18.577374 -14.0416,0 -25.78178,-4.103512 -28.88368,-14.201695 1.06365,1.330815 2.36945,2.56357 3.90739,3.665244 4.39269,3.145926 10.19024,4.879988 16.32199,4.879988 6.13176,0 11.92731,-1.734062 16.322,-4.879988 4.65885,-3.337043 7.22342,-7.859812 7.22342,-12.732795 0,-2.08928 -0.4813,-4.113519 -1.41787,-6.0427 h -2.89577 c 1.13369,1.849132 1.76808,3.891382 1.76808,6.0427 0,8.307086 -9.40176,15.041209 -20.99986,15.041209 -11.5981,0 -21.00086,-6.734123 -21.00086,-15.041209 0,-2.151318 0.63439,-4.193568 1.76909,-6.0427 h -6.02169 c -2.54456,4.370676 -1.3108,12.708781 -0.3252,16.786277 1.55896,6.437942 6.58103,11.30092 13.40721,14.377803 5.60243,2.524546 12.60972,3.80433 20.82575,3.80433 9.85504,0 17.27958,-1.481908 22.6969,-4.532776 7.13337,-4.014458 10.90367,-10.82863 10.90367,-19.701062 0,-3.762303 -1.07465,-7.405534 -3.13091,-10.734572 z m -14.81107,194.914347 0.59036,0.72944 0.45928,-0.86253 v -3.91339 h -1.24776 z m 3.18495,-0.10007 -0.1651,-3.94641 h -1.31181 l 0.17911,3.94641 0.70544,0.82951 z m -1.06766,4.0785 1.06766,-1.29279 -1.2978,-1.39185 -1.29679,1.39185 z m -0.44427,6.00368 1.06465,1.02763 0.44728,-0.99461 v -4.04548 h -2.13531 c 0,0.19812 0.62338,4.01246 0.62338,4.01246 z m 0.49431,9.41776 0.75446,1.02863 0.68041,-1.16071 -0.12307,-4.37768 -1.60899,0.19912 z m 0.75446,8.95449 0.68041,0.96158 0.27217,-1.02763 0.1641,-4.01345 h -1.11668 z m 1.27978,-18.57138 0.80549,1.09367 0.8045,-1.09367 0.13108,-3.81333 h -1.90417 c -0.033,0.033 0.1631,3.81333 0.1631,3.81333 z m 0.23014,9.75098 0.69042,0.89454 0.68943,-1.06165 v -4.2446 h -1.60999 z m 0.29518,8.95348 0.42726,0.8285 0.49231,-0.9946 v -3.88038 h -1.05065 z m 0.066,-28.52147 v -4.01245 h -1.19073 l 0.20613,4.04648 0.52532,0.72944 z m 1.37885,2.66964 -1.18373,-1.34182 -1.17972,1.34182 1.17972,1.34282 z m 0.41925,-6.68209 -1.23976,0.1661 v 3.88038 l 0.46029,0.72944 0.62338,-0.79649 z m 0.69743,31.73743 0.36122,-1.16071 0.13108,-2.52054 -0.8195,0.26516 -0.13208,2.60359 z m 0.85352,-8.25706 0.3282,-4.54378 -1.37884,0.23214 v 4.60983 l 0.4923,0.96159 z m 0.55734,-9.61788 0.13209,-4.11252 h -1.74007 c 0.13108,0.0991 0,4.2456 0,4.2456 l 0.68942,1.06065 z m 0.78949,-7.1804 -1.14971,-1.17672 -0.88654,1.17672 c 0,0.05 0.72244,1.34282 0.72244,1.34282 z m -0.033,17.32761 0.88554,-5.07311 -0.75446,0.23214 -0.26316,4.27762 z M 252.77516,206.28534 c -4.56079,1.03864 -8.59726,1.26678 -10.9457,1.29279 v 12.98095 l 10.9457,-12.03137 z m 0,-4.45573 c -4.0945,1.45289 -7.5166,3.32404 -9.73696,4.69187 2.43449,-0.089 5.90762,-0.39624 9.73696,-1.28878 z m 0,-7.88583 c -4.56079,1.03864 -8.59726,1.26678 -10.9457,1.2928 v 10.82762 c 2.26439,-1.44688 6.15777,-3.66824 10.9457,-5.32325 z m 0,-4.45572 c -4.0945,1.45289 -7.5166,3.32403 -9.73696,4.69087 2.43449,-0.0891 5.90762,-0.39624 9.73696,-1.28879 z m 0,-7.37152 c -4.56079,1.03764 -8.59726,1.26578 -10.9457,1.29279 v 10.31332 c 2.26439,-1.44689 6.15777,-3.66925 10.9457,-5.32426 z m 0,-4.45673 c -4.0945,1.45289 -7.5166,3.32404 -9.73696,4.69188 2.43449,-0.0891 5.90762,-0.39625 9.73696,-1.28879 z m 0,-7.88582 c -4.56079,1.03863 -8.59726,1.26677 -10.9457,1.29279 v 10.82763 c 2.26439,-1.44689 6.15777,-3.66825 10.9457,-5.32326 z m 0,-4.45573 c -4.0945,1.45289 -7.5166,3.32403 -9.73696,4.69187 2.43449,-0.0891 5.90762,-0.39724 9.73696,-1.28979 z m 0,-7.88583 c -4.56079,1.03763 -8.59726,1.26678 -10.9457,1.29179 v 10.82863 c 2.26439,-1.44689 6.15777,-3.66825 10.9457,-5.32426 z m 0,-4.45573 c -4.0945,1.45289 -7.5166,3.32304 -9.73696,4.69187 2.43449,-0.09 5.90762,-0.39724 9.73696,-1.28979 z m 0,-7.88683 c -4.56079,1.03864 -8.59726,1.26678 -10.9457,1.29279 v 10.82863 c 2.26439,-1.44688 6.15777,-3.66824 10.9457,-5.32426 z m 0,-4.45472 c -4.0945,1.45288 -7.5166,3.32303 -9.73696,4.69087 2.43449,-0.0891 5.90762,-0.39625 9.73696,-1.28779 z m 0,-7.37252 c -4.56079,1.03864 -8.59726,1.26678 -10.9457,1.29179 v 10.31532 c 2.26439,-1.44789 6.15777,-3.66925 10.9457,-5.32426 z m 0,-4.45573 c -4.0945,1.45289 -7.5166,3.32404 -9.73696,4.69088 2.43449,-0.0881 5.90762,-0.39525 9.73696,-1.28779 z m 0,-7.88683 c -4.56079,1.03964 -8.59726,1.26778 -10.9457,1.2938 v 10.82763 c 2.26439,-1.44789 6.15777,-3.66925 10.9457,-5.32426 z m 0,-4.45472 c -4.0945,1.45189 -7.5166,3.32303 -9.73696,4.69187 2.43449,-0.0901 5.90762,-0.39724 9.73696,-1.28979 z m 0,-7.88683 c -4.56079,1.03863 -8.59726,1.26677 -10.9457,1.29279 v 10.82863 c 2.26439,-1.44789 6.15777,-3.66925 10.9457,-5.32526 z m 0,-4.45673 c -4.0945,1.45289 -7.5166,3.32504 -9.73696,4.69187 2.43449,-0.0891 5.90762,-0.39624 9.73696,-1.28879 z m 0,-7.884831 c -4.56079,1.038636 -8.59726,1.265775 -10.9457,1.292792 v 10.827629 c 2.26439,-1.44688 6.15777,-3.66924 10.9457,-5.32426 z m 0,-4.456729 c -4.0945,1.45289 -7.5166,3.324036 -9.73696,4.691873 2.43449,-0.08805 5.90762,-0.396243 9.73696,-1.28979 z m 0,-7.885828 c -4.56079,1.039637 -8.59726,1.267776 -10.9457,1.292792 v 10.82863 c 2.26439,-1.446886 6.15777,-3.669247 10.9457,-5.32426 z m 0,-4.455729 c -4.0945,1.451889 -7.5166,3.325037 -9.73696,4.690873 2.43449,-0.08805 5.90762,-0.395242 9.73696,-1.288789 z m 0,-7.884827 c -4.56079,1.037635 -8.59726,1.264774 -10.9457,1.292791 v 10.82763 c 2.26439,-1.446885 6.15777,-3.669247 10.9457,-5.326262 z m 0,-4.45773 c -4.0945,1.451889 -7.5166,3.324035 -9.73696,4.692874 2.43449,-0.08906 5.90762,-0.397244 9.73696,-1.28979 z m 0,-7.258444 c -4.68286,1.013621 -8.76036,1.182724 -10.92969,1.182724 -0.002,0 -0.004,0 -0.007,0 -0.006,0.11407 -0.009,0.175108 -0.009,0.175108 V 71.33171 c 2.26439,-1.446886 6.15777,-3.669247 10.9457,-5.32426 z m 0,-4.384684 c -3.86736,1.424872 -7.10034,3.197958 -9.22765,4.50776 2.32643,-0.08505 5.60043,-0.370227 9.22765,-1.173719 z m 0,-7.956872 c -3.84435,0.83251 -7.27445,1.09467 -9.58086,1.162712 -0.79049,5.148152 -1.1377,9.123586 -1.27878,11.118807 2.10829,-1.378844 5.99767,-3.672248 10.85964,-5.418317 z m 0,-4.383684 c -3.86736,1.423872 -7.10034,3.195957 -9.22765,4.505759 2.32643,-0.08405 5.60043,-0.369226 9.22765,-1.172718 z m 0,-7.475577 c -2.86875,0.469287 -5.38029,0.635389 -7.17239,0.682418 -0.86152,3.604207 -1.52993,7.012293 -2.04725,10.090178 2.22536,-1.334818 5.42532,-3.029855 9.21964,-4.391689 z m 0,-3.846355 c -2.74067,1.188728 -5.04108,2.475516 -6.68209,3.485134 1.76708,-0.06404 4.0825,-0.24415 6.68209,-0.678416 z m 0,-13.106024 h -1.59797 c -2.10129,5.169165 -3.73429,10.399367 -5.00307,15.340392 1.69904,-1.016622 3.95442,-2.234368 6.60104,-3.355054 z M 87.493965,30.508715 c 3.156933,6.445947 6.996284,12.567695 11.483031,18.329223 L 104.60144,29.309981 H 86.924616 c 0.188116,0.400245 0.37423,0.80049 0.569349,1.198734 z m 27.134615,34.728263 c 0.24815,0.214131 0.50331,0.421258 0.75446,0.633388 l 11.37397,-30.601736 -3.25399,-5.958649 h -17.965 l -5.871602,20.394487 c 4.394692,5.527384 9.386752,10.718563 14.962162,15.53251 z m 19.74909,13.946539 6.69811,-17.699837 -13.74642,-25.167409 -11.21487,30.172473 c 5.66347,4.734899 11.7632,8.973495 18.26318,12.694773 z m 20.76672,9.626895 -0.41926,-0.1631 0.4903,-1.276782 -13.57131,-24.845212 -6.47496,17.108475 c 6.30386,3.549174 12.97194,6.620054 19.97523,9.176619 z m 1.06165,0.374229 -0.42426,-0.776475 -0.21213,0.553339 c 0.21213,0.07605 0.42426,0.14809 0.63639,0.223136 z m 19.58299,5.426323 1.48691,-3.652237 -11.73118,-27.949113 -9.33872,24.294876 1.27278,2.330427 c 5.97466,2.061262 12.0864,3.723279 18.31021,4.976047 z m 3.28001,0.62138 -1.2998,-3.096896 -1.07966,2.654625 c 0.79148,0.155095 1.58497,0.301185 2.37946,0.442271 z m 25.87884,2.255381 -0.42426,-0.150092 1.48291,-4.294629 -14.03259,-35.806925 -13.7234,33.717645 1.87214,4.45873 c 8.11497,1.376843 16.40705,2.075271 24.8252,2.075271 z m 2.78871,-0.02902 -1.22375,-3.122912 -1.08667,3.146927 c 0.77148,-0.003 1.54195,-0.01001 2.31042,-0.02401 z m 22.11354,-2.05826 1.56596,-5.279232 -11.15984,-35.569779 -13.28913,38.471555 1.72906,4.413703 c 7.15938,-0.176108 14.2207,-0.857525 21.15395,-2.036247 z m -1.82712,-66.090466 h -14.74203 l 7.0163,22.363693 z m -15.6846,0 H 203.3409 L 192.46724,56.025338 206.45981,91.7302 219.80298,53.106551 Z m -30.34058,0 9.99212,25.496611 10.37735,-25.496611 z m -3.50014,0 -12.48565,32.483889 11.74419,27.983134 13.74042,-33.75867 -10.46641,-26.708353 z m -24.28387,0 -0.87053,2.30241 12.16444,28.981744 12.02337,-31.284154 z m -1.83713,0 0.45929,1.094671 0.41425,-1.094671 z M 142.06438,61.412636 155.64069,86.266855 165.04145,61.808879 152.879,32.83614 Z m 9.33472,-32.102655 h -21.46715 l -2.18734,5.885604 13.75142,25.175414 10.87666,-28.741598 z m -26.86745,0 2.64061,4.838963 1.8001,-4.838963 z M 1194.8109,12.342593 c 19.472,8.527221 44.4172,39.360098 44.4172,39.360098 0,0 -34.1909,-19.86216 -47.8593,-39.360098 h -1.4809 v 0.562344 c 15.9698,19.61601 39.9645,37.374883 51.8818,41.391342 l -35.1816,7.786768 C 1174.3584,40.1206 1158.5587,20.22642 1153.3856,12.912942 h -0.6804 c 9.0855,18.072065 45.5078,50.411865 57.245,54.367287 l -36.1421,2.05826 c -29.8883,-12.866878 -48.1195,-45.516868 -53.5328,-56.425547 h -0.2101 c 16.6001,38.64366 47.5491,60.724179 59.5965,64.781663 h -38.9439 c -28.6575,-16.317991 -48.0994,-52.287013 -54.2032,-64.781663 h -0.3202 c 19.572,47.928345 49.7205,68.947215 61.7779,73.009702 l -42.6361,-3.085889 C 1074.6374,69.623664 1062.2998,25.817843 1059.278,12.912942 h -1.0407 c 2.2714,14.635961 13.3282,69.260406 52.8224,78.15185 l -50.2708,-9.256667 c -6.7642,-3.345049 -11.7872,-8.807394 -15.5095,-15.264347 -10.5965,-18.380253 -10.6565,-44.839453 -10.3464,-53.630836 h -0.2001 c -1.1307,9.126588 -3.8924,37.36988 9.6259,55.175782 l 1.1607,0.349214 -7.2544,-2.185338 c 0,0 -6.0337,-4.324648 -10.6465,-13.402206 -4.4528,-8.757362 -7.5747,-21.943435 -2.7017,-39.937452 h -0.7004 c -4.5728,13.453237 -3.3321,30.605739 0.9406,39.01989 l -6.7542,-2.521543 c 0,0 -7.8248,-10.472412 -2.5015,-36.498347 h -0.4603 c -3.222,8.928467 -3.0118,24.026711 -3.0118,24.026711 0,0 -16.37001,-5.7165 -7.9049,-24.59706 h -9.2556 v 34.665224 c 0,0.721442 -0.38023,1.389851 -0.9906,1.763079 L 975.27656,60.32397 c -0.42025,0.254156 -0.91055,0.349214 -1.39085,0.266163 l -37.29583,-6.436941 -10.89667,16.144885 c -0.40325,0.595364 -1.09171,0.937574 -1.80515,0.893547 -0.71244,-0.04303 -1.35783,-0.466286 -1.68603,-1.106678 L 915.04164,56.10939 892.96713,81.464915 c -0.44027,0.50631 -1.10468,0.762467 -1.76608,0.683418 -0.66241,-0.07805 -1.24977,-0.483296 -1.56296,-1.078661 l -11.47803,-21.90241 -8.40214,33.778682 c -0.23515,0.945579 -1.09667,1.594977 -2.06026,1.554952 -0.96359,-0.04203 -1.76809,-0.762467 -1.92418,-1.723055 l -5.54139,-34.311008 -14.71902,8.352114 c -0.60437,0.34421 -1.35082,0.351215 -1.9612,0.01801 L 823.38653,55.869242 c -0.73045,-0.398243 -1.14971,-1.206738 -1.05765,-2.039248 l 4.5818,-41.487401 h -11.00373 v 84.592794 h -41.66251 v 15.171293 h 1.10167 v 7.28546 h -2.96881 v 5.91362 h -3.81834 v 8.74235 h 1.18773 v 1.02863 h -2.96882 v 6.17078 l -2.63161,3.34305 -3.98644,21.42612 h -0.20213 v 4.4177 c 0.21713,0.20413 0.36122,0.55934 0.36122,0.96359 0,0.63439 -0.35221,1.1487 -0.78748,1.1487 -0.43627,0 -0.78748,-0.51431 -0.78748,-1.1487 0,-0.40825 0.14609,-0.76347 0.36622,-0.96859 v -4.4127 h -0.14008 l -4.32665,-21.42612 -2.54456,-3.34305 v -6.17078 h -2.96882 v -1.02863 h 1.01663 v -8.74235 h -3.56219 v -5.91362 h -3.13992 v -7.28546 h 1.18773 v -1.28579 h -4.96404 v 1.28579 h -1.65401 v 1.15771 h -1.59098 v 1.60698 h -1.39985 v 1.94919 h -1.623 v 1.52094 h -1.11368 v 1.54294 h -1.39886 v 1.73506 h 1.1437 v 1.88616 h -1.1437 v 1.52093 h -0.44527 v 2.89377 h -0.31919 v 0.85652 h 0.31919 v 0.6424 h -0.31919 v 1.77809 h -0.50732 v -1.77809 h -0.25515 v -0.6424 h 0.25515 v -0.85652 h -0.51031 v -2.89377 h -0.80949 l -4.53678,5.59342 -0.3182,2.50554 h -0.78548 v 2.67864 h 0.34021 v 1.02863 h -0.34021 v 1.45789 h -0.21213 v 0.0851 h -1.44188 v -1.45689 h -0.33921 v -1.02763 h 0.33921 v -2.67864 h -0.78448 l -0.31919,-2.50753 -4.53778,-5.59243 h -0.8075 v 2.89277 h -0.50831 v 0.85653 h 0.25416 v 0.64339 h -0.25416 v 1.77809 h -0.50931 v -1.77809 h -0.3192 v -0.64339 h 0.3192 v -0.85653 h -0.3192 v -2.89277 h -0.44427 v -1.52193 h -1.1457 v -1.88415 h 1.1457 v -1.73607 h -1.40086 v -1.54294 h -1.11368 v -1.52093 h -1.62199 v -1.9492 h -1.40086 v -1.60798 h -1.58997 v -1.15771 h -1.65602 v -1.28479 h -4.96303 v 1.28479 h 1.18872 v 7.28546 h -3.14092 v 5.91462 h -3.56118 v 8.74235 h 1.01662 v 1.02763 h -2.96982 v 6.17078 l -2.54555,3.34305 -4.32665,21.42712 h -0.13709 v 4.4137 c 0.21814,0.20413 0.36623,0.55934 0.36623,0.96659 0,0.63539 -0.35422,1.14971 -0.78849,1.14971 -0.43526,0 -0.78748,-0.51432 -0.78748,-1.14971 0,-0.40425 0.14309,-0.75846 0.36122,-0.96259 v -4.4177 h -0.20212 l -3.98944,-21.42712 -2.62861,-3.34305 v -6.17078 h -2.97082 v -1.02763 h 1.18773 v -8.74235 h -3.81834 v -5.91462 h -2.96882 v -7.28546 h 1.10368 v -11.82424 h -29.57111 v 6.29686 l 0.96959,0.30718 -1.77308,4.39369 -3.98844,16.31599 -0.10006,-0.014 v 4.36767 h 0.78848 v 0.39724 h -0.78848 v 1.86514 h -0.44228 v -1.86514 h -0.71443 v -0.39724 h 0.71443 v -4.43872 l -0.0981,-0.014 -4.23559,-16.6652 -1.13369,-3.23398 h -0.54133 v 2.9358 h -2.80672 l -0.39324,4.92501 0.9846,0.34822 -1.28078,3.03485 -4.92502,18.30521 h -0.12308 v 5.02508 h 0.83752 v 0.44727 h -0.83752 v 1.76608 h -0.51631 v -1.76608 h -0.83651 v -0.44727 h 0.83651 v -5.02508 h -0.049 l -4.18656,-14.52289 v 0.0981 h -0.29519 v 2.53655 h -2.80671 v 2.83474 h -0.73946 v 6.11874 h 0.39324 l -0.88554,2.9348 h -3.5952 l -0.59036,-2.9348 h 0.34521 v -3.19395 l -1.52794,-0.3212 v -2.1223 l -3.61121,2.06627 v 0.78448 h -1.37384 l -1.77709,1.01862 v 1.86715 h -2.88976 v 3.35105 h -0.85353 v 1.37084 l 1.37885,1.4809 0.3282,3.9124 -1.21475,0.79649 -0.42726,0.023 v 25.00031 l 0.39524,0.57735 0.98461,2.05726 0.6564,1.52593 0.066,3.64724 v 20.22938 l 0.6554,1.12769 -0.45828,0.39725 v 2.10729 l 0.015,1.19373 0.44327,0.39824 -1.13169,1.19273 -2.26539,14.32677 0.34421,0.39825 -0.34421,0.44727 -0.19712,2.38846 0.54133,0.44728 -0.64039,0.39824 -0.39324,3.48213 -0.24715,-3.53116 -0.54133,-0.29918 0.54133,-0.54834 -0.24515,-2.13731 -0.34521,-0.4983 0.34521,-0.44828 -1.57597,-9.00351 -1.87314,13.92953 v 0.59637 l -0.29418,0.39824 -0.14809,1.89016 0.44227,0.54733 -0.54033,0.54734 -0.29519,2.58658 -0.4933,-2.7817 -0.44227,-0.35222 0.28918,-0.50431 -0.38624,-2.18834 -0.59336,-0.34221 0.47929,-0.30018 -0.48129,-2.71566 -0.26516,-1.49592 -0.21714,1.49592 h 0.4823 v 1.27478 h -0.66941 l -0.47729,3.28301 h 0.45928 v 1.34382 h -0.6544 l -0.4793,3.28301 h 0.54434 v 1.29379 h -0.73145 l -0.47229,3.23298 h 0.51431 v 1.09367 h -0.67341 l -0.027,0.18812 1.38986,1.35383 2.26438,0.051 -1.88415,0.89454 -0.67642,4.32865 -0.39324,-1.19473 -0.59236,-0.05 v 2.18934 l -0.44327,-2.18934 -0.56034,0.006 -0.62539,4.32264 h 0.39825 v 1.39286 h -0.60137 l -0.43327,2.98482 h 0.34522 v 1.19273 h -0.51832 l -0.45428,3.13492 h 0.38123 v 1.29279 h -0.56935 l -0.40524,2.78571 h 0.3342 v 1.24476 h -0.51331 l -0.34722,2.38746 h 0.46729 v 1.09367 h -0.62638 l -0.53733,3.69727 h 0.24315 v 0.58135 h -0.27617 l -0.037,1.09467 h 0.44527 v 0.98561 h -0.47729 l -0.017,0.53933 h 0.4943 v 0.87853 h -0.52332 l -0.051,1.54195 h -0.50832 l -0.13108,-1.54195 h -0.44427 v -0.87853 h 0.36823 l -0.046,-0.53933 h -0.55234 v -0.98561 h 0.46929 l -0.0941,-1.09467 h -0.25916 v -0.58135 h 0.20013 l -0.60237,-3.69727 h -0.4853 v -1.09367 h 0.30919 l -0.38824,-2.38746 h -0.51131 v -1.24476 h 0.30819 l -0.45228,-2.78571 h -0.59436 v -1.29279 h 0.38423 l -0.50931,-3.13492 H 575.905 v -1.19273 h 0.22414 l -0.4853,-2.98482 h -0.47729 v -1.39286 h 0.25216 l -0.68843,-4.22959 -0.10506,0.001 -0.39424,0.84552 -0.44227,-0.94558 -0.39524,2.18934 -0.59037,-2.73567 -0.34421,-1.99022 -1.92217,-0.69643 h 1.82211 l 1.03464,-1.39285 1.05064,-0.24315 -0.12908,-0.70243 h -0.52632 v -1.09367 h 0.3232 l -0.59937,-3.23298 h -0.70944 v -1.29379 h 0.47029 l -0.60737,-3.28301 h -0.6514 v -1.34382 h 0.40325 l -0.60837,-3.28301 h -0.63239 v -1.27478 h 0.39624 l -0.83551,-4.50476 -0.052,0.20913 -0.24815,0.94357 v 0.34922 l -0.24515,0.4973 -0.19612,2.03925 0.44127,0.79549 -0.63839,0.44727 v 2.68765 l -0.34522,-2.73568 -0.64039,-0.34921 0.64039,-0.84552 -0.24615,-1.74006 -0.29518,-0.49831 v -0.4983 l -1.82211,-9.10258 -2.1173,13.92953 0.34321,0.49631 -0.24515,0.29818 -0.24615,2.09028 0.4913,0.34721 v 0.59737 l -0.4913,0.10006 -0.29518,2.23737 -0.34421,-2.13831 -0.59236,-0.29818 v -0.34822 l 0.59236,-0.4973 -0.24715,-1.94019 -0.4933,-0.54734 0.24715,-0.4963 -2.7747,-15.0232 -0.62338,-0.64839 0.4923,-0.49631 -0.39424,-3.28301 -0.39324,-0.44827 0.59036,-1.19373 0.3282,-0.0831 v -22.59984 -2.18934 l 0.59236,-1.65902 0.45928,-0.52932 v -0.92857 l 0.6554,-0.23114 v -27.09559 h -1.57596 v -4.2456 h 0.6574 v -2.98483 h 0.39324 v -2.73868 l -2.42849,-8.93447 h -2.9548 v -2.85174 l -0.54134,-2.6036 -6.02569,-0.18211 v -2.52054 l -2.49552,-3.18395 -0.72145,3.78032 -0.19712,3.84735 -0.13208,-3.84735 -0.45928,-3.78032 h -2.82373 l -0.19612,2.85175 h 0.52532 l -0.39424,2.58758 -2.56056,-0.26516 -0.85453,-1.85714 0.3292,-0.39824 -0.39524,-6.16778 -0.85252,4.70788 -0.52532,3.5822 -0.26216,5.83657 -0.39424,-6.03569 -0.59137,-3.71328 -0.72144,-3.84835 -0.85352,-2.98483 -0.9846,-2.25438 0.45828,-0.26516 v -1.19374 h -6.17178 v 1.4589 h -6.0417 v -1.4589 h -8.40415 V 106.7444 H 483.4564 v 25.93888 l 2.17733,1.43788 v 4.88699 l -2.17733,2.99583 -2.6206,-3.70527 -3.18695,7.06833 -5.26323,44.85246 -0.87353,1.39186 -0.18211,10.71856 -1.15671,-0.023 0.18111,-10.79961 -1.05365,-1.4719 -5.44533,-44.66835 -3.01084,-6.6961 -1.88916,3.33304 -2.54156,-2.99583 v -4.88699 l 1.634,-2.00423 V 106.7444 h -75.97951 v 16.13087 l -10.91869,15.31938 v 15.23833 h -1.15671 V 138.19465 L 359.08025,122.87527 V 71.949088 45.556929 c 1.65101,0.788482 3.31603,1.569961 5.01207,2.33543 23.43235,10.578476 45.31775,15.942761 65.04983,15.942761 34.70424,0 63.33377,-16.248949 85.08909,-48.292568 l 2.17333,-3.199959 h -6.79115 c -63.89112,94.107627 -168.76433,16.883337 -196.70444,0 h -4.64284 l -9.84203,6.341883 H 269.15119 V 198.75673 h 2.20635 v 1.71405 h -2.20635 v 9.51383 0.85752 3.08489 l -3.39408,2.82873 -8.6543,4.19957 -15.27335,2.96882 v 0.11607 h -0.008 l -0.94558,46.83968 h -0.50931 l -1.08267,-42.03974 1.27278,-1.92818 v -1.28479 l -0.9806,-1.58697 h -0.9916 V 61.195504 c 0,0 0.51231,-5.348275 1.62999,-12.553687 -0.02,-0.001 -0.033,-0.002 -0.033,-0.002 0,0 0.016,-0.01301 0.039,-0.02902 1.45989,-9.403757 3.95242,-21.955442 7.6867,-29.926322 h -35.01143 l -8.99351,-6.341883 H 80.708811 c 1.050643,3.995446 2.367449,7.935859 3.945415,11.817235 H 209.98897 l 0.9866,0.694425 h 1.92018 26.20204 c -0.42726,1.407862 -0.84252,2.893772 -1.24676,4.455728 h -9.35173 l 0.42426,0.151093 -8.173,23.659486 11.12481,35.454708 0.60037,-2.022238 v 3.162937 l -0.11808,0.397243 0.11808,0.375229 v 3.007842 l -0.57636,-1.837125 -1.06065,3.570186 c 0.54634,-0.09606 1.09167,-0.200122 1.63701,-0.303186 v 4.926016 c -8.87944,1.623999 -18.08808,2.483529 -27.52786,2.483529 -56.21342,0 -104.22181,-30.306564 -123.316504,-73.02572 L 79.487063,24.159828 C 78.008157,20.307469 76.761394,16.365056 75.760781,12.342593 L 0,3.6035157e-5 H 1275 L 1194.8109,12.342593" />
    </g>
    <path
       d="m 49.34449,36.903208 c 0.02956,-0.02657 0.05644,-0.05076 0.07958,-0.07166 -0.0218,0.01971 -0.04808,0.04315 -0.07958,0.07166"
       style="fill:#ffffff;fill-opacity:0;fill-rule:nonzero;stroke:none;stroke-width:0.01492985"
       id="path3070"
       inkscape:connector-curvature="0" />
    <path
       d="m 49.485577,36.776156 c 0.02896,-0.02613 0.033,-0.03001 0,0 v 0"
       style="fill:#ffffff;fill-opacity:0;fill-rule:nonzero;stroke:none;stroke-width:0.01492985"
       id="path3072"
       inkscape:connector-curvature="0" />
    <path
       d="m 48.744459,37.444118 c 0,0 0.0049,-0.0043 0.01344,-0.01194 -0.0046,0.004 -0.0088,0.0078 -0.01344,0.01194"
       style="fill:#ffffff;fill-opacity:0.94509804;fill-rule:nonzero;stroke:none;stroke-width:0.01492985"
       id="path3074"
       inkscape:connector-curvature="0" />
    <path
       d="m 47.385545,30.765996 c 1.141088,1.202149 2.071816,2.531056 2.775608,3.967606 0.02896,0.05942 0.05658,0.119141 0.0848,0.17886 h -3.577491 z m -0.536282,4.811293 0.160946,0.103612 h 2.814724 c 0.37668,-0.237982 0.78934,-0.496865 1.233653,-0.768439 h -0.02284 c -1.53912,-3.44357 -4.338319,-6.346082 -7.908643,-8.28771 v 0.82383 c 0.277247,0.157957 0.550016,0.322335 0.817559,0.492835 l -0.817559,3.662292 v 0.616304 l 0.938042,-4.201708 c 0.719619,0.46626 1.403258,0.977755 2.047332,1.533595 0.406688,0.351298 0.792326,0.716632 1.157509,1.094208 l -0.737684,4.266354 h -3.405199 v 0.664827 h 3.456111 0.266049"
       style="fill:#012c2a;fill-opacity:0.94509804;fill-rule:nonzero;stroke:none;stroke-width:0.01492985"
       id="path3076"
       inkscape:connector-curvature="0" />
    <path
       d="m 133.98077,26.778828 h -0.87174 l 0.28038,1.1281 z"
       style="fill:#012c2a;fill-opacity:0.94509804;fill-rule:nonzero;stroke:none;stroke-width:0.01492985"
       id="path3078"
       inkscape:connector-curvature="0" />
    <path
       d="m 124.7065,28.569216 h 5.10064 l 0.28934,-1.790388 h -5.38998 v 1.790388"
       style="fill:#012c2a;fill-opacity:0.94509804;fill-rule:nonzero;stroke:none;stroke-width:0.01492985"
       id="path3080"
       inkscape:connector-curvature="0" />
    <path
       d="m 163.16565,25.372287 h -2.56793 l -9.09378,-8.123184 -0.0105,-0.451925 z m -4.88953,0 -6.33324,-7.526437 8.4249,7.526437 z m -6.5975,0 -0.1687,-7.802639 6.56614,7.802639 z m -0.74947,-8.178424 -10.3346,8.178424 h -5.5551 l 15.90462,-8.51121 z m -0.37474,8.178424 h -7.9815 l 8.34579,-7.95149 z m -9.71336,0 8.9176,-7.056446 -7.4067,7.056446 z m -6.87879,0 15.21263,-7.737396 -14.45987,7.737396 z m -9.25576,0 v 0.613916 h 5.51778 l 0.0993,-0.613916 h -3.77427 l 24.41718,-8.977767 -0.007,0.160794 -17.33506,8.816973 h -0.86534 l 0.15289,0.613916 h 17.61453 l -0.0358,0.792625 h -14.28922 l 1.55868,1.790388 h 1.00225 l 0.0837,-0.163332 c 0.19573,-0.382354 0.58152,-0.635713 1.00672,-0.661543 0.0242,-0.0015 0.0484,-0.0022 0.0726,-0.0022 0.40236,0 0.77815,0.200358 1.00448,0.535983 l 0.19649,0.29113 h 8.67304 v 1.993883 l 1.08093,0.656614 c 0.36279,0.220664 0.58822,0.62377 0.58822,1.052107 l -0.0418,2.235894 0.94954,-1.168559 -0.14482,-4.769939 h 4.32669 l 0.0105,-0.0076 0.14331,-0.04345 0.94507,-0.284711 c 0.41505,-0.579428 0.88832,-1.065244 1.41535,-1.454615 h -7.36339 l -0.0164,-0.792626 h 9.49689 l 3.33384,-0.613916 h -1.09883 l -10.77937,-7.919391 12.95763,7.720525 0.8286,0.298298 -14.94179,-8.885501 -0.003,-0.157659 19.02958,8.809359 1.99462,0.754855 -21.02868,-9.734861 -0.16274,-7.561671 -0.34487,7.532259 -24.86866,9.143787 h -1.39877"
       style="fill:#012c2a;fill-opacity:0.94509804;fill-rule:nonzero;stroke:none;stroke-width:0.01492985"
       id="path3082"
       inkscape:connector-curvature="0" />
    <path
       d="m 14.762775,10.381223 c 0.342342,-0.0036 0.43013,-0.261868 0.648403,-0.389219 0.341894,0.134069 0.589133,0.362346 0.691999,0.735144 -0.03792,0.120634 -0.173635,0.143327 -0.302479,0.172887 -0.04225,0.188566 -0.295014,0.166468 -0.302927,0.389372 0.150046,0.03449 0.166319,-0.0645 0.302927,-0.04345 0.570618,0.300388 1.107646,0.07092 1.556587,-0.12974 0.219767,-0.09794 0.466259,-0.143177 0.562257,-0.302627 0.01314,-0.176473 -0.09047,-0.02299 -0.172888,-0.0433 0.171844,-0.188116 0.412812,-0.307852 0.691851,-0.389072 0.701255,0.293223 1.336372,0.652733 1.90266,1.08092 0.0848,-0.121378 -0.110034,-0.20394 -0.173037,-0.25933 -0.247837,-0.216633 -0.595701,-0.36832 -0.951479,-0.562258 -0.190804,-0.103912 -0.421619,-0.234549 -0.648403,-0.345925 -0.271575,-0.132875 -0.497614,-0.284264 -0.735445,-0.25948 -0.356824,0.03777 -0.540013,0.477008 -0.951331,0.51896 -0.170649,-0.0742 -0.213348,-0.276499 -0.345776,-0.38922 C 16.0027,9.9699 15.226495,9.499013 14.589589,9.81911 c -0.104808,0.194985 0.01956,0.486413 0.173186,0.562108"
       style="fill:#012c2a;fill-opacity:0.94509804;fill-rule:nonzero;stroke:none;stroke-width:0.01492985"
       id="path3096"
       inkscape:connector-curvature="0" />
    <path
       d="m 23.13439,16.674903 c 0.0545,-0.152136 0.105106,-0.294567 0.197224,-0.407437 0.206032,-0.09212 0.439983,-0.161243 0.596747,-0.293969 0.134666,0.0045 0.110779,0.201852 0.164378,0.304867 0.322484,0.01747 0.522096,-0.194983 0.490594,-0.520303 -0.07674,0.0022 -0.25963,0.0315 -0.354882,5.88e-4 -0.01538,-0.04703 0.07569,-0.156613 0.11287,-0.230667 0.01044,-0.0206 0.01493,-0.04539 0.02702,-0.07002 0.05031,-0.103015 0.115406,-0.265451 0.220363,-0.342489 0.15318,-0.01583 0.292177,-0.05763 0.413558,-0.09062 0.107793,-0.02926 0.254553,-0.03329 0.325022,-0.132579 -0.06017,-0.115255 -0.244849,-0.103313 -0.399076,-0.113614 -0.155567,-0.0103 -0.340697,-0.02538 -0.490445,-0.0031 -0.141683,0.02075 -0.252912,0.09077 -0.360257,0.11899 -0.03434,0.07599 -0.01255,0.164976 -0.02762,0.239176 -0.04942,0.244999 -0.197372,0.405198 -0.515079,0.438341 -0.05912,0.0028 -0.04972,0.06196 -0.09391,0.07659 -0.02165,0.02866 -0.08614,0.0218 -0.07749,0.0751 0.04584,0.02195 0.136757,-0.03583 0.17244,0.03404 -0.09361,0.07704 -0.254554,0.09839 -0.428785,0.108989 -0.05195,0.02628 -0.101672,0.09824 -0.13616,0.165273 -0.07301,0.141983 -0.119439,0.403555 -0.125857,0.620187 -0.0046,0.150641 -0.003,0.322633 0.07539,0.43192 0.131981,-0.08376 0.162289,-0.264856 0.213945,-0.409227"
       style="fill:#012c2a;fill-opacity:0.94509804;fill-rule:nonzero;stroke:none;stroke-width:0.01492985"
       id="path3098"
       inkscape:connector-curvature="0" />
    <path
       d="m 27.476439,16.129067 c 0.187072,0.09286 0.34682,0.21275 0.538221,0.301433 0.07495,0.02523 0.04718,0.153778 0.150792,0.150493 -0.013,-0.209317 -0.08077,-0.36399 -0.172441,-0.494925 0.08674,-0.255897 0.42386,-0.287399 0.667366,-0.387578 0.04404,-0.01821 0.0957,-0.04106 0.150494,-0.0645 0.06405,-0.02732 0.165121,-0.0639 0.236935,-0.107495 0.10854,-0.06629 0.135712,-0.105554 0.193938,-0.215438 -0.0093,-0.02658 -0.02777,-0.04434 -0.0648,-0.043 -0.09764,-0.0089 -0.181697,0.0533 -0.258137,0.086 -0.07614,0.0327 -0.156464,0.05255 -0.258435,0.08614 -0.04315,0.01419 -0.101524,0.0539 -0.150643,0.0648 -0.156166,0.03344 -0.328308,0.01419 -0.473574,0.0645 -0.148553,0.05106 -0.28307,0.186026 -0.451928,0.236637 -0.112719,-0.0018 -0.0842,-0.145565 -0.193789,-0.15064 -0.111675,0.05315 -0.239625,0.09018 -0.387579,0.107644 0.02493,0.09749 0.176471,0.06763 0.236938,0.128993 -0.05091,0.0427 -0.135863,0.05091 -0.21544,0.06479 -0.147954,0.152882 -0.364287,0.210363 -0.581068,0.322636 -0.05718,0.02971 -0.150643,0.05763 -0.172291,0.129292 0.479845,0.07002 0.88549,-0.118693 1.205436,-0.279786"
       style="fill:#012c2a;fill-opacity:0.94509804;fill-rule:nonzero;stroke:none;stroke-width:0.01492985"
       id="path3100"
       inkscape:connector-curvature="0" />
    <text
       id="text3692"
       y="9.9201012"
       x="43.129326"
       style="font-style:normal;font-variant:normal;font-weight:normal;font-stretch:normal;font-size:15.93883133px;line-height:110.00000238%;font-family:'Sinkin Sans';-inkscape-font-specification:'Sinkin Sans';letter-spacing:0px;word-spacing:0px;fill:#012c2a;fill-opacity:0.94509804;stroke:none;stroke-width:0.59770626"
       xml:space="preserve"><tspan
         style="font-style:normal;font-variant:normal;font-weight:normal;font-stretch:normal;font-family:'Cooper Black BQ';-inkscape-font-specification:'Cooper Black BQ';fill:#012c2a;fill-opacity:0.94509804;stroke-width:0.59770626"
         y="9.9201012"
         x="43.129326"
         id="tspan3690"
         sodipodi:role="line">Come</tspan></text>
    <text
       id="text3692-9"
       y="9.999794"
       x="95.456299"
       style="font-style:normal;font-variant:normal;font-weight:normal;font-stretch:normal;font-size:15.93883133px;line-height:110.00000238%;font-family:'Sinkin Sans';-inkscape-font-specification:'Sinkin Sans';letter-spacing:0px;word-spacing:0px;fill:#012c2a;fill-opacity:0.94509804;stroke:none;stroke-width:0.59770626"
       xml:space="preserve"><tspan
         style="font-style:normal;font-variant:normal;font-weight:normal;font-stretch:normal;font-family:'Cooper Black BQ';-inkscape-font-specification:'Cooper Black BQ';fill:#012c2a;fill-opacity:0.94509804;stroke-width:0.59770626"
         y="9.999794"
         x="95.456299"
         id="tspan3690-4"
         sodipodi:role="line">Play</tspan></text>
    <rect
       y="38.580254"
       x="2.0562172"
       height="9.9641228"
       width="190.31476"
       id="rect4492"
       style="opacity:1;fill:#002b29;fill-opacity:0.94509804;stroke:none;stroke-width:0.06168343;stroke-linecap:round;stroke-linejoin:round;stroke-miterlimit:4;stroke-dasharray:none;stroke-opacity:1" />
    <text
       id="text4496"
       y="47.291481"
       x="32.594006"
       style="font-style:normal;font-variant:normal;font-weight:normal;font-stretch:normal;font-size:9.20781136px;line-height:110.00000238%;font-family:'Sinkin Sans';-inkscape-font-specification:'Sinkin Sans';letter-spacing:0px;word-spacing:0px;fill:#ffffff;fill-opacity:0.94509804;stroke:none;stroke-width:0.34529296"
       xml:space="preserve"><tspan
         style="font-style:normal;font-variant:normal;font-weight:600;font-stretch:normal;font-family:'Sinkin Sans';-inkscape-font-specification:'Sinkin Sans Semi-Bold';letter-spacing:11.75766754px;fill:#ffffff;fill-opacity:0.94509804;stroke-width:0.34529296"
         y="47.291481"
         x="32.594006"
         id="tspan4494"
         sodipodi:role="line">GLASGOW</tspan></text>
  </g>
</svg>
