<?xml version="1.0" encoding="UTF-8" standalone="no"?>
<!-- Created with Inkscape (http://www.inkscape.org/) -->

<svg
   xmlns:dc="http://purl.org/dc/elements/1.1/"
   xmlns:cc="http://creativecommons.org/ns#"
   xmlns:rdf="http://www.w3.org/1999/02/22-rdf-syntax-ns#"
   xmlns:svg="http://www.w3.org/2000/svg"
   xmlns="http://www.w3.org/2000/svg"
   xmlns:sodipodi="http://sodipodi.sourceforge.net/DTD/sodipodi-0.dtd"
   xmlns:inkscape="http://www.inkscape.org/namespaces/inkscape"
   version="1.1"
   id="svg3052"
   xml:space="preserve"
   width="1618"
   height="425.254"
   viewBox="0 0 1618 425.254"
   sodipodi:docname="CPG_Header.svg"
   inkscape:version="0.92.3 (2405546, 2018-03-11)"><metadata
     id="metadata3058"><rdf:RDF><cc:Work
         rdf:about=""><dc:format>image/svg+xml</dc:format><dc:type
           rdf:resource="http://purl.org/dc/dcmitype/StillImage" /><dc:title></dc:title></cc:Work></rdf:RDF></metadata><defs
     id="defs3056" /><sodipodi:namedview
     pagecolor="#ffffff"
     bordercolor="#666666"
     borderopacity="1"
     objecttolerance="10"
     gridtolerance="10"
     guidetolerance="10"
     inkscape:pageopacity="0"
     inkscape:pageshadow="2"
     inkscape:window-width="1853"
     inkscape:window-height="1025"
     id="namedview3054"
     showgrid="false"
     inkscape:zoom="0.35400002"
     inkscape:cx="548.57012"
     inkscape:cy="182.86369"
     inkscape:window-x="67"
     inkscape:window-y="27"
     inkscape:window-maximized="1"
     inkscape:current-layer="g3060"
     borderlayer="true" /><g
     id="g3060"
     inkscape:groupmode="layer"
     inkscape:label="ink_ext_XXXXXX"
     transform="matrix(1.3333333,0,0,-1.3333333,0,425.254)"><path
   style="fill:#000000;fill-opacity:1;fill-rule:nonzero;stroke:none;stroke-width:0.09999999"
   d="m -408.35372,828.59456 -0.13183,-1.54102 h -0.44385 v -0.87597 h 0.36768 l -0.0454,-0.53907 h -0.55224 v -0.98583 h 0.47021 l -0.0937,-1.09425 h -0.26074 v -0.58008 h 0.20069 l -0.60206,-3.69579 h -0.48486 v -1.09278 h 0.30908 l -0.38818,-2.38623 h -0.50977 v -1.24365 h 0.30762 l -0.45264,-2.78467 h -0.59326 v -1.29053 h 0.38379 l -0.50976,-3.13329 h -0.41602 v -1.19385 h 0.22265 l -0.4834,-2.98096 h -0.47754 v -1.39307 h 0.25196 l -0.68848,-4.22607 h -0.10546 l -0.39258,0.84522 -0.44238,-0.94337 -0.39552,2.18702 -0.59033,-2.73487 -0.34277,-1.98779 -1.92188,-0.69726 h 1.82081 l 1.03417,-1.39014 1.0503,-0.24463 -0.13037,-0.70166 h -0.52441 v -1.09278 h 0.32226 l -0.59912,-3.23144 h -0.70899 v -1.29199 h 0.47022 l -0.60645,-3.28125 h -0.65185 v -1.34327 h 0.40283 l -0.60791,-3.28125 h -0.63135 v -1.2744 h 0.39551 l -0.83496,-4.50147 -0.0527,0.20947 -0.2461,0.9419 v 0.3501 l -0.24609,0.49658 -0.19629,2.03906 0.44238,0.79541 -0.64013,0.44678 v 2.68359 l -0.34278,-2.7334 -0.64014,-0.3501 0.64014,-0.84228 -0.24756,-1.7417 -0.29443,-0.49805 v -0.49658 l -1.8208,-9.09521 -2.1167,13.91894 0.34423,0.49658 -0.24462,0.29883 -0.24756,2.0874 0.49218,0.34717 v 0.59912 l -0.49218,0.0982 -0.29443,2.23681 -0.34424,-2.13867 -0.5918,-0.29736 v -0.34717 l 0.5918,-0.49805 -0.24609,-1.93945 -0.49366,-0.54638 0.24756,-0.49659 -2.77295,-15.01465 -0.62403,-0.64599 0.4922,-0.49658 -0.39405,-3.28125 -0.39404,-0.44679 0.5918,-1.19384 0.32812,-0.0835 v -22.58496 -2.18847 l 0.59034,-1.65821 0.45996,-0.52881 v -0.92724 l 0.65478,-0.23145 v -27.0791 h -1.57471 v -4.24365 h 0.65772 v -2.98245 h 0.39258 v -2.7363 l -2.42872,-8.92965 h -2.95165 v -2.8506 l -0.54054,-2.6016 -6.02196,-0.18165 v -2.51948 l -2.49463,-3.18165 -0.72218,3.77783 -0.19482,3.84517 -0.13183,-3.84517 -0.45996,-3.77783 h -2.82276 l -0.19628,2.85053 h 0.52587 l -0.39404,2.58547 -2.55908,-0.26662 -0.854,-1.85445 0.32958,-0.39848 -0.3955,-6.16402 -0.85254,4.70505 -0.52442,3.58012 -0.2622,5.83298 -0.39405,-6.03225 -0.59033,-3.7119 -0.7207,-3.84518 -0.85401,-2.98245 -0.98437,-2.25292 0.4585,-0.26513 v -1.19242 h -6.16846 v 1.45755 h -6.03663 v -1.45755 h -8.40087 v -0.22845 h -30.95372 v 25.9233 l 2.17677,1.437 v 4.88527 l -2.17677,2.99415 -2.61767,-3.70312 -3.18604,7.062 -5.26025,44.82715 -0.87304,1.39013 -0.18018,10.71241 -1.15723,-0.0234 0.18164,-10.79297 -1.05469,-1.47071 -5.44042,-44.64257 -3.00879,-6.68993 -1.88965,3.33105 -2.54004,-2.99415 v -4.88527 l 1.63476,-2.00243 v -25.35787 h -75.93457 v 16.1235 l -10.91015,15.30765 v 15.23141 h -1.15723 v -15.23141 l -10.90577,-15.30765 v -95.05516 h 456.42187 v 69.13036 h -41.51221 v 15.1626 h 1.1016 v 7.27882 h -2.96632 v 5.9106 h -3.81593 v 8.7378 h 1.1865 v 1.0269 h -2.96625 v 6.16695 l -2.63235,3.34133 -3.98295,21.41308 h -0.20212 v 4.41504 c 0.2169,0.205 0.3618,0.55887 0.3618,0.96387 0,0.63399 -0.35273,1.14697 -0.7866,1.14697 -0.43613,0 -0.7881,-0.51298 -0.7881,-1.14697 0,-0.40902 0.14722,-0.76526 0.36622,-0.96827 v -4.41064 h -0.13912 l -4.32428,-21.41308 -2.54295,-3.34133 v -6.16695 h -2.96775 v -1.0269 h 1.01655 v -8.7378 h -3.5595 v -5.9106 h -3.1392 v -7.27882 h 1.1865 v -1.28468 h -4.9614 v 1.28468 h -1.6509 v 1.15575 h -1.59082 v 1.60545 h -1.4004 v 1.94827 h -1.62008 v 1.52048 h -1.1133 v 1.54252 h -1.3989 v 1.73288 h 1.14255 v 1.88527 h -1.14255 v 1.52048 h -0.44535 v 2.89162 h -0.31927 v 0.85545 h 0.31927 v 0.64313 h -0.31927 v 1.77682 h -0.50685 v -1.77682 h -0.25343 v -0.64313 h 0.25343 v -0.85545 h -0.50978 v -2.89162 h -0.80857 l -4.53375,5.59132 -0.31785,2.50343 h -0.78518 v 2.6763 h 0.3399 v 1.02832 h -0.3399 v 1.45605 h -0.2124 v 0.0849 h -1.43992 v -1.45455 h -0.33983 v -1.02832 h 0.33983 v -2.6763 h -0.78518 l -0.31785,-2.50635 -4.53517,-5.58833 h -0.80708 v 2.89013 h -0.50835 v 0.85545 h 0.25493 v 0.64305 h -0.25493 v 1.7769 h -0.50977 v -1.7769 h -0.31785 v -0.64305 h 0.31785 v -0.85545 h -0.31785 v -2.89013 h -0.44528 v -1.52197 h -1.14405 v -1.88235 h 1.14405 v -1.7358 h -1.39897 v -1.54103 h -1.1133 v -1.52055 h -1.62008 v -1.9497 h -1.40182 v -1.60545 h -1.5879 v -1.15725 h -1.65533 v -1.28317 h -4.9599 v 1.28317 h 1.18793 v 7.28175 h -3.1377 v 5.90918 h -3.561 v 8.7378 h 1.01805 v 1.02682 h -2.96925 v 6.16703 l -2.54295,3.34132 -4.3242,21.41454 h -0.1377 v 4.41064 c 0.21802,0.203 0.36622,0.5588 0.36622,0.9668 0,0.63399 -0.3531,1.14843 -0.7881,1.14843 -0.43402,0 -0.7881,-0.51444 -0.7881,-1.14843 0,-0.405 0.14483,-0.7574 0.3618,-0.9624 v -4.41504 h -0.20062 l -3.98738,-21.41454 -2.62792,-3.34132 v -6.16703 h -2.96918 v -1.02682 h 1.1865 v -8.7378 h -3.81592 v -5.90918 h -2.96631 v -7.28175 h 1.10302 v -11.81685 h -29.55322 v 6.29295 l 0.96972,0.30758 -1.77246,4.3902 -3.9873,16.30657 -0.0981,-0.0146 v 4.36522 h 0.78808 v 0.39698 h -0.78808 v 1.8648 h -0.44385 v -1.8648 h -0.71192 v -0.39698 h 0.71192 v -4.4355 l -0.0967,-0.0147 -4.23193,-16.65525 -1.13379,-3.23145 h -0.542 v 2.93408 h -2.80371 l -0.39404,4.92187 0.98438,0.34868 -1.27881,3.03217 -4.92334,18.29445 h -0.12306 v 5.02148 h 0.8379 v 0.44677 h -0.8379 v 1.76513 h -0.51562 v -1.76513 h -0.83642 v -0.44677 h 0.83642 v -5.02148 h -0.0498 l -4.1836,-14.5137 v 0.0982 h -0.2959 v 2.53417 h -2.80371 v 2.83305 h -0.73976 v 6.11573 h 0.39404 l -0.88623,2.93257 h -3.5918 l -0.59033,-2.93257 h 0.34424 v -3.19193 l -1.52637,-0.32227 v -2.12108 l -3.60791,2.06543 v 0.78367 h -1.37402 l -1.77686,1.01805 v 1.86623 h -2.8872 v 3.34867 h -0.85401 v 1.37108 l 1.37842,1.47802 0.32959,3.9126 -1.21582,0.79395 -0.42627,0.0234 v 24.98439 l 0.39404,0.57862 0.98438,2.05517 0.65625,1.5249 0.0659,3.646 v 20.21631 l 0.65478,1.12793 -0.45849,0.39697 v 2.10498 l 0.0161,1.19385 0.44238,0.39698 -1.13085,1.19238 -2.26466,14.31885 0.34424,0.39696 -0.34424,0.44679 -0.19628,2.38916 0.54052,0.4453 -0.63867,0.39698 -0.39258,3.48047 -0.24756,-3.52881 -0.54199,-0.29883 0.54199,-0.54638 -0.24462,-2.13721 -0.34571,-0.49805 0.34571,-0.44824 -1.57617,-8.99707 -1.87061,13.92041 v 0.59473 l -0.29443,0.39843 -0.14796,1.88965 0.44239,0.54639 -0.54053,0.54638 -0.2959,2.58692 -0.49219,-2.78174 -0.44238,-0.35156 0.29004,-0.50391 -0.38672,-2.18701 -0.59326,-0.34131 0.47901,-0.30029 -0.48048,-2.71435 -0.2666,-1.49415 -0.21533,1.49415 h 0.48193 v 1.2744 h -0.66943 l -0.47607,3.28125 h 0.4585 v 1.34327 h -0.65479 l -0.47754,3.28125 h 0.54199 v 1.29199 h -0.73095 l -0.47022,3.23144 h 0.51416 v 1.09278 h -0.67383 l -0.0278,0.1875 1.38867,1.35351 2.26319,0.0513 -1.88233,0.89502 -0.67675,4.32422 -0.39112,-1.19384 -0.59326,-0.0483 v 2.18701 l -0.44239,-2.18701 -0.55956,0.006 -0.62696,4.31835 h 0.3999 v 1.39307 h -0.60058 l -0.43359,2.98096 h 0.34423 v 1.19385 h -0.51855 l -0.4541,3.13329 h 0.38232 v 1.29053 h -0.56836 l -0.40576,2.78467 h 0.33252 v 1.24365 h -0.5127 l -0.34716,2.38623 h 0.46728 v 1.09278 h -0.62549 l -0.53613,3.69579 h 0.24317 v 0.58008 h -0.27686 l -0.0366,1.09425 h 0.44385 v 0.98583 h -0.47608 l -0.0161,0.53907 h 0.49219 v 0.87597 h -0.52295 l -0.0498,1.54102 z m -1.73144,-36.45703 0.27099,-1.0254 0.16406,-4.01073 h -1.11621 v 4.07665 z m 1.5498,0 0.49219,-0.99317 v -3.87744 h -1.04883 l 0.13037,4.04297 z m 2.13427,-1.62305 0.36036,-1.16016 0.13184,-2.51806 -0.82032,0.26514 -0.13184,2.60156 z m 0.29444,-6.9917 0.55664,-1.26123 0.32813,-4.53955 -1.37696,0.23145 v 4.60693 z m -4.65967,-0.26513 0.68116,-1.16016 -0.12305,-4.37549 -1.6084,0.20069 0.2959,4.30663 z m 2.19873,0 0.68848,-1.06202 v -4.24218 h -1.6084 l 0.23144,4.40918 z m 4.33154,-0.46436 0.88477,-5.07129 -0.75439,0.23145 -0.26221,4.27587 z m -6.71337,-8.94873 0.44678,-0.99609 v -4.04298 h -2.13428 c 0,0.20001 0.62402,4.01075 0.62402,4.01075 z m 5.04053,0 0.91699,-1.19385 0.13183,-4.11035 h -1.73877 c 0.13001,0.099 0,4.24219 0,4.24219 z m -2.77295,-0.1333 0.80273,-1.09277 0.13183,-3.813 h -1.90283 c -0.032,0.034 0.1626,3.813 0.1626,3.813 z m -2.88867,-6.89356 1.06787,-1.29199 -1.29639,-1.3916 -1.29639,1.3916 z m 2.86962,0 1.18359,-1.34326 -1.18359,-1.34033 -1.1792,1.34033 z m 3.18604,0 1.31103,-1.34326 -1.14844,-1.1748 -0.88623,1.1748 c 0,0.05 0.72364,1.34326 0.72364,1.34326 z m -7.58057,-3.24755 0.4585,-0.86279 v -3.90967 h -1.24659 l 0.19776,4.04443 z m 2.00098,0 0.5918,-0.83057 -0.16553,-3.94189 h -1.31104 l 0.18018,3.94189 z m 1.74023,0 0.4585,-0.76319 v -4.00927 h -1.18945 l 0.20507,4.04443 z m 1.4751,0 0.62402,-0.79688 0.15527,-3.97558 -1.23779,0.16552 v 3.87891 z M -587.76192,648.9359 c 1.98528,0 3.99344,-0.13905 6.0249,-0.41602 2.03145,-0.27705 4.01694,-0.76208 5.95605,-1.45463 1.98529,-0.64635 3.90128,-1.5228 5.74805,-2.63085 1.84678,-1.10805 3.57841,-2.47095 5.19433,-4.0869 l -7.13378,-7.20262 c -2.21614,2.58547 -4.68519,4.3398 -7.40918,5.26312 -2.67783,0.9234 -5.44902,1.38578 -8.31152,1.38578 -6.55606,0 -11.40345,-1.77698 -14.54298,-5.33205 -3.13951,-3.555 -4.70946,-8.49608 -4.70946,-14.82128 0,-6.04822 1.52458,-10.73393 4.57177,-14.05808 3.04718,-3.32422 7.80239,-4.98637 14.26611,-4.98637 2.30847,0 4.43149,0.34605 6.37061,1.0386 1.93911,0.73867 3.60125,1.73145 4.98633,2.97802 1.43125,1.29278 2.56299,2.79323 3.39404,4.50151 0.83105,1.7082 1.31608,3.57742 1.45459,5.60887 l 0.96972,0.96968 h -19.18359 v 9.14212 h 27.63135 v -32.75685 h -8.58691 v 6.30172 c -0.78488,-1.01572 -1.8003,-1.9389 -3.04688,-2.76997 -1.2004,-0.83108 -2.53918,-1.56998 -4.0166,-2.21633 -1.47742,-0.60022 -3.07006,-1.06252 -4.77832,-1.3857 -1.70827,-0.36937 -3.46257,-0.55372 -5.26318,-0.55372 -4.61694,0 -8.72691,0.64672 -12.32813,1.93942 -3.60121,1.3389 -6.64747,3.2322 -9.14062,5.67923 -2.44698,2.49315 -4.31762,5.47132 -5.61035,8.93407 -1.29275,3.46268 -1.93946,7.34003 -1.93946,11.63378 0,4.38608 0.64671,8.37975 1.93946,11.98095 1.33891,3.6012 3.2549,6.67163 5.74804,9.21098 2.53932,2.58547 5.6324,4.57095 9.27979,5.95605 3.64738,1.43122 7.80271,2.14747 12.46582,2.14747 z m 172.83105,0 c 9.41856,0 17.24418,-3.13995 23.47705,-9.41895 l -7.20263,-7.2027 c -2.16996,2.49315 -4.54831,4.36238 -7.13379,5.60895 -2.58549,1.24658 -5.60907,1.87058 -9.07178,1.87058 -2.58549,0 -4.75533,-0.2085 -6.50976,-0.624 -1.70827,-0.41558 -3.09387,-0.94598 -4.15577,-1.59233 -1.01572,-0.64635 -1.75462,-1.3626 -2.21631,-2.14747 -0.41552,-0.73868 -0.62255,-1.45343 -0.62255,-2.14598 0,-0.64635 0.18436,-1.27042 0.55371,-1.87057 0.36936,-0.55403 1.01606,-1.10715 1.93945,-1.66118 0.92339,-0.55402 2.16999,-1.10857 3.73974,-1.6626 1.61594,-0.55402 3.64677,-1.15387 6.09375,-1.8003 0.27702,-0.0923 0.83155,-0.25395 1.6626,-0.4848 0.87722,-0.23085 1.80046,-0.46207 2.77002,-0.69292 0.96957,-0.23085 1.8928,-0.462 2.77002,-0.69285 0.87722,-0.23085 1.47711,-0.39255 1.8003,-0.48488 5.81734,-1.43122 10.08898,-3.5316 12.81298,-6.30172 2.72399,-2.724 4.08545,-5.8866 4.08545,-9.48781 0,-2.16997 -0.46236,-4.24762 -1.38574,-6.23295 -0.87722,-1.98525 -2.2855,-3.76222 -4.22461,-5.33197 -1.93912,-1.56983 -4.43231,-2.8164 -7.47949,-3.7398 -3.04718,-0.9234 -6.71747,-1.3857 -11.01123,-1.3857 -2.30847,0 -4.63999,0.18435 -6.99463,0.55372 -2.30847,0.3693 -4.59317,0.9465 -6.85547,1.73145 -2.21613,0.78488 -4.36329,1.80173 -6.44091,3.0483 -2.07762,1.24658 -4.01629,2.76968 -5.8169,4.57035 l 7.20263,7.13378 c 1.70827,-1.47743 3.32358,-2.72408 4.84717,-3.7398 1.52359,-1.01573 3.02405,-1.84673 4.50147,-2.49315 1.52359,-0.60015 3.02405,-1.03988 4.50146,-1.31685 1.5236,-0.23085 3.11622,-0.34575 4.77832,-0.34575 2.53931,0 4.70915,0.20707 6.50977,0.62257 1.80061,0.4155 3.2557,0.9474 4.36377,1.59375 1.15423,0.69255 1.9853,1.4541 2.49316,2.28518 0.50787,0.8772 0.76172,1.75365 0.76172,2.63085 0,0.60022 -0.16168,1.22422 -0.48486,1.87058 -0.27701,0.69255 -0.78473,1.33927 -1.52344,1.9395 -0.73871,0.64635 -1.73146,1.24627 -2.97802,1.8003 -1.20042,0.60015 -2.72355,1.13055 -4.57032,1.59225 -0.32319,0.0923 -0.99258,0.25402 -2.0083,0.48487 -0.96956,0.27705 -2.0318,0.555 -3.18604,0.83205 -1.15423,0.27698 -2.23915,0.53085 -3.25488,0.7617 -0.96956,0.27698 -1.61626,0.4614 -1.93945,0.55373 -2.53932,0.69255 -4.91766,1.4541 -7.13379,2.2851 -2.21613,0.83107 -4.15479,1.8465 -5.81689,3.04695 -1.66211,1.20037 -2.9782,2.60865 -3.94776,4.2246 -0.92339,1.66207 -1.38428,3.6249 -1.38428,5.8872 0,2.12377 0.48504,4.15462 1.45459,6.09375 1.01573,1.93912 2.49204,3.62392 4.43116,5.05515 1.98529,1.47742 4.4558,2.63182 7.41064,3.4629 2.95485,0.8772 6.41811,1.31692 10.38867,1.31692 z m 61.44288,0 c 1.98529,0 3.99344,-0.13905 6.0249,-0.41602 2.03145,-0.27705 4.01693,-0.76208 5.95606,-1.45463 1.98528,-0.64635 3.90126,-1.5228 5.74804,-2.63085 1.84678,-1.10805 3.57841,-2.47095 5.19434,-4.0869 l -7.13379,-7.20262 c -2.21613,2.58547 -4.68519,4.3398 -7.40919,5.26312 -2.67782,0.9234 -5.44902,1.38578 -8.31152,1.38578 -6.55606,0 -11.40345,-1.77698 -14.54297,-5.33205 -3.13952,-3.555 -4.70947,-8.49608 -4.70947,-14.82128 0,-6.04822 1.5246,-10.73393 4.57177,-14.05808 3.0472,-3.32422 7.80241,-4.98637 14.26612,-4.98637 2.30847,0 4.43149,0.34605 6.37061,1.0386 1.93912,0.73867 3.60124,1.73145 4.98633,2.97802 1.43125,1.29278 2.563,2.79323 3.39404,4.50151 0.83105,1.7082 1.31609,3.57742 1.45459,5.60887 l 0.96826,0.96968 H -355.842 v 9.14212 h 27.63135 v -32.75685 h -8.58692 v 6.30172 c -0.78487,-1.01572 -1.8003,-1.9389 -3.04687,-2.76997 -1.20041,-0.83108 -2.53918,-1.56998 -4.0166,-2.21633 -1.47742,-0.60022 -3.07152,-1.06252 -4.77978,-1.3857 -1.70827,-0.36937 -3.46258,-0.55372 -5.26319,-0.55372 -4.61694,0 -8.72544,0.64672 -12.32666,1.93942 -3.60122,1.3389 -6.64895,3.2322 -9.14209,5.67923 -2.44698,2.49315 -4.31615,5.47132 -5.60889,8.93407 -1.29275,3.46268 -1.93945,7.34003 -1.93945,11.63378 0,4.38608 0.6467,8.37975 1.93945,11.98095 1.33891,3.6012 3.25489,6.67163 5.74805,9.21098 2.53931,2.58547 5.6324,4.57095 9.27978,5.95605 3.64739,1.43122 7.80272,2.14747 12.46583,2.14747 z m 63.33689,0 c 4.61693,0 8.67863,-0.7389 12.1875,-2.21632 3.50888,-1.4313 6.44175,-3.43943 8.79638,-6.0249 2.3547,-2.58548 4.10895,-5.6559 5.2632,-9.21098 1.20045,-3.555 1.8003,-7.43385 1.8003,-11.63527 0,-4.20135 -0.624,-8.05605 -1.87058,-11.56493 -1.20045,-3.46268 -3.00007,-6.44093 -5.4009,-8.93408 -2.35462,-2.49315 -5.28607,-4.43182 -8.79495,-5.81685 -3.46267,-1.3851 -7.45635,-2.07862 -11.98095,-2.07862 -4.57072,0 -8.6112,0.69352 -12.12007,2.07862 -3.46275,1.38503 -6.37148,3.3237 -8.7261,5.81685 -2.35463,2.49315 -4.13163,5.4714 -5.33203,8.93408 -1.20041,3.50888 -1.80176,7.36358 -1.80176,11.56493 0,4.20142 0.60135,8.08027 1.80176,11.63527 1.2004,3.55508 2.9774,6.6255 5.33203,9.21098 2.35462,2.58547 5.26335,4.5936 8.7261,6.0249 3.50887,1.47742 7.54935,2.21632 12.12007,2.21632 z m -259.82957,-0.69292 h 10.04297 V 602.2586 l -0.96973,-0.96968 h 32.34082 v -9.14212 h -41.41406 z m 69.67822,0 h 9.28125 l 26.17676,-56.09618 h -11.01123 l -5.8169,12.46582 0.55371,0.9009 h -29.08593 l 0.55371,-0.9009 -5.81689,-12.46582 h -11.0127 z m 223.80325,0 h 10.66403 l 9.97267,-36.29003 0.96975,-5.74808 h 0.13913 l 1.0386,5.74808 10.04145,36.29003 h 7.54837 l 10.18065,-36.29003 0.96975,-5.60888 h 0.13913 l 0.96975,5.60888 9.97267,36.29003 h 10.52633 L -199.2268,592.1468 h -11.28802 l -8.44928,30.47168 -1.03852,6.0249 h -0.1392 l -1.10738,-6.0249 -8.44927,-30.47168 h -10.94235 z m -33.58305,-8.4492 c -3.1395,0 -5.84122,-0.50768 -8.10352,-1.5234 -2.2623,-1.0158 -4.10873,-2.42408 -5.54003,-4.22468 -1.43122,-1.7544 -2.49345,-3.85477 -3.186,-6.30172 -0.64642,-2.40083 -0.96825,-5.03303 -0.96825,-7.89555 0,-2.77013 0.32183,-5.3328 0.96825,-7.6875 0.69255,-2.35463 1.75478,-4.38548 3.186,-6.09376 1.4313,-1.7082 3.27773,-3.04702 5.54003,-4.01655 2.2623,-0.9696 4.96402,-1.45462 8.10352,-1.45462 3.1857,0 5.88593,0.48502 8.1021,1.45462 2.2623,0.96953 4.08608,2.30835 5.47118,4.01655 1.43122,1.70828 2.4708,3.73913 3.11715,6.09376 0.69255,2.3547 1.0386,4.91737 1.0386,7.6875 0,2.7702 -0.34605,5.3556 -1.0386,7.75635 -0.64635,2.44702 -1.68593,4.57147 -3.11715,6.37207 -1.3851,1.8006 -3.20888,3.20895 -5.47118,4.22468 -2.21617,1.06185 -4.9164,1.59225 -8.1021,1.59225 z m -185.57958,-3.87893 -1.59228,-4.63912 -7.34179,-15.72075 -0.96973,-0.90083 h 19.7373 l -0.96973,0.90083 -7.34033,15.72075 -1.38574,4.63912 z"
   id="path3102"
   inkscape:connector-curvature="0" />
<g
   aria-label="GLASGOW"
   transform="scale(1,-1)"
   style="font-style:normal;font-variant:normal;font-weight:normal;font-stretch:normal;font-size:69.2541275px;line-height:110.00000238%;font-family:'Sinkin Sans';-inkscape-font-specification:'Sinkin Sans';letter-spacing:0px;word-spacing:0px;fill:#000000;fill-opacity:1;stroke:none;stroke-width:2.59702969"
   id="text3751" /></g><g
     inkscape:groupmode="layer"
     id="layer4"
     inkscape:label="ink_ext_XXXXXX 1"
     transform="translate(0,-574.746)"><g
       id="g4410"
       transform="matrix(1.2690183,0,0,-1.2690183,-2.8248586,920.56694)"><path
         d="m 991.19631,12.342593 h -1.84113 l 0.14009,32.68301 -15.91975,9.546846 -38.88681,-6.82618 -0.78948,-0.150092 -0.41826,0.690423 -8.94952,13.097019 -7.29746,-14.571922 -0.78448,-1.565959 -1.1337,1.326813 -23.0281,26.288095 -15.70561,-29.377987 -8.02292,29.574107 -3.78631,-22.808965 -0.28518,-1.672024 -1.44989,0.857525 -18.71545,11.088789 -14.54191,-8.619277 4.02347,-39.560221 h -2.79572 l -4.48074,40.563835 17.968,9.771983 16.27997,-9.237655 c 0.58135,-0.330203 1.28078,-0.352216 1.88115,-0.06004 0.60037,0.291178 1.01862,0.856524 1.12569,1.521932 l 4.42571,27.398776 7.29447,-29.330959 c 0.20612,-0.825506 0.89454,-1.438881 1.73106,-1.540944 0.83451,-0.102062 1.649,0.3262 2.04325,1.078661 l 12.5807,24.002696 22.09453,-25.377538 c 0.44427,-0.509312 1.10667,-0.766469 1.77608,-0.681417 0.66841,0.08105 1.25077,0.4903 1.55896,1.09467 l 6.96326,13.587319 9.71199,-14.38881 c 0.44927,-0.665407 1.24076,-1.004615 2.02724,-0.868532 l 37.83616,6.530999 17.37064,-10.562467 z m -402.36739,0 h -7.04832 c 2.89377,3.094895 4.57981,6.77815 4.57981,10.734572 0,14.590934 -12.0804,18.577374 -28.00115,18.577374 -14.0416,0 -25.78178,-4.103512 -28.88368,-14.201695 1.06365,1.330815 2.36945,2.56357 3.90739,3.665244 4.39269,3.145926 10.19024,4.879988 16.32199,4.879988 6.13176,0 11.92731,-1.734062 16.322,-4.879988 4.65885,-3.337043 7.22342,-7.859812 7.22342,-12.732795 0,-2.08928 -0.4813,-4.113519 -1.41787,-6.0427 h -2.89577 c 1.13369,1.849132 1.76808,3.891382 1.76808,6.0427 0,8.307086 -9.40176,15.041209 -20.99986,15.041209 -11.5981,0 -21.00086,-6.734123 -21.00086,-15.041209 0,-2.151318 0.63439,-4.193568 1.76909,-6.0427 h -6.02169 c -2.54456,4.370676 -1.3108,12.708781 -0.3252,16.786277 1.55896,6.437942 6.58103,11.30092 13.40721,14.377803 5.60243,2.524546 12.60972,3.80433 20.82575,3.80433 9.85504,0 17.27958,-1.481908 22.6969,-4.532776 7.13337,-4.014458 10.90367,-10.82863 10.90367,-19.701062 0,-3.762303 -1.07465,-7.405534 -3.13091,-10.734572 z m -14.81107,194.914347 0.59036,0.72944 0.45928,-0.86253 v -3.91339 h -1.24776 z m 3.18495,-0.10007 -0.1651,-3.94641 h -1.31181 l 0.17911,3.94641 0.70544,0.82951 z m -1.06766,4.0785 1.06766,-1.29279 -1.2978,-1.39185 -1.29679,1.39185 z m -0.44427,6.00368 1.06465,1.02763 0.44728,-0.99461 v -4.04548 h -2.13531 c 0,0.19812 0.62338,4.01246 0.62338,4.01246 z m 0.49431,9.41776 0.75446,1.02863 0.68041,-1.16071 -0.12307,-4.37768 -1.60899,0.19912 z m 0.75446,8.95449 0.68041,0.96158 0.27217,-1.02763 0.1641,-4.01345 h -1.11668 z m 1.27978,-18.57138 0.80549,1.09367 0.8045,-1.09367 0.13108,-3.81333 h -1.90417 c -0.033,0.033 0.1631,3.81333 0.1631,3.81333 z m 0.23014,9.75098 0.69042,0.89454 0.68943,-1.06165 v -4.2446 h -1.60999 z m 0.29518,8.95348 0.42726,0.8285 0.49231,-0.9946 v -3.88038 h -1.05065 z m 0.066,-28.52147 v -4.01245 h -1.19073 l 0.20613,4.04648 0.52532,0.72944 z m 1.37885,2.66964 -1.18373,-1.34182 -1.17972,1.34182 1.17972,1.34282 z m 0.41925,-6.68209 -1.23976,0.1661 v 3.88038 l 0.46029,0.72944 0.62338,-0.79649 z m 0.69743,31.73743 0.36122,-1.16071 0.13108,-2.52054 -0.8195,0.26516 -0.13208,2.60359 z m 0.85352,-8.25706 0.3282,-4.54378 -1.37884,0.23214 v 4.60983 l 0.4923,0.96159 z m 0.55734,-9.61788 0.13209,-4.11252 h -1.74007 c 0.13108,0.0991 0,4.2456 0,4.2456 l 0.68942,1.06065 z m 0.78949,-7.1804 -1.14971,-1.17672 -0.88654,1.17672 c 0,0.05 0.72244,1.34282 0.72244,1.34282 z m -0.033,17.32761 0.88554,-5.07311 -0.75446,0.23214 -0.26316,4.27762 z M 252.77516,206.28534 c -4.56079,1.03864 -8.59726,1.26678 -10.9457,1.29279 v 12.98095 l 10.9457,-12.03137 z m 0,-4.45573 c -4.0945,1.45289 -7.5166,3.32404 -9.73696,4.69187 2.43449,-0.089 5.90762,-0.39624 9.73696,-1.28878 z m 0,-7.88583 c -4.56079,1.03864 -8.59726,1.26678 -10.9457,1.2928 v 10.82762 c 2.26439,-1.44688 6.15777,-3.66824 10.9457,-5.32325 z m 0,-4.45572 c -4.0945,1.45289 -7.5166,3.32403 -9.73696,4.69087 2.43449,-0.0891 5.90762,-0.39624 9.73696,-1.28879 z m 0,-7.37152 c -4.56079,1.03764 -8.59726,1.26578 -10.9457,1.29279 v 10.31332 c 2.26439,-1.44689 6.15777,-3.66925 10.9457,-5.32426 z m 0,-4.45673 c -4.0945,1.45289 -7.5166,3.32404 -9.73696,4.69188 2.43449,-0.0891 5.90762,-0.39625 9.73696,-1.28879 z m 0,-7.88582 c -4.56079,1.03863 -8.59726,1.26677 -10.9457,1.29279 v 10.82763 c 2.26439,-1.44689 6.15777,-3.66825 10.9457,-5.32326 z m 0,-4.45573 c -4.0945,1.45289 -7.5166,3.32403 -9.73696,4.69187 2.43449,-0.0891 5.90762,-0.39724 9.73696,-1.28979 z m 0,-7.88583 c -4.56079,1.03763 -8.59726,1.26678 -10.9457,1.29179 v 10.82863 c 2.26439,-1.44689 6.15777,-3.66825 10.9457,-5.32426 z m 0,-4.45573 c -4.0945,1.45289 -7.5166,3.32304 -9.73696,4.69187 2.43449,-0.09 5.90762,-0.39724 9.73696,-1.28979 z m 0,-7.88683 c -4.56079,1.03864 -8.59726,1.26678 -10.9457,1.29279 v 10.82863 c 2.26439,-1.44688 6.15777,-3.66824 10.9457,-5.32426 z m 0,-4.45472 c -4.0945,1.45288 -7.5166,3.32303 -9.73696,4.69087 2.43449,-0.0891 5.90762,-0.39625 9.73696,-1.28779 z m 0,-7.37252 c -4.56079,1.03864 -8.59726,1.26678 -10.9457,1.29179 v 10.31532 c 2.26439,-1.44789 6.15777,-3.66925 10.9457,-5.32426 z m 0,-4.45573 c -4.0945,1.45289 -7.5166,3.32404 -9.73696,4.69088 2.43449,-0.0881 5.90762,-0.39525 9.73696,-1.28779 z m 0,-7.88683 c -4.56079,1.03964 -8.59726,1.26778 -10.9457,1.2938 v 10.82763 c 2.26439,-1.44789 6.15777,-3.66925 10.9457,-5.32426 z m 0,-4.45472 c -4.0945,1.45189 -7.5166,3.32303 -9.73696,4.69187 2.43449,-0.0901 5.90762,-0.39724 9.73696,-1.28979 z m 0,-7.88683 c -4.56079,1.03863 -8.59726,1.26677 -10.9457,1.29279 v 10.82863 c 2.26439,-1.44789 6.15777,-3.66925 10.9457,-5.32526 z m 0,-4.45673 c -4.0945,1.45289 -7.5166,3.32504 -9.73696,4.69187 2.43449,-0.0891 5.90762,-0.39624 9.73696,-1.28879 z m 0,-7.884831 c -4.56079,1.038636 -8.59726,1.265775 -10.9457,1.292792 v 10.827629 c 2.26439,-1.44688 6.15777,-3.66924 10.9457,-5.32426 z m 0,-4.456729 c -4.0945,1.45289 -7.5166,3.324036 -9.73696,4.691873 2.43449,-0.08805 5.90762,-0.396243 9.73696,-1.28979 z m 0,-7.885828 c -4.56079,1.039637 -8.59726,1.267776 -10.9457,1.292792 v 10.82863 c 2.26439,-1.446886 6.15777,-3.669247 10.9457,-5.32426 z m 0,-4.455729 c -4.0945,1.451889 -7.5166,3.325037 -9.73696,4.690873 2.43449,-0.08805 5.90762,-0.395242 9.73696,-1.288789 z m 0,-7.884827 c -4.56079,1.037635 -8.59726,1.264774 -10.9457,1.292791 v 10.82763 c 2.26439,-1.446885 6.15777,-3.669247 10.9457,-5.326262 z m 0,-4.45773 c -4.0945,1.451889 -7.5166,3.324035 -9.73696,4.692874 2.43449,-0.08906 5.90762,-0.397244 9.73696,-1.28979 z m 0,-7.258444 c -4.68286,1.013621 -8.76036,1.182724 -10.92969,1.182724 -0.002,0 -0.004,0 -0.007,0 -0.006,0.11407 -0.009,0.175108 -0.009,0.175108 V 71.33171 c 2.26439,-1.446886 6.15777,-3.669247 10.9457,-5.32426 z m 0,-4.384684 c -3.86736,1.424872 -7.10034,3.197958 -9.22765,4.50776 2.32643,-0.08505 5.60043,-0.370227 9.22765,-1.173719 z m 0,-7.956872 c -3.84435,0.83251 -7.27445,1.09467 -9.58086,1.162712 -0.79049,5.148152 -1.1377,9.123586 -1.27878,11.118807 2.10829,-1.378844 5.99767,-3.672248 10.85964,-5.418317 z m 0,-4.383684 c -3.86736,1.423872 -7.10034,3.195957 -9.22765,4.505759 2.32643,-0.08405 5.60043,-0.369226 9.22765,-1.172718 z m 0,-7.475577 c -2.86875,0.469287 -5.38029,0.635389 -7.17239,0.682418 -0.86152,3.604207 -1.52993,7.012293 -2.04725,10.090178 2.22536,-1.334818 5.42532,-3.029855 9.21964,-4.391689 z m 0,-3.846355 c -2.74067,1.188728 -5.04108,2.475516 -6.68209,3.485134 1.76708,-0.06404 4.0825,-0.24415 6.68209,-0.678416 z m 0,-13.106024 h -1.59797 c -2.10129,5.169165 -3.73429,10.399367 -5.00307,15.340392 1.69904,-1.016622 3.95442,-2.234368 6.60104,-3.355054 z M 87.493965,30.508715 c 3.156933,6.445947 6.996284,12.567695 11.483031,18.329223 L 104.60144,29.309981 H 86.924616 c 0.188116,0.400245 0.37423,0.80049 0.569349,1.198734 z m 27.134615,34.728263 c 0.24815,0.214131 0.50331,0.421258 0.75446,0.633388 l 11.37397,-30.601736 -3.25399,-5.958649 h -17.965 l -5.871602,20.394487 c 4.394692,5.527384 9.386752,10.718563 14.962162,15.53251 z m 19.74909,13.946539 6.69811,-17.699837 -13.74642,-25.167409 -11.21487,30.172473 c 5.66347,4.734899 11.7632,8.973495 18.26318,12.694773 z m 20.76672,9.626895 -0.41926,-0.1631 0.4903,-1.276782 -13.57131,-24.845212 -6.47496,17.108475 c 6.30386,3.549174 12.97194,6.620054 19.97523,9.176619 z m 1.06165,0.374229 -0.42426,-0.776475 -0.21213,0.553339 c 0.21213,0.07605 0.42426,0.14809 0.63639,0.223136 z m 19.58299,5.426323 1.48691,-3.652237 -11.73118,-27.949113 -9.33872,24.294876 1.27278,2.330427 c 5.97466,2.061262 12.0864,3.723279 18.31021,4.976047 z m 3.28001,0.62138 -1.2998,-3.096896 -1.07966,2.654625 c 0.79148,0.155095 1.58497,0.301185 2.37946,0.442271 z m 25.87884,2.255381 -0.42426,-0.150092 1.48291,-4.294629 -14.03259,-35.806925 -13.7234,33.717645 1.87214,4.45873 c 8.11497,1.376843 16.40705,2.075271 24.8252,2.075271 z m 2.78871,-0.02902 -1.22375,-3.122912 -1.08667,3.146927 c 0.77148,-0.003 1.54195,-0.01001 2.31042,-0.02401 z m 22.11354,-2.05826 1.56596,-5.279232 -11.15984,-35.569779 -13.28913,38.471555 1.72906,4.413703 c 7.15938,-0.176108 14.2207,-0.857525 21.15395,-2.036247 z m -1.82712,-66.090466 h -14.74203 l 7.0163,22.363693 z m -15.6846,0 H 203.3409 L 192.46724,56.025338 206.45981,91.7302 219.80298,53.106551 Z m -30.34058,0 9.99212,25.496611 10.37735,-25.496611 z m -3.50014,0 -12.48565,32.483889 11.74419,27.983134 13.74042,-33.75867 -10.46641,-26.708353 z m -24.28387,0 -0.87053,2.30241 12.16444,28.981744 12.02337,-31.284154 z m -1.83713,0 0.45929,1.094671 0.41425,-1.094671 z M 142.06438,61.412636 155.64069,86.266855 165.04145,61.808879 152.879,32.83614 Z m 9.33472,-32.102655 h -21.46715 l -2.18734,5.885604 13.75142,25.175414 10.87666,-28.741598 z m -26.86745,0 2.64061,4.838963 1.8001,-4.838963 z M 1194.8109,12.342593 c 19.472,8.527221 44.4172,39.360098 44.4172,39.360098 0,0 -34.1909,-19.86216 -47.8593,-39.360098 h -1.4809 v 0.562344 c 15.9698,19.61601 39.9645,37.374883 51.8818,41.391342 l -35.1816,7.786768 C 1174.3584,40.1206 1158.5587,20.22642 1153.3856,12.912942 h -0.6804 c 9.0855,18.072065 45.5078,50.411865 57.245,54.367287 l -36.1421,2.05826 c -29.8883,-12.866878 -48.1195,-45.516868 -53.5328,-56.425547 h -0.2101 c 16.6001,38.64366 47.5491,60.724179 59.5965,64.781663 h -38.9439 c -28.6575,-16.317991 -48.0994,-52.287013 -54.2032,-64.781663 h -0.3202 c 19.572,47.928345 49.7205,68.947215 61.7779,73.009702 l -42.6361,-3.085889 C 1074.6374,69.623664 1062.2998,25.817843 1059.278,12.912942 h -1.0407 c 2.2714,14.635961 13.3282,69.260406 52.8224,78.15185 l -50.2708,-9.256667 c -6.7642,-3.345049 -11.7872,-8.807394 -15.5095,-15.264347 -10.5965,-18.380253 -10.6565,-44.839453 -10.3464,-53.630836 h -0.2001 c -1.1307,9.126588 -3.8924,37.36988 9.6259,55.175782 l 1.1607,0.349214 -7.2544,-2.185338 c 0,0 -6.0337,-4.324648 -10.6465,-13.402206 -4.4528,-8.757362 -7.5747,-21.943435 -2.7017,-39.937452 h -0.7004 c -4.5728,13.453237 -3.3321,30.605739 0.9406,39.01989 l -6.7542,-2.521543 c 0,0 -7.8248,-10.472412 -2.5015,-36.498347 h -0.4603 c -3.222,8.928467 -3.0118,24.026711 -3.0118,24.026711 0,0 -16.37001,-5.7165 -7.9049,-24.59706 h -9.2556 v 34.665224 c 0,0.721442 -0.38023,1.389851 -0.9906,1.763079 L 975.27656,60.32397 c -0.42025,0.254156 -0.91055,0.349214 -1.39085,0.266163 l -37.29583,-6.436941 -10.89667,16.144885 c -0.40325,0.595364 -1.09171,0.937574 -1.80515,0.893547 -0.71244,-0.04303 -1.35783,-0.466286 -1.68603,-1.106678 L 915.04164,56.10939 892.96713,81.464915 c -0.44027,0.50631 -1.10468,0.762467 -1.76608,0.683418 -0.66241,-0.07805 -1.24977,-0.483296 -1.56296,-1.078661 l -11.47803,-21.90241 -8.40214,33.778682 c -0.23515,0.945579 -1.09667,1.594977 -2.06026,1.554952 -0.96359,-0.04203 -1.76809,-0.762467 -1.92418,-1.723055 l -5.54139,-34.311008 -14.71902,8.352114 c -0.60437,0.34421 -1.35082,0.351215 -1.9612,0.01801 L 823.38653,55.869242 c -0.73045,-0.398243 -1.14971,-1.206738 -1.05765,-2.039248 l 4.5818,-41.487401 h -11.00373 v 84.592794 h -41.66251 v 15.171293 h 1.10167 v 7.28546 h -2.96881 v 5.91362 h -3.81834 v 8.74235 h 1.18773 v 1.02863 h -2.96882 v 6.17078 l -2.63161,3.34305 -3.98644,21.42612 h -0.20213 v 4.4177 c 0.21713,0.20413 0.36122,0.55934 0.36122,0.96359 0,0.63439 -0.35221,1.1487 -0.78748,1.1487 -0.43627,0 -0.78748,-0.51431 -0.78748,-1.1487 0,-0.40825 0.14609,-0.76347 0.36622,-0.96859 v -4.4127 h -0.14008 l -4.32665,-21.42612 -2.54456,-3.34305 v -6.17078 h -2.96882 v -1.02863 h 1.01663 v -8.74235 h -3.56219 v -5.91362 h -3.13992 v -7.28546 h 1.18773 v -1.28579 h -4.96404 v 1.28579 h -1.65401 v 1.15771 h -1.59098 v 1.60698 h -1.39985 v 1.94919 h -1.623 v 1.52094 h -1.11368 v 1.54294 h -1.39886 v 1.73506 h 1.1437 v 1.88616 h -1.1437 v 1.52093 h -0.44527 v 2.89377 h -0.31919 v 0.85652 h 0.31919 v 0.6424 h -0.31919 v 1.77809 h -0.50732 v -1.77809 h -0.25515 v -0.6424 h 0.25515 v -0.85652 h -0.51031 v -2.89377 h -0.80949 l -4.53678,5.59342 -0.3182,2.50554 h -0.78548 v 2.67864 h 0.34021 v 1.02863 h -0.34021 v 1.45789 h -0.21213 v 0.0851 h -1.44188 v -1.45689 h -0.33921 v -1.02763 h 0.33921 v -2.67864 h -0.78448 l -0.31919,-2.50753 -4.53778,-5.59243 h -0.8075 v 2.89277 h -0.50831 v 0.85653 h 0.25416 v 0.64339 h -0.25416 v 1.77809 h -0.50931 v -1.77809 h -0.3192 v -0.64339 h 0.3192 v -0.85653 h -0.3192 v -2.89277 h -0.44427 v -1.52193 h -1.1457 v -1.88415 h 1.1457 v -1.73607 h -1.40086 v -1.54294 h -1.11368 v -1.52093 h -1.62199 v -1.9492 h -1.40086 v -1.60798 h -1.58997 v -1.15771 h -1.65602 v -1.28479 h -4.96303 v 1.28479 h 1.18872 v 7.28546 h -3.14092 v 5.91462 h -3.56118 v 8.74235 h 1.01662 v 1.02763 h -2.96982 v 6.17078 l -2.54555,3.34305 -4.32665,21.42712 h -0.13709 v 4.4137 c 0.21814,0.20413 0.36623,0.55934 0.36623,0.96659 0,0.63539 -0.35422,1.14971 -0.78849,1.14971 -0.43526,0 -0.78748,-0.51432 -0.78748,-1.14971 0,-0.40425 0.14309,-0.75846 0.36122,-0.96259 v -4.4177 h -0.20212 l -3.98944,-21.42712 -2.62861,-3.34305 v -6.17078 h -2.97082 v -1.02763 h 1.18773 v -8.74235 h -3.81834 v -5.91462 h -2.96882 v -7.28546 h 1.10368 v -11.82424 h -29.57111 v 6.29686 l 0.96959,0.30718 -1.77308,4.39369 -3.98844,16.31599 -0.10006,-0.014 v 4.36767 h 0.78848 v 0.39724 h -0.78848 v 1.86514 h -0.44228 v -1.86514 h -0.71443 v -0.39724 h 0.71443 v -4.43872 l -0.0981,-0.014 -4.23559,-16.6652 -1.13369,-3.23398 h -0.54133 v 2.9358 h -2.80672 l -0.39324,4.92501 0.9846,0.34822 -1.28078,3.03485 -4.92502,18.30521 h -0.12308 v 5.02508 h 0.83752 v 0.44727 h -0.83752 v 1.76608 h -0.51631 v -1.76608 h -0.83651 v -0.44727 h 0.83651 v -5.02508 h -0.049 l -4.18656,-14.52289 v 0.0981 h -0.29519 v 2.53655 h -2.80671 v 2.83474 h -0.73946 v 6.11874 h 0.39324 l -0.88554,2.9348 h -3.5952 l -0.59036,-2.9348 h 0.34521 v -3.19395 l -1.52794,-0.3212 v -2.1223 l -3.61121,2.06627 v 0.78448 h -1.37384 l -1.77709,1.01862 v 1.86715 h -2.88976 v 3.35105 h -0.85353 v 1.37084 l 1.37885,1.4809 0.3282,3.9124 -1.21475,0.79649 -0.42726,0.023 v 25.00031 l 0.39524,0.57735 0.98461,2.05726 0.6564,1.52593 0.066,3.64724 v 20.22938 l 0.6554,1.12769 -0.45828,0.39725 v 2.10729 l 0.015,1.19373 0.44327,0.39824 -1.13169,1.19273 -2.26539,14.32677 0.34421,0.39825 -0.34421,0.44727 -0.19712,2.38846 0.54133,0.44728 -0.64039,0.39824 -0.39324,3.48213 -0.24715,-3.53116 -0.54133,-0.29918 0.54133,-0.54834 -0.24515,-2.13731 -0.34521,-0.4983 0.34521,-0.44828 -1.57597,-9.00351 -1.87314,13.92953 v 0.59637 l -0.29418,0.39824 -0.14809,1.89016 0.44227,0.54733 -0.54033,0.54734 -0.29519,2.58658 -0.4933,-2.7817 -0.44227,-0.35222 0.28918,-0.50431 -0.38624,-2.18834 -0.59336,-0.34221 0.47929,-0.30018 -0.48129,-2.71566 -0.26516,-1.49592 -0.21714,1.49592 h 0.4823 v 1.27478 h -0.66941 l -0.47729,3.28301 h 0.45928 v 1.34382 h -0.6544 l -0.4793,3.28301 h 0.54434 v 1.29379 h -0.73145 l -0.47229,3.23298 h 0.51431 v 1.09367 h -0.67341 l -0.027,0.18812 1.38986,1.35383 2.26438,0.051 -1.88415,0.89454 -0.67642,4.32865 -0.39324,-1.19473 -0.59236,-0.05 v 2.18934 l -0.44327,-2.18934 -0.56034,0.006 -0.62539,4.32264 h 0.39825 v 1.39286 h -0.60137 l -0.43327,2.98482 h 0.34522 v 1.19273 h -0.51832 l -0.45428,3.13492 h 0.38123 v 1.29279 h -0.56935 l -0.40524,2.78571 h 0.3342 v 1.24476 h -0.51331 l -0.34722,2.38746 h 0.46729 v 1.09367 h -0.62638 l -0.53733,3.69727 h 0.24315 v 0.58135 h -0.27617 l -0.037,1.09467 h 0.44527 v 0.98561 h -0.47729 l -0.017,0.53933 h 0.4943 v 0.87853 h -0.52332 l -0.051,1.54195 h -0.50832 l -0.13108,-1.54195 h -0.44427 v -0.87853 h 0.36823 l -0.046,-0.53933 h -0.55234 v -0.98561 h 0.46929 l -0.0941,-1.09467 h -0.25916 v -0.58135 h 0.20013 l -0.60237,-3.69727 h -0.4853 v -1.09367 h 0.30919 l -0.38824,-2.38746 h -0.51131 v -1.24476 h 0.30819 l -0.45228,-2.78571 h -0.59436 v -1.29279 h 0.38423 l -0.50931,-3.13492 H 575.905 v -1.19273 h 0.22414 l -0.4853,-2.98482 h -0.47729 v -1.39286 h 0.25216 l -0.68843,-4.22959 -0.10506,0.001 -0.39424,0.84552 -0.44227,-0.94558 -0.39524,2.18934 -0.59037,-2.73567 -0.34421,-1.99022 -1.92217,-0.69643 h 1.82211 l 1.03464,-1.39285 1.05064,-0.24315 -0.12908,-0.70243 h -0.52632 v -1.09367 h 0.3232 l -0.59937,-3.23298 h -0.70944 v -1.29379 h 0.47029 l -0.60737,-3.28301 h -0.6514 v -1.34382 h 0.40325 l -0.60837,-3.28301 h -0.63239 v -1.27478 h 0.39624 l -0.83551,-4.50476 -0.052,0.20913 -0.24815,0.94357 v 0.34922 l -0.24515,0.4973 -0.19612,2.03925 0.44127,0.79549 -0.63839,0.44727 v 2.68765 l -0.34522,-2.73568 -0.64039,-0.34921 0.64039,-0.84552 -0.24615,-1.74006 -0.29518,-0.49831 v -0.4983 l -1.82211,-9.10258 -2.1173,13.92953 0.34321,0.49631 -0.24515,0.29818 -0.24615,2.09028 0.4913,0.34721 v 0.59737 l -0.4913,0.10006 -0.29518,2.23737 -0.34421,-2.13831 -0.59236,-0.29818 v -0.34822 l 0.59236,-0.4973 -0.24715,-1.94019 -0.4933,-0.54734 0.24715,-0.4963 -2.7747,-15.0232 -0.62338,-0.64839 0.4923,-0.49631 -0.39424,-3.28301 -0.39324,-0.44827 0.59036,-1.19373 0.3282,-0.0831 v -22.59984 -2.18934 l 0.59236,-1.65902 0.45928,-0.52932 v -0.92857 l 0.6554,-0.23114 v -27.09559 h -1.57596 v -4.2456 h 0.6574 v -2.98483 h 0.39324 v -2.73868 l -2.42849,-8.93447 h -2.9548 v -2.85174 l -0.54134,-2.6036 -6.02569,-0.18211 v -2.52054 l -2.49552,-3.18395 -0.72145,3.78032 -0.19712,3.84735 -0.13208,-3.84735 -0.45928,-3.78032 h -2.82373 l -0.19612,2.85175 h 0.52532 l -0.39424,2.58758 -2.56056,-0.26516 -0.85453,-1.85714 0.3292,-0.39824 -0.39524,-6.16778 -0.85252,4.70788 -0.52532,3.5822 -0.26216,5.83657 -0.39424,-6.03569 -0.59137,-3.71328 -0.72144,-3.84835 -0.85352,-2.98483 -0.9846,-2.25438 0.45828,-0.26516 v -1.19374 h -6.17178 v 1.4589 h -6.0417 v -1.4589 h -8.40415 V 106.7444 H 483.4564 v 25.93888 l 2.17733,1.43788 v 4.88699 l -2.17733,2.99583 -2.6206,-3.70527 -3.18695,7.06833 -5.26323,44.85246 -0.87353,1.39186 -0.18211,10.71856 -1.15671,-0.023 0.18111,-10.79961 -1.05365,-1.4719 -5.44533,-44.66835 -3.01084,-6.6961 -1.88916,3.33304 -2.54156,-2.99583 v -4.88699 l 1.634,-2.00423 V 106.7444 h -75.97951 v 16.13087 l -10.91869,15.31938 v 15.23833 h -1.15671 V 138.19465 L 359.08025,122.87527 V 71.949088 45.556929 c 1.65101,0.788482 3.31603,1.569961 5.01207,2.33543 23.43235,10.578476 45.31775,15.942761 65.04983,15.942761 34.70424,0 63.33377,-16.248949 85.08909,-48.292568 l 2.17333,-3.199959 h -6.79115 c -63.89112,94.107627 -168.76433,16.883337 -196.70444,0 h -4.64284 l -9.84203,6.341883 H 269.15119 V 198.75673 h 2.20635 v 1.71405 h -2.20635 v 9.51383 0.85752 3.08489 l -3.39408,2.82873 -8.6543,4.19957 -15.27335,2.96882 v 0.11607 h -0.008 l -0.94558,46.83968 h -0.50931 l -1.08267,-42.03974 1.27278,-1.92818 v -1.28479 l -0.9806,-1.58697 h -0.9916 V 61.195504 c 0,0 0.51231,-5.348275 1.62999,-12.553687 -0.02,-0.001 -0.033,-0.002 -0.033,-0.002 0,0 0.016,-0.01301 0.039,-0.02902 1.45989,-9.403757 3.95242,-21.955442 7.6867,-29.926322 h -35.01143 l -8.99351,-6.341883 H 80.708811 c 1.050643,3.995446 2.367449,7.935859 3.945415,11.817235 H 209.98897 l 0.9866,0.694425 h 1.92018 26.20204 c -0.42726,1.407862 -0.84252,2.893772 -1.24676,4.455728 h -9.35173 l 0.42426,0.151093 -8.173,23.659486 11.12481,35.454708 0.60037,-2.022238 v 3.162937 l -0.11808,0.397243 0.11808,0.375229 v 3.007842 l -0.57636,-1.837125 -1.06065,3.570186 c 0.54634,-0.09606 1.09167,-0.200122 1.63701,-0.303186 v 4.926016 c -8.87944,1.623999 -18.08808,2.483529 -27.52786,2.483529 -56.21342,0 -104.22181,-30.306564 -123.316504,-73.02572 L 79.487063,24.159828 C 78.008157,20.307469 76.761394,16.365056 75.760781,12.342593 L 0,3.6035157e-5 H 1275 L 1194.8109,12.342593"
         style="fill:#231f20;fill-opacity:1;fill-rule:nonzero;stroke:none;stroke-width:0.10006127"
         id="path3068"
         inkscape:connector-curvature="0" /></g><path
       inkscape:connector-curvature="0"
       id="path3070"
       style="fill:#231f20;fill-opacity:1;fill-rule:nonzero;stroke:none;stroke-width:0.12697957"
       d="m 399.36567,900.30349 c 0.25143,-0.22602 0.48,-0.43173 0.67681,-0.6095 -0.18539,0.16761 -0.40888,0.36697 -0.67681,0.6095" /><path
       inkscape:connector-curvature="0"
       id="path3072"
       style="fill:#231f20;fill-opacity:1;fill-rule:nonzero;stroke:none;stroke-width:0.12697957"
       d="m 400.56563,899.2229 c 0.24634,-0.22222 0.28063,-0.25523 0,0 v 0" /><path
       inkscape:connector-curvature="0"
       id="path3074"
       style="fill:#231f20;fill-opacity:1;fill-rule:nonzero;stroke:none;stroke-width:0.12697957"
       d="m 394.26236,904.90397 c 0,0 0.0419,-0.0368 0.11434,-0.10159 -0.0393,0.0343 -0.0749,0.066 -0.11434,0.10159" /><path
       inkscape:connector-curvature="0"
       id="path3076"
       style="fill:#231f20;fill-opacity:1;fill-rule:nonzero;stroke:none;stroke-width:0.12697957"
       d="m 382.70469,848.10601 c 9.70504,10.22438 17.62096,21.52684 23.60677,33.74481 0.24633,0.50538 0.48125,1.0133 0.72124,1.52122 h -30.42685 z m -4.56112,40.92043 1.36886,0.88123 h 23.93945 c 3.20369,-2.02405 6.7134,-4.22587 10.49232,-6.53563 h -0.19429 C 400.6596,854.0842 376.85219,829.3981 346.4863,812.8844 v 7.00674 c 2.35801,1.34344 4.67793,2.74149 6.9534,4.1916 l -6.9534,31.14809 v 5.24171 l 7.97812,-35.73586 c 6.12042,3.96558 11.93482,8.31589 17.41272,13.04335 3.45892,2.98782 6.7388,6.09501 9.84471,9.30633 l -6.27406,36.28568 H 346.4863 v 5.6544 h 29.3945 2.26277" /><path
       inkscape:connector-curvature="0"
       id="path3078"
       style="fill:#231f20;fill-opacity:1;fill-rule:nonzero;stroke:none;stroke-width:0.12697957"
       d="m 1119.2039,814.19483 h -7.4142 l 2.3847,9.59458 z" /><path
       inkscape:connector-curvature="0"
       id="path3080"
       style="fill:#231f20;fill-opacity:1;fill-rule:nonzero;stroke:none;stroke-width:0.12697957"
       d="m 1040.3255,829.42222 h 43.3814 l 2.4608,-15.22739 h -45.8422 v 15.22739" /><path
       inkscape:connector-curvature="0"
       id="path3082"
       style="fill:#231f20;fill-opacity:1;fill-rule:nonzero;stroke:none;stroke-width:0.12697957"
       d="m 1367.4237,802.23209 h -21.8405 l -77.3433,-69.08833 -0.089,-3.84366 z m -41.5859,0 -53.8647,-64.01295 71.6545,64.01295 z m -56.1122,0 -1.4348,-66.36207 55.8455,66.36207 z m -6.3743,-69.55815 -87.8966,69.55815 h -47.2466 l 135.2701,-72.38852 z m -3.1872,69.55815 h -67.8833 l 70.9816,-67.62806 z m -82.6129,0 75.8449,-60.01564 -62.9946,60.01564 z m -58.5047,0 129.3846,-65.80717 -122.9823,65.80717 z m -78.721,0 v 5.2214 h 46.9292 l 0.8444,-5.2214 h -32.1005 l 207.6701,-76.35663 -0.063,1.36757 -147.436,74.98906 h -7.3598 l 1.3003,5.2214 h 149.813 l -0.3047,6.74134 h -121.531 l 13.2567,15.22739 h 8.5242 l 0.7123,-1.38915 c 1.6647,-3.25195 4.9459,-5.40679 8.5623,-5.62647 0.2057,-0.0127 0.4114,-0.019 0.6171,-0.019 3.4221,0 6.6182,1.70406 8.5432,4.55857 l 1.6711,2.47609 h 73.7649 v 16.95813 l 9.1934,5.58456 c 3.0856,1.87676 5.0029,5.30521 5.0029,8.94825 l -0.3556,19.01646 8.0759,-9.93869 -1.2317,-40.56871 h 36.7988 l 0.089,-0.0648 1.2189,-0.36951 8.0379,-2.42149 c 3.53,-4.92808 7.5552,-9.05999 12.0376,-12.37162 h -62.6262 l -0.1398,-6.74135 h 80.7718 l 28.3546,-5.2214 h -9.3457 l -91.6794,-67.35505 110.2057,65.66368 7.0473,2.53705 -127.0811,-75.5719 -0.025,-1.3409 161.8481,74.9243 16.9644,6.4201 -178.8506,-82.79577 -1.3841,-64.31262 -2.9332,64.06247 -211.5099,77.76864 h -11.8967" /><path
       inkscape:connector-curvature="0"
       id="path3096"
       style="fill:#231f20;fill-opacity:1;fill-rule:nonzero;stroke:none;stroke-width:0.12697957"
       d="m 105.24542,674.73189 c 2.91165,-0.0305 3.65829,-2.22721 5.51472,-3.31034 2.90784,1.14027 5.01062,3.08178 5.88551,6.25246 -0.32253,1.026 -1.47678,1.21901 -2.57261,1.47042 -0.35935,1.60377 -2.50912,1.41582 -2.57642,3.31164 1.27615,0.29332 1.41456,-0.54856 2.57642,-0.36952 4.85315,2.55482 9.42062,0.60316 13.2389,-1.10345 1.86913,-0.83298 3.96557,-1.21773 4.78204,-2.57387 0.1118,-1.50091 -0.7695,-0.19556 -1.47043,-0.36825 1.46155,-1.59994 3.511,-2.61831 5.88425,-3.30909 5.96423,2.49389 11.36595,5.55155 16.18227,9.19332 0.72125,-1.03233 -0.93584,-1.73453 -1.47169,-2.20563 -2.10787,-1.84248 -5.06648,-3.13259 -8.0924,-4.78205 -1.62281,-0.88378 -3.58591,-1.99486 -5.51472,-2.94212 -2.30977,-1.13011 -4.23225,-2.41769 -6.25502,-2.2069 -3.03482,0.32126 -4.59286,4.05699 -8.09115,4.4138 -1.45138,-0.63108 -1.81454,-2.35165 -2.94085,-3.31035 -4.53316,-1.65836 -11.13484,-5.66329 -16.55178,-2.94084 -0.8914,1.65836 0.16634,4.13698 1.47296,4.78077" /><path
       inkscape:connector-curvature="0"
       id="path3098"
       style="fill:#231f20;fill-opacity:1;fill-rule:nonzero;stroke:none;stroke-width:0.12697957"
       d="m 176.44668,728.26014 c 0.46349,-1.29393 0.89393,-2.50531 1.6774,-3.46528 1.75232,-0.78346 3.74209,-1.37139 5.07538,-2.50023 1.14535,0.0381 0.94219,1.71677 1.39805,2.59292 2.74275,0.14857 4.44047,-1.65835 4.17254,-4.42522 -0.65268,0.019 -2.20817,0.26793 -3.0183,0.005 -0.13079,-0.39998 0.64378,-1.33201 0.95997,-1.96184 0.0888,-0.17522 0.12698,-0.38601 0.22983,-0.59554 0.42791,-0.87615 0.98154,-2.25768 1.87421,-2.9129 1.30281,-0.13461 2.48499,-0.49015 3.51734,-0.77077 0.91679,-0.24888 2.165,-0.28317 2.76434,-1.12759 -0.51173,-0.98026 -2.08246,-0.87869 -3.39417,-0.9663 -1.32311,-0.0876 -2.89766,-0.21587 -4.17128,-0.0267 -1.20502,0.1765 -2.15103,0.77203 -3.06401,1.01202 -0.29205,0.64632 -0.10672,1.40313 -0.23491,2.03421 -0.4203,2.08374 -1.67867,3.44624 -4.38079,3.72813 -0.50285,0.0241 -0.42285,0.52697 -0.79871,0.65141 -0.18412,0.24379 -0.73267,0.18539 -0.65903,0.63871 0.38983,0.18666 1.16313,-0.30475 1.46662,0.2895 -0.79616,0.65522 -2.165,0.83681 -3.64685,0.92696 -0.44188,0.22348 -0.86473,0.83552 -1.15805,1.40566 -0.62094,1.20757 -1.01584,3.43226 -1.07043,5.27474 -0.0393,1.28121 -0.0254,2.74402 0.64123,3.67351 1.12251,-0.71236 1.38028,-2.25262 1.81962,-3.48051" /><path
       inkscape:connector-curvature="0"
       id="path3100"
       style="fill:#231f20;fill-opacity:1;fill-rule:nonzero;stroke:none;stroke-width:0.12697957"
       d="m 213.37615,723.61776 c 1.59106,0.78981 2.94973,1.80946 4.57761,2.56372 0.63745,0.2146 0.40126,1.30789 1.2825,1.27995 -0.11053,-1.78026 -0.68696,-3.09576 -1.46662,-4.20938 0.73776,-2.17642 3.60496,-2.44435 5.676,-3.29638 0.37459,-0.15491 0.81393,-0.34919 1.27996,-0.54855 0.54473,-0.23238 1.40437,-0.54348 2.01515,-0.91425 0.92314,-0.5638 1.15424,-0.89775 1.64946,-1.83232 -0.0787,-0.22603 -0.23618,-0.37713 -0.55109,-0.3657 -0.83044,-0.0761 -1.54534,0.45331 -2.19547,0.7314 -0.64759,0.27808 -1.33074,0.44697 -2.19801,0.73267 -0.36698,0.12069 -0.86347,0.4584 -1.28123,0.5511 -1.32821,0.28442 -2.79229,0.12068 -4.02779,0.54855 -1.26345,0.43427 -2.40753,1.58217 -3.84368,2.01262 -0.95869,-0.0152 -0.71615,-1.23804 -1.64819,-1.28121 -0.94981,0.45204 -2.03803,0.76696 -3.29639,0.91552 0.21205,0.82918 1.5009,0.57521 2.01517,1.0971 -0.43301,0.36315 -1.15552,0.433 -1.83233,0.55108 -1.25836,1.30027 -3.09829,1.78915 -4.94203,2.74404 -0.48633,0.25269 -1.28123,0.49013 -1.46535,1.09964 4.08112,0.59553 7.53116,-1.00949 10.25233,-2.3796" /></g><g
     inkscape:groupmode="layer"
     id="layer5"
     inkscape:label="ink_ext_XXXXXX 2"
     transform="translate(0,-574.746)"><text
       xml:space="preserve"
       style="font-style:normal;font-variant:normal;font-weight:normal;font-stretch:normal;font-size:135.56103516px;line-height:110.00000238%;font-family:'Sinkin Sans';-inkscape-font-specification:'Sinkin Sans';letter-spacing:0px;word-spacing:0px;fill:#012c2a;fill-opacity:1;stroke:none;stroke-width:5.08353949;"
       x="346.50522"
       y="670.81"
       id="text3692"><tspan
         sodipodi:role="line"
         id="tspan3690"
         x="346.50522"
         y="670.81"
         style="font-style:normal;font-variant:normal;font-weight:normal;font-stretch:normal;font-family:'Cooper Black BQ';-inkscape-font-specification:'Cooper Black BQ';fill:#012c2a;fill-opacity:1;stroke-width:5.08353949;">Come</tspan></text>
<text
       xml:space="preserve"
       style="font-style:normal;font-variant:normal;font-weight:normal;font-stretch:normal;font-size:135.56103516px;line-height:110.00000238%;font-family:'Sinkin Sans';-inkscape-font-specification:'Sinkin Sans';letter-spacing:0px;word-spacing:0px;fill:#012c2a;fill-opacity:1;stroke:none;stroke-width:5.08353949;"
       x="791.55029"
       y="671.48779"
       id="text3692-9"><tspan
         sodipodi:role="line"
         id="tspan3690-4"
         x="791.55029"
         y="671.48779"
         style="font-style:normal;font-variant:normal;font-weight:normal;font-stretch:normal;font-family:'Cooper Black BQ';-inkscape-font-specification:'Cooper Black BQ';fill:#012c2a;fill-opacity:1;stroke-width:5.08353949;">Play</tspan></text>
<rect
       style="opacity:1;fill:#000000;fill-opacity:0.94470047;stroke:none;stroke-width:0.5246225;stroke-linecap:round;stroke-linejoin:round;stroke-miterlimit:4;stroke-dasharray:none;stroke-opacity:1"
       id="rect4492"
       width="1618.6422"
       height="84.745659"
       x="-2.8248587"
       y="914.56689" /><text
       xml:space="preserve"
       style="font-style:normal;font-variant:normal;font-weight:normal;font-stretch:normal;font-size:78.31317139px;line-height:110.00000238%;font-family:'Sinkin Sans';-inkscape-font-specification:'Sinkin Sans';letter-spacing:0px;word-spacing:0px;fill:#ffffff;fill-opacity:1;stroke:none;stroke-width:2.93674421"
       x="256.90146"
       y="988.65656"
       id="text4496"><tspan
         sodipodi:role="line"
         id="tspan4494"
         x="256.90146"
         y="988.65656"
         style="font-style:normal;font-variant:normal;font-weight:600;font-stretch:normal;font-family:'Sinkin Sans';-inkscape-font-specification:'Sinkin Sans Semi-Bold';letter-spacing:99.99990082px;fill:#ffffff;stroke-width:2.93674421">GLASGOW</tspan></text>
</g><g
     inkscape:groupmode="layer"
     id="layer6"
     inkscape:label="ink_ext_XXXXXX 3"
     transform="translate(0,-574.746)" /></svg>