<?xml version="1.0" encoding="UTF-8"?>
<svg width="73.652mm" height="88.53mm" version="1.1" viewBox="0 0 73.652 88.53" xmlns="http://www.w3.org/2000/svg" xmlns:cc="http://creativecommons.org/ns#" xmlns:dc="http://purl.org/dc/elements/1.1/" xmlns:rdf="http://www.w3.org/1999/02/22-rdf-syntax-ns#">
 <defs>
  <clipPath id="XMLID_3_">
   <path d="m82.59 164.24h17.952l2.5876-19.323c0.14552-1.0795-0.76464-2.0346-1.9368-2.0346h-37.206c-1.1748 0-2.0823 0.95515-1.9368 2.0346l2.5876 19.323z" stroke-width=".26458"/>
  </clipPath>
 </defs>
 <metadata>
  <rdf:RDF>
   <cc:Work rdf:about="">
    <dc:format>image/svg+xml</dc:format>
    <dc:type rdf:resource="http://purl.org/dc/dcmitype/StillImage"/>
    <dc:title/>
   </cc:Work>
  </rdf:RDF>
 </metadata>
 <g transform="translate(-56.912 -168.91)">
  <g transform="translate(-222.18 -107.01)">
   <g transform="matrix(.053963 0 0 .053059 286.69 309.04)">
    <path class="st0" d="m244.69 622.35s13.88-100.72 15.65-123.94c1.14-14.93 1.05-29.99 1.2-44.95 0.08-7.76 0.14-15.51 0.29-23.27 0.05-2.97 0.38-6.03 0.24-8.99-0.1-2.14-0.33-3.18-1.52-5.01-0.32-0.49-3.34-3.26-3.01-3.78 2.98-4.63 9.59-4.16 14.24-3.43 5.56 0.87 11.59 0.84 16.27-2.95 7.12-5.76 7.12-13.22 7.12-13.22s16.97-2.37 16.97-2.37l16.97 2.37s0 7.46 7.12 13.22c4.68 3.79 10.71 3.81 16.27 2.95 4.65-0.72 11.27-1.2 14.24 3.43 0.33 0.52-2.69 3.29-3.01 3.78-1.18 1.83-1.42 2.87-1.52 5.01-0.13 2.96 0.19 6.02 0.24 8.99 0.14 7.76 0.2 15.51 0.29 23.27 0.16 14.97 0.07 30.02 1.2 44.95 1.77 23.22 15.65 123.94 15.65 123.94h-67.46-67.44zm94.44-1.26c4.12-19.28 6.56-43.12 6.56-68.94 0-64.09-15.01-116.04-33.53-116.04s-33.53 51.95-33.53 116.04c0 25.82 2.44 49.67 6.56 68.94z" fill="#08b70b"/>
    <g fill="#08b70b">
     <path class="st0" d="m335.87 419.84s-5.07 10.09-1.93 21.38c3.14 11.3 65.45 64.4 65.45 64.4l-50.78 63.14 9.36 17.89s70.66-66.64 72.26-76.88c1.82-11.72-60.41-85.29-60.41-85.29"/>
     <path class="st0" d="m338.98 423.14s6.78-9.03 18.29-11.24 38.13 20.95 47.63 27.9 45.03 18.15 45.03 18.15l85.17-25.01 9.09 14.13s-71.75 32.74-80.22 38.72c-9.68 6.85-105.74-34.31-105.74-34.31"/>
     <path class="st0" d="m331.53 412.98s0.45-11.08 20.38-10.71c19.93 0.36 24.25 1.35 43.73-0.36 4.96-0.44 60.85-11.04 60.85-11.04l46.81-76.41 12.91 18.14-44.06 80.69-113.76 28.77"/>
     <path class="st0" d="m288.43 419.84s5.07 10.09 1.93 21.38c-3.14 11.3-65.45 64.4-65.45 64.4l50.78 63.14-9.36 17.89s-70.66-66.64-72.26-76.88c-1.82-11.72 60.41-85.29 60.41-85.29"/>
     <path class="st0" d="m285.33 423.14s-6.78-9.03-18.29-11.24-38.13 20.95-47.63 27.9-45.03 18.15-45.03 18.15l-85.18-25-9.09 14.13s71.75 32.74 80.22 38.72c9.68 6.85 105.74-34.31 105.74-34.31"/>
     <path class="st0" d="m292.78 412.98s-0.45-11.08-20.38-10.71c-19.93 0.36-24.25 1.35-43.73-0.36-4.96-0.44-60.85-11.04-60.85-11.04l-46.81-76.41-12.91 18.14 44.06 80.69 113.76 28.77"/>
    </g>
    <g id="Itmes_x2F_Hands">
     <path class="st1" d="m197.98 593.21c-1.22-0.44-2.14-0.7-1.98-2.3 0.12-1.19 0.4-2.36 0.08-3.55-0.46-1.77-1.48-2.84-2.32-4.39-0.64-1.18-1.69-1.94-2.4-3.13-0.67-1.14-1.32-2.4-1.26-3.73 0.06-1.29 0.11-2.62 0.23-3.92 0.54-5.83 3.05-12.14 9.67-13.09 2.27-0.33 4.99-0.09 6.72 1.6 2.15 2.1 1.92 5.68 1.45 8.35-0.68 3.85-2.13 7.02-4.41 10.16-1.59 2.2-3.2 4.37-4.59 6.7-1.34 2.25-0.6 4.91-1.18 7.44m0.23-24.58c-0.54 1.14-0.94 2.33-1.21 3.56-0.26 1.22-0.39 2.47-0.39 3.72 0.01 1.25 0.14 2.5 0.52 3.76 0.61-1.16 1-2.33 1.35-3.49 0.34-1.16 0.62-2.32 0.87-3.47 0.24-1.15 0.47-2.31 0.65-3.5 0.19-1.17 0.32-2.28 0.71-3.53-1.18 0.61-1.95 1.82-2.5 2.95z" fill="#308930"/>
     <g fill="#08b70b">
      <path class="st0" d="m197.76 592.69c-0.73-2.77 0.33-6.36 1-9.01 0.83-3.29 2.36-6.37 3.94-9.35 2.79-5.27 9.52-7.9 15.26-6.79 6.6 1.27 6 8.14 2.89 12.64-2.38 3.44-5.45 4.92-9.13 6.69-4.37 2.11-8.06 4.61-10.63 8.81m9.47-18.99c-1.38 1.01-2.6 2.22-3.67 3.53s-1.98 2.73-2.75 4.22c-0.76 1.5-1.39 3.05-1.76 4.73 1.25-1.18 2.3-2.44 3.35-3.69l3.04-3.74c1.01-1.24 2.01-2.45 3.07-3.65 1.05-1.2 2.15-2.36 3.34-3.59-1.69 0.36-3.23 1.19-4.62 2.19z"/>
      <path class="st0" d="m185.32 587.21c-2.87-1.05-6.68-1.51-8.89-3.78-3.3-3.38-1.81-8.11 1.13-11.24 4.63-4.93 11.84 0.47 15.23 4.35 2.68 3.06 5.37 8.71 5.85 11.34 0.41 2.21 0.24 4.4-0.36 6.56-0.21 0.74-1.24 3.69-2.24 2.29-0.4-0.56-0.45-1.82-0.76-2.5-0.35-0.77-0.8-1.49-1.35-2.14-2.17-2.57-5.54-3.75-8.61-4.88zm-0.53-6.9c1.36 0.89 2.68 1.74 3.93 2.66 1.25 0.93 2.47 1.91 3.68 2.95 1.23 1.03 2.43 2.13 3.81 3.15-0.56-1.62-1.4-3.09-2.42-4.45s-2.25-2.57-3.64-3.6c-1.4-1.02-2.93-1.81-4.49-2.4-1.57-0.59-3.19-1.03-4.88-1.24 1.28 1.13 2.66 2.04 4.01 2.93z"/>
      <path class="st0" d="m532.16 451.49s10.68 4.38 20.05 6.1c3.7 0.68 7.59 0.06 11.2-0.82 1.86-0.45 8.58-1.66 9.03-3.98-2.35-1.32-4.95-2.33-7.36-3.55-1.84-0.93-2.75-1.2-2.66-3.01 0.27-5.45 3.31-11.46 5.52-16.37 1.33-2.95 2.46-5.88 3.53-8.93 0.62-1.76 2.04-3.84 1.07-5.75-0.95-1.86-4-2.19-5.82-2.81-3.37-1.15-6.74-2.3-10.1-3.44l-17.45 1.43s-10.16 16.82-9.55 24.78"/>
     </g>
     <path class="st2" d="m606.41 472.51-45.53-9.17c-1.13-0.23-1.86-1.33-1.63-2.45l14.85-73.75c0.23-1.13 1.33-1.86 2.45-1.63l45.53 9.17c1.13 0.23 1.86 1.33 1.63 2.45l-14.85 73.75c-0.23 1.13-1.33 1.86-2.45 1.63zm-3.41-63.9c0.75-3.73-1.67-7.37-5.4-8.12s-7.37 1.67-8.12 5.4 1.67 7.37 5.4 8.12c3.74 0.75 7.37-1.67 8.12-5.4zm-3.46 17.2c0.75-3.73-1.67-7.37-5.4-8.12s-7.37 1.67-8.12 5.4 1.67 7.37 5.4 8.12 7.37-1.67 8.12-5.4zm-3.46 17.19c0.75-3.73-1.67-7.37-5.4-8.12s-7.37 1.67-8.12 5.4 1.67 7.37 5.4 8.12c3.73 0.76 7.37-1.66 8.12-5.4z" fill="#4d4d4d"/>
     <path class="st3" d="m605.23 458.09-37.13-7.47c-1.34-0.27-2.21-1.58-1.94-2.92l11.02-54.73c0.27-1.34 1.58-2.21 2.92-1.94l37.13 7.47c1.34 0.27 2.21 1.58 1.94 2.92l-11.02 54.73c-0.28 1.35-1.58 2.21-2.92 1.94zm-2.23-49.48c0.75-3.73-1.67-7.37-5.4-8.12s-7.37 1.67-8.12 5.4 1.67 7.37 5.4 8.12c3.74 0.75 7.37-1.67 8.12-5.4zm-3.46 17.2c0.75-3.73-1.67-7.37-5.4-8.12s-7.37 1.67-8.12 5.4 1.67 7.37 5.4 8.12 7.37-1.67 8.12-5.4zm-3.46 17.19c0.75-3.73-1.67-7.37-5.4-8.12s-7.37 1.67-8.12 5.4 1.67 7.37 5.4 8.12c3.73 0.76 7.37-1.66 8.12-5.4z" fill="#333"/>
     <circle cx="585.13" cy="460.51" r="3.99"/>
     <g fill="#08b70b">
      <path class="st0" d="m594.66 409.98 0.58 0.78 1.14-0.59c1.15-0.59 2.15-1.41 3.12-2.26l3.01-2.43c2.02-1.6 4.01-3.25 5.97-4.94l-0.15-0.22c-2.3 1.19-4.57 2.42-6.8 3.71l-3.37 1.89c-0.86 0.44-1.69 0.93-2.47 1.49-0.99-0.79-2.06-1.5-3.31-2.04l-0.2 0.18c0.59 1.7 1.5 3.1 2.48 4.43z"/>
      <path class="st0" d="m598.07 421.23-3.37 1.89c-0.86 0.44-1.69 0.93-2.47 1.49-0.99-0.79-2.06-1.5-3.31-2.04l-0.2 0.18c0.59 1.7 1.5 3.1 2.48 4.43l0.58 0.78 1.14-0.59c1.15-0.59 2.15-1.41 3.12-2.26l3.01-2.43c2.02-1.6 4.01-3.25 5.97-4.94l-0.15-0.22c-2.3 1.19-4.57 2.42-6.8 3.71z"/>
      <path class="st0" d="m594.61 438.42-3.37 1.89c-0.86 0.44-1.69 0.93-2.47 1.49-0.99-0.79-2.06-1.5-3.31-2.04l-0.2 0.18c0.59 1.7 1.5 3.1 2.48 4.43l0.58 0.78 1.14-0.59c1.15-0.59 2.15-1.41 3.12-2.26l3.01-2.43c2.02-1.6 4.01-3.25 5.97-4.94l-0.15-0.22c-2.3 1.2-4.57 2.43-6.8 3.71z"/>
     </g>
     <path class="st0" d="m509.48 335.83s11.53 0.59 20.94-0.9c3.72-0.59 7.18-2.46 10.3-4.48 1.6-1.04 7.55-4.41 7.2-6.75-2.65-0.46-5.44-0.56-8.12-0.9-2.05-0.26-2.99-0.22-3.51-1.96-1.55-5.24-0.68-11.91-0.22-17.27 0.28-3.22 0.37-6.36 0.37-9.6 0-1.86 0.65-4.3-0.9-5.77-1.51-1.44-4.5-0.74-6.43-0.72-3.56 0.03-7.12 0.07-10.67 0.1l-15.99 7.14s-4 19.24-0.79 26.54" fill="#08b70b"/>
     <path d="m82.59 164.24h17.952l2.5876-19.323c0.14552-1.0795-0.76464-2.0346-1.9368-2.0346h-37.206c-1.1748 0-2.0823 0.95515-1.9368 2.0346l2.5876 19.323z" fill="#c5c5c5" stroke-width=".26458"/>
     <clipPath>
      <path d="m82.59 164.24h17.952l2.5876-19.323c0.14552-1.0795-0.76464-2.0346-1.9368-2.0346h-37.206c-1.1748 0-2.0823 0.95515-1.9368 2.0346l2.5876 19.323z" stroke-width=".26458"/>
     </clipPath>
     <g class="st4" clip-path="url(#XMLID_3_)" fill="none" opacity=".4" stroke="#fff" stroke-miterlimit="10">
      <line class="st5" x1="200.53" x2="390.26" y1="637.84" y2="499.5" stroke-width="37"/>
      <line class="st6" x1="236.11" x2="425.84" y1="657.72" y2="519.39" stroke-width="28"/>
     </g>
     <path class="st7" d="m213.34 601.83h-34.02c-1.2 0-2.17-0.97-2.17-2.17v-6.93c0-1.2 0.97-2.17 2.17-2.17h34.02c1.2 0 2.17 0.97 2.17 2.17v6.93c0 1.19-0.97 2.17-2.17 2.17z" fill="#f4a93b"/>
     <rect class="st7" x="181.26" y="599.09" width="30.13" height="20.44" fill="#f4a93b"/>
     <path class="st8" d="m430.81 621.98h-22.51c-1.3 0-2.38-1-2.48-2.29l-2.03-26.49c-0.11-1.44 1.03-2.67 2.48-2.67h26.57c1.45 0 2.59 1.23 2.48 2.67l-2.03 26.49c-0.1 1.29-1.18 2.29-2.48 2.29z" fill="#29a4db"/>
     <ellipse class="st9" cx="436.66" cy="604.98" rx="7.4" ry="8.1" fill="none" stroke="#29a4db" stroke-miterlimit="10" stroke-width="5"/>
     <path class="st3" d="m426.24 585.7c-0.63-0.29-1.21-0.69-1.71-1.25-0.51-0.55-0.89-1.3-1.06-2.11-0.09-0.41-0.1-0.96 0.01-1.46 0.1-0.52 0.33-0.96 0.56-1.37 0.5-0.79 1.12-1.36 1.68-1.83 1.99-1.62 4.59-3.21 4.88-4.03 0.17-0.3 0.27-0.9 0.06-1.84-0.19-0.92-0.66-2.08-1.05-3.33-0.4-1.24-0.77-2.6-0.88-4.02-0.11-1.41 0.07-2.91 0.73-4.12 0.83 2.63 2.25 4.32 3.68 6.42 0.7 1.04 1.46 2.13 2.04 3.64 0.28 0.75 0.49 1.61 0.52 2.58 0.03 0.96-0.19 2.04-0.68 3-0.51 0.93-1.18 1.63-1.82 2.17-0.66 0.52-1.3 0.92-1.91 1.24l-0.88 0.45-0.87 0.42c-0.65 0.32-1.22 0.52-1.73 0.74-0.51 0.21-0.93 0.41-1.25 0.59-0.29 0.2-0.51 0.28-0.66 0.69-0.15 0.47-0.2 0.98-0.14 1.56 0.06 0.57 0.26 1.2 0.48 1.86z" fill="#333"/>
     <path class="st3" d="m418.34 584.45c-1.38-1.26-2.21-3.2-2.32-5.25-0.05-1.03 0.09-2.11 0.48-3.16 0.19-0.53 0.45-1.04 0.78-1.52 0.33-0.49 0.62-0.85 0.94-1.23 0.62-0.73 1.2-1.37 1.56-1.89 0.35-0.55 0.45-0.88 0.45-1.27 0.01-0.37-0.1-0.99-0.32-1.57-0.21-0.59-0.52-1.22-0.93-1.87-0.79-1.34-1.91-2.79-2.82-4.67-0.45-0.93-0.82-2-0.99-3.16-0.07-0.56-0.1-1.14-0.09-1.69 0.06-0.55 0.07-1.11 0.21-1.62 0.44-2.1 1.4-3.87 2.55-5.37 1.12-1.54 2.54-2.72 3.79-4.02-0.1 0.95-0.5 1.81-0.77 2.66-0.29 0.86-0.6 1.68-0.84 2.5-0.51 1.63-0.85 3.24-0.82 4.68-0.01 0.72 0.13 1.38 0.3 1.99 0.22 0.58 0.46 1.19 0.87 1.82 0.76 1.27 1.86 2.61 2.91 4.31 0.5 0.86 1 1.83 1.34 2.93 0.16 0.55 0.29 1.13 0.35 1.73 0.08 0.59 0.08 1.28-0.03 1.95-0.11 0.69-0.35 1.37-0.66 1.97-0.32 0.61-0.72 1.09-1.11 1.52-0.79 0.83-1.55 1.37-2.2 1.88-0.31 0.25-0.66 0.51-0.88 0.72-0.24 0.2-0.45 0.44-0.66 0.71-0.41 0.54-0.75 1.2-0.97 1.94-0.47 1.46-0.56 3.18-0.12 4.98z" fill="#333"/>
     <path class="st3" d="m409.42 585.4c-0.99-0.27-1.81-1.01-2.43-1.84-0.61-0.85-1.01-1.82-1.25-2.83-0.42-2.03-0.32-4.26 1.08-6.43 0.2-0.3 0.32-0.43 0.46-0.62l0.41-0.51 0.81-0.92c0.53-0.58 1.02-1.12 1.46-1.63 0.44-0.52 0.82-1 1.1-1.64 0.3-0.64 0.43-1.46 0.44-2.48 0.9 0.44 1.64 1.29 2.01 2.38s0.3 2.32 0.03 3.36c-0.27 1.06-0.73 1.97-1.2 2.78-0.24 0.41-0.5 0.78-0.73 1.15l-0.37 0.52c-0.12 0.16-0.27 0.37-0.29 0.43-0.5 0.72-1 2.05-1.29 3.44-0.16 0.7-0.28 1.44-0.35 2.23-0.06 0.79-0.07 1.61 0.11 2.61z" fill="#333"/>
     <g fill="#08b70b">
      <path class="st0" d="m121.79 334.56s16.33-21.2 17.22-24.19c0.88-2.99-9.62-18.66-9.62-18.66s5-6.95 0.31-14.02c-4.68-7.07-13.22-6.53-18.25-2.06-5.03 4.46-4.98 13.33-2.23 16.94s7.19 3.15 8.41 2.77c0 0-4.79 4.74-10.58-1.37s-4.2-12.52-2.46-15.87 6.7-6.78 6.7-6.78-5.15-6.37-8.63-6.93-15.9 12.35-16.27 15.38 2.18 7.98 2.18 7.98-6.32 5.88-0.3 13.14 14.19 3.75 16.48-2.21c0 0-1.97 13.33-14.48 7.63-12.5-5.7-6.16-18.47-6.16-18.47s-1.88-5.73-1.33-8.33 7.54-11.39 7.54-11.39-5.48-0.85-8.07-0.15-7.12 6.96-7.87 8.77 0.79 18.19 0.79 18.19-8.04 5.34-2.26 14.45 14.87 2.96 14.87 2.96 1.68 6.61 4.02 9.79c5.08 6.91 17.72 12.07 17.72 12.07"/>
      <path class="st0" d="m130.98 274.23s-1.52-3.93-7.11-5.22c-6.09-1.4-9.45 0.51-9.45 0.51l0.22-31.27 16.11 2z"/>
      <circle class="st0" cx="123.13" cy="232.85" r="13.93"/>
     </g>
     <path class="st7" d="m52.19 380.55c0.05-2.91 2.42-5.24 5.33-5.24h7.77c2.91 0 5.28 2.33 5.33 5.24l1.42 93.22c0.05 2.98-3.15 5.43-6.14 5.43h-8.19c-2.98 0-5.39-2.45-5.33-5.43 0.05-2.69-0.32-5.74 0.2-8.37 0.71-3.57 2.54-4.37 5.07-6.37 1.83-1.45 3.12-3.22 3.33-5.51 0.11-1.19-0.54-2.53-0.42-3.62 0.13-1.14 1.07-2.4 1.34-3.58 0.35-1.5 0.44-3.15 0.33-4.72-0.3-3.99-3.01-6.63-5.46-9.56-2.25-2.69-3.24-5.12-3.35-8.69-0.1-3.41 2.15-3.53 3.77-5.85 0.97-1.39 0.43-3.05-0.74-4.12-1.04-0.96-3.08-0.71-4.03-1.79-1.3-1.47-0.43-5.23-0.4-7.06 0.05-3.19 0.11-20.79 0.17-23.98z" fill="#f4a93b"/>
     <g fill="#08b70b">
      <path class="st0" d="m59.76 420.94 4.02 7.68 7.5-3.66s6.4-1.83 10.79 3.47c0 0-5.19-1.52-10.91 0.51l0.67 30.03s23.36 2.83 24.51-25.42c0.75-18.76-18.66-36.57-36.58-12.61z"/>
      <circle class="st0" cx="59.38" cy="427.1" r="11.64"/>
      <path class="st0" d="m45.44 464.44s-11.05 4.04-15.39 0.15-4.94-11.07 2.84-13.91c0 0-9.57-1.65-9.27-9.27 0.3-7.63 7.78-10.62 7.78-10.62s-7.63-4.94-5.38-15.11c2.24-10.17 16.29-5.83 21.67-3.74 0 0 6.73-2.39 8.97 1.79 0 0-13.91 2.84-10.92 16.6 0 0-1.05 1.5-1.65 2.69 0 0-3.44-1.94-9.42-1.65 0 0 6.28 1.2 8.83 4.19 0 0-1.79 2.09-1.05 4.64 0 0 1.5-3.59 4.64-4.79 0 0 5.15 8.53 13.79 7.03 0 0 1.76 5.24-4.97 9.42s-10.92-1.05-12.27-4.49c0 0 0.3 8.68 7.93 8.53s9.31-5.24 9.31-5.24 5.65 1.79 4.9 8.38c-0.75 6.58-5.88 9.28-9.57 10.02-5.98 1.21-10.77-4.62-10.77-4.62z"/>
     </g>
     <path class="st8" d="m692.54 325.56h-155.87c-1.59 0-2.87-1.29-2.87-2.87v-102.26c0-1.59 1.29-2.87 2.87-2.87h155.87c1.59 0 2.87 1.29 2.87 2.87v102.26c0 1.58-1.28 2.87-2.87 2.87zm-2.71-7.21v-87.58c0-1.59-1.29-2.87-2.87-2.87h-144.7c-1.59 0-2.87 1.29-2.87 2.87v87.58c0 1.59 1.29 2.87 2.87 2.87h144.69c1.59 0 2.88-1.28 2.88-2.87z" fill="#29a4db"/>
     <path class="st8" d="m594.53 311.01h-42.28c-1.16 0-2.1-0.94-2.1-2.1v-46.51c0-1.16 0.94-2.1 2.1-2.1h42.28c1.16 0 2.1 0.94 2.1 2.1v46.51c0.01 1.16-0.94 2.1-2.1 2.1z" fill="#29a4db"/>
     <circle class="st0" cx="554.57" cy="248.33" r="4.98" fill="#08b70b"/>
     <path class="st0" d="m595.35 251.88h-29.55c-0.7 0-1.26-0.56-1.26-1.26v-5.29c0-0.7 0.56-1.26 1.26-1.26h29.56c0.7 0 1.26 0.56 1.26 1.26v5.29c-0.01 0.69-0.57 1.26-1.27 1.26z" fill="#08b70b"/>
     <g fill="#9ab7c1">
      <path class="st10" d="m679.82 259.35h-69.72c-0.95 0-1.71-0.77-1.71-1.71v-12.36c0-0.95 0.77-1.71 1.71-1.71h69.71c0.95 0 1.71 0.77 1.71 1.71v12.36c0.01 0.94-0.76 1.71-1.7 1.71z"/>
      <path class="st10" d="m679.82 285.32h-69.72c-0.95 0-1.71-0.77-1.71-1.71v-12.36c0-0.95 0.77-1.71 1.71-1.71h69.71c0.95 0 1.71 0.77 1.71 1.71v12.36c0.01 0.94-0.76 1.71-1.7 1.71z"/>
      <path class="st10" d="m679.82 310.51h-69.72c-0.95 0-1.71-0.77-1.71-1.71v-12.36c0-0.95 0.77-1.71 1.71-1.71h69.71c0.95 0 1.71 0.77 1.71 1.71v12.36c0.01 0.94-0.76 1.71-1.7 1.71z"/>
     </g>
     <circle class="st11" cx="543.89" cy="223.4" r="2.03" fill="#ba272d"/>
     <circle class="st12" cx="551.28" cy="223.4" r="2.03" fill="#f5e721"/>
     <circle class="st0" cx="558.51" cy="223.4" r="2.03" fill="#08b70b"/>
     <path class="st12" d="m133.15 186.35c-2.08 2.44-3.62 5.09-3.62 8.53h-11.68c0-3.71-1.79-6.5-4.12-9.11-7.76-3.82-13.1-11.81-13.1-21.05 0-12.95 10.5-23.45 23.45-23.45s23.45 10.5 23.45 23.45c-0.01 9.74-5.94 18.08-14.38 21.63zm-14.96-22.23c0-1.23-1-2.23-2.23-2.23s-2.23 1-2.23 2.23 1 2.23 2.23 2.23h0.05c1.23 6.68 5.42 29.44 5.61 30.43l0.79-0.14c-0.18-1-4.38-23.8-5.61-30.45 0.82-0.34 1.39-1.13 1.39-2.07zm13.91-2.23c-1.23 0-2.23 1-2.23 2.23 0 0.93 0.58 1.73 1.39 2.06-1.23 6.65-5.43 29.45-5.61 30.45l0.79 0.14c0.11-0.58 1.59-8.65 3.05-16.57 0.73-3.96 1.45-7.88 1.99-10.82 0.22-1.21 0.41-2.24 0.56-3.04h0.05c1.23 0 2.23-1 2.23-2.23 0-1.22-0.99-2.22-2.22-2.22zm-5.85 3.55c0.76-0.48 0.93-1.49 1.16-2.34 0.3 0.49 0.33 1.28 0.58 1.73 0.19 0.34 0.71 0.04 0.52-0.3-0.4-0.73-0.28-1.79-1.09-2.26-0.18-0.1-0.38 0-0.44 0.18-0.15 0.42-0.24 0.86-0.37 1.28-0.09 0.28-0.19 0.63-0.37 0.9-0.16-0.47-0.34-0.93-0.53-1.39-0.19-0.45-0.46-1.31-0.98-1.5-0.56-0.2-0.81 0.79-0.95 1.14-0.3 0.72-0.62 1.42-0.93 2.14-0.25-0.44-0.4-1-0.57-1.43-0.2-0.49-0.39-1.3-0.83-1.63-0.98-0.73-2.23 2.24-2.59 2.78-0.21 0.32 0.31 0.63 0.52 0.3 0.37-0.56 0.66-1.18 1.02-1.74 0.18-0.28 0.38-0.52 0.61-0.75 0.04-0.04 0.07-0.05 0.1-0.06l0.1 0.16c0.3 0.56 0.51 1.17 0.75 1.76 0.19 0.47 0.38 1.04 0.74 1.41 0.18 0.18 0.42 0.07 0.5-0.13 0.31-0.75 0.67-1.49 0.98-2.24 0.12-0.28 0.23-0.57 0.36-0.84 0.02-0.03 0.05-0.09 0.09-0.15l0.07 0.1c0.07 0.12 0.14 0.24 0.2 0.36 0.14 0.28 0.27 0.57 0.38 0.87 0.19 0.48 0.37 0.97 0.53 1.46 0.06 0.19 0.27 0.3 0.44 0.19z" fill="#f5e721"/>
     <path class="st12" d="m125.54 135.94v-23.14-3.28c0-1.93-3-1.93-3 0v23.14 3.28c0 1.93 3 1.93 3 0z" fill="#f5e721"/>
     <path class="st12" d="m93.12 165.86h-22.08-3.13c-1.93 0-1.93 3 0 3h22.08 3.13c1.93 0 1.93-3 0-3z" fill="#f5e721"/>
     <path class="st12" d="m104.19 141.88c-5.27-5.97-10.53-11.94-15.8-17.91-0.74-0.84-1.47-1.67-2.21-2.51-1.28-1.45-3.39 0.68-2.12 2.12 5.27 5.97 10.53 11.94 15.8 17.91 0.74 0.84 1.47 1.67 2.21 2.51 1.28 1.46 3.39-0.67 2.12-2.12z" fill="#f5e721"/>
     <path class="st12" d="m113.98 137.34c-1.34-3.5-2.69-7.01-4.03-10.51-0.19-0.5-0.38-1-0.57-1.49-0.29-0.76-1.01-1.28-1.85-1.05-0.72 0.2-1.34 1.08-1.05 1.85 1.34 3.5 2.69 7.01 4.03 10.51 0.19 0.5 0.38 1 0.57 1.49 0.29 0.76 1.01 1.28 1.85 1.05 0.73-0.2 1.34-1.09 1.05-1.85z" fill="#f5e721"/>
     <path class="st12" d="m97.92 153.11c-3.79-1.58-7.59-3.15-11.38-4.73-0.54-0.22-1.08-0.45-1.62-0.67-0.75-0.31-1.65 0.34-1.85 1.05-0.24 0.86 0.3 1.53 1.05 1.85 3.79 1.58 7.59 3.15 11.38 4.73 0.54 0.22 1.08 0.45 1.62 0.67 0.75 0.31 1.65-0.34 1.85-1.05 0.24-0.87-0.3-1.54-1.05-1.85z" fill="#f5e721"/>
     <path class="st12" d="m154.95 168.86h22.08 3.13c1.93 0 1.93-3 0-3h-22.08-3.13c-1.93 0-1.93 3 0 3z" fill="#f5e721"/>
     <path class="st12" d="m146.01 144.01c5.27-5.97 10.53-11.94 15.8-17.91 0.74-0.84 1.47-1.67 2.21-2.51 1.27-1.44-0.84-3.57-2.12-2.12-5.27 5.97-10.53 11.94-15.8 17.91-0.74 0.84-1.47 1.67-2.21 2.51-1.28 1.44 0.84 3.57 2.12 2.12z" fill="#f5e721"/>
     <path class="st12" d="m136.98 138.14c1.34-3.5 2.69-7.01 4.03-10.51 0.19-0.5 0.38-1 0.57-1.49 0.29-0.76-0.32-1.65-1.05-1.85-0.85-0.23-1.55 0.29-1.85 1.05-1.34 3.5-2.69 7.01-4.03 10.51-0.19 0.5-0.38 1-0.57 1.49-0.29 0.76 0.32 1.65 1.05 1.85 0.85 0.23 1.56-0.29 1.85-1.05z" fill="#f5e721"/>
     <path class="st12" d="m150.95 156c3.79-1.58 7.59-3.15 11.38-4.73 0.54-0.22 1.08-0.45 1.62-0.67 0.75-0.31 1.28-0.99 1.05-1.85-0.19-0.71-1.09-1.36-1.85-1.05-3.79 1.58-7.59 3.15-11.38 4.73-0.54 0.22-1.08 0.45-1.62 0.67-0.75 0.31-1.28 0.99-1.05 1.85 0.2 0.71 1.1 1.36 1.85 1.05z" fill="#f5e721"/>
     <g fill="#08b70b">
      <circle class="st0" cx="539.67" cy="282.53" r="14.67"/>
      <path class="st0" d="m501.3 319.85s-3.02-23.71 0.08-27.93 30.58-15.31 30.58-15.31l3.3 16.38-20.75 15.07"/>
      <circle class="st0" cx="578.3" cy="411.22" r="14.67"/>
      <path class="st0" d="m529.73 433.7s5.01-23.37 9.34-26.32 33.92-4.3 33.92-4.3l-2.32 16.55-24.58 7.34"/>
     </g>
     <path class="st10" d="m128.74 207.57h-9.61c-1.01 0-1.83-0.82-1.83-1.83v-9.79c0-1.01 0.82-1.83 1.83-1.83h9.61c1.01 0 1.83 0.82 1.83 1.83v9.79c0 1.01-0.82 1.83-1.83 1.83z" fill="#9ab7c1"/>
     <path class="st13" d="m70.62 380.55c-0.05-2.91-2.42-5.24-5.33-5.24h-7.77c-2.91 0-5.28 2.33-5.33 5.24-0.02 1.23-0.04 4.59-0.07 8.44h18.63z" fill="#f79f9f"/>
     <path class="st14" d="m70.72 387.13h-18.59c-0.02 3.3-0.04 7.23-0.06 10.56h18.81z" fill="#c5c5c5"/>
     <path class="st15" d="m52.34 471.18 0.09 9.64 10.59 14.12 9.21-11.88-0.34-14.29s-1.98 6.54-4.56 7.15c-2.58 0.6-4.31-4.31-4.31-4.31s-2.58 5.42-6.46 4.65c-3.88-0.78-4.22-5.08-4.22-5.08z" fill="#f4cf9d"/>
     <path class="st3" d="m61.1 487.65c-0.79 0.25-1.81 0.71-2.54 1.35l4.46 5.95 4.89-6.3c-2.05-1.14-4.66-1.7-6.81-1z" fill="#333"/>
     <path class="st3" d="m505.57 617.8h-19.38-46.11-55.92-48.3-23.37-15.53-43.74-55.66-50.17-27.35-1.29c-5.79 0-5.8 9 0 9h19.38 46.11 55.92 48.3 23.37 15.53 43.74 55.66 50.17 27.35 1.29c5.79 0 5.8-9 0-9z" fill="#333"/>
    </g>
    <path class="st0" d="m292.55 408.1c0-20.57-8.94-47.39-29.51-59.01s-30.4-33.08-28.61-46.5c1.79-13.41 13.41-38.45 13.41-38.45 0.89 2.68 2.68 4.47 2.68 4.47-4.47-28.61 6.26-40.24 18.78-42.02 12.52-1.79 18.78 10.73 18.78 10.73-0.89-6.26-8.05-14.31-8.05-14.31s10.73-4.47 32.19-4.47 32.19 4.47 32.19 4.47-7.15 8.05-8.05 14.31c0 0 6.26-12.52 18.78-10.73s23.25 13.41 18.78 42.02c0 0 1.79-1.79 2.68-4.47 0 0 11.62 25.04 13.41 38.45s-8.05 34.87-28.61 46.5c-20.57 11.62-29.51 38.45-29.51 59.01s-19.67 17.44-19.67 17.44-19.67 3.13-19.67-17.44zm-5.81-129.2s2.68-22.35-13.41-26.82c-11.72-3.25-15.2 12.52-15.2 20.57 0-0.01 3.58 20.56 28.61 6.25zm8.33 11.63c-0.9-0.49-1.96-0.73-3-0.73-1.05 0.04-2.04 0.24-2.99 0.68-0.48 0.19-0.9 0.51-1.34 0.78-0.38 0.35-0.8 0.66-1.11 1.07-0.68 0.77-1.15 1.66-1.46 2.56-0.63 1.81-0.7 3.71-0.21 5.46 0.63-1.69 1.26-3.25 2.12-4.56 0.42-0.65 0.88-1.25 1.41-1.72 0.51-0.5 1.09-0.88 1.72-1.16l0.48-0.21c0.16-0.07 0.34-0.09 0.51-0.15 0.34-0.14 0.68-0.15 1.02-0.23 0.68-0.07 1.36-0.04 2.06 0.14 1.4 0.35 2.79 1.3 4.11 2.52-0.39-1.76-1.51-3.46-3.32-4.45zm-4.55 7.34c-0.66 1.56-0.91 3.88 0.84 4.77 0.77 0.39 1.45 0.33 2.04-0.37 1.54-1.8-0.32-6.4-2.88-4.4zm75.8-25.23c0-8.05-3.48-23.82-15.2-20.57-16.09 4.47-13.41 26.82-13.41 26.82 25.03 14.32 28.61-6.25 28.61-6.25zm-36.13 19.83c0.7-0.18 1.38-0.21 2.06-0.14 0.34 0.08 0.68 0.09 1.02 0.23 0.17 0.06 0.35 0.08 0.51 0.15l0.48 0.21c0.63 0.28 1.21 0.66 1.72 1.16 0.53 0.47 0.99 1.07 1.41 1.72 0.86 1.31 1.49 2.87 2.12 4.56 0.49-1.75 0.42-3.65-0.21-5.46-0.32-0.9-0.79-1.79-1.46-2.56-0.31-0.41-0.73-0.72-1.11-1.07-0.44-0.27-0.86-0.6-1.34-0.78-0.95-0.44-1.94-0.65-2.99-0.68-1.05 0.01-2.1 0.25-3 0.73-1.81 0.98-2.93 2.69-3.3 4.46 1.3-1.22 2.69-2.17 4.09-2.53zm0.86 9.8c0.59 0.7 1.27 0.76 2.04 0.37 1.75-0.89 1.5-3.21 0.84-4.77-2.56-2-4.42 2.6-2.88 4.4zm39.08 8.21c-0.29-0.34-0.68-0.67-1.13-0.88s-0.92-0.3-1.33-0.29c-0.84 0.03-1.47 0.3-2.21 0.75 0.57 0.65 1.27 0.99 1.73 1.31 0.41 0.28 0.57 0.47 0.79 0.73-1.25 1.1-11.51 9.78-24.91 10.62-14.31 0.89-19.22-3.58-30.85-3.58-11.62 0-16.54 4.47-30.85 3.58-13.4-0.84-23.66-9.52-24.91-10.62 0.22-0.25 0.38-0.45 0.79-0.73 0.46-0.32 1.16-0.66 1.73-1.31-0.74-0.45-1.37-0.72-2.21-0.75-0.41-0.01-0.89 0.08-1.33 0.29-0.45 0.21-0.84 0.53-1.13 0.88-0.57 0.68-0.88 1.52-0.89 2.37 0 0.85 0.3 1.64 0.92 2.23 0.48-0.72 0.79-1.28 1.12-1.72 0.31-0.43 0.62-0.81 0.9-1.15 0.01-0.02 0.03-0.03 0.04-0.05 0.96 2.48 12.32 29.32 55.81 29.32 43.5 0 54.86-26.84 55.81-29.32 0.01 0.02 0.02 0.03 0.04 0.05 0.28 0.33 0.59 0.71 0.9 1.15 0.32 0.44 0.64 1 1.12 1.72 0.62-0.59 0.92-1.38 0.92-2.23 0.01-0.85-0.3-1.69-0.87-2.37z" fill="#08b70b"/>
   </g>
   <g transform="matrix(.058851 0 0 .058851 294.61 274.22)">
    <path class="st0" d="m183.45 540.62c6.5-2.43 30.07-10.97 51.2 15.85 21.14 26.82-10.16 103.23 78.44 101.19 88.59-2.04 69.89-83.72 69.89-83.72l-3.38-0.12c1.53 7.83 12.87 77.13-66.68 78.95-84.31 1.93-56.04-69.66-74.64-96.3-6.64-9.5-13.18-14.6-19.37-16.78 0 0 23.28 2.91 32.37 46.92s41.83 58.56 72.02 50.92c26.95-6.82 37.96-33.07 34.57-64.51l-19.59-0.71-9 44.19c-35.77 17.89-54.81-7.62-67.81-47.85s-52.42-48.37-69.49-42.67c-17.06 5.7-15.03 17.08-8.53 14.64z" fill="#08b70b"/>
    <g fill="#08b70b">
     <path class="st0" d="m345.51 359.38c0-17.93-7.8-41.32-25.73-51.46s-26.51-28.85-24.95-40.55 11.7-33.53 11.7-33.53c0.78 2.34 2.34 3.9 2.34 3.9-3.9-24.95 5.46-35.09 16.37-36.65 10.92-1.56 16.37 9.36 16.37 9.36-0.78-5.46-7.02-12.48-7.02-12.48s9.36-3.9 28.07-3.9 28.07 3.9 28.07 3.9-6.24 7.02-7.02 12.48c0 0 5.46-10.92 16.37-9.36 10.92 1.56 20.27 11.7 16.37 36.65 0 0 1.56-1.56 2.34-3.9 0 0 10.14 21.83 11.7 33.53s-7.02 30.41-24.95 40.55-25.73 33.53-25.73 51.46-17.15 15.2-17.15 15.2-17.15 2.73-17.15-15.2zm-5.07-112.67s2.34-19.49-11.7-23.39c-10.22-2.84-13.26 10.92-13.26 17.93 0.01 0 3.13 17.93 24.96 5.46zm7.27 10.14c-0.79-0.42-1.71-0.63-2.62-0.64-0.91 0.03-1.78 0.21-2.61 0.6-0.42 0.16-0.79 0.45-1.17 0.68-0.34 0.3-0.7 0.57-0.97 0.93-0.59 0.67-1 1.45-1.28 2.23-0.55 1.58-0.61 3.24-0.18 4.77 0.55-1.47 1.1-2.83 1.85-3.98 0.37-0.57 0.76-1.09 1.23-1.5 0.44-0.43 0.95-0.76 1.5-1.01l0.42-0.18c0.14-0.06 0.3-0.08 0.44-0.13 0.3-0.12 0.59-0.13 0.89-0.2 0.59-0.06 1.19-0.03 1.8 0.12 1.22 0.31 2.43 1.14 3.58 2.2-0.33-1.54-1.31-3.03-2.88-3.89zm-3.97 6.4c-0.58 1.36-0.79 3.38 0.74 4.16 0.67 0.34 1.26 0.29 1.78-0.32 1.33-1.57-0.29-5.59-2.52-3.84zm66.1-22c0-7.02-3.04-20.77-13.26-17.93-14.03 3.9-11.7 23.39-11.7 23.39 21.84 12.47 24.96-5.46 24.96-5.46zm-31.51 17.29c0.61-0.15 1.2-0.18 1.8-0.12 0.3 0.07 0.59 0.08 0.89 0.2 0.15 0.05 0.3 0.07 0.44 0.13l0.42 0.18c0.55 0.24 1.05 0.58 1.5 1.01 0.47 0.41 0.86 0.93 1.23 1.5 0.75 1.14 1.3 2.5 1.85 3.98 0.42-1.53 0.37-3.19-0.18-4.77-0.28-0.79-0.69-1.56-1.28-2.23-0.27-0.35-0.63-0.63-0.97-0.93-0.38-0.24-0.75-0.52-1.17-0.68-0.83-0.38-1.69-0.56-2.61-0.6-0.91 0.01-1.83 0.22-2.62 0.64-1.58 0.86-2.56 2.35-2.87 3.89 1.14-1.06 2.35-1.89 3.57-2.2zm0.75 8.55c0.52 0.61 1.11 0.66 1.78 0.32 1.53-0.78 1.31-2.8 0.74-4.16-2.24-1.75-3.86 2.27-2.52 3.84zm34.08 7.16c-0.26-0.3-0.59-0.58-0.98-0.77-0.39-0.18-0.8-0.26-1.16-0.25-0.73 0.03-1.28 0.26-1.93 0.65 0.5 0.57 1.11 0.86 1.51 1.14 0.36 0.24 0.5 0.41 0.69 0.63-1.09 0.96-10.04 8.53-21.72 9.26-12.48 0.78-16.76-3.12-26.9-3.12s-14.42 3.9-26.9 3.12c-11.68-0.73-20.63-8.3-21.72-9.26 0.19-0.22 0.33-0.39 0.69-0.63 0.4-0.28 1.01-0.57 1.51-1.14-0.64-0.39-1.19-0.62-1.93-0.65-0.36-0.01-0.77 0.07-1.16 0.25s-0.73 0.46-0.98 0.77c-0.5 0.59-0.77 1.32-0.78 2.07 0 0.74 0.26 1.43 0.8 1.95 0.42-0.63 0.69-1.12 0.97-1.5 0.27-0.38 0.54-0.71 0.78-1 0.01-0.01 0.02-0.03 0.03-0.04 0.83 2.16 10.74 25.57 48.67 25.57s47.84-23.41 48.67-25.57c0.01 0.01 0.02 0.03 0.03 0.04 0.25 0.29 0.51 0.62 0.78 1 0.28 0.39 0.56 0.87 0.97 1.5 0.54-0.52 0.8-1.21 0.8-1.95 0.02-0.75-0.24-1.48-0.74-2.07z"/>
     <path class="st0" d="m442.85 677.11c-0.42 0-0.84 0.03-1.25 0.08-2.7-4.46-5.97-8.87-8.11-11-2.61-2.61-4.25-5.95-5.19-8.39-8.21-28.7-20.81-103.72-23.1-151.78l-3.22-39.49c-4.61-43.66-7.39-78.07-7.39-78.07l-4.89-21.59-27.04-0.37-27.04 0.37-4.89 21.59s-2.79 34.42-7.39 78.07l-3.22 39.49c-2.29 48.07-14.89 123.09-23.1 151.78-0.94 2.44-2.58 5.78-5.19 8.39-2.13 2.13-5.4 6.54-8.11 11-0.41-0.05-0.83-0.08-1.25-0.08-5.6 0-10.14 4.54-10.14 10.14s4.54 10.14 10.14 10.14c3.77 0 7.06-2.07 8.81-5.13 0.25 0.03 0.49 0.05 0.74 0.08 0.92 4.66 5.02 8.17 9.94 8.17 4.57 0 8.43-3.03 9.7-7.19h0.73c1.66 3.33 5.09 5.63 9.07 5.63 5.6 0 10.14-4.54 10.14-10.14 0-4.37-2.77-8.08-6.65-9.51-3.26-6.04-7.35-13.15-9.26-18.81-0.13-17.14 27.5-67.77 29.42-79.29 0 0 10.53-1.56 17.54-1.56 7.02 0 17.54 1.56 17.54 1.56 1.92 11.52 29.55 62.15 29.42 79.29-1.91 5.66-6 12.77-9.26 18.81-3.88 1.42-6.65 5.14-6.65 9.51 0 5.6 4.54 10.14 10.14 10.14 3.98 0 7.41-2.29 9.07-5.63h0.73c1.26 4.16 5.13 7.19 9.7 7.19 4.93 0 9.03-3.51 9.94-8.17 0.25-0.02 0.5-0.05 0.74-0.08 1.74 3.06 5.03 5.13 8.81 5.13 5.6 0 10.14-4.54 10.14-10.14s-4.52-10.14-10.12-10.14zm-147.1 5.16c-0.58 0.64-1.06 1.34-1.51 2.06-0.46 0.71-0.79 1.48-1.11 2.25l-1.1 2.67-0.39-2.81c-0.09-0.65-0.21-1.33-0.34-2-0.14-0.67-0.29-1.33-0.47-1.98s-0.39-1.29-0.67-1.91c-0.28-0.61-0.61-1.21-1.2-1.63 0.72 0.15 1.32 0.7 1.78 1.26 0.46 0.58 0.84 1.22 1.14 1.88 0.29 0.64 0.54 1.29 0.74 1.95 0.1-0.17 0.21-0.35 0.33-0.51 0.53-0.79 1.17-1.51 1.86-2.14 0.7-0.62 1.46-1.18 2.26-1.64 0.81-0.45 1.65-0.84 2.55-1.05-1.43 1.11-2.75 2.28-3.87 3.6zm20.17-0.98c0.77-0.46 1.58-0.84 2.43-1.07-1.42 1.02-2.67 2.19-3.64 3.52-0.49 0.66-0.89 1.37-1.2 2.1-0.32 0.73-0.5 1.51-0.63 2.29l-0.59 3.46-0.93-3.4c-0.23-0.83-0.52-1.75-0.9-2.58-0.36-0.85-0.79-1.66-1.28-2.43-0.5-0.77-1.09-1.47-1.75-2.12-0.67-0.65-1.47-1.14-2.33-1.62 0.97 0.12 1.94 0.45 2.81 0.98 0.86 0.54 1.63 1.22 2.28 2.01s1.18 1.65 1.63 2.55c0.08 0.18 0.17 0.37 0.25 0.55 0.05-0.1 0.09-0.2 0.14-0.29 0.42-0.83 0.95-1.61 1.6-2.25 0.63-0.67 1.35-1.23 2.11-1.7zm46.36-126.6c-12.92 0-23.39-34.21-23.39-76.41s10.47-76.41 23.39-76.41 23.39 34.21 23.39 76.41-10.47 76.41-23.39 76.41zm55.63 126.37c-0.67 0.64-1.25 1.35-1.75 2.12-0.49 0.78-0.92 1.59-1.28 2.43-0.38 0.83-0.67 1.74-0.9 2.58l-0.93 3.4-0.59-3.46c-0.13-0.78-0.31-1.55-0.63-2.29-0.31-0.73-0.71-1.44-1.2-2.1-0.97-1.33-2.22-2.5-3.64-3.52 0.86 0.22 1.66 0.61 2.43 1.07 0.76 0.47 1.48 1.03 2.11 1.7 0.65 0.65 1.18 1.42 1.6 2.25 0.05 0.1 0.09 0.2 0.14 0.29 0.08-0.18 0.16-0.37 0.25-0.55 0.45-0.9 0.99-1.77 1.63-2.55 0.65-0.78 1.43-1.46 2.28-2.01 0.87-0.53 1.84-0.86 2.81-0.98-0.87 0.48-1.67 0.97-2.33 1.62zm17.25-0.52c-0.27 0.61-0.49 1.25-0.67 1.91-0.18 0.65-0.32 1.32-0.47 1.98-0.13 0.66-0.25 1.35-0.34 2l-0.39 2.81-1.1-2.67c-0.32-0.77-0.65-1.54-1.11-2.25-0.45-0.71-0.93-1.42-1.51-2.06-1.12-1.31-2.44-2.49-3.89-3.6 0.9 0.22 1.74 0.6 2.55 1.05 0.81 0.46 1.56 1.01 2.26 1.64 0.69 0.63 1.33 1.35 1.86 2.14 0.12 0.17 0.23 0.34 0.33 0.51 0.2-0.67 0.45-1.32 0.74-1.95 0.3-0.66 0.68-1.3 1.14-1.88 0.46-0.56 1.06-1.11 1.78-1.26-0.57 0.43-0.9 1.03-1.18 1.63z"/>
    </g>
    <g fill="#08b70b">
     <path class="st0" d="m374.57 373.27s1.68-8.94 7.69-12.35 70.18-17.75 83.77-20.38l63.24-59.24 12.38 5.65c-0.06-0.26-63.01 71.68-67.43 71.41-2.01 2.98-88.77 26.78-88.77 26.78"/>
     <path class="st0" d="m521.72 290.95s-2.57-20.71-1.98-23.07 13.85-8.72 13.85-8.72-0.6-6.65 5.34-9.54c5.95-2.89 11.46 0.85 13.07 5.85 1.61 4.99-1.94 10.92-5.22 12.26s-6.07-0.73-6.74-1.47c0 0 1.34 5.08 7.65 3.27s7.78-6.75 7.94-9.69-1.81-7.21-1.81-7.21 5.98-2.24 8.54-1.23 5.78 14.59 4.83 16.78c-0.95 2.18-4.63 4.49-4.63 4.49s1.92 6.45-5 8.94-11.02-3.11-10.19-8.01c0 0-3.96 9.74 6.7 10.86s11.45-9.96 11.45-9.96 3.53-3.1 4.19-5.07c0.67-1.97-0.55-10.63-0.55-10.63s4.02 1.6 5.48 3.1c1.46 1.49 2.03 7.5 1.81 9.01-0.21 1.51-7.74 11.9-7.74 11.9s3.29 6.77-4.21 10.6c-7.49 3.83-11.16-3.9-11.16-3.9s-3.74 3.77-6.58 4.98c-6.15 2.63-16.68 1.08-16.68 1.08"/>
     <path class="st0" d="m539.45 246.8s2.58-2.04 6.85-0.69c4.64 1.47 6.14 4.09 6.14 4.09l12.24-21.09-11.61-5.04z"/>
     <circle class="st0" cx="561.12" cy="222.12" r="10.86"/>
     <path class="st0" d="m353.43 373.27s-1.68-8.94-7.69-12.35-70.18-17.75-83.77-20.38l-63.24-59.24-12.38 5.65c0.06-0.26 63.01 71.68 67.43 71.41 2.01 2.98 88.77 26.78 88.77 26.78"/>
     <path class="st0" d="m206.28 290.95s2.57-20.71 1.98-23.07-13.85-8.72-13.85-8.72 0.6-6.65-5.34-9.54c-5.95-2.89-11.46 0.85-13.07 5.85-1.61 4.99 1.94 10.92 5.22 12.26s6.07-0.73 6.74-1.47c0 0-1.34 5.08-7.65 3.27s-7.78-6.75-7.94-9.69 1.81-7.21 1.81-7.21-5.98-2.24-8.54-1.23-5.78 14.59-4.83 16.78c0.95 2.18 4.63 4.49 4.63 4.49s-1.92 6.45 5 8.94 11.02-3.11 10.19-8.01c0 0 3.96 9.74-6.7 10.86s-11.45-9.96-11.45-9.96-3.53-3.1-4.19-5.07c-0.67-1.97 0.55-10.63 0.55-10.63s-4.02 1.6-5.48 3.1c-1.46 1.49-2.03 7.5-1.81 9.01 0.21 1.51 7.74 11.9 7.74 11.9s-3.29 6.77 4.21 10.6c7.49 3.83 11.16-3.9 11.16-3.9s3.74 3.77 6.58 4.98c6.15 2.63 16.68 1.08 16.68 1.08"/>
     <path class="st0" d="m188.55 246.8s-2.58-2.04-6.85-0.69c-4.64 1.47-6.14 4.09-6.14 4.09l-12.24-21.09 11.61-5.04z"/>
     <circle class="st0" cx="166.88" cy="222.12" r="10.86"/>
    </g>
    <circle class="st1" cx="120.2" cy="105.55" r="72.55" fill="none" stroke="#08b70b" stroke-miterlimit="10" stroke-width="8"/>
    <circle class="st0" cx="607.8" cy="105.55" r="72.55" fill="#08b70b"/>
    <path class="st0" d="m491.17 72.63c-8.26-2.03-16.64-3.66-25.01-5.2-20.23-3.73-40.64-6.57-61.13-8.35-24.38-2.12-48.82-2.41-73.23-0.69-21.55 1.52-43.03 4.3-64.3 8.03-10.1 1.77-20.28 3.59-30.23 6.11-0.14 0.04-0.29 0.07-0.43 0.1-3.05 0.75-5.17 4.36-4.19 7.38 1.02 3.16 4.11 4.99 7.38 4.19 8.16-2.01 16.44-3.62 24.71-5.14 8.86-1.64 17.75-3.09 26.67-4.37 1.2-0.17 2.41-0.34 3.61-0.5 0.34-0.05 0.68-0.09 1.02-0.14 0.9-0.12-1.55 0.21-0.16 0.02 0.69-0.09 1.38-0.18 2.07-0.27 2.69-0.35 5.38-0.68 8.07-0.99 5.73-0.67 11.46-1.25 17.2-1.75 24.31-2.1 48.67-2.39 73-0.67 11.32 0.8 22.61 1.96 33.87 3.42 0.69 0.09 1.38 0.18 2.07 0.27 1.08 0.14-0.22-0.04-0.37-0.05 0.34 0.03 0.68 0.09 1.02 0.14 1.34 0.18 2.67 0.37 4.01 0.56 2.44 0.35 4.89 0.71 7.33 1.09 4.46 0.69 8.91 1.42 13.35 2.2 10.08 1.77 20.1 3.78 30.07 6.08 0.14 0.03 0.29 0.07 0.43 0.1 3.04 0.75 6.65-0.97 7.38-4.19 0.69-3.09-0.95-6.57-4.21-7.38z" fill="#08b70b"/>
    <path class="st0" d="m458.08 99.39c10.09-4.62 20.18-9.23 30.27-13.85 1.42-0.65 2.84-1.3 4.25-1.95 1.66-0.76 2.64-2.68 2.86-4.38 0.27-1.99-0.38-3.53-1.65-5.04-6.26-7.42-12.52-14.85-18.78-22.27-0.89-1.05-1.77-2.1-2.66-3.15-2.03-2.41-6.42-2.25-8.49 0-2.35 2.56-2.17 5.92 0 8.49 6.26 7.42 12.52 14.85 18.78 22.27 0.89 1.05 1.77 2.1 2.66 3.15 0.4-3.14 0.81-6.28 1.21-9.42-10.09 4.62-20.18 9.23-30.27 13.85-1.42 0.65-2.84 1.3-4.25 1.95-2.86 1.31-3.79 5.67-2.15 8.21 1.91 2.94 5.15 3.54 8.22 2.14z" fill="#08b70b"/>
   </g>
   <g transform="matrix(.049082 0 0 .049082 316.68 308.97)">
    <path class="st0" d="m165.8 524.99c7.14-2.67 33.01-12.04 56.21 17.4s-11.15 113.31 86.11 111.08c97.25-2.23 76.72-91.9 76.72-91.9l-3.71-0.14c1.68 8.59 14.13 84.67-73.2 86.67-92.55 2.12-61.51-76.47-81.94-105.71-7.28-10.43-14.47-16.02-21.26-18.42 0 0 25.56 3.19 35.54 51.51 9.98 48.31 45.92 64.28 79.06 55.9 29.59-7.49 41.67-36.3 37.95-70.81l-21.51-0.78-9.88 48.51c-39.26 19.63-60.16-8.36-74.44-52.53-14.27-44.17-57.54-53.09-76.28-46.84-18.73 6.26-16.5 18.74-9.37 16.06z" fill="#08b70b"/>
    <g fill="#08b70b">
     <path class="st0" d="m343.71 326.04c0-19.69-8.56-45.36-28.25-56.49s-29.1-31.67-27.39-44.51 12.84-36.8 12.84-36.8c0.86 2.57 2.57 4.28 2.57 4.28-4.28-27.39 5.99-38.52 17.97-40.23s17.97 10.27 17.97 10.27c-0.86-5.99-7.7-13.69-7.7-13.69s10.27-4.28 30.81-4.28 30.81 4.28 30.81 4.28-6.85 7.7-7.7 13.69c0 0 5.99-11.98 17.97-10.27s22.25 12.84 17.97 40.23c0 0 1.71-1.71 2.57-4.28 0 0 11.13 23.97 12.84 36.8 1.71 12.84-7.7 33.38-27.39 44.51s-28.25 36.8-28.25 56.49-18.83 16.69-18.83 16.69-18.81 2.99-18.81-16.69zm-5.57-123.68s2.57-21.4-12.84-25.68c-11.22-3.12-14.55 11.98-14.55 19.69 0 0 3.43 19.68 27.39 5.99zm7.97 11.13c-0.86-0.46-1.87-0.7-2.87-0.7-1 0.04-1.95 0.23-2.86 0.66-0.46 0.18-0.87 0.49-1.28 0.75-0.37 0.33-0.77 0.63-1.06 1.02-0.65 0.73-1.1 1.59-1.4 2.45-0.61 1.73-0.67 3.55-0.2 5.23 0.6-1.62 1.21-3.11 2.03-4.37 0.41-0.62 0.84-1.2 1.35-1.65 0.49-0.48 1.04-0.84 1.64-1.11l0.46-0.2c0.15-0.07 0.33-0.09 0.49-0.15 0.32-0.13 0.65-0.14 0.98-0.22 0.65-0.06 1.3-0.04 1.97 0.13 1.34 0.34 2.67 1.25 3.93 2.41-0.37-1.67-1.45-3.3-3.18-4.25zm-4.35 7.02c-0.63 1.5-0.87 3.71 0.81 4.57 0.74 0.38 1.38 0.32 1.95-0.35 1.47-1.72-0.31-6.13-2.76-4.22zm72.56-24.14c0-7.7-3.33-22.8-14.55-19.69-15.41 4.28-12.84 25.68-12.84 25.68 23.97 13.69 27.39-5.99 27.39-5.99zm-34.59 18.98c0.67-0.17 1.32-0.2 1.97-0.13 0.33 0.07 0.65 0.09 0.98 0.22 0.16 0.05 0.33 0.08 0.49 0.15l0.46 0.2c0.6 0.27 1.16 0.63 1.64 1.11 0.51 0.45 0.94 1.02 1.35 1.65 0.82 1.26 1.43 2.75 2.03 4.37 0.47-1.68 0.4-3.5-0.2-5.23-0.3-0.86-0.75-1.72-1.4-2.45-0.29-0.39-0.7-0.69-1.06-1.02-0.42-0.26-0.82-0.57-1.28-0.75-0.91-0.42-1.86-0.62-2.86-0.66-1 0.01-2.01 0.24-2.87 0.7-1.73 0.94-2.81 2.57-3.15 4.27 1.23-1.18 2.56-2.09 3.9-2.43zm0.82 9.38c0.57 0.67 1.21 0.73 1.95 0.35 1.68-0.86 1.44-3.07 0.81-4.57-2.44-1.91-4.23 2.5-2.76 4.22zm37.41 7.86c-0.28-0.33-0.65-0.64-1.08-0.84s-0.88-0.28-1.28-0.27c-0.8 0.03-1.41 0.28-2.11 0.71 0.55 0.62 1.22 0.95 1.66 1.25 0.4 0.27 0.55 0.45 0.76 0.69-1.19 1.05-11.02 9.36-23.84 10.16-13.69 0.86-18.4-3.42-29.53-3.42s-15.83 4.28-29.53 3.42c-12.83-0.8-22.65-9.11-23.84-10.16 0.21-0.24 0.36-0.43 0.76-0.69 0.44-0.3 1.11-0.63 1.66-1.25-0.71-0.43-1.31-0.69-2.11-0.71-0.4-0.01-0.85 0.07-1.28 0.27s-0.8 0.51-1.08 0.84c-0.55 0.65-0.84 1.45-0.85 2.27 0 0.81 0.29 1.57 0.88 2.14 0.46-0.69 0.76-1.23 1.07-1.65 0.3-0.41 0.59-0.78 0.86-1.1 0.01-0.02 0.02-0.03 0.04-0.04 0.92 2.37 11.79 28.07 53.43 28.07s52.51-25.7 53.43-28.07c0.01 0.02 0.02 0.03 0.04 0.04 0.27 0.32 0.56 0.68 0.86 1.1 0.31 0.42 0.61 0.96 1.07 1.65 0.6-0.57 0.88-1.32 0.88-2.14-0.03-0.82-0.32-1.62-0.87-2.27z"/>
     <path class="st0" d="m450.55 674.82c-0.47 0-0.92 0.04-1.37 0.09-2.97-4.89-6.56-9.73-8.9-12.08-2.87-2.87-4.66-6.53-5.69-9.21-9.01-31.5-22.85-113.85-25.36-166.62l-3.53-43.35c-5.06-47.92-8.12-85.7-8.12-85.7l-5.36-23.7-29.68-0.41-29.68 0.41-5.36 23.7s-3.06 37.78-8.12 85.7l-3.53 43.35c-2.51 52.76-16.35 135.12-25.36 166.62-1.03 2.68-2.83 6.34-5.69 9.21-2.34 2.34-5.93 7.18-8.9 12.08-0.45-0.06-0.91-0.09-1.37-0.09-6.15 0-11.13 4.98-11.13 11.13s4.98 11.13 11.13 11.13c4.14 0 7.75-2.27 9.67-5.63 0.27 0.03 0.54 0.06 0.82 0.08 1 5.11 5.51 8.97 10.91 8.97 5.02 0 9.26-3.32 10.64-7.89h0.8c1.82 3.66 5.59 6.18 9.95 6.18 6.15 0 11.13-4.98 11.13-11.13 0-4.8-3.04-8.87-7.3-10.44-3.57-6.63-8.06-14.43-10.16-20.64-0.14-18.81 30.19-74.39 32.3-87.04 0 0 11.55-1.71 19.26-1.71s19.26 1.71 19.26 1.71c2.11 12.64 32.44 68.23 32.3 87.04-2.1 6.21-6.59 14.01-10.16 20.64-4.26 1.56-7.3 5.64-7.3 10.44 0 6.15 4.98 11.13 11.13 11.13 4.36 0 8.13-2.52 9.95-6.18h0.8c1.39 4.57 5.63 7.89 10.64 7.89 5.41 0 9.91-3.86 10.91-8.97 0.27-0.03 0.55-0.05 0.82-0.08 1.92 3.36 5.52 5.63 9.67 5.63 6.15 0 11.13-4.98 11.13-11.13-0.02-6.15-5-11.13-11.15-11.13zm-161.47 5.67c-0.64 0.7-1.17 1.48-1.66 2.26-0.51 0.78-0.87 1.62-1.22 2.47l-1.2 2.93-0.43-3.09c-0.1-0.71-0.23-1.47-0.37-2.2-0.16-0.73-0.32-1.46-0.51-2.18-0.2-0.72-0.43-1.42-0.73-2.09-0.31-0.66-0.67-1.33-1.31-1.79 0.79 0.16 1.45 0.76 1.95 1.38 0.51 0.63 0.93 1.34 1.26 2.06 0.32 0.7 0.59 1.41 0.81 2.15 0.11-0.19 0.23-0.38 0.36-0.56 0.58-0.87 1.28-1.65 2.04-2.35 0.77-0.69 1.6-1.3 2.49-1.8 0.89-0.49 1.82-0.92 2.8-1.15-1.6 1.22-3.05 2.51-4.28 3.96zm22.14-1.07c0.84-0.5 1.73-0.93 2.67-1.17-1.56 1.12-2.93 2.4-4 3.86-0.54 0.73-0.97 1.5-1.31 2.31-0.35 0.8-0.55 1.65-0.7 2.51l-0.65 3.8-1.02-3.74c-0.25-0.92-0.58-1.92-0.99-2.83-0.39-0.93-0.87-1.82-1.41-2.67-0.55-0.84-1.19-1.62-1.92-2.32-0.73-0.71-1.61-1.25-2.56-1.77 1.06 0.14 2.13 0.5 3.08 1.08 0.94 0.59 1.79 1.34 2.51 2.2 0.71 0.86 1.3 1.81 1.79 2.8l0.27 0.6c0.05-0.11 0.1-0.22 0.15-0.32 0.47-0.91 1.05-1.76 1.76-2.47 0.7-0.74 1.5-1.36 2.33-1.87zm50.89-138.98c-14.18 0-25.68-37.55-25.68-83.88s11.5-83.88 25.68-83.88 25.68 37.55 25.68 83.88-11.5 83.88-25.68 83.88zm61.06 138.72c-0.73 0.71-1.37 1.48-1.92 2.32-0.54 0.85-1.01 1.74-1.41 2.67-0.41 0.91-0.74 1.91-0.99 2.83l-1.02 3.74-0.65-3.8c-0.15-0.86-0.34-1.7-0.7-2.51-0.34-0.81-0.78-1.58-1.31-2.31-1.07-1.46-2.44-2.74-4-3.86 0.94 0.24 1.83 0.67 2.67 1.17 0.83 0.52 1.63 1.13 2.31 1.86 0.71 0.71 1.29 1.56 1.76 2.47 0.06 0.1 0.1 0.22 0.15 0.32l0.27-0.6c0.5-0.99 1.08-1.94 1.79-2.8s1.57-1.61 2.51-2.2c0.95-0.58 2.02-0.94 3.08-1.08-0.93 0.53-1.8 1.07-2.54 1.78zm18.94-0.57c-0.3 0.67-0.54 1.37-0.73 2.09-0.2 0.72-0.36 1.45-0.51 2.18-0.14 0.73-0.27 1.48-0.37 2.2l-0.43 3.09-1.2-2.93c-0.35-0.85-0.71-1.69-1.22-2.47-0.49-0.78-1.02-1.56-1.66-2.26-1.23-1.44-2.67-2.73-4.26-3.95 0.98 0.24 1.91 0.66 2.8 1.15 0.89 0.5 1.71 1.11 2.49 1.8 0.76 0.7 1.46 1.48 2.04 2.35 0.13 0.18 0.25 0.37 0.36 0.56 0.22-0.73 0.49-1.45 0.81-2.15 0.33-0.73 0.75-1.43 1.26-2.06 0.5-0.62 1.16-1.22 1.95-1.38-0.65 0.46-1.02 1.12-1.33 1.78z"/>
    </g>
    <g fill="#08b70b">
     <path class="st0" d="m377.18 345.68s-1.61-9.85 3.3-15.63c4.92-5.78 65.74-44.64 78.77-52.46l43.02-84.84 14.89 1.19c-0.16-0.24-38.11 97.59-42.77 98.97-0.95 3.83-81.53 60.93-81.53 60.93"/>
     <path class="st0" d="m498.1 205.55s-10.42-20.4-10.69-23.06 11.02-14.19 11.02-14.19-3.11-6.64 1.93-11.85c5.05-5.21 12.15-3.42 15.68 1.13s2.1 12-0.78 14.61-6.54 1.52-7.51 1.01c0 0 3.29 4.74 9.12 0.51s5.49-9.88 4.56-12.97c-0.94-3.09-4.57-6.76-4.57-6.76s5.33-4.56 8.35-4.48 11.44 12.89 11.27 15.5c-0.16 2.61-3.09 6.37-3.09 6.37s4.4 5.94-1.8 11.1c-6.2 5.17-12.53 0.93-13.52-4.44 0 0-0.43 11.53 10.98 8.69s8.08-14.57 8.08-14.57 2.48-4.53 2.43-6.8c-0.05-2.28-4.56-10.76-4.56-10.76s4.75 0.14 6.82 1.14c2.07 0.99 4.9 6.97 5.25 8.62 0.35 1.64-3.52 15.18-3.52 15.18s5.93 5.76-0.36 12.52c-6.3 6.76-12.98 0.16-12.98 0.16s-2.45 5.3-4.92 7.61c-5.36 5.02-16.8 7.37-16.8 7.37"/>
     <path class="st0" d="m499.83 153.35s1.89-3.07 6.8-3.28c5.34-0.23 7.87 1.91 7.87 1.91l4.71-26.34-13.87-0.84z"/>
     <circle class="st0" cx="512.92" cy="119.76" r="11.92"/>
     <path class="st0" d="m347.89 345.68s1.61-9.85-3.3-15.63c-4.92-5.78-65.74-44.64-78.77-52.46l-43.02-84.84-14.89 1.19c0.16-0.24 38.11 97.59 42.77 98.97 0.95 3.83 81.53 60.93 81.53 60.93"/>
     <path class="st0" d="m226.97 205.55s10.42-20.4 10.69-23.06-11.02-14.19-11.02-14.19 3.11-6.64-1.93-11.85c-5.05-5.21-12.15-3.42-15.68 1.13s-2.1 12 0.78 14.61 6.54 1.52 7.51 1.01c0 0-3.29 4.74-9.12 0.51s-5.49-9.88-4.56-12.97c0.94-3.09 4.57-6.76 4.57-6.76s-5.33-4.56-8.35-4.48-11.44 12.89-11.27 15.5 3.09 6.37 3.09 6.37-4.4 5.94 1.8 11.1c6.2 5.17 12.53 0.93 13.52-4.44 0 0 0.43 11.53-10.98 8.69s-8.08-14.57-8.08-14.57-2.48-4.53-2.43-6.8c0.05-2.28 4.56-10.76 4.56-10.76s-4.75 0.14-6.82 1.14c-2.07 0.99-4.9 6.97-5.25 8.62-0.35 1.64 3.52 15.18 3.52 15.18s-5.93 5.76 0.36 12.52 12.98 0.16 12.98 0.16 2.45 5.3 4.92 7.61c5.36 5.02 16.8 7.37 16.8 7.37"/>
     <path class="st0" d="m225.24 153.35s-1.89-3.07-6.8-3.28c-5.34-0.23-7.87 1.91-7.87 1.91l-4.71-26.34 13.87-0.84z"/>
     <circle class="st0" cx="212.15" cy="119.76" r="11.92"/>
    </g>
    <path class="st0" d="m365.54 108.32v-8.95-21.49-25.87-22.48c0-3.63 0.14-7.3 0-10.93v-0.15c0-3.86-6-3.87-6 0v8.95 21.49 25.87 22.48c0 3.63-0.14 7.3 0 10.93v0.15c0 3.86 6 3.86 6 0z" fill="#08b70b"/>
    <path class="st0" d="m332.61 111.66c-3.47-8.13-6.95-16.27-10.42-24.4-5.53-12.94-11.05-25.89-16.58-38.83-1.26-2.94-2.51-5.89-3.77-8.83-0.64-1.49-2.83-1.82-4.1-1.08-1.54 0.9-1.72 2.61-1.08 4.1 3.47 8.13 6.95 16.27 10.42 24.4 5.53 12.94 11.05 25.89 16.58 38.83 1.26 2.94 2.51 5.89 3.77 8.83 0.64 1.49 2.83 1.82 4.1 1.08 1.54-0.9 1.71-2.6 1.08-4.1z" fill="#08b70b"/>
    <path class="st0" d="m300.56 132.11c-4.38-4.19-8.75-8.39-13.13-12.58-6.98-6.69-13.95-13.37-20.93-20.06-1.6-1.54-3.21-3.07-4.81-4.61-2.79-2.67-7.04 1.56-4.24 4.24 4.38 4.19 8.75 8.39 13.13 12.58 6.98 6.69 13.95 13.37 20.93 20.06 1.6 1.54 3.21 3.07 4.81 4.61 2.78 2.67 7.03-1.57 4.24-4.24z" fill="#08b70b"/>
    <path class="st0" d="m400.57 114.69c3.47-8.13 6.95-16.27 10.42-24.4 5.53-12.94 11.05-25.89 16.58-38.83 1.26-2.94 2.51-5.89 3.77-8.83 0.64-1.49 0.44-3.22-1.08-4.1-1.26-0.74-3.46-0.42-4.1 1.08-3.47 8.13-6.95 16.27-10.42 24.4-5.53 12.94-11.05 25.89-16.58 38.83-1.26 2.94-2.51 5.89-3.77 8.83-0.64 1.49-0.44 3.22 1.08 4.1 1.26 0.73 3.46 0.42 4.1-1.08z" fill="#08b70b"/>
    <path class="st0" d="m431.68 136.35c4.38-4.19 8.75-8.39 13.13-12.58 6.98-6.69 13.95-13.37 20.93-20.06 1.6-1.54 3.21-3.07 4.81-4.61 2.79-2.68-1.45-6.92-4.24-4.24-4.38 4.19-8.75 8.39-13.13 12.58-6.98 6.69-13.95 13.37-20.93 20.06-1.6 1.54-3.21 3.07-4.81 4.61-2.79 2.67 1.45 6.91 4.24 4.24z" fill="#08b70b"/>
   </g>
   <g transform="translate(2.6984 .71957)">
    <g transform="translate(0 .17992)">
     <g transform="matrix(-.034074 0 0 .021144 296.57 348.02)" fill="#08b70b">
      <path transform="matrix(-.8363 0 0 1.3478 1237 -1297.7)" d="m1038 875.46c-2.8833-0.0433-5.9737 0.2025-9.2793 0.79688-17.04 3.06-31.839 18.371-25.719 57.561 0 0-2.4499-2.4511-3.6699-6.1211 0 0-15.921 34.28-18.371 52.65s11.022 47.75 39.182 63.67c23.625 13.356 25.893 32.856 26.014 55.414-1.7557 0.2262-3.451 0.5183-5.0898 0.8789-14.624 1.6634-43.288 5.2368-47.936 8.1973-6.28 4-65.68 85.67-65.68 85.67l-28.963-65.555c5.5296-3.6407 11.769-8.359 12.604-11.686 1.52-6.1-8.1296-24.39-6.5996-35.82 0.0599-0.4504 0.11596-0.7851 0.17578-1.2227a19.31 19.31 0 0 0 12.725-18.127 19.31 19.31 0 0 0-19.311-19.309 19.31 19.31 0 0 0-19.311 19.309 19.31 19.31 0 0 0 6e-3 0.1113l-19.506 13.459c-2.8258 1.9485-4.2826 4.1385-4.7754 6.416a19.31 19.31 0 0 0-18.934-15.535 19.31 19.31 0 0 0-13.609 5.6231 17.67 17.67 0 0 0 0.0391-0.793 17.67 17.67 0 0 0-17.67-17.67 17.67 17.67 0 0 0-17.67 17.67 17.67 17.67 0 0 0 12.301 16.828h-0.0117s0.56055 22.469 2.8106 27.809c1.9082 4.5202 24.438 7.2876 31.566 8.0644 0.78125 2.1582 1.6116 4.2993 2.5332 6.3965 0.88 1.99 2.0291 5.5192 4.1191 6.6192 3.9427 2.0734 25.787 3.9084 34.004 4.539 8.6024 24.339 38.586 107.21 48.338 107.7 6.3397 0.3155 35.766-31.67 59.178-58.354-13.761 44.593-28.443 99.827-31.719 123.61-0.87908 6.4112-1.845 25.348 4.6309 45.184 1.8748 31.452 7.0996 94.457 7.0996 94.457l-46.531-3.0293c-2.3535-4.5751-10.639-19.794-18.209-22.611-8.93-3.32-22.209-0.2097-24.699 3.3203s-3.1101 18.68-11.83 24.5c-8.72 5.81-23.25 6.0195-23.25 6.0195s14.739-2.4897 19.719-7.6797c0 0-0.82907-9.76-10.789-11-9.96-1.25-14.531 6.4395-14.531 6.4395 0 0 3.1114 1.4515 3.9414 6.0215 0 0-10.59-9.7611-22.01 0.209-11.42 9.9599-3.1103 29.48 8.9297 30.1s13.91-8.2989 13.91-8.2989 1.0399 2.7006 0.41992 5.8106c0 0 27.4 0.6199 37.99-0.8301 9.2445-1.2658 28.915-8.6662 34.008-10.617 16.327 5.9436 78.226 28.043 83.371 23.297 4.241-3.9121 9.8036-55.84 12.656-85.322 18.198 4.941 44.119-4.5758 60.107-12.459 1.2183 0.9509 2.3244 1.7983 3.0391 2.3477 16.298 12.524 39.603 20.084 64.988 22.822 6.5252 0.7042 13.118 1.1119 19.73 1.2812-0.092 1.7578-0.1815 3.3334-0.2715 4.9414-6.4608 13.782-22.506 48.274-22.32 50.668 0.19 2.48 2.8204 2.4697 7.6503 5.0098 4.8301 2.5399 2.5394 4.171 6.1094 8.541 3.57 4.36 15.352 6.5 15.352 6.5-1.02-6.54 2.6484-10.35 2.6484-10.35-0.43 15.9 9.22 18.308 16.25 18.559 7.03 0.2499 16.491-5.1492 15.641-16.869-0.8499-11.72-12.07-15.93-12.07-15.93s12.9 0.4886 16.18 9.0586c3.28 8.58 1.0215 15.541 1.0215 15.541s7.5288 0.19 12.799-2.83 7.8912-12.351 1.7012-20.221c-6.19-7.8701-15.59-5.8086-15.59-5.8086 2.57-2 12.38-4.7812 18.83 2.5488s4.209 18.711 4.209 18.711c3.46 1.2 14.071 2.329 16.721-9.041 2.66-11.36-4.6215-22.81-12.852-22.57-8.24 0.25-11.359 5.8906-11.359 5.8906s-13.839-2.6098-22.539-8.0898c-8.1112-5.1092-12.502-24.12-13.066-26.699 0.2532-2.3973 0.4985-4.7285 0.834-8.0293 4.7493-0.2734 9.4821-0.6324 14.18-1.0723 161.54-15.136 80.486-95.076 110.37-129.46 29.87-34.383 75.38-29.397 87.959-27.936 12.579 1.4765 12.651-11.745-20.148-14.816-32.799-3.0496-101.82 13.867-112.66 61.762-6.4315 28.388-22.167 68.443-75.932 70.113 1.7189-22.212 2.6731-42.96 0.4883-45.363-3.5853-3.9446-66.272 6.7834-99.608 12.81-0.1407-3.7553-0.3833-7.1051-0.7031-9.6406-5.44-43.04-0.2094-90.03 9.3106-132.19 2.15-9.52 2.7297-14.341 5.9296-23.521 1.5808-4.5244 3.1364-9.0567 4.711-13.582 18.15 24.809 59.649 80.934 63.799 80.934 4.8167 0 70.598-26.792 82.826-31.787 9.2494 8.9143 26.023 9.6465 26.023 9.6465l0.8516-38.391c-7.3-2.6-13.941-0.6504-13.941-0.6504 5.61-6.78 13.791-4.4395 13.791-4.4395l0.5527 0.2696a14.88 14.88 0 0 0-0.2226 2.4609 14.88 14.88 0 0 0 14.879 14.881 14.88 14.88 0 0 0 14.881-14.881 14.88 14.88 0 0 0-14.881-14.881 14.88 14.88 0 0 0-5.5957 1.1036c-20.707-20.484-42.436-1.6627-41.814 19.418-19.105 6.2721-69.409 22.36-73.228 19.02-4.71-4.12-29.461-60.591-39.461-77.061s-30-21.76-30-21.76c-3.4273-0.6225-5.9531-2.3665-7.8125-4.373 0.073-2.4019 0.1431-4.699 0.4629-6.2871 1.65-8.2 4.2289-16.42 7.6289-24.07-19.49-2.32-32.039-15.199-32.039-15.199 35.35 14.2 68.71 7.2702 83.25 0.9902 14.53-6.28 31.38-57.811 29.4-67.391-1.8-8.74-17.64-22.429-22.91-31.289 0 0 4.1789-7.2903 2.6289-19.57s-5.8691-16.82-5.8691-16.82c6.1-35.3-19.77-42-19.77-42 7.27 10.24 7.5996 22.789 7.5996 22.789s-9.9102-23.128-28.41-29.068-48.891-4.6211-48.891-4.6211c7.93 7.93 8.5898 25.439 8.5898 25.439s-8.6793-27.398-36.551-27.816zm10.482 45.342c1.547-0.0116 3.2038 0.21195 4.9785 0.70508 25.99 7.22 21.66 43.32 21.66 43.32-40.43 23.1-46.199-10.109-46.209-10.109 0-11.772 4.6154-33.804 19.57-33.916zm99.346 11.238c0.7183 0.0122 1.4724 0.10883 2.2637 0.30664 5.13 1.28 7.99 15.131 7.33 17.531 0.18 7.5-3.1093 16.818-3.1093 16.818s-15.71-10.709-17.42-24.719c0.4441-2.2022 3.9923-10.055 10.936-9.9375zm13.463 49.518c1.43 0.05 2.7898 0.32945 4.0898 0.93945 0.66 0.26 1.2399 0.70008 1.8399 1.0801 0.53 0.48 1.1015 0.91094 1.5215 1.4609 0.93 1.05 1.5697 2.26 2.0097 3.5 0.87 2.47 0.9491 5.0785 0.2891 7.4785-0.86-2.31-1.7185-4.4402-2.8985-6.2402-0.58-0.89-1.2016-1.7094-1.9316-2.3594-0.7-0.69-1.4896-1.2001-2.3496-1.5801l-0.6504-0.27929c-0.22-0.1-0.4692-0.14094-0.6992-0.21094-0.47-0.19-0.9304-0.20859-1.4004-0.30859-0.93-0.08-1.8603-0.0408-2.8203 0.19922-1.92 0.48999-3.8192 1.7792-5.6192 3.4492 0.49-2.44 2.0198-4.7789 4.5098-6.1289 1.23-0.66 2.6794-0.99 4.1094-1zm-49.228 0.01c1.43 0.01 2.8693 0.34 4.1093 1 2.49 1.34 4.0198 3.6789 4.5098 6.1289-1.8-1.66-3.6991-2.9592-5.6191-3.4492-0.96-0.25-1.8903-0.28922-2.8203-0.19922-0.47 0.1-0.9304 0.1286-1.4004 0.3086-0.23 0.08-0.4793 0.11093-0.6993 0.21093l-0.6503 0.2793c-0.86 0.38-1.6497 0.89008-2.3497 1.5801-0.73 0.65-1.3416 1.4713-1.9316 2.3613-1.17 1.8-2.0384 3.9283-2.8984 6.2383-0.67-2.4-0.581-5.0085 0.289-7.4785 0.44-1.23 1.0798-2.45 2.0098-3.5 0.42-0.55 0.9895-0.98094 1.5195-1.4609 0.6-0.38 1.1799-0.82007 1.8399-1.0801 1.3-0.61 2.6618-0.88946 4.0918-0.93946zm49.498 10.359c0.5643-0.0381 1.1874 0.15617 1.8418 0.66992 0.91 2.14 1.2496 5.301-1.1504 6.541-1.05 0.54-1.981 0.46-2.791-0.5-1.7144-1.9988-0.3458-6.5458 2.0996-6.7109zm-49.768 6e-3c2.4455 0.16009 3.814 4.708 2.0996 6.7148-0.81 0.95-1.741 1.04-2.791 0.5-2.4-1.24-2.0604-4.401-1.1504-6.541 0.6544-0.51563 1.2775-0.71078 1.8418-0.67383zm-62.352 22.465c1.15 0.04 1.9995 0.4096 3.0195 1.0196-0.79 0.9-1.7589 1.351-2.3789 1.791-0.57 0.38-0.7901 0.6483-1.0801 0.9883 1.71 1.5 15.759 13.381 34.109 14.531 19.59 1.22 26.32-4.9004 42.24-4.9004 11.65 0 23.94 6.8706 35.24 2.6406 3.33-1.24 5.4794-3.4297 8.1894-5.5097 0.6 9.84-9.2105 18.119-16.81 22.379-3.44 1.92-6.6997 4.11-10.43 5.5-3.25 1.2-6.5597 0.9807-9.9297 1.4707-6.86 1-13.609 1.2089-20.529 0.6289-4.24-0.35-8.5105-0.29-12.73-0.75-14.56-1.59-27.899-8.71-38.109-19.25-3.22-3.32-6.1107-6.9985-8.4708-10.978-0.4099-0.68-3.2696-4.8299-2.8496-5.6699-0.01 0.02-0.031 0.038-0.051 0.059-0.38 0.4599-0.7888 0.9803-1.2188 1.5703-0.44 0.61-0.8812 1.3693-1.5312 2.3593-0.86-0.81-1.2598-1.8888-1.2598-3.0488 0.02-1.16 0.4407-2.3102 1.2207-3.2402 0.4-0.47 0.9291-0.9192 1.5391-1.1992s1.2603-0.4007 1.8203-0.3907zm-262.05 32.982c-9.4326-0.1927-17.03 7.098-16.055 16.998 1.3 13.2 11.9 15.25 11.9 15.25s-0.38172 17.109 0.73828 21.199 12.461 5.3906 12.461 5.3906l-1.3008-15.81c-7.81-3.35-14.139-14.69-12.639-25.1 1.49-10.41 14.689-15.061 14.689-15.061-3.3025-1.9075-6.6507-2.8029-9.7949-2.8671zm28.941 36.611a19.31 19.31 0 0 0-0.0762 1.5351 19.31 19.31 0 0 0 0.0664 1.5176l-1.7891-1.6015a17.67 17.67 0 0 0 1.7988-1.4512zm38.479 2.7949c1.8097 5.8318 8.0138 11.546 12.645 14.791 4.41 3.09 7.2606 6.6998 6.8906 12.26-0.672-0.6456-1.4991-1.2351-2.4141-1.7715-7.5809-6.1355-19.115-4.8379-19.115-4.8379l-4.3125-7.3945a19.31 19.31 0 0 0 6.3066-13.047zm220.29 37.289c0.3229-0.016 0.6125-0.01 0.8691 0.022 7.81 0.8899 19.341 17.721 0.1113 83.641s-7.5497 116.35-18.43 139.56c-10.87 23.21-62.811 37.62-50.381-63.07 16.788-136.02 57.818-159.66 67.83-160.15zm244.99 41.973c-5.2062 0.095-10.914 2.1503-14.354 3.4903 0 0-8.6007-3.061-11.471 2.289 0 0 17.779 3.6307 13.959 21.221 0 0 1.3415 1.9095 2.1015 3.4395 0 0 4.3991-2.4896 12.039-2.0996 0 0-8.0293 1.5296-11.279 5.3496 0 0 2.2898 2.6797 1.3398 5.9297 0 0-1.9096-4.5892-5.9296-6.1192 0 0-6.5809 10.9-17.631 8.9903 0 0-2.2504 6.689 6.3496 12.039s13.962-1.3402 15.682-5.7402c0 0-0.3808 11.09-10.131 10.9s-11.891-6.6895-11.891-6.6895-7.2196 2.289-6.2696 10.709c0.96 8.41 7.5203 11.871 12.24 12.811 7.64 1.53 13.76-5.9297 13.76-5.9297s12.13 5.1594 17.67 0.1894c5.5401-4.97 8.3111-14.149-1.6289-17.779 0 0 10.24-2.1015 9.8497-11.852-0.38-9.75-9.9415-13.568-9.9415-13.568s9.7509-6.3105 6.8809-19.31c-1.435-6.5-6.1394-8.3646-11.346-8.2696zm6.082 105.17c-10.546 3.6802-20.818 10.708-29.857 22.721-25.338 33.686 48.702 108.79-105.02 123.2-4.0882 0.3833-8.2268 0.7016-12.393 0.9532 0.4926-4.9611 0.996-10.119 1.5254-15.926 52.361-1.0968 99.459-24.177 101.83-71.703 2.5589-51.389 43.92-59.248 43.92-59.248zm-175.08 100.93c0.3176-0.01 0.5481 0.015 0.6855 0.061 0.8896 0.2971 1.3868 3.5096 1.6329 8.3164-1.7084-0.2421-3.3787-0.5123-4.9707-0.8203-5.3081-1.0296-10.047-2.7507-14.936-4.2696 8.7916-1.9593 15.352-3.2461 17.588-3.2871zm-43.455 9.3867c3.0151 2.8658 7.8186 5.5692 10.551 7.1778 9.9748 5.8713 22.124 9.8628 35.246 11.894-0.1576 5.9685-0.412 12.109-0.6914 17.977-18.607-0.4982-36.957-2.9851-53.293-8.7168-9.8409-3.4502-18.605-8.0055-25.852-13.385-0.4627-0.3435-1.2893-1.1833-2.2461-2.1816 4.548-2.5498 7.4721-4.5719 7.7558-5.2324 0.072-0.1694 0.1408-0.3541 0.211-0.5313 8.9631-2.2568 18.755-4.6773 28.318-7.002zm-249.65 59.318c-1.4309 0.01-3.1068 0.5428-5.0293 1.9453 0 0 5.8106 3.9389 6.6406 9.5489 0 0 3.5295-2.4897 4.7695-6.8497 8e-3 0-2.088-4.674-6.3809-4.6445z" fill="#08b70b" stroke-width=".94192"/>
     </g>
     <g transform="matrix(.028497 0 0 .028497 274.56 343.97)">
      <path class="st1" d="m141.02 213.87s-6.01-69.9 31.94-106.73" fill="none" stroke="#68b72e" stroke-miterlimit="10" stroke-width="4"/>
      <path class="st0" d="m145.13 160.88c-0.7-2.01-0.36-4.2-1.23-6.25-1.8-4.22-5.41-6.64-9.79-7.58-7.06-1.5-14.02-0.3-20.28-4.37-3.38 7.73-2.09 16.45 3.55 22.71 3.62 4.02 7.67 5.22 12.91 5.25 6.24 0.03 10.31-3.48 14.84-9.76z" fill="#68b72e"/>
      <path class="st0" d="m145.46 161.04c5.01-3.61 12.72-3.22 18.15-1.04 5.23 2.11 8.15 6.22 11.85 10.22 2.09 2.25 4.21 4.32 7.18 5.34 1.77 0.61 3.62 0.43 5.39 0.9-5.98 6.18-15.14 8.77-23.76 8.63-4.62-0.08-9.26-1.56-13-4.37-5.05-3.81-6.66-10.71-7.01-13.37-0.32-2.31 0.38-4.66 1.2-6.31z" fill="#68b72e"/>
      <g fill="#bb272d">
       <path class="st2" d="m170.9 106.54c-3.63 0.69-6.49 1.1-9.77 3.1-3.66 2.23-6.32 4.43-9.02 7.79-4.91 6.13-5.42 16.54-0.38 22.81 5.16 6.42 15.62 6.85 21.51 1.2 10.6-10.16 12.87-25.45 5.55-38.36"/>
       <path class="st2" d="m174.76 97.68c-2.43-6.34-6.69-12.13-12.7-15.66-9.89-5.82-24.81-4.98-31.08 5.72-5.77 9.84-2.63 21.77 8.55 25.71 11.81 4.16 26.12-2.1 34.27-10.77"/>
       <path class="st2" d="m180.03 99.48c2.95-1.39 5.7-5.5 7.28-8.24 3-5.18 4.13-12.18 3.77-18.09-0.56-9.31-6.89-18.87-17.24-17.81-7.32 0.75-11.74 9.56-12.96 16.02-0.85 4.51 0 9.66 1.69 13.92 1.11 2.79 2.56 5.73 4.34 8.15 2.64 3.58 7.08 5.61 13.12 6.05z"/>
       <path class="st2" d="m182.07 106.15c-1.18 7.47 0.92 15.52 5.95 21.26 5.48 6.25 13.81 9.54 21.19 4.35 5.78-4.06 8.66-12.17 5.33-18.78-5.86-11.63-20.8-11.6-32.47-6.83z"/>
       <path class="st2" d="m182.7 105.17c8.98 0.02 18.43 1.57 26.69-3.06 6.57-3.68 10.87-12.1 8.5-19.67-2.46-7.86-12.8-10.05-19.59-7.07-4.33 1.9-9.1 4.85-11.78 8.84-3.24 4.86-6.19 13.98-3.82 20.96z"/>
      </g>
      <rect class="st3" x="576.35" y="298.39" width="9.55" height="71.45" fill="#666"/>
      <path class="st4" d="m593.1 343.4c-0.07-2.82-3.1-5.09-6.81-5.09h-9.93c-3.72 0-6.75 2.26-6.81 5.09l-1.81 76.54c-0.07 2.9 3 5.27 6.81 5.27h13.55c3.81 0 6.88-2.38 6.81-5.27-0.06-2.62 0.41-5.58-0.25-8.13-0.91-3.47-5.3-4.24-8.54-6.19-2.34-1.41-3.99-3.13-4.26-5.35-0.14-1.16 0.69-2.46 0.53-3.51-0.16-1.11-1.36-2.33-1.71-3.48-0.44-1.46-0.57-3.06-0.42-4.58 0.38-3.88 3.85-6.44 6.98-9.28 2.88-2.61 4.15-4.97 4.28-8.44 0.13-3.31-2.75-3.43-4.82-5.68-1.24-1.35-0.55-2.96 0.95-4 1.33-0.93 3.93-0.69 5.15-1.74 1.66-1.43 0.55-5.08 0.51-6.86-0.06-3.11-0.13-6.21-0.21-9.3z" clip-path="url(#XMLID_3_)" fill="#a02b31"/>
      <path class="st3" d="m581.89 324.29c9.27 0 35.54-4.89 34.51-23.7-1.03-18.8-26.27-61.3-35.03-61.3s-34 42.5-35.03 61.3 25.24 23.7 34.51 23.7" fill="#666"/>
      <path class="st5" d="m175.82 203.35h-67.52c-4.83 0-8.61 4.16-8.14 8.97l6.34 65.19c0.41 4.19 3.93 7.39 8.14 7.39h54.84c4.21 0 7.73-3.2 8.14-7.39l6.34-65.19c0.47-4.81-3.31-8.97-8.14-8.97z" fill="#c66b44"/>
      <circle class="st6" cx="177.42" cy="103.7" r="10.49" fill="#f5aa3b" stroke="#bb272d" stroke-miterlimit="10"/>
     </g>
    </g>
    <g transform="matrix(-1 0 0 1 589.26 .17992)">
     <g transform="matrix(-.034074 0 0 .021144 296.57 348.02)" fill="#08b70b">
      <path transform="matrix(-.8363 0 0 1.3478 1237 -1297.7)" d="m1038 875.46c-2.8833-0.0433-5.9737 0.2025-9.2793 0.79688-17.04 3.06-31.839 18.371-25.719 57.561 0 0-2.4499-2.4511-3.6699-6.1211 0 0-15.921 34.28-18.371 52.65s11.022 47.75 39.182 63.67c23.625 13.356 25.893 32.856 26.014 55.414-1.7557 0.2262-3.451 0.5183-5.0898 0.8789-14.624 1.6634-43.288 5.2368-47.936 8.1973-6.28 4-65.68 85.67-65.68 85.67l-28.963-65.555c5.5296-3.6407 11.769-8.359 12.604-11.686 1.52-6.1-8.1296-24.39-6.5996-35.82 0.0599-0.4504 0.11596-0.7851 0.17578-1.2227a19.31 19.31 0 0 0 12.725-18.127 19.31 19.31 0 0 0-19.311-19.309 19.31 19.31 0 0 0-19.311 19.309 19.31 19.31 0 0 0 6e-3 0.1113l-19.506 13.459c-2.8258 1.9485-4.2826 4.1385-4.7754 6.416a19.31 19.31 0 0 0-18.934-15.535 19.31 19.31 0 0 0-13.609 5.6231 17.67 17.67 0 0 0 0.0391-0.793 17.67 17.67 0 0 0-17.67-17.67 17.67 17.67 0 0 0-17.67 17.67 17.67 17.67 0 0 0 12.301 16.828h-0.0117s0.56055 22.469 2.8106 27.809c1.9082 4.5202 24.438 7.2876 31.566 8.0644 0.78125 2.1582 1.6116 4.2993 2.5332 6.3965 0.88 1.99 2.0291 5.5192 4.1191 6.6192 3.9427 2.0734 25.787 3.9084 34.004 4.539 8.6024 24.339 38.586 107.21 48.338 107.7 6.3397 0.3155 35.766-31.67 59.178-58.354-13.761 44.593-28.443 99.827-31.719 123.61-0.87908 6.4112-1.845 25.348 4.6309 45.184 1.8748 31.452 7.0996 94.457 7.0996 94.457l-46.531-3.0293c-2.3535-4.5751-10.639-19.794-18.209-22.611-8.93-3.32-22.209-0.2097-24.699 3.3203s-3.1101 18.68-11.83 24.5c-8.72 5.81-23.25 6.0195-23.25 6.0195s14.739-2.4897 19.719-7.6797c0 0-0.82907-9.76-10.789-11-9.96-1.25-14.531 6.4395-14.531 6.4395 0 0 3.1114 1.4515 3.9414 6.0215 0 0-10.59-9.7611-22.01 0.209-11.42 9.9599-3.1103 29.48 8.9297 30.1s13.91-8.2989 13.91-8.2989 1.0399 2.7006 0.41992 5.8106c0 0 27.4 0.6199 37.99-0.8301 9.2445-1.2658 28.915-8.6662 34.008-10.617 16.327 5.9436 78.226 28.043 83.371 23.297 4.241-3.9121 9.8036-55.84 12.656-85.322 18.198 4.941 44.119-4.5758 60.107-12.459 1.2183 0.9509 2.3244 1.7983 3.0391 2.3477 16.298 12.524 39.603 20.084 64.988 22.822 6.5252 0.7042 13.118 1.1119 19.73 1.2812-0.092 1.7578-0.1815 3.3334-0.2715 4.9414-6.4608 13.782-22.506 48.274-22.32 50.668 0.19 2.48 2.8204 2.4697 7.6503 5.0098 4.8301 2.5399 2.5394 4.171 6.1094 8.541 3.57 4.36 15.352 6.5 15.352 6.5-1.02-6.54 2.6484-10.35 2.6484-10.35-0.43 15.9 9.22 18.308 16.25 18.559 7.03 0.2499 16.491-5.1492 15.641-16.869-0.8499-11.72-12.07-15.93-12.07-15.93s12.9 0.4886 16.18 9.0586c3.28 8.58 1.0215 15.541 1.0215 15.541s7.5288 0.19 12.799-2.83 7.8912-12.351 1.7012-20.221c-6.19-7.8701-15.59-5.8086-15.59-5.8086 2.57-2 12.38-4.7812 18.83 2.5488s4.209 18.711 4.209 18.711c3.46 1.2 14.071 2.329 16.721-9.041 2.66-11.36-4.6215-22.81-12.852-22.57-8.24 0.25-11.359 5.8906-11.359 5.8906s-13.839-2.6098-22.539-8.0898c-8.1112-5.1092-12.502-24.12-13.066-26.699 0.2532-2.3973 0.4985-4.7285 0.834-8.0293 4.7493-0.2734 9.4821-0.6324 14.18-1.0723 161.54-15.136 80.486-95.076 110.37-129.46 29.87-34.383 75.38-29.397 87.959-27.936 12.579 1.4765 12.651-11.745-20.148-14.816-32.799-3.0496-101.82 13.867-112.66 61.762-6.4315 28.388-22.167 68.443-75.932 70.113 1.7189-22.212 2.6731-42.96 0.4883-45.363-3.5853-3.9446-66.272 6.7834-99.608 12.81-0.1407-3.7553-0.3833-7.1051-0.7031-9.6406-5.44-43.04-0.2094-90.03 9.3106-132.19 2.15-9.52 2.7297-14.341 5.9296-23.521 1.5808-4.5244 3.1364-9.0567 4.711-13.582 18.15 24.809 59.649 80.934 63.799 80.934 4.8167 0 70.598-26.792 82.826-31.787 9.2494 8.9143 26.023 9.6465 26.023 9.6465l0.8516-38.391c-7.3-2.6-13.941-0.6504-13.941-0.6504 5.61-6.78 13.791-4.4395 13.791-4.4395l0.5527 0.2696a14.88 14.88 0 0 0-0.2226 2.4609 14.88 14.88 0 0 0 14.879 14.881 14.88 14.88 0 0 0 14.881-14.881 14.88 14.88 0 0 0-14.881-14.881 14.88 14.88 0 0 0-5.5957 1.1036c-20.707-20.484-42.436-1.6627-41.814 19.418-19.105 6.2721-69.409 22.36-73.228 19.02-4.71-4.12-29.461-60.591-39.461-77.061s-30-21.76-30-21.76c-3.4273-0.6225-5.9531-2.3665-7.8125-4.373 0.073-2.4019 0.1431-4.699 0.4629-6.2871 1.65-8.2 4.2289-16.42 7.6289-24.07-19.49-2.32-32.039-15.199-32.039-15.199 35.35 14.2 68.71 7.2702 83.25 0.9902 14.53-6.28 31.38-57.811 29.4-67.391-1.8-8.74-17.64-22.429-22.91-31.289 0 0 4.1789-7.2903 2.6289-19.57s-5.8691-16.82-5.8691-16.82c6.1-35.3-19.77-42-19.77-42 7.27 10.24 7.5996 22.789 7.5996 22.789s-9.9102-23.128-28.41-29.068-48.891-4.6211-48.891-4.6211c7.93 7.93 8.5898 25.439 8.5898 25.439s-8.6793-27.398-36.551-27.816zm10.482 45.342c1.547-0.0116 3.2038 0.21195 4.9785 0.70508 25.99 7.22 21.66 43.32 21.66 43.32-40.43 23.1-46.199-10.109-46.209-10.109 0-11.772 4.6154-33.804 19.57-33.916zm99.346 11.238c0.7183 0.0122 1.4724 0.10883 2.2637 0.30664 5.13 1.28 7.99 15.131 7.33 17.531 0.18 7.5-3.1093 16.818-3.1093 16.818s-15.71-10.709-17.42-24.719c0.4441-2.2022 3.9923-10.055 10.936-9.9375zm13.463 49.518c1.43 0.05 2.7898 0.32945 4.0898 0.93945 0.66 0.26 1.2399 0.70008 1.8399 1.0801 0.53 0.48 1.1015 0.91094 1.5215 1.4609 0.93 1.05 1.5697 2.26 2.0097 3.5 0.87 2.47 0.9491 5.0785 0.2891 7.4785-0.86-2.31-1.7185-4.4402-2.8985-6.2402-0.58-0.89-1.2016-1.7094-1.9316-2.3594-0.7-0.69-1.4896-1.2001-2.3496-1.5801l-0.6504-0.27929c-0.22-0.1-0.4692-0.14094-0.6992-0.21094-0.47-0.19-0.9304-0.20859-1.4004-0.30859-0.93-0.08-1.8603-0.0408-2.8203 0.19922-1.92 0.48999-3.8192 1.7792-5.6192 3.4492 0.49-2.44 2.0198-4.7789 4.5098-6.1289 1.23-0.66 2.6794-0.99 4.1094-1zm-49.228 0.01c1.43 0.01 2.8693 0.34 4.1093 1 2.49 1.34 4.0198 3.6789 4.5098 6.1289-1.8-1.66-3.6991-2.9592-5.6191-3.4492-0.96-0.25-1.8903-0.28922-2.8203-0.19922-0.47 0.1-0.9304 0.1286-1.4004 0.3086-0.23 0.08-0.4793 0.11093-0.6993 0.21093l-0.6503 0.2793c-0.86 0.38-1.6497 0.89008-2.3497 1.5801-0.73 0.65-1.3416 1.4713-1.9316 2.3613-1.17 1.8-2.0384 3.9283-2.8984 6.2383-0.67-2.4-0.581-5.0085 0.289-7.4785 0.44-1.23 1.0798-2.45 2.0098-3.5 0.42-0.55 0.9895-0.98094 1.5195-1.4609 0.6-0.38 1.1799-0.82007 1.8399-1.0801 1.3-0.61 2.6618-0.88946 4.0918-0.93946zm49.498 10.359c0.5643-0.0381 1.1874 0.15617 1.8418 0.66992 0.91 2.14 1.2496 5.301-1.1504 6.541-1.05 0.54-1.981 0.46-2.791-0.5-1.7144-1.9988-0.3458-6.5458 2.0996-6.7109zm-49.768 6e-3c2.4455 0.16009 3.814 4.708 2.0996 6.7148-0.81 0.95-1.741 1.04-2.791 0.5-2.4-1.24-2.0604-4.401-1.1504-6.541 0.6544-0.51563 1.2775-0.71078 1.8418-0.67383zm-62.352 22.465c1.15 0.04 1.9995 0.4096 3.0195 1.0196-0.79 0.9-1.7589 1.351-2.3789 1.791-0.57 0.38-0.7901 0.6483-1.0801 0.9883 1.71 1.5 15.759 13.381 34.109 14.531 19.59 1.22 26.32-4.9004 42.24-4.9004 11.65 0 23.94 6.8706 35.24 2.6406 3.33-1.24 5.4794-3.4297 8.1894-5.5097 0.6 9.84-9.2105 18.119-16.81 22.379-3.44 1.92-6.6997 4.11-10.43 5.5-3.25 1.2-6.5597 0.9807-9.9297 1.4707-6.86 1-13.609 1.2089-20.529 0.6289-4.24-0.35-8.5105-0.29-12.73-0.75-14.56-1.59-27.899-8.71-38.109-19.25-3.22-3.32-6.1107-6.9985-8.4708-10.978-0.4099-0.68-3.2696-4.8299-2.8496-5.6699-0.01 0.02-0.031 0.038-0.051 0.059-0.38 0.4599-0.7888 0.9803-1.2188 1.5703-0.44 0.61-0.8812 1.3693-1.5312 2.3593-0.86-0.81-1.2598-1.8888-1.2598-3.0488 0.02-1.16 0.4407-2.3102 1.2207-3.2402 0.4-0.47 0.9291-0.9192 1.5391-1.1992s1.2603-0.4007 1.8203-0.3907zm-262.05 32.982c-9.4326-0.1927-17.03 7.098-16.055 16.998 1.3 13.2 11.9 15.25 11.9 15.25s-0.38172 17.109 0.73828 21.199 12.461 5.3906 12.461 5.3906l-1.3008-15.81c-7.81-3.35-14.139-14.69-12.639-25.1 1.49-10.41 14.689-15.061 14.689-15.061-3.3025-1.9075-6.6507-2.8029-9.7949-2.8671zm28.941 36.611a19.31 19.31 0 0 0-0.0762 1.5351 19.31 19.31 0 0 0 0.0664 1.5176l-1.7891-1.6015a17.67 17.67 0 0 0 1.7988-1.4512zm38.479 2.7949c1.8097 5.8318 8.0138 11.546 12.645 14.791 4.41 3.09 7.2606 6.6998 6.8906 12.26-0.672-0.6456-1.4991-1.2351-2.4141-1.7715-7.5809-6.1355-19.115-4.8379-19.115-4.8379l-4.3125-7.3945a19.31 19.31 0 0 0 6.3066-13.047zm220.29 37.289c0.3229-0.016 0.6125-0.01 0.8691 0.022 7.81 0.8899 19.341 17.721 0.1113 83.641s-7.5497 116.35-18.43 139.56c-10.87 23.21-62.811 37.62-50.381-63.07 16.788-136.02 57.818-159.66 67.83-160.15zm244.99 41.973c-5.2062 0.095-10.914 2.1503-14.354 3.4903 0 0-8.6007-3.061-11.471 2.289 0 0 17.779 3.6307 13.959 21.221 0 0 1.3415 1.9095 2.1015 3.4395 0 0 4.3991-2.4896 12.039-2.0996 0 0-8.0293 1.5296-11.279 5.3496 0 0 2.2898 2.6797 1.3398 5.9297 0 0-1.9096-4.5892-5.9296-6.1192 0 0-6.5809 10.9-17.631 8.9903 0 0-2.2504 6.689 6.3496 12.039s13.962-1.3402 15.682-5.7402c0 0-0.3808 11.09-10.131 10.9s-11.891-6.6895-11.891-6.6895-7.2196 2.289-6.2696 10.709c0.96 8.41 7.5203 11.871 12.24 12.811 7.64 1.53 13.76-5.9297 13.76-5.9297s12.13 5.1594 17.67 0.1894c5.5401-4.97 8.3111-14.149-1.6289-17.779 0 0 10.24-2.1015 9.8497-11.852-0.38-9.75-9.9415-13.568-9.9415-13.568s9.7509-6.3105 6.8809-19.31c-1.435-6.5-6.1394-8.3646-11.346-8.2696zm6.082 105.17c-10.546 3.6802-20.818 10.708-29.857 22.721-25.338 33.686 48.702 108.79-105.02 123.2-4.0882 0.3833-8.2268 0.7016-12.393 0.9532 0.4926-4.9611 0.996-10.119 1.5254-15.926 52.361-1.0968 99.459-24.177 101.83-71.703 2.5589-51.389 43.92-59.248 43.92-59.248zm-175.08 100.93c0.3176-0.01 0.5481 0.015 0.6855 0.061 0.8896 0.2971 1.3868 3.5096 1.6329 8.3164-1.7084-0.2421-3.3787-0.5123-4.9707-0.8203-5.3081-1.0296-10.047-2.7507-14.936-4.2696 8.7916-1.9593 15.352-3.2461 17.588-3.2871zm-43.455 9.3867c3.0151 2.8658 7.8186 5.5692 10.551 7.1778 9.9748 5.8713 22.124 9.8628 35.246 11.894-0.1576 5.9685-0.412 12.109-0.6914 17.977-18.607-0.4982-36.957-2.9851-53.293-8.7168-9.8409-3.4502-18.605-8.0055-25.852-13.385-0.4627-0.3435-1.2893-1.1833-2.2461-2.1816 4.548-2.5498 7.4721-4.5719 7.7558-5.2324 0.072-0.1694 0.1408-0.3541 0.211-0.5313 8.9631-2.2568 18.755-4.6773 28.318-7.002zm-249.65 59.318c-1.4309 0.01-3.1068 0.5428-5.0293 1.9453 0 0 5.8106 3.9389 6.6406 9.5489 0 0 3.5295-2.4897 4.7695-6.8497 8e-3 0-2.088-4.674-6.3809-4.6445z" fill="#08b70b" stroke-width=".94192"/>
     </g>
     <g transform="matrix(.028497 0 0 .028497 274.56 343.97)">
      <path class="st1" d="m141.02 213.87s-6.01-69.9 31.94-106.73" fill="none" stroke="#68b72e" stroke-miterlimit="10" stroke-width="4"/>
      <path class="st0" d="m145.13 160.88c-0.7-2.01-0.36-4.2-1.23-6.25-1.8-4.22-5.41-6.64-9.79-7.58-7.06-1.5-14.02-0.3-20.28-4.37-3.38 7.73-2.09 16.45 3.55 22.71 3.62 4.02 7.67 5.22 12.91 5.25 6.24 0.03 10.31-3.48 14.84-9.76z" fill="#68b72e"/>
      <path class="st0" d="m145.46 161.04c5.01-3.61 12.72-3.22 18.15-1.04 5.23 2.11 8.15 6.22 11.85 10.22 2.09 2.25 4.21 4.32 7.18 5.34 1.77 0.61 3.62 0.43 5.39 0.9-5.98 6.18-15.14 8.77-23.76 8.63-4.62-0.08-9.26-1.56-13-4.37-5.05-3.81-6.66-10.71-7.01-13.37-0.32-2.31 0.38-4.66 1.2-6.31z" fill="#68b72e"/>
      <g fill="#bb272d">
       <path class="st2" d="m170.9 106.54c-3.63 0.69-6.49 1.1-9.77 3.1-3.66 2.23-6.32 4.43-9.02 7.79-4.91 6.13-5.42 16.54-0.38 22.81 5.16 6.42 15.62 6.85 21.51 1.2 10.6-10.16 12.87-25.45 5.55-38.36"/>
       <path class="st2" d="m174.76 97.68c-2.43-6.34-6.69-12.13-12.7-15.66-9.89-5.82-24.81-4.98-31.08 5.72-5.77 9.84-2.63 21.77 8.55 25.71 11.81 4.16 26.12-2.1 34.27-10.77"/>
       <path class="st2" d="m180.03 99.48c2.95-1.39 5.7-5.5 7.28-8.24 3-5.18 4.13-12.18 3.77-18.09-0.56-9.31-6.89-18.87-17.24-17.81-7.32 0.75-11.74 9.56-12.96 16.02-0.85 4.51 0 9.66 1.69 13.92 1.11 2.79 2.56 5.73 4.34 8.15 2.64 3.58 7.08 5.61 13.12 6.05z"/>
       <path class="st2" d="m182.07 106.15c-1.18 7.47 0.92 15.52 5.95 21.26 5.48 6.25 13.81 9.54 21.19 4.35 5.78-4.06 8.66-12.17 5.33-18.78-5.86-11.63-20.8-11.6-32.47-6.83z"/>
       <path class="st2" d="m182.7 105.17c8.98 0.02 18.43 1.57 26.69-3.06 6.57-3.68 10.87-12.1 8.5-19.67-2.46-7.86-12.8-10.05-19.59-7.07-4.33 1.9-9.1 4.85-11.78 8.84-3.24 4.86-6.19 13.98-3.82 20.96z"/>
      </g>
      <rect class="st3" x="576.35" y="298.39" width="9.55" height="71.45" fill="#666"/>
      <path class="st4" d="m593.1 343.4c-0.07-2.82-3.1-5.09-6.81-5.09h-9.93c-3.72 0-6.75 2.26-6.81 5.09l-1.81 76.54c-0.07 2.9 3 5.27 6.81 5.27h13.55c3.81 0 6.88-2.38 6.81-5.27-0.06-2.62 0.41-5.58-0.25-8.13-0.91-3.47-5.3-4.24-8.54-6.19-2.34-1.41-3.99-3.13-4.26-5.35-0.14-1.16 0.69-2.46 0.53-3.51-0.16-1.11-1.36-2.33-1.71-3.48-0.44-1.46-0.57-3.06-0.42-4.58 0.38-3.88 3.85-6.44 6.98-9.28 2.88-2.61 4.15-4.97 4.28-8.44 0.13-3.31-2.75-3.43-4.82-5.68-1.24-1.35-0.55-2.96 0.95-4 1.33-0.93 3.93-0.69 5.15-1.74 1.66-1.43 0.55-5.08 0.51-6.86-0.06-3.11-0.13-6.21-0.21-9.3z" clip-path="url(#XMLID_3_)" fill="#a02b31"/>
      <path class="st3" d="m581.89 324.29c9.27 0 35.54-4.89 34.51-23.7-1.03-18.8-26.27-61.3-35.03-61.3s-34 42.5-35.03 61.3 25.24 23.7 34.51 23.7" fill="#666"/>
      <path class="st5" d="m175.82 203.35h-67.52c-4.83 0-8.61 4.16-8.14 8.97l6.34 65.19c0.41 4.19 3.93 7.39 8.14 7.39h54.84c4.21 0 7.73-3.2 8.14-7.39l6.34-65.19c0.47-4.81-3.31-8.97-8.14-8.97z" fill="#c66b44"/>
      <circle class="st6" cx="177.42" cy="103.7" r="10.49" fill="#f5aa3b" stroke="#bb272d" stroke-miterlimit="10"/>
     </g>
    </g>
    <g transform="translate(37.182 .17992)">
     <g transform="matrix(-.034074 0 0 .021144 296.57 348.02)" fill="#08b70b">
      <path transform="matrix(-.8363 0 0 1.3478 1237 -1297.7)" d="m1038 875.46c-2.8833-0.0433-5.9737 0.2025-9.2793 0.79688-17.04 3.06-31.839 18.371-25.719 57.561 0 0-2.4499-2.4511-3.6699-6.1211 0 0-15.921 34.28-18.371 52.65s11.022 47.75 39.182 63.67c23.625 13.356 25.893 32.856 26.014 55.414-1.7557 0.2262-3.451 0.5183-5.0898 0.8789-14.624 1.6634-43.288 5.2368-47.936 8.1973-6.28 4-65.68 85.67-65.68 85.67l-28.963-65.555c5.5296-3.6407 11.769-8.359 12.604-11.686 1.52-6.1-8.1296-24.39-6.5996-35.82 0.0599-0.4504 0.11596-0.7851 0.17578-1.2227a19.31 19.31 0 0 0 12.725-18.127 19.31 19.31 0 0 0-19.311-19.309 19.31 19.31 0 0 0-19.311 19.309 19.31 19.31 0 0 0 6e-3 0.1113l-19.506 13.459c-2.8258 1.9485-4.2826 4.1385-4.7754 6.416a19.31 19.31 0 0 0-18.934-15.535 19.31 19.31 0 0 0-13.609 5.6231 17.67 17.67 0 0 0 0.0391-0.793 17.67 17.67 0 0 0-17.67-17.67 17.67 17.67 0 0 0-17.67 17.67 17.67 17.67 0 0 0 12.301 16.828h-0.0117s0.56055 22.469 2.8106 27.809c1.9082 4.5202 24.438 7.2876 31.566 8.0644 0.78125 2.1582 1.6116 4.2993 2.5332 6.3965 0.88 1.99 2.0291 5.5192 4.1191 6.6192 3.9427 2.0734 25.787 3.9084 34.004 4.539 8.6024 24.339 38.586 107.21 48.338 107.7 6.3397 0.3155 35.766-31.67 59.178-58.354-13.761 44.593-28.443 99.827-31.719 123.61-0.87908 6.4112-1.845 25.348 4.6309 45.184 1.8748 31.452 7.0996 94.457 7.0996 94.457l-46.531-3.0293c-2.3535-4.5751-10.639-19.794-18.209-22.611-8.93-3.32-22.209-0.2097-24.699 3.3203s-3.1101 18.68-11.83 24.5c-8.72 5.81-23.25 6.0195-23.25 6.0195s14.739-2.4897 19.719-7.6797c0 0-0.82907-9.76-10.789-11-9.96-1.25-14.531 6.4395-14.531 6.4395 0 0 3.1114 1.4515 3.9414 6.0215 0 0-10.59-9.7611-22.01 0.209-11.42 9.9599-3.1103 29.48 8.9297 30.1s13.91-8.2989 13.91-8.2989 1.0399 2.7006 0.41992 5.8106c0 0 27.4 0.6199 37.99-0.8301 9.2445-1.2658 28.915-8.6662 34.008-10.617 16.327 5.9436 78.226 28.043 83.371 23.297 4.241-3.9121 9.8036-55.84 12.656-85.322 18.198 4.941 44.119-4.5758 60.107-12.459 1.2183 0.9509 2.3244 1.7983 3.0391 2.3477 16.298 12.524 39.603 20.084 64.988 22.822 6.5252 0.7042 13.118 1.1119 19.73 1.2812-0.092 1.7578-0.1815 3.3334-0.2715 4.9414-6.4608 13.782-22.506 48.274-22.32 50.668 0.19 2.48 2.8204 2.4697 7.6503 5.0098 4.8301 2.5399 2.5394 4.171 6.1094 8.541 3.57 4.36 15.352 6.5 15.352 6.5-1.02-6.54 2.6484-10.35 2.6484-10.35-0.43 15.9 9.22 18.308 16.25 18.559 7.03 0.2499 16.491-5.1492 15.641-16.869-0.8499-11.72-12.07-15.93-12.07-15.93s12.9 0.4886 16.18 9.0586c3.28 8.58 1.0215 15.541 1.0215 15.541s7.5288 0.19 12.799-2.83 7.8912-12.351 1.7012-20.221c-6.19-7.8701-15.59-5.8086-15.59-5.8086 2.57-2 12.38-4.7812 18.83 2.5488s4.209 18.711 4.209 18.711c3.46 1.2 14.071 2.329 16.721-9.041 2.66-11.36-4.6215-22.81-12.852-22.57-8.24 0.25-11.359 5.8906-11.359 5.8906s-13.839-2.6098-22.539-8.0898c-8.1112-5.1092-12.502-24.12-13.066-26.699 0.2532-2.3973 0.4985-4.7285 0.834-8.0293 4.7493-0.2734 9.4821-0.6324 14.18-1.0723 161.54-15.136 80.486-95.076 110.37-129.46 29.87-34.383 75.38-29.397 87.959-27.936 12.579 1.4765 12.651-11.745-20.148-14.816-32.799-3.0496-101.82 13.867-112.66 61.762-6.4315 28.388-22.167 68.443-75.932 70.113 1.7189-22.212 2.6731-42.96 0.4883-45.363-3.5853-3.9446-66.272 6.7834-99.608 12.81-0.1407-3.7553-0.3833-7.1051-0.7031-9.6406-5.44-43.04-0.2094-90.03 9.3106-132.19 2.15-9.52 2.7297-14.341 5.9296-23.521 1.5808-4.5244 3.1364-9.0567 4.711-13.582 18.15 24.809 59.649 80.934 63.799 80.934 4.8167 0 70.598-26.792 82.826-31.787 9.2494 8.9143 26.023 9.6465 26.023 9.6465l0.8516-38.391c-7.3-2.6-13.941-0.6504-13.941-0.6504 5.61-6.78 13.791-4.4395 13.791-4.4395l0.5527 0.2696a14.88 14.88 0 0 0-0.2226 2.4609 14.88 14.88 0 0 0 14.879 14.881 14.88 14.88 0 0 0 14.881-14.881 14.88 14.88 0 0 0-14.881-14.881 14.88 14.88 0 0 0-5.5957 1.1036c-20.707-20.484-42.436-1.6627-41.814 19.418-19.105 6.2721-69.409 22.36-73.228 19.02-4.71-4.12-29.461-60.591-39.461-77.061s-30-21.76-30-21.76c-3.4273-0.6225-5.9531-2.3665-7.8125-4.373 0.073-2.4019 0.1431-4.699 0.4629-6.2871 1.65-8.2 4.2289-16.42 7.6289-24.07-19.49-2.32-32.039-15.199-32.039-15.199 35.35 14.2 68.71 7.2702 83.25 0.9902 14.53-6.28 31.38-57.811 29.4-67.391-1.8-8.74-17.64-22.429-22.91-31.289 0 0 4.1789-7.2903 2.6289-19.57s-5.8691-16.82-5.8691-16.82c6.1-35.3-19.77-42-19.77-42 7.27 10.24 7.5996 22.789 7.5996 22.789s-9.9102-23.128-28.41-29.068-48.891-4.6211-48.891-4.6211c7.93 7.93 8.5898 25.439 8.5898 25.439s-8.6793-27.398-36.551-27.816zm10.482 45.342c1.547-0.0116 3.2038 0.21195 4.9785 0.70508 25.99 7.22 21.66 43.32 21.66 43.32-40.43 23.1-46.199-10.109-46.209-10.109 0-11.772 4.6154-33.804 19.57-33.916zm99.346 11.238c0.7183 0.0122 1.4724 0.10883 2.2637 0.30664 5.13 1.28 7.99 15.131 7.33 17.531 0.18 7.5-3.1093 16.818-3.1093 16.818s-15.71-10.709-17.42-24.719c0.4441-2.2022 3.9923-10.055 10.936-9.9375zm13.463 49.518c1.43 0.05 2.7898 0.32945 4.0898 0.93945 0.66 0.26 1.2399 0.70008 1.8399 1.0801 0.53 0.48 1.1015 0.91094 1.5215 1.4609 0.93 1.05 1.5697 2.26 2.0097 3.5 0.87 2.47 0.9491 5.0785 0.2891 7.4785-0.86-2.31-1.7185-4.4402-2.8985-6.2402-0.58-0.89-1.2016-1.7094-1.9316-2.3594-0.7-0.69-1.4896-1.2001-2.3496-1.5801l-0.6504-0.27929c-0.22-0.1-0.4692-0.14094-0.6992-0.21094-0.47-0.19-0.9304-0.20859-1.4004-0.30859-0.93-0.08-1.8603-0.0408-2.8203 0.19922-1.92 0.48999-3.8192 1.7792-5.6192 3.4492 0.49-2.44 2.0198-4.7789 4.5098-6.1289 1.23-0.66 2.6794-0.99 4.1094-1zm-49.228 0.01c1.43 0.01 2.8693 0.34 4.1093 1 2.49 1.34 4.0198 3.6789 4.5098 6.1289-1.8-1.66-3.6991-2.9592-5.6191-3.4492-0.96-0.25-1.8903-0.28922-2.8203-0.19922-0.47 0.1-0.9304 0.1286-1.4004 0.3086-0.23 0.08-0.4793 0.11093-0.6993 0.21093l-0.6503 0.2793c-0.86 0.38-1.6497 0.89008-2.3497 1.5801-0.73 0.65-1.3416 1.4713-1.9316 2.3613-1.17 1.8-2.0384 3.9283-2.8984 6.2383-0.67-2.4-0.581-5.0085 0.289-7.4785 0.44-1.23 1.0798-2.45 2.0098-3.5 0.42-0.55 0.9895-0.98094 1.5195-1.4609 0.6-0.38 1.1799-0.82007 1.8399-1.0801 1.3-0.61 2.6618-0.88946 4.0918-0.93946zm49.498 10.359c0.5643-0.0381 1.1874 0.15617 1.8418 0.66992 0.91 2.14 1.2496 5.301-1.1504 6.541-1.05 0.54-1.981 0.46-2.791-0.5-1.7144-1.9988-0.3458-6.5458 2.0996-6.7109zm-49.768 6e-3c2.4455 0.16009 3.814 4.708 2.0996 6.7148-0.81 0.95-1.741 1.04-2.791 0.5-2.4-1.24-2.0604-4.401-1.1504-6.541 0.6544-0.51563 1.2775-0.71078 1.8418-0.67383zm-62.352 22.465c1.15 0.04 1.9995 0.4096 3.0195 1.0196-0.79 0.9-1.7589 1.351-2.3789 1.791-0.57 0.38-0.7901 0.6483-1.0801 0.9883 1.71 1.5 15.759 13.381 34.109 14.531 19.59 1.22 26.32-4.9004 42.24-4.9004 11.65 0 23.94 6.8706 35.24 2.6406 3.33-1.24 5.4794-3.4297 8.1894-5.5097 0.6 9.84-9.2105 18.119-16.81 22.379-3.44 1.92-6.6997 4.11-10.43 5.5-3.25 1.2-6.5597 0.9807-9.9297 1.4707-6.86 1-13.609 1.2089-20.529 0.6289-4.24-0.35-8.5105-0.29-12.73-0.75-14.56-1.59-27.899-8.71-38.109-19.25-3.22-3.32-6.1107-6.9985-8.4708-10.978-0.4099-0.68-3.2696-4.8299-2.8496-5.6699-0.01 0.02-0.031 0.038-0.051 0.059-0.38 0.4599-0.7888 0.9803-1.2188 1.5703-0.44 0.61-0.8812 1.3693-1.5312 2.3593-0.86-0.81-1.2598-1.8888-1.2598-3.0488 0.02-1.16 0.4407-2.3102 1.2207-3.2402 0.4-0.47 0.9291-0.9192 1.5391-1.1992s1.2603-0.4007 1.8203-0.3907zm-262.05 32.982c-9.4326-0.1927-17.03 7.098-16.055 16.998 1.3 13.2 11.9 15.25 11.9 15.25s-0.38172 17.109 0.73828 21.199 12.461 5.3906 12.461 5.3906l-1.3008-15.81c-7.81-3.35-14.139-14.69-12.639-25.1 1.49-10.41 14.689-15.061 14.689-15.061-3.3025-1.9075-6.6507-2.8029-9.7949-2.8671zm28.941 36.611a19.31 19.31 0 0 0-0.0762 1.5351 19.31 19.31 0 0 0 0.0664 1.5176l-1.7891-1.6015a17.67 17.67 0 0 0 1.7988-1.4512zm38.479 2.7949c1.8097 5.8318 8.0138 11.546 12.645 14.791 4.41 3.09 7.2606 6.6998 6.8906 12.26-0.672-0.6456-1.4991-1.2351-2.4141-1.7715-7.5809-6.1355-19.115-4.8379-19.115-4.8379l-4.3125-7.3945a19.31 19.31 0 0 0 6.3066-13.047zm220.29 37.289c0.3229-0.016 0.6125-0.01 0.8691 0.022 7.81 0.8899 19.341 17.721 0.1113 83.641s-7.5497 116.35-18.43 139.56c-10.87 23.21-62.811 37.62-50.381-63.07 16.788-136.02 57.818-159.66 67.83-160.15zm244.99 41.973c-5.2062 0.095-10.914 2.1503-14.354 3.4903 0 0-8.6007-3.061-11.471 2.289 0 0 17.779 3.6307 13.959 21.221 0 0 1.3415 1.9095 2.1015 3.4395 0 0 4.3991-2.4896 12.039-2.0996 0 0-8.0293 1.5296-11.279 5.3496 0 0 2.2898 2.6797 1.3398 5.9297 0 0-1.9096-4.5892-5.9296-6.1192 0 0-6.5809 10.9-17.631 8.9903 0 0-2.2504 6.689 6.3496 12.039s13.962-1.3402 15.682-5.7402c0 0-0.3808 11.09-10.131 10.9s-11.891-6.6895-11.891-6.6895-7.2196 2.289-6.2696 10.709c0.96 8.41 7.5203 11.871 12.24 12.811 7.64 1.53 13.76-5.9297 13.76-5.9297s12.13 5.1594 17.67 0.1894c5.5401-4.97 8.3111-14.149-1.6289-17.779 0 0 10.24-2.1015 9.8497-11.852-0.38-9.75-9.9415-13.568-9.9415-13.568s9.7509-6.3105 6.8809-19.31c-1.435-6.5-6.1394-8.3646-11.346-8.2696zm6.082 105.17c-10.546 3.6802-20.818 10.708-29.857 22.721-25.338 33.686 48.702 108.79-105.02 123.2-4.0882 0.3833-8.2268 0.7016-12.393 0.9532 0.4926-4.9611 0.996-10.119 1.5254-15.926 52.361-1.0968 99.459-24.177 101.83-71.703 2.5589-51.389 43.92-59.248 43.92-59.248zm-175.08 100.93c0.3176-0.01 0.5481 0.015 0.6855 0.061 0.8896 0.2971 1.3868 3.5096 1.6329 8.3164-1.7084-0.2421-3.3787-0.5123-4.9707-0.8203-5.3081-1.0296-10.047-2.7507-14.936-4.2696 8.7916-1.9593 15.352-3.2461 17.588-3.2871zm-43.455 9.3867c3.0151 2.8658 7.8186 5.5692 10.551 7.1778 9.9748 5.8713 22.124 9.8628 35.246 11.894-0.1576 5.9685-0.412 12.109-0.6914 17.977-18.607-0.4982-36.957-2.9851-53.293-8.7168-9.8409-3.4502-18.605-8.0055-25.852-13.385-0.4627-0.3435-1.2893-1.1833-2.2461-2.1816 4.548-2.5498 7.4721-4.5719 7.7558-5.2324 0.072-0.1694 0.1408-0.3541 0.211-0.5313 8.9631-2.2568 18.755-4.6773 28.318-7.002zm-249.65 59.318c-1.4309 0.01-3.1068 0.5428-5.0293 1.9453 0 0 5.8106 3.9389 6.6406 9.5489 0 0 3.5295-2.4897 4.7695-6.8497 8e-3 0-2.088-4.674-6.3809-4.6445z" fill="#08b70b" stroke-width=".94192"/>
     </g>
     <g transform="matrix(.028497 0 0 .028497 274.56 343.97)">
      <path class="st1" d="m141.02 213.87s-6.01-69.9 31.94-106.73" fill="none" stroke="#68b72e" stroke-miterlimit="10" stroke-width="4"/>
      <path class="st0" d="m145.13 160.88c-0.7-2.01-0.36-4.2-1.23-6.25-1.8-4.22-5.41-6.64-9.79-7.58-7.06-1.5-14.02-0.3-20.28-4.37-3.38 7.73-2.09 16.45 3.55 22.71 3.62 4.02 7.67 5.22 12.91 5.25 6.24 0.03 10.31-3.48 14.84-9.76z" fill="#68b72e"/>
      <path class="st0" d="m145.46 161.04c5.01-3.61 12.72-3.22 18.15-1.04 5.23 2.11 8.15 6.22 11.85 10.22 2.09 2.25 4.21 4.32 7.18 5.34 1.77 0.61 3.62 0.43 5.39 0.9-5.98 6.18-15.14 8.77-23.76 8.63-4.62-0.08-9.26-1.56-13-4.37-5.05-3.81-6.66-10.71-7.01-13.37-0.32-2.31 0.38-4.66 1.2-6.31z" fill="#68b72e"/>
      <g fill="#bb272d">
       <path class="st2" d="m170.9 106.54c-3.63 0.69-6.49 1.1-9.77 3.1-3.66 2.23-6.32 4.43-9.02 7.79-4.91 6.13-5.42 16.54-0.38 22.81 5.16 6.42 15.62 6.85 21.51 1.2 10.6-10.16 12.87-25.45 5.55-38.36"/>
       <path class="st2" d="m174.76 97.68c-2.43-6.34-6.69-12.13-12.7-15.66-9.89-5.82-24.81-4.98-31.08 5.72-5.77 9.84-2.63 21.77 8.55 25.71 11.81 4.16 26.12-2.1 34.27-10.77"/>
       <path class="st2" d="m180.03 99.48c2.95-1.39 5.7-5.5 7.28-8.24 3-5.18 4.13-12.18 3.77-18.09-0.56-9.31-6.89-18.87-17.24-17.81-7.32 0.75-11.74 9.56-12.96 16.02-0.85 4.51 0 9.66 1.69 13.92 1.11 2.79 2.56 5.73 4.34 8.15 2.64 3.58 7.08 5.61 13.12 6.05z"/>
       <path class="st2" d="m182.07 106.15c-1.18 7.47 0.92 15.52 5.95 21.26 5.48 6.25 13.81 9.54 21.19 4.35 5.78-4.06 8.66-12.17 5.33-18.78-5.86-11.63-20.8-11.6-32.47-6.83z"/>
       <path class="st2" d="m182.7 105.17c8.98 0.02 18.43 1.57 26.69-3.06 6.57-3.68 10.87-12.1 8.5-19.67-2.46-7.86-12.8-10.05-19.59-7.07-4.33 1.9-9.1 4.85-11.78 8.84-3.24 4.86-6.19 13.98-3.82 20.96z"/>
      </g>
      <rect class="st3" x="576.35" y="298.39" width="9.55" height="71.45" fill="#666"/>
      <path class="st4" d="m593.1 343.4c-0.07-2.82-3.1-5.09-6.81-5.09h-9.93c-3.72 0-6.75 2.26-6.81 5.09l-1.81 76.54c-0.07 2.9 3 5.27 6.81 5.27h13.55c3.81 0 6.88-2.38 6.81-5.27-0.06-2.62 0.41-5.58-0.25-8.13-0.91-3.47-5.3-4.24-8.54-6.19-2.34-1.41-3.99-3.13-4.26-5.35-0.14-1.16 0.69-2.46 0.53-3.51-0.16-1.11-1.36-2.33-1.71-3.48-0.44-1.46-0.57-3.06-0.42-4.58 0.38-3.88 3.85-6.44 6.98-9.28 2.88-2.61 4.15-4.97 4.28-8.44 0.13-3.31-2.75-3.43-4.82-5.68-1.24-1.35-0.55-2.96 0.95-4 1.33-0.93 3.93-0.69 5.15-1.74 1.66-1.43 0.55-5.08 0.51-6.86-0.06-3.11-0.13-6.21-0.21-9.3z" clip-path="url(#XMLID_3_)" fill="#a02b31"/>
      <path class="st3" d="m581.89 324.29c9.27 0 35.54-4.89 34.51-23.7-1.03-18.8-26.27-61.3-35.03-61.3s-34 42.5-35.03 61.3 25.24 23.7 34.51 23.7" fill="#666"/>
      <path class="st5" d="m175.82 203.35h-67.52c-4.83 0-8.61 4.16-8.14 8.97l6.34 65.19c0.41 4.19 3.93 7.39 8.14 7.39h54.84c4.21 0 7.73-3.2 8.14-7.39l6.34-65.19c0.47-4.81-3.31-8.97-8.14-8.97z" fill="#c66b44"/>
      <circle class="st6" cx="177.42" cy="103.7" r="10.49" fill="#f5aa3b" stroke="#bb272d" stroke-miterlimit="10"/>
     </g>
    </g>
    <g transform="matrix(-1 0 0 1 626.44 .17992)">
     <g transform="matrix(-.034074 0 0 .021144 296.57 348.02)" fill="#08b70b">
      <path transform="matrix(-.8363 0 0 1.3478 1237 -1297.7)" d="m1038 875.46c-2.8833-0.0433-5.9737 0.2025-9.2793 0.79688-17.04 3.06-31.839 18.371-25.719 57.561 0 0-2.4499-2.4511-3.6699-6.1211 0 0-15.921 34.28-18.371 52.65s11.022 47.75 39.182 63.67c23.625 13.356 25.893 32.856 26.014 55.414-1.7557 0.2262-3.451 0.5183-5.0898 0.8789-14.624 1.6634-43.288 5.2368-47.936 8.1973-6.28 4-65.68 85.67-65.68 85.67l-28.963-65.555c5.5296-3.6407 11.769-8.359 12.604-11.686 1.52-6.1-8.1296-24.39-6.5996-35.82 0.0599-0.4504 0.11596-0.7851 0.17578-1.2227a19.31 19.31 0 0 0 12.725-18.127 19.31 19.31 0 0 0-19.311-19.309 19.31 19.31 0 0 0-19.311 19.309 19.31 19.31 0 0 0 6e-3 0.1113l-19.506 13.459c-2.8258 1.9485-4.2826 4.1385-4.7754 6.416a19.31 19.31 0 0 0-18.934-15.535 19.31 19.31 0 0 0-13.609 5.6231 17.67 17.67 0 0 0 0.0391-0.793 17.67 17.67 0 0 0-17.67-17.67 17.67 17.67 0 0 0-17.67 17.67 17.67 17.67 0 0 0 12.301 16.828h-0.0117s0.56055 22.469 2.8106 27.809c1.9082 4.5202 24.438 7.2876 31.566 8.0644 0.78125 2.1582 1.6116 4.2993 2.5332 6.3965 0.88 1.99 2.0291 5.5192 4.1191 6.6192 3.9427 2.0734 25.787 3.9084 34.004 4.539 8.6024 24.339 38.586 107.21 48.338 107.7 6.3397 0.3155 35.766-31.67 59.178-58.354-13.761 44.593-28.443 99.827-31.719 123.61-0.87908 6.4112-1.845 25.348 4.6309 45.184 1.8748 31.452 7.0996 94.457 7.0996 94.457l-46.531-3.0293c-2.3535-4.5751-10.639-19.794-18.209-22.611-8.93-3.32-22.209-0.2097-24.699 3.3203s-3.1101 18.68-11.83 24.5c-8.72 5.81-23.25 6.0195-23.25 6.0195s14.739-2.4897 19.719-7.6797c0 0-0.82907-9.76-10.789-11-9.96-1.25-14.531 6.4395-14.531 6.4395 0 0 3.1114 1.4515 3.9414 6.0215 0 0-10.59-9.7611-22.01 0.209-11.42 9.9599-3.1103 29.48 8.9297 30.1s13.91-8.2989 13.91-8.2989 1.0399 2.7006 0.41992 5.8106c0 0 27.4 0.6199 37.99-0.8301 9.2445-1.2658 28.915-8.6662 34.008-10.617 16.327 5.9436 78.226 28.043 83.371 23.297 4.241-3.9121 9.8036-55.84 12.656-85.322 18.198 4.941 44.119-4.5758 60.107-12.459 1.2183 0.9509 2.3244 1.7983 3.0391 2.3477 16.298 12.524 39.603 20.084 64.988 22.822 6.5252 0.7042 13.118 1.1119 19.73 1.2812-0.092 1.7578-0.1815 3.3334-0.2715 4.9414-6.4608 13.782-22.506 48.274-22.32 50.668 0.19 2.48 2.8204 2.4697 7.6503 5.0098 4.8301 2.5399 2.5394 4.171 6.1094 8.541 3.57 4.36 15.352 6.5 15.352 6.5-1.02-6.54 2.6484-10.35 2.6484-10.35-0.43 15.9 9.22 18.308 16.25 18.559 7.03 0.2499 16.491-5.1492 15.641-16.869-0.8499-11.72-12.07-15.93-12.07-15.93s12.9 0.4886 16.18 9.0586c3.28 8.58 1.0215 15.541 1.0215 15.541s7.5288 0.19 12.799-2.83 7.8912-12.351 1.7012-20.221c-6.19-7.8701-15.59-5.8086-15.59-5.8086 2.57-2 12.38-4.7812 18.83 2.5488s4.209 18.711 4.209 18.711c3.46 1.2 14.071 2.329 16.721-9.041 2.66-11.36-4.6215-22.81-12.852-22.57-8.24 0.25-11.359 5.8906-11.359 5.8906s-13.839-2.6098-22.539-8.0898c-8.1112-5.1092-12.502-24.12-13.066-26.699 0.2532-2.3973 0.4985-4.7285 0.834-8.0293 4.7493-0.2734 9.4821-0.6324 14.18-1.0723 161.54-15.136 80.486-95.076 110.37-129.46 29.87-34.383 75.38-29.397 87.959-27.936 12.579 1.4765 12.651-11.745-20.148-14.816-32.799-3.0496-101.82 13.867-112.66 61.762-6.4315 28.388-22.167 68.443-75.932 70.113 1.7189-22.212 2.6731-42.96 0.4883-45.363-3.5853-3.9446-66.272 6.7834-99.608 12.81-0.1407-3.7553-0.3833-7.1051-0.7031-9.6406-5.44-43.04-0.2094-90.03 9.3106-132.19 2.15-9.52 2.7297-14.341 5.9296-23.521 1.5808-4.5244 3.1364-9.0567 4.711-13.582 18.15 24.809 59.649 80.934 63.799 80.934 4.8167 0 70.598-26.792 82.826-31.787 9.2494 8.9143 26.023 9.6465 26.023 9.6465l0.8516-38.391c-7.3-2.6-13.941-0.6504-13.941-0.6504 5.61-6.78 13.791-4.4395 13.791-4.4395l0.5527 0.2696a14.88 14.88 0 0 0-0.2226 2.4609 14.88 14.88 0 0 0 14.879 14.881 14.88 14.88 0 0 0 14.881-14.881 14.88 14.88 0 0 0-14.881-14.881 14.88 14.88 0 0 0-5.5957 1.1036c-20.707-20.484-42.436-1.6627-41.814 19.418-19.105 6.2721-69.409 22.36-73.228 19.02-4.71-4.12-29.461-60.591-39.461-77.061s-30-21.76-30-21.76c-3.4273-0.6225-5.9531-2.3665-7.8125-4.373 0.073-2.4019 0.1431-4.699 0.4629-6.2871 1.65-8.2 4.2289-16.42 7.6289-24.07-19.49-2.32-32.039-15.199-32.039-15.199 35.35 14.2 68.71 7.2702 83.25 0.9902 14.53-6.28 31.38-57.811 29.4-67.391-1.8-8.74-17.64-22.429-22.91-31.289 0 0 4.1789-7.2903 2.6289-19.57s-5.8691-16.82-5.8691-16.82c6.1-35.3-19.77-42-19.77-42 7.27 10.24 7.5996 22.789 7.5996 22.789s-9.9102-23.128-28.41-29.068-48.891-4.6211-48.891-4.6211c7.93 7.93 8.5898 25.439 8.5898 25.439s-8.6793-27.398-36.551-27.816zm10.482 45.342c1.547-0.0116 3.2038 0.21195 4.9785 0.70508 25.99 7.22 21.66 43.32 21.66 43.32-40.43 23.1-46.199-10.109-46.209-10.109 0-11.772 4.6154-33.804 19.57-33.916zm99.346 11.238c0.7183 0.0122 1.4724 0.10883 2.2637 0.30664 5.13 1.28 7.99 15.131 7.33 17.531 0.18 7.5-3.1093 16.818-3.1093 16.818s-15.71-10.709-17.42-24.719c0.4441-2.2022 3.9923-10.055 10.936-9.9375zm13.463 49.518c1.43 0.05 2.7898 0.32945 4.0898 0.93945 0.66 0.26 1.2399 0.70008 1.8399 1.0801 0.53 0.48 1.1015 0.91094 1.5215 1.4609 0.93 1.05 1.5697 2.26 2.0097 3.5 0.87 2.47 0.9491 5.0785 0.2891 7.4785-0.86-2.31-1.7185-4.4402-2.8985-6.2402-0.58-0.89-1.2016-1.7094-1.9316-2.3594-0.7-0.69-1.4896-1.2001-2.3496-1.5801l-0.6504-0.27929c-0.22-0.1-0.4692-0.14094-0.6992-0.21094-0.47-0.19-0.9304-0.20859-1.4004-0.30859-0.93-0.08-1.8603-0.0408-2.8203 0.19922-1.92 0.48999-3.8192 1.7792-5.6192 3.4492 0.49-2.44 2.0198-4.7789 4.5098-6.1289 1.23-0.66 2.6794-0.99 4.1094-1zm-49.228 0.01c1.43 0.01 2.8693 0.34 4.1093 1 2.49 1.34 4.0198 3.6789 4.5098 6.1289-1.8-1.66-3.6991-2.9592-5.6191-3.4492-0.96-0.25-1.8903-0.28922-2.8203-0.19922-0.47 0.1-0.9304 0.1286-1.4004 0.3086-0.23 0.08-0.4793 0.11093-0.6993 0.21093l-0.6503 0.2793c-0.86 0.38-1.6497 0.89008-2.3497 1.5801-0.73 0.65-1.3416 1.4713-1.9316 2.3613-1.17 1.8-2.0384 3.9283-2.8984 6.2383-0.67-2.4-0.581-5.0085 0.289-7.4785 0.44-1.23 1.0798-2.45 2.0098-3.5 0.42-0.55 0.9895-0.98094 1.5195-1.4609 0.6-0.38 1.1799-0.82007 1.8399-1.0801 1.3-0.61 2.6618-0.88946 4.0918-0.93946zm49.498 10.359c0.5643-0.0381 1.1874 0.15617 1.8418 0.66992 0.91 2.14 1.2496 5.301-1.1504 6.541-1.05 0.54-1.981 0.46-2.791-0.5-1.7144-1.9988-0.3458-6.5458 2.0996-6.7109zm-49.768 6e-3c2.4455 0.16009 3.814 4.708 2.0996 6.7148-0.81 0.95-1.741 1.04-2.791 0.5-2.4-1.24-2.0604-4.401-1.1504-6.541 0.6544-0.51563 1.2775-0.71078 1.8418-0.67383zm-62.352 22.465c1.15 0.04 1.9995 0.4096 3.0195 1.0196-0.79 0.9-1.7589 1.351-2.3789 1.791-0.57 0.38-0.7901 0.6483-1.0801 0.9883 1.71 1.5 15.759 13.381 34.109 14.531 19.59 1.22 26.32-4.9004 42.24-4.9004 11.65 0 23.94 6.8706 35.24 2.6406 3.33-1.24 5.4794-3.4297 8.1894-5.5097 0.6 9.84-9.2105 18.119-16.81 22.379-3.44 1.92-6.6997 4.11-10.43 5.5-3.25 1.2-6.5597 0.9807-9.9297 1.4707-6.86 1-13.609 1.2089-20.529 0.6289-4.24-0.35-8.5105-0.29-12.73-0.75-14.56-1.59-27.899-8.71-38.109-19.25-3.22-3.32-6.1107-6.9985-8.4708-10.978-0.4099-0.68-3.2696-4.8299-2.8496-5.6699-0.01 0.02-0.031 0.038-0.051 0.059-0.38 0.4599-0.7888 0.9803-1.2188 1.5703-0.44 0.61-0.8812 1.3693-1.5312 2.3593-0.86-0.81-1.2598-1.8888-1.2598-3.0488 0.02-1.16 0.4407-2.3102 1.2207-3.2402 0.4-0.47 0.9291-0.9192 1.5391-1.1992s1.2603-0.4007 1.8203-0.3907zm-262.05 32.982c-9.4326-0.1927-17.03 7.098-16.055 16.998 1.3 13.2 11.9 15.25 11.9 15.25s-0.38172 17.109 0.73828 21.199 12.461 5.3906 12.461 5.3906l-1.3008-15.81c-7.81-3.35-14.139-14.69-12.639-25.1 1.49-10.41 14.689-15.061 14.689-15.061-3.3025-1.9075-6.6507-2.8029-9.7949-2.8671zm28.941 36.611a19.31 19.31 0 0 0-0.0762 1.5351 19.31 19.31 0 0 0 0.0664 1.5176l-1.7891-1.6015a17.67 17.67 0 0 0 1.7988-1.4512zm38.479 2.7949c1.8097 5.8318 8.0138 11.546 12.645 14.791 4.41 3.09 7.2606 6.6998 6.8906 12.26-0.672-0.6456-1.4991-1.2351-2.4141-1.7715-7.5809-6.1355-19.115-4.8379-19.115-4.8379l-4.3125-7.3945a19.31 19.31 0 0 0 6.3066-13.047zm220.29 37.289c0.3229-0.016 0.6125-0.01 0.8691 0.022 7.81 0.8899 19.341 17.721 0.1113 83.641s-7.5497 116.35-18.43 139.56c-10.87 23.21-62.811 37.62-50.381-63.07 16.788-136.02 57.818-159.66 67.83-160.15zm244.99 41.973c-5.2062 0.095-10.914 2.1503-14.354 3.4903 0 0-8.6007-3.061-11.471 2.289 0 0 17.779 3.6307 13.959 21.221 0 0 1.3415 1.9095 2.1015 3.4395 0 0 4.3991-2.4896 12.039-2.0996 0 0-8.0293 1.5296-11.279 5.3496 0 0 2.2898 2.6797 1.3398 5.9297 0 0-1.9096-4.5892-5.9296-6.1192 0 0-6.5809 10.9-17.631 8.9903 0 0-2.2504 6.689 6.3496 12.039s13.962-1.3402 15.682-5.7402c0 0-0.3808 11.09-10.131 10.9s-11.891-6.6895-11.891-6.6895-7.2196 2.289-6.2696 10.709c0.96 8.41 7.5203 11.871 12.24 12.811 7.64 1.53 13.76-5.9297 13.76-5.9297s12.13 5.1594 17.67 0.1894c5.5401-4.97 8.3111-14.149-1.6289-17.779 0 0 10.24-2.1015 9.8497-11.852-0.38-9.75-9.9415-13.568-9.9415-13.568s9.7509-6.3105 6.8809-19.31c-1.435-6.5-6.1394-8.3646-11.346-8.2696zm6.082 105.17c-10.546 3.6802-20.818 10.708-29.857 22.721-25.338 33.686 48.702 108.79-105.02 123.2-4.0882 0.3833-8.2268 0.7016-12.393 0.9532 0.4926-4.9611 0.996-10.119 1.5254-15.926 52.361-1.0968 99.459-24.177 101.83-71.703 2.5589-51.389 43.92-59.248 43.92-59.248zm-175.08 100.93c0.3176-0.01 0.5481 0.015 0.6855 0.061 0.8896 0.2971 1.3868 3.5096 1.6329 8.3164-1.7084-0.2421-3.3787-0.5123-4.9707-0.8203-5.3081-1.0296-10.047-2.7507-14.936-4.2696 8.7916-1.9593 15.352-3.2461 17.588-3.2871zm-43.455 9.3867c3.0151 2.8658 7.8186 5.5692 10.551 7.1778 9.9748 5.8713 22.124 9.8628 35.246 11.894-0.1576 5.9685-0.412 12.109-0.6914 17.977-18.607-0.4982-36.957-2.9851-53.293-8.7168-9.8409-3.4502-18.605-8.0055-25.852-13.385-0.4627-0.3435-1.2893-1.1833-2.2461-2.1816 4.548-2.5498 7.4721-4.5719 7.7558-5.2324 0.072-0.1694 0.1408-0.3541 0.211-0.5313 8.9631-2.2568 18.755-4.6773 28.318-7.002zm-249.65 59.318c-1.4309 0.01-3.1068 0.5428-5.0293 1.9453 0 0 5.8106 3.9389 6.6406 9.5489 0 0 3.5295-2.4897 4.7695-6.8497 8e-3 0-2.088-4.674-6.3809-4.6445z" fill="#08b70b" stroke-width=".94192"/>
     </g>
     <g transform="matrix(.028497 0 0 .028497 274.56 343.97)">
      <path class="st1" d="m141.02 213.87s-6.01-69.9 31.94-106.73" fill="none" stroke="#68b72e" stroke-miterlimit="10" stroke-width="4"/>
      <path class="st0" d="m145.13 160.88c-0.7-2.01-0.36-4.2-1.23-6.25-1.8-4.22-5.41-6.64-9.79-7.58-7.06-1.5-14.02-0.3-20.28-4.37-3.38 7.73-2.09 16.45 3.55 22.71 3.62 4.02 7.67 5.22 12.91 5.25 6.24 0.03 10.31-3.48 14.84-9.76z" fill="#68b72e"/>
      <path class="st0" d="m145.46 161.04c5.01-3.61 12.72-3.22 18.15-1.04 5.23 2.11 8.15 6.22 11.85 10.22 2.09 2.25 4.21 4.32 7.18 5.34 1.77 0.61 3.62 0.43 5.39 0.9-5.98 6.18-15.14 8.77-23.76 8.63-4.62-0.08-9.26-1.56-13-4.37-5.05-3.81-6.66-10.71-7.01-13.37-0.32-2.31 0.38-4.66 1.2-6.31z" fill="#68b72e"/>
      <g fill="#bb272d">
       <path class="st2" d="m170.9 106.54c-3.63 0.69-6.49 1.1-9.77 3.1-3.66 2.23-6.32 4.43-9.02 7.79-4.91 6.13-5.42 16.54-0.38 22.81 5.16 6.42 15.62 6.85 21.51 1.2 10.6-10.16 12.87-25.45 5.55-38.36"/>
       <path class="st2" d="m174.76 97.68c-2.43-6.34-6.69-12.13-12.7-15.66-9.89-5.82-24.81-4.98-31.08 5.72-5.77 9.84-2.63 21.77 8.55 25.71 11.81 4.16 26.12-2.1 34.27-10.77"/>
       <path class="st2" d="m180.03 99.48c2.95-1.39 5.7-5.5 7.28-8.24 3-5.18 4.13-12.18 3.77-18.09-0.56-9.31-6.89-18.87-17.24-17.81-7.32 0.75-11.74 9.56-12.96 16.02-0.85 4.51 0 9.66 1.69 13.92 1.11 2.79 2.56 5.73 4.34 8.15 2.64 3.58 7.08 5.61 13.12 6.05z"/>
       <path class="st2" d="m182.07 106.15c-1.18 7.47 0.92 15.52 5.95 21.26 5.48 6.25 13.81 9.54 21.19 4.35 5.78-4.06 8.66-12.17 5.33-18.78-5.86-11.63-20.8-11.6-32.47-6.83z"/>
       <path class="st2" d="m182.7 105.17c8.98 0.02 18.43 1.57 26.69-3.06 6.57-3.68 10.87-12.1 8.5-19.67-2.46-7.86-12.8-10.05-19.59-7.07-4.33 1.9-9.1 4.85-11.78 8.84-3.24 4.86-6.19 13.98-3.82 20.96z"/>
      </g>
      <rect class="st3" x="576.35" y="298.39" width="9.55" height="71.45" fill="#666"/>
      <path class="st4" d="m593.1 343.4c-0.07-2.82-3.1-5.09-6.81-5.09h-9.93c-3.72 0-6.75 2.26-6.81 5.09l-1.81 76.54c-0.07 2.9 3 5.27 6.81 5.27h13.55c3.81 0 6.88-2.38 6.81-5.27-0.06-2.62 0.41-5.58-0.25-8.13-0.91-3.47-5.3-4.24-8.54-6.19-2.34-1.41-3.99-3.13-4.26-5.35-0.14-1.16 0.69-2.46 0.53-3.51-0.16-1.11-1.36-2.33-1.71-3.48-0.44-1.46-0.57-3.06-0.42-4.58 0.38-3.88 3.85-6.44 6.98-9.28 2.88-2.61 4.15-4.97 4.28-8.44 0.13-3.31-2.75-3.43-4.82-5.68-1.24-1.35-0.55-2.96 0.95-4 1.33-0.93 3.93-0.69 5.15-1.74 1.66-1.43 0.55-5.08 0.51-6.86-0.06-3.11-0.13-6.21-0.21-9.3z" clip-path="url(#XMLID_3_)" fill="#a02b31"/>
      <path class="st3" d="m581.89 324.29c9.27 0 35.54-4.89 34.51-23.7-1.03-18.8-26.27-61.3-35.03-61.3s-34 42.5-35.03 61.3 25.24 23.7 34.51 23.7" fill="#666"/>
      <path class="st5" d="m175.82 203.35h-67.52c-4.83 0-8.61 4.16-8.14 8.97l6.34 65.19c0.41 4.19 3.93 7.39 8.14 7.39h54.84c4.21 0 7.73-3.2 8.14-7.39l6.34-65.19c0.47-4.81-3.31-8.97-8.14-8.97z" fill="#c66b44"/>
      <circle class="st6" cx="177.42" cy="103.7" r="10.49" fill="#f5aa3b" stroke="#bb272d" stroke-miterlimit="10"/>
     </g>
    </g>
   </g>
  </g>
 </g>
</svg>
