<?xml version="1.0" encoding="UTF-8"?>
<svg width="102.93mm" height="104.79mm" version="1.1" viewBox="0 0 102.93 104.79" xmlns="http://www.w3.org/2000/svg" xmlns:cc="http://creativecommons.org/ns#" xmlns:dc="http://purl.org/dc/elements/1.1/" xmlns:rdf="http://www.w3.org/1999/02/22-rdf-syntax-ns#">
 <metadata>
  <rdf:RDF>
   <cc:Work rdf:about="">
    <dc:format>image/svg+xml</dc:format>
    <dc:type rdf:resource="http://purl.org/dc/dcmitype/StillImage"/>
    <dc:title/>
   </cc:Work>
  </rdf:RDF>
 </metadata>
 <g transform="translate(-54.368 -95.773)">
  <g transform="matrix(.16134 0 0 .16134 47.107 87.545)">
   <g id="Cape">
    <path class="st0" d="m653.58 535.89c1.62-11.45-50.16-9.92-56.32-9.4-21.44 1.83-42.48 9.35-57.06 25.78-11.76 13.24-20.26 29.94-32.4 42.06 2.63-8.35 4.17-16.91 4.7-24.53 1.15-16.46 3.83-53.6 25.27-67.38s32.54-20.29 32.54-20.29-45.94 4.98-54.37 19.91c-8.42 14.93-26.8 62.41-26.8 62.41-7.27 11.93-14.54 23.85-21.82 35.78-1.9 3.12-4.11 6.4-5.64 9.83-16.28-1.63-32.54-7.4-48.98-6.05-5.67 0.47-10.67 2.05-15.42 4.12 0-0.06 0-0.12 0.01-0.18 0.22-2.64 1.62-5.94 0.74-8.58-0.26-0.79-19.22-67.41-19.22-67.41l-55.04 7.37s12.9 19.48 12.9 19.49c1.06 1.61 0.66 6.46 0.95 8.36 1.03 6.84 2.59 13.61 4.72 20.19 4.06 12.53 10.99 25.53 21.04 34.7-0.84 0.18-2.83 0.27-7.54-1.54-14.22-5.45-24.84-15.22-40.53-16.51-22.14-1.82-43.94 9.26-65.91 5.79-31.9-5.04-42.39-35.9-61.59-57.53-14.58-16.43-35.62-23.95-57.06-25.78-6.16-0.53-57.94-2.05-56.32 9.4-23.56-165.93 115.16-140.83 144.35-153.08 29.19-12.26 78.78-68.22 78.78-68.22l19.03-24.52 47.41-1.07 47.41 1.07 19.03 24.52s49.59 55.96 78.78 68.22c29.19 12.25 167.91-12.85 144.36 153.07zm-288.97-227.46c-19.58 0-35.45 47.25-35.45 105.53s15.87 105.53 35.45 105.53 35.45-47.25 35.45-105.53-15.87-105.53-35.45-105.53z" fill="#f00"/>
    <path class="st1" d="m653.58 535.89c1.62-11.45-50.16-9.92-56.32-9.4-21.44 1.83-42.48 9.35-57.06 25.78-11.76 13.24-20.26 29.94-32.4 42.06 2.63-8.35 4.17-16.91 4.7-24.53 1.15-16.46 3.83-53.6 25.27-67.38s32.54-20.29 32.54-20.29-45.94 4.98-54.37 19.91c-8.42 14.93-26.8 62.41-26.8 62.41-7.27 11.93-14.54 23.85-21.82 35.78-1.9 3.12-4.11 6.4-5.64 9.83-16.28-1.63-32.54-7.4-48.98-6.05-5.67 0.47-10.67 2.05-15.42 4.12 0-0.06 0-0.12 0.01-0.18 0.22-2.64 1.62-5.94 0.74-8.58-0.26-0.79-19.22-67.41-19.22-67.41l-55.04 7.37s12.9 19.48 12.9 19.49c1.06 1.61 0.66 6.46 0.95 8.36 1.03 6.84 2.59 13.61 4.72 20.19 4.06 12.53 10.99 25.53 21.04 34.7-0.84 0.18-2.83 0.27-7.54-1.54-14.22-5.45-24.84-15.22-40.53-16.51-22.14-1.82-43.94 9.26-65.91 5.79-31.9-5.04-42.39-35.9-61.59-57.53-14.58-16.43-35.62-23.95-57.06-25.78-6.16-0.53-57.94-2.05-56.32 9.4-23.56-165.93 115.16-140.83 144.35-153.08 29.19-12.26 78.78-68.22 78.78-68.22l19.03-24.52 47.41-1.07 47.41 1.07 19.03 24.52s49.59 55.96 78.78 68.22c29.19 12.25 167.91-12.85 144.36 153.07zm-288.97-227.46c-19.58 0-35.45 47.25-35.45 105.53s15.87 105.53 35.45 105.53 35.45-47.25 35.45-105.53-15.87-105.53-35.45-105.53z" opacity=".29"/>
    <path class="st0" d="m299.97 306.15s-49.46 47.93-85.32 62.39-147.18 18.3-165.86 97.73 37.89 98.45 37.89 98.45-9.66-97.36 61.01-132.1 138.78-75.01 154.85-120.94" fill="#f00"/>
    <path class="st0" d="m428.03 306.15s49.46 47.93 85.32 62.39 147.18 18.3 165.86 97.73-37.89 98.45-37.89 98.45 9.66-97.36-61.01-132.1-138.77-74.99-154.84-120.92" fill="#f00"/>
   </g>
   <g id="Tail">
    <path class="st2" d="m593.85 495.45c-8.34-3.12-38.57-14.07-65.67 20.33-27.11 34.4 13.03 132.39-100.6 129.78-113.62-2.61-89.64-107.37-89.64-107.37l4.34-0.16c-1.96 10.04-16.51 98.92 85.52 101.26 108.13 2.48 71.87-89.34 95.73-123.51 8.51-12.19 16.91-18.72 24.84-21.52 0 0-29.86 3.73-41.52 60.18-11.66 56.44-53.65 75.1-92.37 65.31-34.57-8.75-48.69-42.41-44.34-82.73l25.13-0.91 11.54 56.68c45.87 22.94 70.29-9.77 86.97-61.37 16.67-51.6 67.23-62.03 89.12-54.73s19.29 21.89 10.95 18.76z" fill="#08b70b"/>
   </g>
   <g id="Body" fill="#08b70b">
    <path class="st2" d="m342 263c0-23-10-53-33-66s-34-37-32-52 15-43 15-43c1 3 3 5 3 5-5-32 7-45 21-47s21 12 21 12c-1-7-9-16-9-16s12-5 36-5 36 5 36 5-8 9-9 16c0 0 7-14 21-12s26 15 21 47c0 0 2-2 3-5 0 0 13 28 15 43s-9 39-32 52-33 43-33 66-22 19.5-22 19.5-22 3.5-22-19.5zm-6.5-144.5s3-25-15-30c-13.11-3.64-17 14-17 23 0 0 4 23 32 7zm9.31 13.01c-1.01-0.54-2.19-0.81-3.36-0.82-1.17 0.04-2.28 0.27-3.34 0.77-0.54 0.21-1.01 0.57-1.5 0.88-0.43 0.39-0.9 0.74-1.24 1.19-0.76 0.86-1.28 1.85-1.64 2.86-0.71 2.02-0.78 4.15-0.24 6.11 0.7-1.89 1.41-3.63 2.37-5.1 0.48-0.73 0.98-1.4 1.58-1.93 0.57-0.56 1.22-0.98 1.92-1.29l0.53-0.23c0.18-0.08 0.38-0.11 0.57-0.17 0.38-0.15 0.76-0.17 1.14-0.25 0.76-0.07 1.52-0.04 2.3 0.16 1.57 0.4 3.12 1.46 4.59 2.82-0.4-1.99-1.65-3.9-3.68-5zm-5.08 8.2c-0.74 1.75-1.02 4.33 0.94 5.34 0.86 0.44 1.62 0.37 2.28-0.41 1.72-2.01-0.37-7.17-3.22-4.93zm84.77-28.21c0-9-3.89-26.64-17-23-18 5-15 30-15 30 28 16 32-7 32-7zm-40.41 22.18c0.78-0.2 1.54-0.23 2.3-0.16 0.38 0.09 0.76 0.1 1.14 0.25 0.19 0.06 0.39 0.09 0.57 0.17l0.53 0.23c0.7 0.31 1.35 0.74 1.92 1.29 0.6 0.53 1.1 1.2 1.58 1.93 0.96 1.47 1.67 3.21 2.37 5.1 0.54-1.96 0.47-4.09-0.24-6.11-0.35-1.01-0.88-2.01-1.64-2.86-0.34-0.46-0.81-0.81-1.24-1.19-0.49-0.31-0.96-0.67-1.5-0.88-1.06-0.49-2.17-0.72-3.34-0.77-1.17 0.01-2.35 0.28-3.36 0.82-2.02 1.1-3.28 3.01-3.69 4.99 1.48-1.35 3.03-2.41 4.6-2.81zm0.96 10.96c0.66 0.78 1.42 0.85 2.28 0.41 1.96-1 1.68-3.58 0.94-5.34-2.85-2.24-4.94 2.92-3.22 4.93zm43.71 9.18c-0.33-0.39-0.76-0.75-1.26-0.98s-1.03-0.33-1.49-0.32c-0.94 0.03-1.64 0.33-2.47 0.83 0.64 0.73 1.42 1.11 1.94 1.46 0.46 0.31 0.64 0.53 0.88 0.81-1.4 1.23-12.87 10.94-27.86 11.87-16 1-21.5-4-34.5-4s-18.5 5-34.5 4c-14.99-0.94-26.46-10.64-27.86-11.87 0.24-0.28 0.42-0.5 0.88-0.81 0.51-0.36 1.3-0.73 1.94-1.46-0.83-0.5-1.53-0.8-2.47-0.83-0.46-0.01-0.99 0.09-1.49 0.32s-0.93 0.6-1.26 0.98c-0.64 0.76-0.98 1.7-1 2.65 0 0.95 0.33 1.83 1.03 2.49 0.53-0.81 0.89-1.43 1.25-1.93 0.35-0.48 0.69-0.91 1-1.28 0.02-0.02 0.03-0.03 0.04-0.05 1.07 2.77 13.78 32.79 62.42 32.79s61.35-30.02 62.42-32.79c0.02 0.02 0.03 0.03 0.04 0.05 0.32 0.37 0.66 0.8 1 1.28 0.36 0.5 0.72 1.12 1.25 1.93 0.7-0.67 1.03-1.55 1.03-2.49 0.02-0.95-0.32-1.89-0.96-2.65z"/>
    <path class="st2" d="m364 545.5c-9 0-22.5 2-22.5 2-2.46 14.77-37.9 79.71-37.74 101.69 2.45 7.26 7.7 16.37 11.87 24.12 4.97 1.83 8.53 6.59 8.53 12.19 0 7.18-5.82 13-13 13-5.1 0-9.5-2.94-11.63-7.22h-0.93c-1.62 5.33-6.57 9.22-12.44 9.22-6.32 0-11.58-4.51-12.75-10.48-0.32-0.03-0.64-0.06-0.96-0.1-2.24 3.93-6.45 6.58-11.29 6.58-7.18 0-13-5.82-13-13s5.82-13 13-13c0.54 0 1.08 0.04 1.6 0.11 3.47-5.72 7.66-11.37 10.4-14.11 3.35-3.35 5.45-7.63 6.65-10.76 10.53-36.8 26.69-133.02 29.63-194.67 0 0 7.99-5.2 9.38-8.03s-0.13-9.94-0.13-9.94 5.31-5.52 5.68-7.54-2.66-6.74-2.66-6.74 2.96-9.66 0.92-12.38-9.07-6.01-9.07-6.01c5.91-55.99 9.48-100.13 9.48-100.13l6.27-27.69 34.68-0.48 34.68 0.48 6.27 27.69s3.57 44.14 9.48 100.13c0 0-7.02 3.29-9.07 6.01-2.04 2.72 0.92 12.38 0.92 12.38s-3.03 4.72-2.66 6.74 5.68 7.54 5.68 7.54-1.51 7.11-0.13 9.94c1.39 2.83 9.38 8.03 9.38 8.03 2.93 61.65 19.1 157.86 29.63 194.67 1.2 3.13 3.3 7.41 6.65 10.76 2.74 2.74 6.93 8.39 10.4 14.11 0.53-0.06 1.06-0.11 1.6-0.11 7.18 0 13 5.82 13 13s-5.82 13-13 13c-4.84 0-9.06-2.65-11.29-6.58-0.32 0.03-0.63 0.07-0.96 0.1-1.17 5.97-6.43 10.48-12.75 10.48-5.86 0-10.82-3.88-12.44-9.22h-0.93c-2.13 4.27-6.53 7.22-11.63 7.22-7.18 0-13-5.82-13-13 0-5.61 3.55-10.37 8.53-12.19 4.18-7.74 9.42-16.86 11.87-24.12 0.16-21.98-35.27-86.92-37.74-101.69 0.02 0-13.48-2-22.48-2zm-0.5-228c-16.57 0-30 43.88-30 98s13.43 98 30 98 30-43.88 30-98-13.43-98-30-98zm-62.16 360.54c-0.83 0.83-1.51 1.83-2.05 2.89-0.07 0.12-0.12 0.25-0.18 0.38-0.1-0.23-0.21-0.47-0.32-0.7-0.58-1.16-1.27-2.27-2.1-3.28-0.83-1-1.83-1.88-2.93-2.57-1.11-0.68-2.36-1.1-3.6-1.26 1.11 0.61 2.13 1.24 2.99 2.07 0.86 0.82 1.6 1.73 2.25 2.72 0.63 0.99 1.18 2.03 1.64 3.12 0.48 1.06 0.86 2.23 1.15 3.3l1.19 4.36 0.76-4.44c0.17-1 0.4-1.99 0.81-2.93 0.4-0.94 0.91-1.85 1.53-2.7 1.25-1.7 2.85-3.2 4.67-4.51-1.1 0.28-2.13 0.78-3.12 1.37-0.96 0.61-1.88 1.33-2.69 2.18zm-24.35-2.09c-0.89 0.81-1.71 1.73-2.39 2.75-0.15 0.21-0.29 0.43-0.42 0.66-0.25-0.85-0.57-1.69-0.95-2.51-0.38-0.85-0.87-1.67-1.47-2.41-0.59-0.72-1.35-1.43-2.28-1.62 0.75 0.54 1.17 1.31 1.54 2.09 0.35 0.79 0.63 1.6 0.86 2.44s0.42 1.69 0.6 2.54c0.16 0.85 0.32 1.73 0.43 2.56l0.51 3.61 1.41-3.42c0.41-0.99 0.83-1.98 1.42-2.89 0.57-0.91 1.19-1.82 1.94-2.64 1.44-1.69 3.12-3.19 4.98-4.62-1.15 0.28-2.23 0.77-3.27 1.35-1.04 0.59-2.01 1.31-2.91 2.11zm146.96-0.08c-0.98-0.59-2.02-1.08-3.12-1.37 1.83 1.31 3.43 2.81 4.67 4.51 0.63 0.85 1.14 1.76 1.53 2.7 0.41 0.94 0.64 1.93 0.81 2.93l0.76 4.44 1.19-4.36c0.29-1.07 0.67-2.24 1.15-3.3 0.46-1.09 1.02-2.13 1.64-3.12 0.64-0.98 1.39-1.89 2.25-2.72s1.88-1.46 2.99-2.07c-1.24 0.16-2.49 0.58-3.6 1.26-1.1 0.69-2.09 1.57-2.93 2.57-0.83 1.01-1.52 2.12-2.1 3.28-0.11 0.24-0.21 0.47-0.32 0.7-0.06-0.13-0.11-0.26-0.18-0.38-0.54-1.07-1.22-2.06-2.05-2.89-0.79-0.86-1.71-1.58-2.69-2.18zm24.16-2.02c-1.04-0.58-2.12-1.07-3.27-1.35 1.86 1.42 3.55 2.93 4.98 4.62 0.74 0.82 1.36 1.72 1.94 2.64 0.59 0.91 1.02 1.9 1.42 2.89l1.41 3.42 0.51-3.61c0.12-0.83 0.27-1.71 0.43-2.56 0.18-0.85 0.37-1.71 0.6-2.54 0.23-0.84 0.5-1.66 0.86-2.44s0.78-1.55 1.54-2.09c-0.92 0.19-1.69 0.89-2.28 1.62-0.59 0.74-1.08 1.56-1.47 2.41-0.37 0.82-0.69 1.65-0.95 2.51-0.13-0.22-0.27-0.45-0.42-0.66-0.68-1.02-1.5-1.93-2.39-2.75-0.91-0.81-1.88-1.53-2.91-2.11z"/>
   </g>
   <g id="Arms" fill="#08b70b">
    <path class="st2" d="m442.34 392.32s-32.37 12.6-34.41 15.32 1.92 11.38 1.92 11.38-3.03 3.72-2.66 5.74 5.68 7.54 5.68 7.54-1.51 7.11-0.13 9.94 7.99 5.93 7.99 5.93l9.81-2.6s3.51 7.54 11.45 5.68 8.42-11.76 2.69-16.59c0 0-5.13 4.67-14.89 2.96 0 0 8.29-0.89 16.66-9.94s6.05-23.1 6.05-23.1"/>
    <path class="st2" d="m381.24 264.87s9.86-6.23 18.31-3.58 94.76 65.97 95.79 68.95-45.16 79.71-45.16 79.71l-10.72-13.78 24.45-56.43-68.73-42.22"/>
    <path class="st2" d="m285.66 392.32s32.37 12.6 34.41 15.32-1.92 11.38-1.92 11.38 3.03 3.72 2.66 5.74-5.68 7.54-5.68 7.54 1.51 7.11 0.13 9.94-7.99 5.93-7.99 5.93l-9.81-2.6s-3.51 7.54-11.45 5.68-8.42-11.76-2.69-16.59c0 0 5.13 4.67 14.89 2.96 0 0-8.29-0.89-16.66-9.94s-6.05-23.1-6.05-23.1"/>
    <path class="st2" d="m346.76 264.87s-9.86-6.23-18.31-3.58-94.76 65.97-95.79 68.95 45.16 79.71 45.16 79.71l10.72-13.78-24.45-56.43 68.73-42.22"/>
   </g>
  </g>
 </g>
</svg>
