<?xml version="1.0" encoding="UTF-8" standalone="no"?>
<svg
   xmlns:dc="http://purl.org/dc/elements/1.1/"
   xmlns:cc="http://creativecommons.org/ns#"
   xmlns:rdf="http://www.w3.org/1999/02/22-rdf-syntax-ns#"
   xmlns:svg="http://www.w3.org/2000/svg"
   xmlns="http://www.w3.org/2000/svg"
   xmlns:sodipodi="http://sodipodi.sourceforge.net/DTD/sodipodi-0.dtd"
   xmlns:inkscape="http://www.inkscape.org/namespaces/inkscape"
   width="102.93mm"
   height="104.79mm"
   version="1.1"
   viewBox="0 0 102.93 104.79"
   id="svg3379"
   sodipodi:docname="educating.svg"
   inkscape:version="0.92.3 (2405546, 2018-03-11)">
  <defs
     id="defs3383" />
  <sodipodi:namedview
     pagecolor="#ffffff"
     bordercolor="#666666"
     borderopacity="1"
     objecttolerance="10"
     gridtolerance="10"
     guidetolerance="10"
     inkscape:pageopacity="0"
     inkscape:pageshadow="2"
     inkscape:window-width="1853"
     inkscape:window-height="1025"
     id="namedview3381"
     showgrid="false"
     inkscape:zoom="1.685387"
     inkscape:cx="194.51339"
     inkscape:cy="198.02835"
     inkscape:window-x="67"
     inkscape:window-y="27"
     inkscape:window-maximized="1"
     inkscape:current-layer="svg3379" />
  <metadata
     id="metadata3347">
    <rdf:RDF>
      <cc:Work
         rdf:about="">
        <dc:format>image/svg+xml</dc:format>
        <dc:type
           rdf:resource="http://purl.org/dc/dcmitype/StillImage" />
        <dc:title />
      </cc:Work>
    </rdf:RDF>
  </metadata>
  <path
     style="fill:#183f3f;stroke-width:0.16134;fill-opacity:0.75233644;opacity:0.7"
     inkscape:connector-curvature="0"
     id="path3349"
     d="M 98.187597,78.232493 C 98.448968,76.38515 90.094783,76.632 89.100928,76.715897 c -3.459129,0.295252 -6.853723,1.508529 -9.20606,4.159345 -1.897358,2.136141 -3.268748,4.830519 -5.227416,6.78596 0.424324,-1.347189 0.672788,-2.728259 0.758298,-3.95767 0.185541,-2.655656 0.617932,-8.647824 4.077062,-10.871089 3.459129,-2.223265 5.250003,-3.273589 5.250003,-3.273589 0,0 -7.411959,0.803473 -8.772055,3.21228 -1.358483,2.408806 -4.323912,10.069229 -4.323912,10.069229 -1.172942,1.924786 -2.345884,3.847959 -3.520439,5.772745 -0.306546,0.503381 -0.663108,1.032576 -0.909958,1.585972 -2.626615,-0.262984 -5.250003,-1.193916 -7.902433,-0.976107 -0.914798,0.07583 -1.721498,0.330747 -2.487863,0.664721 0,-0.0097 0,-0.01936 0.0016,-0.02904 0.03549,-0.425938 0.26137,-0.95836 0.119391,-1.384297 -0.04195,-0.127459 -3.100955,-10.87593 -3.100955,-10.87593 l -8.880153,1.189076 c 0,0 2.081286,3.142903 2.081286,3.144517 0.17102,0.259757 0.106484,1.042256 0.153273,1.348802 0.16618,1.103566 0.41787,2.195838 0.761525,3.257455 0.65504,2.02159 1.773126,4.11901 3.394593,5.598498 -0.135525,0.02904 -0.456592,0.04356 -1.216503,-0.248464 -2.294255,-0.879303 -4.007686,-2.455595 -6.539111,-2.663723 -3.572067,-0.293639 -7.089279,1.494008 -10.633919,0.934158 -5.146746,-0.813153 -6.839203,-5.792106 -9.936931,-9.28189 -2.352337,-2.650816 -5.74693,-3.864093 -9.20606,-4.159345 C 12.840351,76.632 4.4861654,76.386763 4.7475362,78.234106 0.9463658,51.46296 23.327451,55.512594 28.036965,53.536179 32.74648,51.55815 40.74733,42.529564 40.74733,42.529564 l 3.070301,-3.956057 7.649129,-0.172634 7.649129,0.172634 3.070301,3.956057 c 0,0 8.00085,9.028586 12.710365,11.006615 4.709514,1.976415 27.090595,-2.073219 23.291042,24.696314 z M 51.565177,41.534096 c -3.159037,0 -5.719503,7.623315 -5.719503,17.02621 0,9.402896 2.560466,17.026211 5.719503,17.026211 3.159038,0 5.719503,-7.623315 5.719503,-17.026211 0,-9.402895 -2.560465,-17.02621 -5.719503,-17.02621 z"
     class="st0" />
  <path
     style="fill:#183f3f;stroke-width:0.16139583;fill-opacity:1;stroke:#183f3f;stroke-opacity:1;stroke-miterlimit:4;stroke-dasharray:none;opacity:0.7"
     inkscape:connector-curvature="0"
     id="path3353"
     d="m 41.13616,41.166241 c 0,0 -7.979877,7.733026 -13.765529,10.066003 -5.785652,2.332976 -23.7460212,2.952522 -26.7598524,15.767758 -3.0138312,12.815236 6.1131726,15.883923 6.1131726,15.883923 0,0 -1.5585444,-15.708063 9.8433538,-21.313014 11.401897,-5.604952 22.390765,-12.102114 24.983499,-19.51246"
     class="st0" />
  <path
     style="fill:#183f3f;stroke-width:0.16139583;fill-opacity:1;stroke:#183f3f;stroke-opacity:1;stroke-miterlimit:4;stroke-dasharray:none;opacity:0.7"
     inkscape:connector-curvature="0"
     id="path3355"
     d="m 61.79736,41.166241 c 0,0 7.979877,7.733026 13.765529,10.066003 5.785652,2.332976 23.746021,2.952522 26.759851,15.767758 3.01383,12.815236 -6.113171,15.883923 -6.113171,15.883923 0,0 1.558544,-15.708063 -9.843354,-21.313014 C 74.964318,55.965959 63.977064,49.472024 61.38433,42.061678"
     class="st0" />
  <g
     id="Tail"
     transform="matrix(0.16134,0,0,0.16134,-7.261,-8.228)"
     style="fill:#183f3f;fill-opacity:1">
    <path
       class="st2"
       d="m 593.85,495.45 c -8.34,-3.12 -38.57,-14.07 -65.67,20.33 -27.11,34.4 13.03,132.39 -100.6,129.78 -113.62,-2.61 -89.64,-107.37 -89.64,-107.37 l 4.34,-0.16 c -1.96,10.04 -16.51,98.92 85.52,101.26 108.13,2.48 71.87,-89.34 95.73,-123.51 8.51,-12.19 16.91,-18.72 24.84,-21.52 0,0 -29.86,3.73 -41.52,60.18 -11.66,56.44 -53.65,75.1 -92.37,65.31 -34.57,-8.75 -48.69,-42.41 -44.34,-82.73 l 25.13,-0.91 11.54,56.68 c 45.87,22.94 70.29,-9.77 86.97,-61.37 16.67,-51.6 67.23,-62.03 89.12,-54.73 21.89,7.3 19.29,21.89 10.95,18.76 z"
       id="path3358"
       inkscape:connector-curvature="0"
       style="fill:#183f3f;fill-opacity:1" />
  </g>
  <g
     id="Body"
     style="fill:#183f3f;fill-opacity:1"
     transform="matrix(0.16134,0,0,0.16134,-7.261,-8.228)">
    <path
       class="st2"
       d="m 342,263 c 0,-23 -10,-53 -33,-66 -23,-13 -34,-37 -32,-52 2,-15 15,-43 15,-43 1,3 3,5 3,5 -5,-32 7,-45 21,-47 14,-2 21,12 21,12 -1,-7 -9,-16 -9,-16 0,0 12,-5 36,-5 24,0 36,5 36,5 0,0 -8,9 -9,16 0,0 7,-14 21,-12 14,2 26,15 21,47 0,0 2,-2 3,-5 0,0 13,28 15,43 2,15 -9,39 -32,52 -23,13 -33,43 -33,66 0,23 -22,19.5 -22,19.5 0,0 -22,3.5 -22,-19.5 z m -6.5,-144.5 c 0,0 3,-25 -15,-30 -13.11,-3.64 -17,14 -17,23 0,0 4,23 32,7 z m 9.31,13.01 c -1.01,-0.54 -2.19,-0.81 -3.36,-0.82 -1.17,0.04 -2.28,0.27 -3.34,0.77 -0.54,0.21 -1.01,0.57 -1.5,0.88 -0.43,0.39 -0.9,0.74 -1.24,1.19 -0.76,0.86 -1.28,1.85 -1.64,2.86 -0.71,2.02 -0.78,4.15 -0.24,6.11 0.7,-1.89 1.41,-3.63 2.37,-5.1 0.48,-0.73 0.98,-1.4 1.58,-1.93 0.57,-0.56 1.22,-0.98 1.92,-1.29 l 0.53,-0.23 c 0.18,-0.08 0.38,-0.11 0.57,-0.17 0.38,-0.15 0.76,-0.17 1.14,-0.25 0.76,-0.07 1.52,-0.04 2.3,0.16 1.57,0.4 3.12,1.46 4.59,2.82 -0.4,-1.99 -1.65,-3.9 -3.68,-5 z m -5.08,8.2 c -0.74,1.75 -1.02,4.33 0.94,5.34 0.86,0.44 1.62,0.37 2.28,-0.41 1.72,-2.01 -0.37,-7.17 -3.22,-4.93 z M 424.5,111.5 c 0,-9 -3.89,-26.64 -17,-23 -18,5 -15,30 -15,30 28,16 32,-7 32,-7 z m -40.41,22.18 c 0.78,-0.2 1.54,-0.23 2.3,-0.16 0.38,0.09 0.76,0.1 1.14,0.25 0.19,0.06 0.39,0.09 0.57,0.17 l 0.53,0.23 c 0.7,0.31 1.35,0.74 1.92,1.29 0.6,0.53 1.1,1.2 1.58,1.93 0.96,1.47 1.67,3.21 2.37,5.1 0.54,-1.96 0.47,-4.09 -0.24,-6.11 -0.35,-1.01 -0.88,-2.01 -1.64,-2.86 -0.34,-0.46 -0.81,-0.81 -1.24,-1.19 -0.49,-0.31 -0.96,-0.67 -1.5,-0.88 -1.06,-0.49 -2.17,-0.72 -3.34,-0.77 -1.17,0.01 -2.35,0.28 -3.36,0.82 -2.02,1.1 -3.28,3.01 -3.69,4.99 1.48,-1.35 3.03,-2.41 4.6,-2.81 z m 0.96,10.96 c 0.66,0.78 1.42,0.85 2.28,0.41 1.96,-1 1.68,-3.58 0.94,-5.34 -2.85,-2.24 -4.94,2.92 -3.22,4.93 z m 43.71,9.18 c -0.33,-0.39 -0.76,-0.75 -1.26,-0.98 -0.5,-0.23 -1.03,-0.33 -1.49,-0.32 -0.94,0.03 -1.64,0.33 -2.47,0.83 0.64,0.73 1.42,1.11 1.94,1.46 0.46,0.31 0.64,0.53 0.88,0.81 -1.4,1.23 -12.87,10.94 -27.86,11.87 -16,1 -21.5,-4 -34.5,-4 -13,0 -18.5,5 -34.5,4 -14.99,-0.94 -26.46,-10.64 -27.86,-11.87 0.24,-0.28 0.42,-0.5 0.88,-0.81 0.51,-0.36 1.3,-0.73 1.94,-1.46 -0.83,-0.5 -1.53,-0.8 -2.47,-0.83 -0.46,-0.01 -0.99,0.09 -1.49,0.32 -0.5,0.23 -0.93,0.6 -1.26,0.98 -0.64,0.76 -0.98,1.7 -1,2.65 0,0.95 0.33,1.83 1.03,2.49 0.53,-0.81 0.89,-1.43 1.25,-1.93 0.35,-0.48 0.69,-0.91 1,-1.28 0.02,-0.02 0.03,-0.03 0.04,-0.05 1.07,2.77 13.78,32.79 62.42,32.79 48.64,0 61.35,-30.02 62.42,-32.79 0.02,0.02 0.03,0.03 0.04,0.05 0.32,0.37 0.66,0.8 1,1.28 0.36,0.5 0.72,1.12 1.25,1.93 0.7,-0.67 1.03,-1.55 1.03,-2.49 0.02,-0.95 -0.32,-1.89 -0.96,-2.65 z"
       id="path3361"
       inkscape:connector-curvature="0"
       style="fill:#183f3f;fill-opacity:1" />
    <path
       class="st2"
       d="m 364,545.5 c -9,0 -22.5,2 -22.5,2 -2.46,14.77 -37.9,79.71 -37.74,101.69 2.45,7.26 7.7,16.37 11.87,24.12 4.97,1.83 8.53,6.59 8.53,12.19 0,7.18 -5.82,13 -13,13 -5.1,0 -9.5,-2.94 -11.63,-7.22 h -0.93 c -1.62,5.33 -6.57,9.22 -12.44,9.22 -6.32,0 -11.58,-4.51 -12.75,-10.48 -0.32,-0.03 -0.64,-0.06 -0.96,-0.1 -2.24,3.93 -6.45,6.58 -11.29,6.58 -7.18,0 -13,-5.82 -13,-13 0,-7.18 5.82,-13 13,-13 0.54,0 1.08,0.04 1.6,0.11 3.47,-5.72 7.66,-11.37 10.4,-14.11 3.35,-3.35 5.45,-7.63 6.65,-10.76 10.53,-36.8 26.69,-133.02 29.63,-194.67 0,0 7.99,-5.2 9.38,-8.03 1.39,-2.83 -0.13,-9.94 -0.13,-9.94 0,0 5.31,-5.52 5.68,-7.54 0.37,-2.02 -2.66,-6.74 -2.66,-6.74 0,0 2.96,-9.66 0.92,-12.38 -2.04,-2.72 -9.07,-6.01 -9.07,-6.01 5.91,-55.99 9.48,-100.13 9.48,-100.13 l 6.27,-27.69 34.68,-0.48 34.68,0.48 6.27,27.69 c 0,0 3.57,44.14 9.48,100.13 0,0 -7.02,3.29 -9.07,6.01 -2.04,2.72 0.92,12.38 0.92,12.38 0,0 -3.03,4.72 -2.66,6.74 0.37,2.02 5.68,7.54 5.68,7.54 0,0 -1.51,7.11 -0.13,9.94 1.39,2.83 9.38,8.03 9.38,8.03 2.93,61.65 19.1,157.86 29.63,194.67 1.2,3.13 3.3,7.41 6.65,10.76 2.74,2.74 6.93,8.39 10.4,14.11 0.53,-0.06 1.06,-0.11 1.6,-0.11 7.18,0 13,5.82 13,13 0,7.18 -5.82,13 -13,13 -4.84,0 -9.06,-2.65 -11.29,-6.58 -0.32,0.03 -0.63,0.07 -0.96,0.1 -1.17,5.97 -6.43,10.48 -12.75,10.48 -5.86,0 -10.82,-3.88 -12.44,-9.22 h -0.93 c -2.13,4.27 -6.53,7.22 -11.63,7.22 -7.18,0 -13,-5.82 -13,-13 0,-5.61 3.55,-10.37 8.53,-12.19 4.18,-7.74 9.42,-16.86 11.87,-24.12 0.16,-21.98 -35.27,-86.92 -37.74,-101.69 0.02,0 -13.48,-2 -22.48,-2 z m -0.5,-228 c -16.57,0 -30,43.88 -30,98 0,54.12 13.43,98 30,98 16.57,0 30,-43.88 30,-98 0,-54.12 -13.43,-98 -30,-98 z m -62.16,360.54 c -0.83,0.83 -1.51,1.83 -2.05,2.89 -0.07,0.12 -0.12,0.25 -0.18,0.38 -0.1,-0.23 -0.21,-0.47 -0.32,-0.7 -0.58,-1.16 -1.27,-2.27 -2.1,-3.28 -0.83,-1 -1.83,-1.88 -2.93,-2.57 -1.11,-0.68 -2.36,-1.1 -3.6,-1.26 1.11,0.61 2.13,1.24 2.99,2.07 0.86,0.82 1.6,1.73 2.25,2.72 0.63,0.99 1.18,2.03 1.64,3.12 0.48,1.06 0.86,2.23 1.15,3.3 l 1.19,4.36 0.76,-4.44 c 0.17,-1 0.4,-1.99 0.81,-2.93 0.4,-0.94 0.91,-1.85 1.53,-2.7 1.25,-1.7 2.85,-3.2 4.67,-4.51 -1.1,0.28 -2.13,0.78 -3.12,1.37 -0.96,0.61 -1.88,1.33 -2.69,2.18 z m -24.35,-2.09 c -0.89,0.81 -1.71,1.73 -2.39,2.75 -0.15,0.21 -0.29,0.43 -0.42,0.66 -0.25,-0.85 -0.57,-1.69 -0.95,-2.51 -0.38,-0.85 -0.87,-1.67 -1.47,-2.41 -0.59,-0.72 -1.35,-1.43 -2.28,-1.62 0.75,0.54 1.17,1.31 1.54,2.09 0.35,0.79 0.63,1.6 0.86,2.44 0.23,0.84 0.42,1.69 0.6,2.54 0.16,0.85 0.32,1.73 0.43,2.56 l 0.51,3.61 1.41,-3.42 c 0.41,-0.99 0.83,-1.98 1.42,-2.89 0.57,-0.91 1.19,-1.82 1.94,-2.64 1.44,-1.69 3.12,-3.19 4.98,-4.62 -1.15,0.28 -2.23,0.77 -3.27,1.35 -1.04,0.59 -2.01,1.31 -2.91,2.11 z m 146.96,-0.08 c -0.98,-0.59 -2.02,-1.08 -3.12,-1.37 1.83,1.31 3.43,2.81 4.67,4.51 0.63,0.85 1.14,1.76 1.53,2.7 0.41,0.94 0.64,1.93 0.81,2.93 l 0.76,4.44 1.19,-4.36 c 0.29,-1.07 0.67,-2.24 1.15,-3.3 0.46,-1.09 1.02,-2.13 1.64,-3.12 0.64,-0.98 1.39,-1.89 2.25,-2.72 0.86,-0.83 1.88,-1.46 2.99,-2.07 -1.24,0.16 -2.49,0.58 -3.6,1.26 -1.1,0.69 -2.09,1.57 -2.93,2.57 -0.83,1.01 -1.52,2.12 -2.1,3.28 -0.11,0.24 -0.21,0.47 -0.32,0.7 -0.06,-0.13 -0.11,-0.26 -0.18,-0.38 -0.54,-1.07 -1.22,-2.06 -2.05,-2.89 -0.79,-0.86 -1.71,-1.58 -2.69,-2.18 z m 24.16,-2.02 c -1.04,-0.58 -2.12,-1.07 -3.27,-1.35 1.86,1.42 3.55,2.93 4.98,4.62 0.74,0.82 1.36,1.72 1.94,2.64 0.59,0.91 1.02,1.9 1.42,2.89 l 1.41,3.42 0.51,-3.61 c 0.12,-0.83 0.27,-1.71 0.43,-2.56 0.18,-0.85 0.37,-1.71 0.6,-2.54 0.23,-0.84 0.5,-1.66 0.86,-2.44 0.36,-0.78 0.78,-1.55 1.54,-2.09 -0.92,0.19 -1.69,0.89 -2.28,1.62 -0.59,0.74 -1.08,1.56 -1.47,2.41 -0.37,0.82 -0.69,1.65 -0.95,2.51 -0.13,-0.22 -0.27,-0.45 -0.42,-0.66 -0.68,-1.02 -1.5,-1.93 -2.39,-2.75 -0.91,-0.81 -1.88,-1.53 -2.91,-2.11 z"
       id="path3363"
       inkscape:connector-curvature="0"
       style="fill:#183f3f;fill-opacity:1" />
  </g>
  <g
     id="Arms"
     style="fill:#183f3f;fill-opacity:1"
     transform="matrix(0.16134,0,0,0.16134,-7.261,-8.228)">
    <path
       class="st2"
       d="m 442.34,392.32 c 0,0 -32.37,12.6 -34.41,15.32 -2.04,2.72 1.92,11.38 1.92,11.38 0,0 -3.03,3.72 -2.66,5.74 0.37,2.02 5.68,7.54 5.68,7.54 0,0 -1.51,7.11 -0.13,9.94 1.38,2.83 7.99,5.93 7.99,5.93 l 9.81,-2.6 c 0,0 3.51,7.54 11.45,5.68 7.94,-1.86 8.42,-11.76 2.69,-16.59 0,0 -5.13,4.67 -14.89,2.96 0,0 8.29,-0.89 16.66,-9.94 8.37,-9.05 6.05,-23.1 6.05,-23.1"
       id="path3366"
       inkscape:connector-curvature="0"
       style="fill:#183f3f;fill-opacity:1" />
    <path
       class="st2"
       d="m 381.24,264.87 c 0,0 9.86,-6.23 18.31,-3.58 8.45,2.65 94.76,65.97 95.79,68.95 1.03,2.98 -45.16,79.71 -45.16,79.71 l -10.72,-13.78 24.45,-56.43 -68.73,-42.22"
       id="path3368"
       inkscape:connector-curvature="0"
       style="fill:#183f3f;fill-opacity:1" />
    <path
       class="st2"
       d="m 285.66,392.32 c 0,0 32.37,12.6 34.41,15.32 2.04,2.72 -1.92,11.38 -1.92,11.38 0,0 3.03,3.72 2.66,5.74 -0.37,2.02 -5.68,7.54 -5.68,7.54 0,0 1.51,7.11 0.13,9.94 -1.38,2.83 -7.99,5.93 -7.99,5.93 l -9.81,-2.6 c 0,0 -3.51,7.54 -11.45,5.68 -7.94,-1.86 -8.42,-11.76 -2.69,-16.59 0,0 5.13,4.67 14.89,2.96 0,0 -8.29,-0.89 -16.66,-9.94 -8.37,-9.05 -6.05,-23.1 -6.05,-23.1"
       id="path3370"
       inkscape:connector-curvature="0"
       style="fill:#183f3f;fill-opacity:1" />
    <path
       class="st2"
       d="m 346.76,264.87 c 0,0 -9.86,-6.23 -18.31,-3.58 -8.45,2.65 -94.76,65.97 -95.79,68.95 -1.03,2.98 45.16,79.71 45.16,79.71 l 10.72,-13.78 -24.45,-56.43 68.73,-42.22"
       id="path3372"
       inkscape:connector-curvature="0"
       style="fill:#183f3f;fill-opacity:1" />
  </g>
</svg>
