<?xml version="1.0" encoding="UTF-8" standalone="no"?>
<svg
   xmlns:dc="http://purl.org/dc/elements/1.1/"
   xmlns:cc="http://creativecommons.org/ns#"
   xmlns:rdf="http://www.w3.org/1999/02/22-rdf-syntax-ns#"
   xmlns:svg="http://www.w3.org/2000/svg"
   xmlns="http://www.w3.org/2000/svg"
   xmlns:sodipodi="http://sodipodi.sourceforge.net/DTD/sodipodi-0.dtd"
   xmlns:inkscape="http://www.inkscape.org/namespaces/inkscape"
   width="21.891mm"
   height="25mm"
   version="1.1"
   viewBox="0 0 21.891 25"
   id="svg3164"
   sodipodi:docname="gardening.svg">
  <defs
     id="defs3168" />
  <sodipodi:namedview
     pagecolor="#ffffff"
     bordercolor="#666666"
     borderopacity="1"
     objecttolerance="10"
     gridtolerance="10"
     guidetolerance="10"
     inkscape:pageopacity="0"
     inkscape:pageshadow="2"
     inkscape:window-width="640"
     inkscape:window-height="480"
     id="namedview3166"
     showgrid="false" />
  <metadata
     id="metadata3080">
    <rdf:RDF>
      <cc:Work
         rdf:about="">
        <dc:format>image/svg+xml</dc:format>
        <dc:type
           rdf:resource="http://purl.org/dc/dcmitype/StillImage" />
        <dc:title></dc:title>
      </cc:Work>
    </rdf:RDF>
  </metadata>
  <rect
     x="4.1255612"
     y="0.93668449"
     width="21.271999"
     height="24.382"
     ry="4.0830002"
     id="rect3082"
     style="fill:#cccccc;stroke:#000000;stroke-width:0.61846;stroke-linecap:round" />
  <g
     transform="matrix(0.0293234,0,0,0.0293234,4.4685493,4.0724122)"
     id="Tail">
    <path
       inkscape:connector-curvature="0"
       id="path3084"
       d="m 73.85,407.63 c 10.52,-1.97 48.58,-8.69 73.56,37.65 24.99,46.34 -42.8,154.08 92.3,174.48 16.5,2.49 33.5,3.22 50,0.35 21.23,-3.69 40.72,-13.88 54.35,-30.76 3.35,-4.15 15.41,-18.47 12.7,-24.24 -3.51,-7.48 -15.2,16.47 -17.59,19.33 -6.06,7.25 -13.39,13.39 -21.62,18.04 -23.15,13.09 -51.13,13.69 -76.81,9.81 -128.56,-19.42 -66.64,-120.65 -87.83,-166.05 -7.56,-16.19 -16.15,-25.66 -24.97,-30.62 0,0 34.59,10.59 36.73,79.85 2.14,69.25 48,100.02 95.88,96.44 15.45,-1.16 30.05,-7.24 41.33,-17.94 3.71,-3.52 12,-10.93 11.01,-16.85 -0.88,-5.28 -8.71,-5.48 -12.81,-4.89 -8.76,1.26 -15.31,7.04 -23.5,9.6 -5.74,1.79 -12.61,2.68 -18.66,3.3 -52.66,5.34 -67.26,-53.4 -73,-94.23 -9.07,-64.55 -66.79,-87.35 -94.22,-83.24 -27.43,4.14 -27.37,21.96 -16.85,19.97 z"
       class="st0" />
  </g>
  <g
     transform="matrix(0.0293234,0,0,0.0293234,4.4685493,4.0724122)"
     id="Body">
    <path
       inkscape:connector-curvature="0"
       id="path3087"
       d="m 475.71,516.36 c -4.89,-5.38 -120.21,16.61 -120.21,16.61 l -14.66,43 c 0,0 99.65,-25.86 104.05,-24.39 4.4,1.47 -0.51,72.28 -0.51,72.28 l 25.41,-4.89 c 0,0.01 10.81,-97.23 5.92,-102.61 z"
       class="st0" />
    <path
       inkscape:connector-curvature="0"
       id="path3089"
       d="m 300.38,463.6 c -12.43,100.69 39.51,86.28 50.38,63.07 10.88,-23.21 -0.8,-73.64 18.43,-139.56 19.23,-65.92 7.7,-82.75 -0.11,-83.64 -8.21,-0.94 -51.37,19.72 -68.7,160.13 z m -2.46,-157.04 c 12.49,-17.24 25.52,-27.5 47.72,-28.27 3.26,-0.11 6.2,0.71 9.45,0.49 4.7,-0.31 9.37,-1.16 14.1,-0.75 3.13,0.27 9.15,-0.43 11.96,1.11 3.78,2.07 3.12,8.23 5.22,11.58 2.46,3.92 5.87,7.47 9.65,10.16 2.24,1.6 4.92,2.66 7.32,3.98 10.16,5.59 0.21,22.87 -2.59,30.32 -3.55,9.48 -6.77,19.08 -10.11,28.64 -3.2,9.18 -3.78,14 -5.93,23.52 -9.52,42.16 -14.75,89.15 -9.31,132.19 1.42,11.26 1.44,38.11 -3.18,48.91 -1.22,2.84 -49.85,30.39 -77.14,20.33 -56.06,-20.68 -53.93,-82.44 -52.19,-95.13 5.57,-40.44 44.13,-172.04 55.03,-187.08 z"
       class="st0" />
    <path
       inkscape:connector-curvature="0"
       id="path3091"
       d="m 470.51,610.65 c 0,0 4.48,21.73 13.18,27.21 8.7,5.48 22.54,8.09 22.54,8.09 0,0 3.12,-5.64 11.36,-5.89 8.23,-0.24 15.51,11.21 12.85,22.57 -2.65,11.37 -13.26,10.24 -16.72,9.04 0,0 2.24,-11.38 -4.21,-18.71 -6.45,-7.33 -16.26,-4.55 -18.83,-2.55 0,0 9.4,-2.06 15.59,5.81 6.19,7.87 3.57,17.2 -1.7,20.22 -5.27,3.02 -12.8,2.83 -12.8,2.83 0,0 2.26,-6.96 -1.02,-15.54 -3.28,-8.57 -16.18,-9.06 -16.18,-9.06 0,0 11.22,4.21 12.07,15.93 0.85,11.72 -8.61,17.12 -15.64,16.87 -7.03,-0.25 -16.68,-2.66 -16.25,-18.56 0,0 -3.67,3.81 -2.65,10.35 0,0 -11.78,-2.14 -15.35,-6.5 -3.57,-4.37 -1.28,-6 -6.11,-8.54 -4.83,-2.54 -7.46,-2.53 -7.65,-5.01 -0.23,-2.97 25.43,-57.29 25.43,-57.29"
       class="st0" />
    <path
       inkscape:connector-curvature="0"
       id="path3093"
       d="m 299.6,569.36 c 0,0 -8.61,100.1 -14.54,105.57 -5.93,5.47 -87.43,-24.78 -87.43,-24.78 0,0 -6.84,-11.85 0.91,-20.52 l 56.08,3.65 c 0,0 -8.21,-98.94 -7.75,-110.79 0.46,-11.85 52.73,46.87 52.73,46.87 z"
       class="st0" />
    <path
       inkscape:connector-curvature="0"
       id="path3095"
       d="m 208.8,631.65 c 0,0 -10,-20.69 -18.92,-24.01 -8.93,-3.32 -22.21,-0.21 -24.7,3.32 -2.49,3.53 -3.11,18.68 -11.83,24.5 -8.72,5.81 -23.25,6.02 -23.25,6.02 0,0 14.74,-2.49 19.72,-7.68 0,0 -0.83,-9.76 -10.79,-11 -9.96,-1.25 -14.53,6.44 -14.53,6.44 0,0 3.11,1.45 3.94,6.02 0,0 -10.59,-9.76 -22.01,0.21 -11.42,9.96 -3.11,29.48 8.93,30.1 12.04,0.62 13.91,-8.3 13.91,-8.3 0,0 1.04,2.7 0.42,5.81 0,0 27.4,0.62 37.99,-0.83 10.59,-1.45 36.12,-11.42 36.12,-11.42 z"
       class="st0" />
    <path
       inkscape:connector-curvature="0"
       id="path3097"
       d="m 146.07,622.17 c 0,0 5.81,3.94 6.64,9.55 0,0 3.53,-2.49 4.77,-6.85 0.01,0 -3.72,-8.31 -11.41,-2.7 z"
       class="st0" />
  </g>
  <g
     transform="matrix(0.0293234,0,0,0.0293234,4.4685493,4.0724122)"
     id="Arms">
    <path
       inkscape:connector-curvature="0"
       id="path3100"
       d="m 141.02,213.87 c 0,0 -6.01,-69.9 31.94,-106.73"
       class="st1" />
    <path
       inkscape:connector-curvature="0"
       id="path3102"
       d="m 145.13,160.88 c -0.7,-2.01 -0.36,-4.2 -1.23,-6.25 -1.8,-4.22 -5.41,-6.64 -9.79,-7.58 -7.06,-1.5 -14.02,-0.3 -20.28,-4.37 -3.38,7.73 -2.09,16.45 3.55,22.71 3.62,4.02 7.67,5.22 12.91,5.25 6.24,0.03 10.31,-3.48 14.84,-9.76 z"
       class="st0" />
    <path
       inkscape:connector-curvature="0"
       id="path3104"
       d="m 145.46,161.04 c 5.01,-3.61 12.72,-3.22 18.15,-1.04 5.23,2.11 8.15,6.22 11.85,10.22 2.09,2.25 4.21,4.32 7.18,5.34 1.77,0.61 3.62,0.43 5.39,0.9 -5.98,6.18 -15.14,8.77 -23.76,8.63 -4.62,-0.08 -9.26,-1.56 -13,-4.37 -5.05,-3.81 -6.66,-10.71 -7.01,-13.37 -0.32,-2.31 0.38,-4.66 1.2,-6.31 z"
       class="st0" />
    <path
       inkscape:connector-curvature="0"
       id="path3106"
       d="m 170.9,106.54 c -3.63,0.69 -6.49,1.1 -9.77,3.1 -3.66,2.23 -6.32,4.43 -9.02,7.79 -4.91,6.13 -5.42,16.54 -0.38,22.81 5.16,6.42 15.62,6.85 21.51,1.2 10.6,-10.16 12.87,-25.45 5.55,-38.36"
       class="st2" />
    <path
       inkscape:connector-curvature="0"
       id="path3108"
       d="m 174.76,97.68 c -2.43,-6.34 -6.69,-12.13 -12.7,-15.66 -9.89,-5.82 -24.81,-4.98 -31.08,5.72 -5.77,9.84 -2.63,21.77 8.55,25.71 11.81,4.16 26.12,-2.1 34.27,-10.77"
       class="st2" />
    <path
       inkscape:connector-curvature="0"
       id="path3110"
       d="m 180.03,99.48 c 2.95,-1.39 5.7,-5.5 7.28,-8.24 3,-5.18 4.13,-12.18 3.77,-18.09 -0.56,-9.31 -6.89,-18.87 -17.24,-17.81 -7.32,0.75 -11.74,9.56 -12.96,16.02 -0.85,4.51 0,9.66 1.69,13.92 1.11,2.79 2.56,5.73 4.34,8.15 2.64,3.58 7.08,5.61 13.12,6.05 z"
       class="st2" />
    <path
       inkscape:connector-curvature="0"
       id="path3112"
       d="m 182.07,106.15 c -1.18,7.47 0.92,15.52 5.95,21.26 5.48,6.25 13.81,9.54 21.19,4.35 5.78,-4.06 8.66,-12.17 5.33,-18.78 -5.86,-11.63 -20.8,-11.6 -32.47,-6.83 z"
       class="st2" />
    <path
       inkscape:connector-curvature="0"
       id="path3114"
       d="m 182.7,105.17 c 8.98,0.02 18.43,1.57 26.69,-3.06 6.57,-3.68 10.87,-12.1 8.5,-19.67 -2.46,-7.86 -12.8,-10.05 -19.59,-7.07 -4.33,1.9 -9.1,4.85 -11.78,8.84 -3.24,4.86 -6.19,13.98 -3.82,20.96 z"
       class="st2" />
    <path
       inkscape:connector-curvature="0"
       id="path3116"
       d="m 129.56,303.47 c 0,0 -32.44,-3.08 -34.69,-8.41 -2.25,-5.34 -2.81,-27.81 -2.81,-27.81 l 15.17,-2.81 15.7,14.05 c 0,0 5.79,21.33 6.63,24.98 z"
       class="st0" />
    <path
       inkscape:connector-curvature="0"
       id="path3118"
       d="m 182.87,313.33 c 0,0 19.81,-10.92 21.34,-17.02 1.52,-6.1 -8.13,-24.39 -6.6,-35.82 1.52,-11.43 3.05,-18.8 3.05,-18.8 l -23.88,-3.81 -24.39,16.83 c -11.95,8.24 0.36,20.76 8.18,26.24 4.41,3.09 7.26,6.7 6.89,12.26 -3.05,-2.93 -9.16,-4.78 -13.27,-5.15 -6.04,-0.54 -10.61,2.26 -16.49,-0.88 -2.32,-1.24 -4.07,-2.58 -5.69,-4.67 -1.43,-1.83 -2.48,-4.85 -4.28,-6.28 -1.99,-1.58 -7.3,0.28 -9.13,1.81 1.86,6.16 3.57,12.4 5.59,18.53 1.44,4.36 2.93,8.74 4.78,12.95 0.88,1.99 2.03,5.52 4.12,6.62 4.83,2.54 37.85,4.83 37.85,4.83"
       class="st0" />
    <rect
       id="rect3120"
       height="71.449997"
       width="9.5500002"
       y="298.39001"
       x="576.34998"
       class="st3" />
    <path
       inkscape:connector-curvature="0"
       id="path3122"
       d="m 342.79,278.74 c 0,0 -50.26,5.14 -56.54,9.14 -6.28,4 -65.68,85.67 -65.68,85.67 l -32.55,-73.67 -23.42,13.71 c 0,0 39.41,114.22 50.83,114.79 10.85,0.54 89.47,-93.66 89.47,-93.66"
       class="st0" />
    <path
       inkscape:connector-curvature="0"
       id="path3124"
       d="m 386.16,337.64 c 0,0 67.7,93.53 72.99,93.53 5.29,0 87.45,-33.67 87.45,-33.67 l -2.35,-26.14 c 0,0 -76.27,25.7 -80.98,21.58 -4.71,-4.12 -29.46,-60.59 -39.46,-77.06 -10,-16.47 -30,-21.76 -30,-21.76 -9.91,-1.8 -12.42,-12.92 -12.42,-12.92 l -8.24,6.81"
       class="st0" />
    <path
       inkscape:connector-curvature="0"
       id="path3126"
       d="m 593.1,343.4 c -0.07,-2.82 -3.1,-5.09 -6.81,-5.09 h -9.93 c -3.72,0 -6.75,2.26 -6.81,5.09 l -1.81,76.54 c -0.07,2.9 3,5.27 6.81,5.27 h 13.55 c 3.81,0 6.88,-2.38 6.81,-5.27 -0.06,-2.62 0.41,-5.58 -0.25,-8.13 -0.91,-3.47 -5.3,-4.24 -8.54,-6.19 -2.34,-1.41 -3.99,-3.13 -4.26,-5.35 -0.14,-1.16 0.69,-2.46 0.53,-3.51 -0.16,-1.11 -1.36,-2.33 -1.71,-3.48 -0.44,-1.46 -0.57,-3.06 -0.42,-4.58 0.38,-3.88 3.85,-6.44 6.98,-9.28 2.88,-2.61 4.15,-4.97 4.28,-8.44 0.13,-3.31 -2.75,-3.43 -4.82,-5.68 -1.24,-1.35 -0.55,-2.96 0.95,-4 1.33,-0.93 3.93,-0.69 5.15,-1.74 1.66,-1.43 0.55,-5.08 0.51,-6.86 -0.06,-3.11 -0.13,-6.21 -0.21,-9.3 z"
       class="st4" />
    <path
       inkscape:connector-curvature="0"
       id="path3128"
       d="m 583.42,360.41 -5.14,9.82 -9.58,-4.68 c 0,0 -8.18,-2.34 -13.79,4.44 0,0 6.64,-1.95 13.94,0.65 L 568,409.03 c 0,0 -17.05,-0.74 -26.25,-9.86 -4.95,-4.9 -4.09,-14.3 -5.07,-22.64 -2.81,-23.83 23.84,-46.74 46.74,-16.12 z"
       class="st0" />
    <circle
       id="circle3130"
       r="14.88"
       cy="368.28"
       cx="583.90997"
       class="st0" />
    <path
       inkscape:connector-curvature="0"
       id="path3132"
       d="m 601.72,416.01 c 0,0 12.13,5.16 17.67,0.19 5.54,-4.97 8.31,-14.15 -1.63,-17.78 0,0 10.24,-2.1 9.85,-11.85 -0.38,-9.75 -9.94,-13.57 -9.94,-13.57 0,0 9.75,-6.31 6.88,-19.31 -2.87,-13 -18.82,-7.46 -25.7,-4.78 0,0 -8.6,-3.06 -11.47,2.29 0,0 17.78,3.63 13.96,21.22 0,0 1.34,1.91 2.1,3.44 0,0 4.4,-2.49 12.04,-2.1 0,0 -8.03,1.53 -11.28,5.35 0,0 2.29,2.68 1.34,5.93 0,0 -1.91,-4.59 -5.93,-6.12 0,0 -6.58,10.9 -17.63,8.99 0,0 -2.25,6.69 6.35,12.04 8.6,5.35 13.96,-1.34 15.68,-5.74 0,0 -0.38,11.09 -10.13,10.9 -9.75,-0.19 -11.89,-6.69 -11.89,-6.69 0,0 -7.22,2.29 -6.27,10.71 0.96,8.41 7.52,11.87 12.24,12.81 7.64,1.53 13.76,-5.93 13.76,-5.93 z"
       class="st0" />
    <path
       inkscape:connector-curvature="0"
       id="path3134"
       d="m 581.89,324.29 c 9.27,0 35.54,-4.89 34.51,-23.7 -1.03,-18.8 -26.27,-61.3 -35.03,-61.3 -8.76,0 -34,42.5 -35.03,61.3 -1.03,18.8 25.24,23.7 34.51,23.7"
       class="st3" />
    <path
       inkscape:connector-curvature="0"
       id="path3136"
       d="M 175.82,203.35 H 108.3 c -4.83,0 -8.61,4.16 -8.14,8.97 l 6.34,65.19 c 0.41,4.19 3.93,7.39 8.14,7.39 h 54.84 c 4.21,0 7.73,-3.2 8.14,-7.39 l 6.34,-65.19 c 0.47,-4.81 -3.31,-8.97 -8.14,-8.97 z"
       class="st5" />
    <circle
       id="circle3138"
       r="19.309999"
       cy="241.14"
       cx="191.2"
       class="st0" />
    <circle
       id="circle3140"
       r="19.309999"
       cy="264.89999"
       cx="128.67999"
       class="st0" />
    <path
       inkscape:connector-curvature="0"
       id="path3142"
       d="m 131.71,312.2 c -6.87,-7.11 -14.22,-37.45 -14.22,-37.45 l 16.83,-8.06 11.61,19.91 c 0,0 14.69,-1.66 21.81,7.58"
       class="st0" />
    <circle
       id="circle3144"
       r="17.67"
       cy="250.42"
       cx="97.440002"
       class="st0" />
    <path
       inkscape:connector-curvature="0"
       id="path3146"
       d="m 88.25,269.78 1.3,15.81 c 0,0 -11.34,-1.3 -12.46,-5.39 -1.12,-4.09 -0.74,-21.2 -0.74,-21.2 0,0 -10.6,-2.05 -11.9,-15.25 -1.3,-13.2 12.64,-21.76 25.85,-14.13 0,0 -13.2,4.65 -14.69,15.06 -1.5,10.41 4.83,21.75 12.64,25.1 z"
       class="st0" />
    <circle
       id="circle3148"
       r="10.49"
       cy="103.7"
       cx="177.42"
       class="st6" />
  </g>
  <g
     transform="matrix(0.0293234,0,0,0.0293234,4.4685493,4.0724122)"
     id="Head">
    <path
       inkscape:connector-curvature="0"
       id="path3151"
       d="m 451.79,146.5 c 5.27,8.86 21.11,22.55 22.91,31.29 1.98,9.58 -14.87,61.11 -29.4,67.39 -14.54,6.28 -47.9,13.21 -83.25,-0.99 0,0 12.55,12.88 32.04,15.2 -3.4,7.65 -5.98,15.87 -7.63,24.07 -0.91,4.52 0.28,14.4 -2.7,17.89 -4.7,5.51 -7.74,-3.05 -11.46,-4.95 -6.99,-3.58 -13.45,2.72 -20.42,1.77 -1.62,-0.22 -12.63,-4.84 -12.63,-6.07 0,-28.16 2.17,-52.79 -25.99,-68.71 -28.16,-15.92 -41.63,-45.3 -39.18,-63.67 2.45,-18.37 18.37,-52.65 18.37,-52.65 1.22,3.67 3.67,6.12 3.67,6.12 C 290,74 304.8,58.69 321.84,55.63 c 35.26,-6.34 45.83,27.02 45.83,27.02 0,0 -0.66,-17.51 -8.59,-25.44 0,0 30.39,-1.32 48.89,4.62 18.5,5.94 28.41,29.07 28.41,29.07 0,0 -0.33,-12.55 -7.6,-22.79 0,0 25.87,6.7 19.77,42 0,0 4.32,4.54 5.87,16.82 1.55,12.28 -2.63,19.57 -2.63,19.57 z m -83.55,-2.3 c 0,0 4.33,-36.1 -21.66,-43.32 -18.93,-5.26 -24.55,20.22 -24.55,33.21 0.01,0 5.78,33.21 46.21,10.11 z m 41.05,17.74 c -1.24,-0.66 -2.68,-0.99 -4.11,-1 -1.43,0.05 -2.79,0.33 -4.09,0.94 -0.66,0.26 -1.24,0.7 -1.84,1.08 -0.53,0.48 -1.1,0.91 -1.52,1.46 -0.93,1.05 -1.57,2.27 -2.01,3.5 -0.87,2.47 -0.96,5.08 -0.29,7.48 0.86,-2.31 1.73,-4.44 2.9,-6.24 0.59,-0.89 1.2,-1.71 1.93,-2.36 0.7,-0.69 1.49,-1.2 2.35,-1.58 l 0.65,-0.28 c 0.22,-0.1 0.47,-0.13 0.7,-0.21 0.47,-0.18 0.93,-0.21 1.4,-0.31 0.93,-0.09 1.86,-0.05 2.82,0.2 1.92,0.49 3.82,1.79 5.62,3.45 -0.49,-2.45 -2.02,-4.79 -4.51,-6.13 z m -6.22,10.04 c -0.91,2.14 -1.25,5.3 1.15,6.54 1.05,0.54 1.98,0.45 2.79,-0.5 2.11,-2.47 -0.45,-8.79 -3.94,-6.04 z m 42.72,-3.92 c 1.8,-1.67 3.7,-2.96 5.62,-3.45 0.96,-0.24 1.89,-0.28 2.82,-0.2 0.47,0.1 0.93,0.12 1.4,0.31 0.23,0.07 0.48,0.11 0.7,0.21 l 0.65,0.28 c 0.86,0.38 1.65,0.89 2.35,1.58 0.73,0.65 1.35,1.47 1.93,2.36 1.18,1.8 2.04,3.93 2.9,6.24 0.66,-2.4 0.58,-5.01 -0.29,-7.48 -0.44,-1.24 -1.08,-2.45 -2.01,-3.5 -0.42,-0.55 -0.99,-0.98 -1.52,-1.46 -0.6,-0.38 -1.18,-0.82 -1.84,-1.08 -1.3,-0.61 -2.66,-0.89 -4.09,-0.94 -1.43,0.01 -2.88,0.34 -4.11,1 -2.49,1.35 -4.02,3.69 -4.51,6.13 z m 1.64,-21.99 c 0,0 3.29,-9.32 3.11,-16.82 0.66,-2.4 -2.2,-16.25 -7.33,-17.53 -8.44,-2.11 -12.71,7.2 -13.2,9.63 1.71,14.01 17.42,24.72 17.42,24.72 z m 5.15,31.94 c 0.81,0.96 1.74,1.04 2.79,0.5 2.4,-1.24 2.06,-4.4 1.15,-6.54 -3.49,-2.74 -6.05,3.58 -3.94,6.04 z m 9.32,26.32 c -2.71,2.08 -4.86,4.27 -8.19,5.51 -11.3,4.23 -23.59,-2.64 -35.24,-2.64 -15.92,0 -22.65,6.12 -42.24,4.9 -18.35,-1.15 -32.4,-13.03 -34.11,-14.53 0.29,-0.34 0.51,-0.61 1.08,-0.99 0.62,-0.44 1.59,-0.89 2.38,-1.79 -1.02,-0.61 -1.87,-0.98 -3.02,-1.02 -0.56,-0.01 -1.21,0.11 -1.82,0.39 -0.61,0.28 -1.14,0.73 -1.54,1.2 -0.78,0.93 -1.2,2.08 -1.22,3.24 0,1.16 0.4,2.24 1.26,3.05 0.65,-0.99 1.09,-1.75 1.53,-2.36 0.43,-0.59 0.84,-1.11 1.22,-1.57 0.02,-0.02 0.04,-0.04 0.05,-0.06 -0.42,0.84 2.44,4.99 2.85,5.67 2.36,3.98 5.25,7.66 8.47,10.98 10.21,10.54 23.55,17.66 38.11,19.25 4.22,0.46 8.49,0.4 12.73,0.75 6.92,0.58 13.67,0.37 20.53,-0.63 3.37,-0.49 6.68,-0.27 9.93,-1.47 3.73,-1.39 6.99,-3.58 10.43,-5.5 7.6,-4.26 17.41,-12.54 16.81,-22.38 z"
       class="st0" />
  </g>
  <text
     x="6.1384702"
     y="4.47857"
     font-size="2.1818px"
     letter-spacing="0px"
     word-spacing="0px"
     style="font-size:2.18179989px;line-height:110.00000238%;font-family:'Sinkin Sans';letter-spacing:0px;word-spacing:0px;fill:#000000;stroke-width:0.081817"
     xml:space="preserve"
     id="text3158"><tspan
       x="6.1384702"
       y="4.47857"
       font-weight="900"
       id="tspan3156"
       style="font-weight:900;font-family:'Sinkin Sans';stroke-width:0.081817">GARDENING</tspan></text>
</svg>
