<?xml version="1.0" encoding="utf-8"?>
<!-- Generator: Adobe Illustrator 21.1.0, SVG Export Plug-In . SVG Version: 6.00 Build 0)  -->
<svg version="1.1" id="logo" xmlns="http://www.w3.org/2000/svg" xmlns:xlink="http://www.w3.org/1999/xlink" x="0px" y="0px"
	 viewBox="0 0 612 684" style="enable-background:new 0 0 612 684;" xml:space="preserve">
<style type="text/css">
	.st0{fill-rule:evenodd;clip-rule:evenodd;}
</style>
<path class="st0" d="M580.8,438.8c-3.1-1.7-6.1-3.2-7.8-7.8c-1.5-4.1,2.8-10.5,7.8-17.9c7.7-11.4,17.3-25.5,11.2-40
	c-1.6-3.9-6.2-5.4-10.2-6.8c-3.1-1-5.9-2-6.9-3.7c-0.7-1.3,0.8-4.3,2.5-7.4c2.8-5.3,6.7-12.6,4.6-20.6c-2.2-8.1-6.5-8.3-9.9-8.5
	c-2.6-0.1-4.3-0.2-5.5-3.1c-0.1-3.9,0.4-8,0.9-11.9c1.3-11.4,2.7-23.2-10.4-29.4c-0.2-0.1-0.4-0.1-0.6-0.1c-3.1,0.4-5.6,0.5-7.8,0.5
	c-7.3,0-9.2-1.9-11.9-4.5c-0.3-0.3-0.6-0.6-1-0.9c1.2-19.2-1.5-36.8-6.6-43c-1.3-1.6-3-2.4-5-2.4c-1.7,0-3.4,0.5-5.1,1
	c-1.6,0.5-3.2,0.9-4.6,0.9c-1.2,0-2.8-0.3-4.2-2.5c1.2-13.5-4.8-24.2-8.3-27c-1.5-1.2-4.3-0.7-7.2,0.2c-1.8,0.5-3.7,1.1-5.4,1.1
	c-1.6,0-3.7-0.5-4.8-4c1.2-10.6-2.7-14.7-8-18.9c-0.9-0.7-1.9-1.1-3-1.1c-2.1,0-4.2,1.2-6.4,2.4c-2.3,1.3-4.7,2.6-7,2.6
	c-2.2,0-4.2-1.3-6.1-4.1c-4.7-19-8.9-30.6-16.4-33.3c-2-0.7-4.3-0.4-6.6,0.1c-1.5,0.3-3.1,0.6-4.9,0.6c-1.2,0-2.3-0.1-3.5-0.4
	c-53-31.8-103.2-108.3-109.2-136.1c-0.5-2.6-2.1-5.6-6.5-5.6c-0.5,0-0.9,0.3-1.1,0.8c-27.7,77.5-95,131.1-105.1,131.5
	c-6.7,0.2-9.7,7.1-12.6,13.9c-1.8,4.1-3.6,8.3-6.1,10.4c-2.9,0.5-5-0.7-7.2-1.9c-1.9-1.1-3.8-2.2-6.4-2.2c-1.6,0-3.4,0.5-5.3,1.4
	c-4.8,2.3-7.2,11-9.9,21c-2.7,10-5.8,21.3-11.6,26.2c-3.9-0.5-6.6-2-9.2-3.4c-2.6-1.4-5-2.7-8-2.7c-0.8,0-1.6,0.1-2.4,0.3
	c-4.9,1.1-9.4,12.3-16,30.6c-2.7,7.5-5.6,15.3-8.3,21.2c-16.2,0.2-19.3,12-22.2,23.4c-1.8,7.1-3.7,14.4-8.7,19.1
	c-2.2,0.4-5.7-0.1-8.9-0.5c-2.3-0.3-4.7-0.7-6.7-0.7c-4.6,0-7.1,1.9-7.3,5.6c-1.9,25.4-2.5,29.8-13.1,33.9c-0.4,0.2-0.7,0.6-0.7,1
	c-0.3,4.5,1.4,10.4,3.1,16.2c1.1,3.9,2.3,7.9,2.7,11.2c-8.6,2.1-14.2,6-16.5,11.7C14,387.8,26,406,33.9,418.1
	c2.8,4.3,5.4,8.3,5.5,9.5c0.2,3.9-4.4,7.3-8.9,10.6c-2.6,1.9-5.3,4-7.2,6.1c-0.1,0.2-0.2,0.4-0.3,0.5c-6.2,28.8,9,42.2,22.4,54
	c3.9,3.5,7.7,6.8,10.7,10.3c-0.6,2-0.4,4,0.7,6.1c4.3,8.3,21.1,16.6,43.9,21.9c1.8,2.1,3.4,5,5.1,8c4,7.1,8.5,15.2,17,17
	c1.2,0.3,2.5,0.4,4,0.4c5.4,0,11.7-1.8,19.1-3.8c9.6-2.7,21.5-6,35-6.3c21.8-0.4,43.9-3.6,63.4-6.4c16.3-2.3,30.3-4.4,41-4.4
	c4.7,0,8.3,0.4,11.2,1.2c0,0.7,0,1.5,0,1.9c0,0.9,0,1.9,0,2.8c0,0.2,0,0.4,0,0.5c0,0.2,0,0.4,0,0.6c0,0.3,0,0.6,0,0.9
	c0,0.5,0,0.9,0,1.4c0,0.2,0,0.4,0,0.7c0,0.3,0,0.6,0,1c0,0.1,0,0.2,0,0.2c0,1.8-0.1,3.6-0.1,5.4c0,0.3,0,0.5,0,0.8
	c0,0.2,0,0.4,0,0.6c0,0.2,0,0.4,0,0.7c0,0.1,0,0.2,0,0.4c-0.1,1.2-0.1,2.4-0.2,3.7c0,0.2,0,0.4,0,0.5c0,0,0,0,0,0.1
	c0,0.1,0,0.3,0,0.4c0,0.4,0,0.7-0.1,1.1c0,0.9-0.1,1.7-0.1,2.6c-0.1,0.7-0.1,1.4-0.1,2.1c0,0.2,0,0.3,0,0.4c0,0.1,0,0.2,0,0.3h0l0,0
	c0,0.7-0.1,1.3-0.1,2c0,0.2,0,0.4,0,0.6c0,0.5-0.1,1.1-0.1,1.6c0,0.1,0,0.1,0,0.2c0,0.5-0.1,1-0.1,1.5c0,0.4-0.1,0.7-0.1,1.1
	c0,0.4-0.1,0.8-0.1,1.2c0,0.4-0.1,0.7-0.1,1c0,0.4-0.1,0.8-0.1,1.2c-0.1,0.6-0.1,1.3-0.2,1.9c0,0.1,0,0.2,0,0.3
	c0,0.5-0.1,0.9-0.1,1.3c0,0.1,0,0.2,0,0.4c0,0.1,0,0.2,0,0.4c0,0.3-0.1,0.7-0.1,1.1c0,0.3-0.1,0.7-0.1,1c0,0.2,0,0.4-0.1,0.6
	c0,0.2,0,0.5-0.1,0.7c0,0.1,0,0.3,0,0.4c0,0.2,0,0.4-0.1,0.7c0,0.3,0,0.5-0.1,0.8c-0.1,0.8-0.2,1.6-0.3,2.5c0,0.4-0.1,0.7-0.1,1.1
	c0,0.1,0,0.2,0,0.2c0,0.2,0,0.4,0,0.5c-0.1,0.9-0.2,1.8-0.3,2.8c0,0.2,0,0.4-0.1,0.6c0,0.3-0.1,0.6-0.1,0.8c0,0.1,0,0.2,0,0.3
	c-0.1,1-0.2,2.1-0.3,3.1c0,0.2,0,0.3-0.1,0.5c0,0.3-0.1,0.6-0.1,0.8c0,0,0,0,0,0c0,0.1,0,0.2-0.1,0.3c0,0,0,0,0,0
	c-0.1,0.4-0.1,0.9-0.1,1.3c0,0.1,0,0.3-0.1,0.4c0,0.3-0.1,0.6-0.1,0.9c-0.1,0.5-0.1,0.9-0.2,1.4c-0.1,0.8-0.2,1.6-0.3,2.5
	c-0.1,0.4-0.1,0.8-0.2,1.3c-0.1,0.6-0.2,1.2-0.2,1.7c-0.1,0.4-0.1,0.8-0.2,1.3c-0.1,0.4-0.1,0.7-0.2,1.1c0,0.2-0.1,0.4-0.1,0.6
	c-0.1,0.4-0.1,0.8-0.2,1.2c-0.1,0.8-0.3,1.7-0.4,2.5c0,0.1,0,0.2-0.1,0.3c0,0.1,0,0.2,0,0.2c-0.1,0.6-0.2,1.2-0.3,1.8
	c0,0.2-0.1,0.3-0.1,0.5c0,0,0,0.1,0,0.1c0,0.2-0.1,0.5-0.1,0.7c-0.1,0.4-0.2,0.7-0.2,1.1c-0.2,0.8-0.3,1.5-0.5,2.3
	c0,0.2-0.1,0.4-0.1,0.5c-0.3,1.3-0.6,2.5-1,3.7c-0.2,0.6-0.3,1.2-0.5,1.8c-0.1,0.2-0.1,0.4-0.2,0.6c-0.1,0.2-0.1,0.4-0.2,0.6
	c-0.2,0.5-0.4,1.1-0.5,1.6c0,0.1-0.1,0.2-0.1,0.4c0,0.1-0.1,0.3-0.1,0.4c-0.2,0.7-0.5,1.5-0.8,2.2c-0.1,0.2-0.2,0.4-0.2,0.6
	c-0.1,0.4-0.3,0.7-0.4,1.1c-0.2,0.4-0.3,0.8-0.5,1.2c0,0.1-0.1,0.2-0.1,0.2c-0.1,0.3-0.3,0.6-0.4,0.9c-0.4,0.8-0.7,1.6-1.1,2.4
	c0,0,0,0.1-0.1,0.1c0,0,0,0.1-0.1,0.1c-0.1,0.2-0.2,0.4-0.3,0.6c-0.3,0.6-0.6,1.1-0.8,1.7c-0.1,0.2-0.3,0.5-0.4,0.7
	c-0.2,0.4-0.4,0.8-0.7,1.1c0,0.1,0,0.1-0.1,0.1c-0.3,0.4-0.5,0.9-0.8,1.3c-0.1,0.1-0.1,0.2-0.2,0.3c-0.1,0.2-0.3,0.4-0.4,0.6
	c0,0,0,0.1-0.1,0.1c-0.4,0.6-0.8,1.2-1.2,1.7c-0.5,0.7-1.1,1.5-1.6,2.3c-0.1,0.2-0.2,0.3-0.4,0.5c-0.1,0.1-0.1,0.2-0.2,0.2
	c0,0-0.1,0.1-0.1,0.1c-0.1,0.2-0.2,0.3-0.3,0.5c-0.1,0.1-0.1,0.2-0.2,0.2c-0.1,0.2-0.2,0.3-0.3,0.5c-0.4,0.6-0.8,1.2-1.2,1.8
	c-0.2,0.3-0.3,0.6-0.5,0.9c-0.1,0.2-0.2,0.4-0.3,0.6c-0.3,0.5-0.5,1-0.7,1.5c-0.1,0.2-0.2,0.4-0.2,0.5c0,0,0,0,0,0.1
	c-0.3,0.9-0.6,1.7-0.7,2.6c-0.1,0.5-0.1,0.9-0.1,1.4c0,0.3,0,0.6,0.1,0.9c0,0.1,0,0.2,0.1,0.3c0,0.2,0.1,0.5,0.2,0.7
	c0.1,0.4,0.3,0.8,0.5,1.2c0.1,0.2,0.2,0.4,0.4,0.6c0.1,0.2,0.3,0.4,0.5,0.6c0,0,0,0,0,0c0,0,0.1,0.1,0.1,0.1
	c0.2,0.2,0.4,0.5,0.7,0.7c0.1,0.1,0.2,0.2,0.4,0.3c0.2,0.1,0.4,0.2,0.5,0.4c0.1,0.1,0.2,0.1,0.3,0.2c0.3,0.2,0.6,0.3,0.8,0.5
	c0.2,0.1,0.5,0.3,0.7,0.4c0.7,0.3,1.4,0.5,2.2,0.7c1.5,0.3,3.1,0.4,4.7,0.3c0.3,0,0.5-0.1,0.8-0.1c0.2,0,0.4,0,0.6-0.1
	c0.3,0,0.6-0.1,0.9-0.2c0.2-0.1,0.5-0.1,0.7-0.2c0.3-0.1,0.6-0.2,0.9-0.3c0.1,0,0.2-0.1,0.4-0.1c0.4-0.1,0.9-0.3,1.3-0.4
	c0.4-0.2,0.9-0.3,1.3-0.5c0.1,0,0.1-0.1,0.2-0.1c0.2-0.1,0.5-0.2,0.7-0.4c0.1,0,0.2-0.1,0.3-0.1c0.2-0.1,0.3-0.2,0.5-0.3
	c0.2-0.1,0.4-0.2,0.6-0.4c0.1,0,0.2-0.1,0.3-0.1c0.2-0.2,0.5-0.3,0.7-0.5c0.3-0.2,0.7-0.4,1-0.7c0.2-0.1,0.3-0.3,0.5-0.4
	c0.7-0.6,1.4-1.2,2-1.8c0.1-0.1,0.1-0.1,0.2-0.2c0.3-0.4,0.7-0.8,1-1.3c1-1.5,1.8-3.3,2.5-5.1c0.3-0.8,0.5-1.5,0.7-2.3
	c0.2-0.6,0.3-1.2,0.5-1.8c0-0.1,0.1-0.3,0.1-0.4c0.1-0.4,0.2-0.8,0.3-1.2c0.1-0.3,0.1-0.6,0.2-0.9c0.1-0.4,0.2-0.9,0.3-1.3
	c0-0.1,0-0.2,0.1-0.3c0-0.2,0.1-0.4,0.1-0.5c0-0.1,0.1-0.2,0.1-0.3c0-0.2,0.1-0.4,0.1-0.6c0,0,0-0.1,0-0.1c0-0.2,0.1-0.4,0.2-0.6
	c0-0.1,0-0.2,0.1-0.3c0.1-0.5,0.2-1.1,0.4-1.6c0.1-0.5,0.2-0.9,0.3-1.4c0-0.1,0-0.2,0.1-0.4c0-0.1,0.1-0.3,0.1-0.4
	c0-0.2,0.1-0.4,0.1-0.6c0.1-0.2,0.1-0.5,0.2-0.7c0,0,0-0.1,0-0.1c0.1-0.3,0.1-0.5,0.2-0.8c0.3-1.5,0.6-2.9,0.9-4.4
	c0-0.1,0-0.1,0-0.2c0-0.1,0-0.2,0.1-0.3c0.2-0.8,0.3-1.6,0.5-2.4c0-0.2,0.1-0.4,0.1-0.6c0,0,0-0.1,0-0.1c0.1-0.4,0.1-0.7,0.2-1.1
	c0.1-0.4,0.1-0.8,0.2-1.2c0-0.2,0.1-0.3,0.1-0.5c0,0,0-0.1,0-0.1c0.1-0.4,0.2-0.9,0.2-1.3c0-0.2,0.1-0.4,0.1-0.6
	c0.1-0.4,0.1-0.8,0.2-1.3c0-0.1,0.1-0.3,0.1-0.5c0-0.1,0.1-0.2,0.1-0.3h0c0-0.2,0.1-0.5,0.1-0.7c0.1-0.3,0.1-0.5,0.1-0.8
	c0-0.1,0.1-0.2,0.1-0.3c0-0.1,0-0.1,0-0.2c0.1-0.7,0.2-1.3,0.3-2c0-0.3,0.1-0.5,0.1-0.8c0-0.1,0-0.2,0.1-0.3c0-0.1,0-0.2,0-0.3
	c0-0.1,0-0.2,0.1-0.4c0-0.2,0.1-0.4,0.1-0.7c0-0.2,0.1-0.5,0.1-0.7c0.1-0.5,0.2-1,0.2-1.5c0-0.1,0-0.1,0-0.2c0-0.3,0.1-0.6,0.1-0.8
	c0,0,0,0,0,0c0.1-0.6,0.2-1.3,0.3-1.9c0.1-0.4,0.1-0.8,0.2-1.2c0.1-0.9,0.2-1.8,0.4-2.7c0.1-0.4,0.1-0.8,0.2-1.2
	c0.1-0.4,0.1-0.8,0.2-1.3c0-0.1,0-0.2,0-0.3c0.1-0.4,0.1-0.9,0.2-1.3c0.1-0.8,0.2-1.6,0.3-2.4c0.1-0.4,0.1-0.8,0.1-1.2
	c0-0.4,0.1-0.7,0.1-1c0.1-0.8,0.2-1.5,0.3-2.3c0-0.2,0-0.4,0.1-0.5c0.2-1.5,0.3-2.9,0.4-4.4c0-0.2,0-0.3,0-0.5c0,0,0-0.1,0-0.1
	c0-0.1,0-0.2,0-0.4c0-0.4,0.1-0.8,0.1-1.2c0.1-1.1,0.2-2.3,0.3-3.4c0-0.4,0.1-0.8,0.1-1.2c0-0.1,0-0.1,0-0.2c0-0.2,0-0.3,0-0.5
	c0-0.3,0.1-0.7,0.1-1c0-0.3,0.1-0.7,0.1-1c0-0.1,0-0.2,0-0.3c0-0.3,0-0.5,0.1-0.8c0-0.1,0-0.2,0-0.3c0-0.1,0-0.1,0-0.2
	c0-0.1,0-0.2,0-0.4c0-0.1,0-0.3,0-0.4c0-0.4,0.1-0.7,0.1-1.1c0-0.3,0.1-0.6,0.1-0.9c0-0.1,0-0.2,0-0.2c0-0.1,0-0.2,0-0.3
	c0-0.2,0-0.4,0-0.6c0-0.1,0-0.2,0-0.3c0-0.4,0.1-0.9,0.1-1.3c0-0.1,0-0.2,0-0.3c0-0.6,0.1-1.2,0.1-1.8c0-0.4,0-0.7,0.1-1.1
	c0-0.3,0-0.5,0-0.8c0-0.1,0-0.1,0-0.2c0-0.2,0-0.4,0-0.5c0-0.4,0-0.8,0.1-1.2c0-0.2,0-0.4,0-0.6c0-0.2,0-0.4,0-0.6
	c0-0.3,0-0.5,0-0.8c0-0.2,0-0.4,0-0.5c0-0.3,0-0.7,0.1-1c0-0.1,0-0.2,0-0.2c0-0.2,0-0.4,0-0.5c0-0.2,0-0.3,0-0.5c0-0.2,0-0.3,0-0.5
	c0-0.1,0-0.3,0-0.4c0-0.4,0-0.9,0.1-1.3c0-0.2,0-0.5,0-0.7c0-0.2,0-0.5,0-0.7c0-0.5,0-1.1,0.1-1.6c0-0.1,0-0.2,0-0.2
	c0-0.1,0-0.2,0-0.3c0-0.5,0-1,0.1-1.5c0-0.1,0-0.3,0-0.4c0-0.3,0-0.5,0-0.8c0-0.2,0-0.3,0-0.5c0-0.4,0-0.7,0-1c0-0.1,0-0.2,0-0.3
	c0-0.1,0-0.2,0-0.3c0-0.1,0-0.3,0-0.4c0-0.2,0-0.4,0-0.6c0-0.1,0-0.3,0-0.4c0-0.2,0-0.5,0-0.7c0-0.3,0-0.5,0-0.8c0-0.2,0-0.3,0-0.5
	c0-0.4,0-0.8,0.1-1.2c0-0.1,0-0.1,0-0.2c0-0.5,0-0.9,0.1-1.4c0-0.8,0.1-1.6,0.1-2.4c0,0,0-0.1,0-0.1c0-0.1,0-0.2,0-0.2
	c0-0.3,0-0.6,0-1c0-0.1,0-0.3,0-0.4c0-0.3,0-0.5,0-0.8c0-0.1,0-0.2,0-0.3c0-0.2,0-0.3,0-0.5c0-0.2,0-0.4,0-0.5c0-0.9,0-1.9,0-2.9
	c0-0.2,0-0.4,0-0.6c0-0.5,0-1,0.1-1.5c0-0.9,0.3-2.5,0.4-3.4l0,0l0.9,0c52.1,0,108.4,10.2,142.1,16.3c8,1.5,15,2.7,20.4,3.6
	c2.2,0.4,4.3,0.5,6.1,0.5c11.5,0,14.9-6.6,18-12.5c1.5-2.9,2.9-5.5,5.1-7.4c3.6-3,11.3-6.3,19.4-9.9c9.4-4.1,19.1-8.4,23.3-12.5
	c4-3.8,5.7-7.9,7.1-11.6c1.4-3.6,2.6-6.7,5.8-8.6c0.8-0.5,1.8-1,2.9-1.6c8-4.1,22.9-11.6,24.3-45.5
	C589.4,443.4,585,441.1,580.8,438.8z"/>
</svg>
