<?xml version="1.0" encoding="UTF-8"?>
<svg width="21.891mm" height="25mm" version="1.1" viewBox="0 0 21.891 25" xmlns="http://www.w3.org/2000/svg" xmlns:cc="http://creativecommons.org/ns#" xmlns:dc="http://purl.org/dc/elements/1.1/" xmlns:rdf="http://www.w3.org/1999/02/22-rdf-syntax-ns#">
 <metadata>
  <rdf:RDF>
   <cc:Work rdf:about="">
    <dc:format>image/svg+xml</dc:format>
    <dc:type rdf:resource="http://purl.org/dc/dcmitype/StillImage"/>
    <dc:title/>
   </cc:Work>
  </rdf:RDF>
 </metadata>
 <g transform="translate(-28.076 -2.3335)">
  <g transform="matrix(.61948 0 0 .61948 67.541 9.6376)">
   <rect x="-63.207" y="-11.291" width="34.339" height="39.358" ry="6.591" fill="#ccc" stroke="#000" stroke-linecap="round" stroke-width=".99835"/>
   <g transform="matrix(.086256 0 0 .086256 -85.752 -92.844)">
    <path d="m562.89 1020.6c-0.4615 0-0.84 0.3701-0.84535 0.8369l-0.12919 15.452c-0.92882 0.1321-1.9231 0.023-2.9938-0.3398-2.3976-0.7956-6.5086-2.2738-8.9645-1.1121-1.7187 0.8116-2.5302 4.4293-3.1932 6.1055 2.9599 0.4191 6.0047-3.4365 9.2988-2.3225 1.9414 0.6577 2.9853 4.1622 1.935 5.8809-0.34477-1.0556-0.62417-2.9271-1.7328-3.6538-1.8353-1.1989-4.8609 0.1329-6.7122 0.7217-1.5118 0.4772-2.8849 0.5297-3.5639 2.0362-0.90176 2.0104-0.11185 4.3813-1.8676 6.0045 1.8937 1.0343 3.7603 2.117 5.7124 3.1089 1.3792 0.7055 1.403 1.1035 2.4321-0.3286 0.51456-0.7161 4.1136-8.1158 5.9118-4.2436-2.0475 0.9071-2.0308 2.2579-2.2271 4.1622-0.20685 2.0634-1.7816 3.6129-4.0891 3.6818-1.8778 0.058-2.6263-2.3334-4.1116-2.2327-1.1458 0.079 0.65223 3.7306 1.2357 4.2717 2.1854 2.0369 5.4491 0.2683 7.3216-0.8987 2.5235-1.5714 3.4336-0.1546 5.4287 0.4297l-0.77793 93.162h-0.12077c-1.5913 0-2.8918 0.9728-2.9236 2.1822l-0.0477 1.9912c-7.8991-3.8408-14.998 4.0491-14.045 12.214 0.19455 1.6574 0.22919 3.4017 0.41284 5.0187-1.4507 1.677-21.869 25.27-21.869 25.27-4.1162-3.4373-8.235-6.2771-12.346-9.7144-5.7394-4.7953-11.487-9.0056-15.688-15.281-1.0025-1.4958-1.6362-3.3636-3.1426-4.4457-1.327-0.95-5.2976-1.47-8.0883-0.924-0.65451-0.3322-1.3364-0.626-2.0417-0.8875-0.5495-7.516 3.9402-17.64 3.9402-17.64-8.5667-1.0185-14.087-6.6841-14.087-6.6841 15.542 6.2433 30.208 3.1936 36.6 0.4353 6.3919-2.7583 13.797-25.42 12.927-29.632-0.79568-3.8457-7.7558-9.8651-10.074-13.759 0 0 1.8413-3.1995 1.1571-8.5994-0.68428-5.4-2.5838-7.3946-2.5838-7.3946 2.6841-15.521-8.6893-18.463-8.6893-18.463 3.1986 4.4981 3.342 10.02 3.342 10.02s-4.3602-10.169-12.492-12.784c-8.137-2.6151-21.499-2.0333-21.499-2.0333 3.485 3.4851 3.7774 11.183 3.7774 11.183s-3.8169-12.051-16.073-12.234c-1.2678-0.019-2.6243 0.089-4.0779 0.351-7.4899 1.3474-13.993 8.0723-11.304 25.301 0-1e-4 -1.0791-1.0751-1.6148-2.6877 0 0-6.9947 15.074-8.0715 23.147-1.0768 8.0787 4.8464 21.001 17.227 27.997 11.811 6.6744 11.488 16.858 11.433 28.528-0.18907 0.053-0.38 0.092-0.56732 0.1573-1.0533 0.3668-2.0137 0.877-2.8927 1.4885-1.4743-0.536-3.27-0.6457-5.336-0.1601-5.1135 1.2041-9.5906 4.8272-14.449 6.8217-4.3125 1.7717-8.3685 4.0933-12.649 5.9286-3.8139 1.6391-7.7148 2.6098-11.529 4.2913-2.997 1.3209-5.9931 2.6475-8.9477 4.0639-0.89646 0.4296-3.0076 1.0332-3.5752 1.935-0.81779 1.2881 7.4726 35.49 10.953 49.659l-0.78917 0.5645c-0.68326 1.2171-1.9815 7.751-1.8788 12.776-9.4747 3.6059-18.639 8.8113-25.779 16.014-10.314 10.406-16.143 26.503-14.486 41.194 1.5034 13.372 8.367 26.464 21.524 31.48 15.105 5.7629 30.036-0.9155 42.211-9.7874-1.2039 3.6501-5.7723 6.6278-9.105 8.577-0.28704-0.029-0.59169-0.048-0.87062-0.081-1.9495 0.9969-3.9404 1.8872-5.9651 2.654 0.10625 0.021 0.22417 0.036 0.3314 0.056-2.4832 0.7076-4.955 1.3659-7.0324 2.7073 5.8754-0.5369 11.99-0.2403 17.671-2.1681 6.985-2.3727 14.923-4.8772 20.726-9.6021 12.666-10.309 13.728-29.982 9.5964-44.463-2.2295-7.8133-5.983-12.255-12.554-16.494-3.7328-2.4085-7.6375-4.1233-11.56-6.1534-3.2638-1.6923-6.3718-3.3839-7.7401-6.8694 0.36134 0.1541 0.70684 0.2605 1.0026 0.2443 1.8243-0.1044 4.943-1.1792 5.3557-1.3227 1.972 0.8393 3.7116 1.979 4.7238 3.1314 1.6232 1.8459 3.1441 3.7357 5.7433 1.6457 1.5807-1.2731 1.5816-3.7037 3.7352-4.4092 2.5568-0.8381 3.8139-0.065 4.53-3.7353 0.55167-2.8326-0.15961-5.5792-2.2496-7.5631-1.3632-1.289-2.1463-1.215-2.0614-3.2943 0.069-1.6232 1.1396-2.895 0.89027-4.603-0.63122-4.3285-7.2519-4.5319-10.551-3.1315-2.4931 1.0609-2.8972 3.7885-4.4991 5.7882-1.2092 1.5123-2.6514 2.4103-4.1762 3.2017 2.1556-1.3074 3.8532-2.8787 3.8532-2.8787s-2.4828-5.3998-4.106-6.9116c-1.3347-1.2431-7.5145-0.8931-9.7621-0.7245l-2.5697-36.799c5.0923-1.6762 9.6745-3.6767 14.767-5.3529 5.5639-1.832 12.195-2.9603 18.036-5.2883-0.17246 4.3191 0.24971 8.6597 1.2301 12.576 0.244 0.9707 2.0255 7.3046 2.2748 8.445 0.94418 4.2754 0.94492 6.4613 1.3958 10.832 1.5913 15.383 0.95444 31.046-0.865 46.376-0.33138 2.7879-0.98765 5.7505-1.6766 8.7652 4.2074 3.5747 6.9064 7.7235 8.6725 13.913 0.58616 2.0544 1.062 4.2141 1.4295 6.4313 2.5177 14.143 0.25923 31.011-11.273 40.397-0.87663 0.7136-1.8113 1.3656-2.7719 1.9884l-0.20782 2.1709c-1.5649 0.2779-3.221 0.4851-4.9204 0.66-3.2925 1.5553-6.7523 2.801-10.141 3.9599 5.4177 0.1088 10.313-0.2145 14.708-0.9184l-1.0363 10.852c-1.2309 2.6804-5.5606 10.368-10.021 14.393-0.31827-0.037-0.64285-0.065-0.97172-0.065-4.3444 0-7.8608 3.5165-7.8608 7.8609 0 4.3443 3.5218 7.8608 7.8608 7.8608 2.9281 0 5.4747-1.6057 6.8273-3.9768 0.19097 0.021 0.38227 0.035 0.57855 0.056 0.70548 3.6124 3.8872 6.3387 7.7064 6.3387 3.5487 0 6.5425-2.344 7.5238-5.5691h0.5617c1.289 2.5885 3.9504 4.3671 7.0323 4.3671 4.3444 0 7.8608-3.5218 7.8608-7.8609 0-3.3895-2.1459-6.2716-5.1535-7.3749-2.3722-4.3954-6.7099-10.995-8.4618-15.418l3.4516-16.466c14.224-7.2816 19.917-20 22.021-31.084 0.58819-0.1799 1.175-0.3618 1.7609-0.5477-0.31834 6.5139-1.7068 41.591-2.0249 49.659-1.6024 6.7258-1.974 10.212-1.1739 11.618 0.87524 1.5384 25.689 2.244 25.689 2.244s3.2943 4.8099 8.445 5.176c6.3653 0.4508 8.8119-5.5273 8.0321-8.4394-1.0927-4.0685-6.679-10.666-14.27-2.8843 0 0 2.2013-3.289 3.1932-4.0582 0 0-3.0725-1.1034-5.2686-0.6684 0 0 3.6251-1.8616 7.9058-0.4241 0 0 12.735-0.5185 9.8604 9.4645 0 0 5.4907 1.7648 8.3551-3.9375 2.8644-5.7023-0.74921-9.5519-5.0299-10.989-4.2807-1.4375-7.3637 3.1651-7.3637 3.1651l-9.1106 0.09 8.1248-2.1793s1.2206-3.9518 7.257-3.7184c0 0-1.3101-3.7346-6.9116-3.1988-5.6015 0.5357-6.0466 4.0469-6.0466 4.0469l-16.365 1.6177-3.5527 0.3005c2.5549-8.706 7.4705-25.99 9.456-36.833 1.8178-9.9273 2.8263-15.551 3.9964-22.035 2.9836-5.6616 2.1058-13.317 1.8985-20.426-0.49863-17.07-2.1764-34.129-5.0355-50.97-0.67376-3.9837-1.4255-7.9679-2.3114-11.93-0.122-0.5464-0.68933-2.9801-0.85377-3.6538-0.19339-0.7874-0.4098-1.5694-0.61504-2.3535 2.8395 2.0006 5.7031 3.9709 8.5714 5.9287 2.7053 1.8459 5.4142 3.6898 8.1726 5.4455 0.83811 0.5358 2.4668 2.0059 3.533 2.0165 1.5595 0.013 19.97-25.699 26.941-35.51 3.582 1.5377 7.3416 1.7268 7.3497 1.7272l-0.10953 4.6789c-0.0321 1.2412 1.2898 2.258 2.9236 2.258h5.8079c1.412 0 2.5834-0.7615 2.859-1.7693 1.7816-0.7432 2.9882-2.1766 2.9882-2.1766s5.198 2.2111 7.5744 0.079c2.3764-2.1324 3.5627-6.0626-0.70212-7.6221 0 0 4.3884-0.9005 4.2239-5.0805-0.16444-4.1799-4.2604-5.8191-4.2604-5.8191s4.1795-2.7071 2.9489-8.2821c-0.61542-2.7875-2.6324-3.5853-4.8642-3.5442-2.2318 0.041-4.6786 0.9213-6.1533 1.4969 0 0-1.1772-0.3999-2.4209-0.3511-0.0153-0.6672-0.029-1.3365-0.0449-2.0024-0.0266-1.2094-1.3269-2.1822-2.9236-2.1822h-0.27242l-0.77794-92.799c2.15 0.2462 4.5191 0.2924 5.7573-1.466 1.5807-2.249 3.8016-6.2567 3.2128-9.1583 0.99194 2.0528 2.4626 4.7202 1.216 6.9004-0.68426 1.2041-1.7877 1.526-1.48 3.0696 1.5277 0.1061 3.5706 0.085 5.0187-0.2809 2.4241-0.6153 2.6662-2.1576 3.6369-4.3165 0.83809-1.8619 2.8932-6.2805 0.8987-8.153-0.56758-0.5358-1.7413-0.6428-2.4574-0.9239-1.6656-0.6526-3.1624-1.5963-4.7378-2.4238-1.708-0.8964-1.819-0.7742-3.0921 0.4775-2.2385 2.2067-3.4513 4.1417-3.6847 7.3722-2.0475-4.5354-1.7678-6.2437 2.4068-9.1135 1.5277-1.0503 2.7364-1.865 4.471-0.7245 0.069-1.2042 0.86435-3.4542 0.32858-4.5469-0.54107-1.0981-4.1045-1.8302-5.3669-2.1963-1.6709-0.488-3.2101 0.059-4.2604 1.3481-0.64485 0.7879-1.3301 1.3775-2.0558 1.803l-0.12358-14.753c0-0.4614-0.37573-0.8369-0.84252-0.8369zm-101.55 58.525c0.40754-0.04 0.83507-0.041 1.2807 0 0.47527 0.044 0.97111 0.1363 1.4913 0.2808 11.426 3.1774 9.5206 19.047 9.5206 19.047-17.775 10.158-20.313-4.4458-20.313-4.4458 0-5.0211 1.9079-14.283 8.0209-14.882zm43.955 4.9204c0.40712-0.025 0.84179 0.013 1.3059 0.1292 2.2491 0.5622 3.513 6.6507 3.2213 7.7063 0.0743 3.2941-1.3705 7.3947-1.3705 7.3947s-6.9104-4.7046-7.653-10.863c0.18565-0.9376 1.6465-4.1905 4.4963-4.3671zm-15.424 21.765c0.63124 0 1.2623 0.1492 1.8086 0.4409 1.0927 0.5941 1.7656 1.6215 1.9884 2.6877-0.79035-0.732-1.628-1.2991-2.4714-1.5165-0.41905-0.1061-0.82726-0.1214-1.2357-0.084-0.20687 0.042-0.40818 0.052-0.61505 0.1319-0.10079 0.032-0.21345 0.047-0.30893 0.09l-0.28646 0.1236c-0.37662 0.1698-0.72585 0.3914-1.0335 0.6937-0.32357 0.2865-0.58822 0.6466-0.84814 1.0391-0.51984 0.7957-0.90123 1.7311-1.2778 2.7495-0.29176-1.0556-0.25555-2.2013 0.12638-3.2887 0.19095-0.541 0.47341-1.0775 0.88185-1.539 0.18565-0.244 0.43501-0.431 0.6684-0.6431 0.25992-0.1645 0.51429-0.3605 0.80603-0.4719 0.57288-0.2705 1.1662-0.3916 1.7974-0.4128zm21.659 0.01c0.63123 0.021 1.2245 0.1423 1.7974 0.4129 0.29174 0.1114 0.54081 0.3073 0.80603 0.4718 0.23339 0.2122 0.48276 0.3991 0.66841 0.6431 0.40844 0.4615 0.68558 0.9927 0.88185 1.539 0.38192 1.0875 0.41811 2.2331 0.12637 3.2887-0.38191-1.0184-0.7633-1.9591-1.2778-2.7494-0.25462-0.3926-0.52459-0.7527-0.84815-1.0392-0.30766-0.3023-0.6597-0.5292-1.0363-0.6936l-0.28646-0.1236c-0.0955-0.042-0.20533-0.058-0.30612-0.09-0.20687-0.08-0.40817-0.09-0.61504-0.132-0.40844-0.037-0.81667-0.022-1.2357 0.084-0.8434 0.2122-1.6839 0.7845-2.4742 1.5165 0.21218-1.0715 0.88786-2.0988 1.9912-2.6876 0.54104-0.2918 1.1774-0.4357 1.8086-0.441zm-21.774 4.5553c1.0742 0.07 1.6754 2.0697 0.92118 2.9489-0.35541 0.4243-0.763 0.4634-1.2245 0.2247-1.0556-0.5464-0.90335-1.9317-0.50552-2.8759 0.28744-0.2268 0.56095-0.3139 0.80883-0.2977zm21.878 0c0.24753-0.016 0.5224 0.071 0.80884 0.2977 0.40315 0.9442 0.55007 2.3295-0.50552 2.8759-0.46149 0.2334-0.86908 0.1943-1.2245-0.2247-0.75423-0.8792-0.15143-2.8786 0.92116-2.9489zm-49.302 9.8829c0.50923 0.016 0.88562 0.176 1.3312 0.4466-0.3448 0.3925-0.76891 0.5873-1.0448 0.7835-0.244 0.1645-0.34732 0.2868-0.47462 0.4353 0.75854 0.6631 6.9346 5.888 15.003 6.3921 8.6091 0.5357 11.573-2.1541 18.569-2.1541 5.1241 0 10.524 3.0192 15.494 1.1627 1.464-0.5464 2.4097-1.506 3.6032-2.4237 0.26522 4.3231-4.0484 7.9602-7.4115 9.838-1.5118 0.8434-2.9442 1.8108-4.5834 2.4209-1.4269 0.5304-2.8791 0.4284-4.3643 0.6459-3.0129 0.4403-5.9841 0.5298-9.0235 0.2752-1.8619-0.1538-3.7379-0.127-5.5944-0.3286-6.4025-0.7003-12.27-3.8338-16.758-8.4646-1.4163-1.4587-2.6843-3.0773-3.724-4.8277-0.17503-0.3024-1.4382-2.1226-1.2526-2.4939-5e-3 0.011-9e-3 0.017-0.0197 0.028-0.16444 0.2015-0.34546 0.4281-0.53642 0.688-0.19626 0.2706-0.38759 0.6042-0.67403 1.0392-0.38192-0.3554-0.55607-0.8304-0.55607-1.3397 0.0106-0.5092 0.19162-1.021 0.53642-1.4295 0.18034-0.2015 0.4063-0.4031 0.67683-0.5251s0.55381-0.1739 0.80322-0.1685zm105.82 37.628c2.0373 1.1727 4.3843 3.5327 3.401 8.0546 0 0 0.57264 0.822 0.90152 1.4744 0 0 1.8838-1.0659 5.1619-0.9015 0 0-3.4439 0.6582-4.8389 2.2973 0 0 0.98136 1.1466 0.57291 2.5416 0 0-0.82017-1.9706-2.5388-2.623 0 0-2.8234 4.6753-7.5603 3.8531 0 0-0.96522 2.8676 2.7214 5.1592 3.6866 2.2915 5.9833-0.5719 6.7206-2.4602 0 0-0.16476 4.7528-4.3447 4.6732-3.939-0.075-4.9426-2.4832-5.0496-2.7691 0.0776-0.2796 0.16086-0.5533 0.12638-0.8004-0.069-0.4721-0.58167-0.998-0.73019-1.4913-0.19099-0.6259-0.24338-1.3107-0.17974-1.9631 0.0898-0.9402 0.61692-1.6917 1.2891-2.3928a6.376 6.376 0 0 0 0.27523 0.011 6.376 6.376 0 0 0 6.3752-6.3752 6.376 6.376 0 0 0-2.199-4.8024c0.0164-0.5245-0.0524-1.0346-0.10391-1.4857zm-11.832 4.9541c0.74335 0.023 1.2357 0.1628 1.2357 0.1628l0.1348 0.065-0.41004 17.311 0.33702-15.191c-3.1349-1.1139-5.9764-0.2808-5.9764-0.2808 1.5051-1.8168 3.44-2.1053 4.6789-2.067zm-84.093 8.0546c3.7131-0.2706 22.766 9.7878 28.07 73.261 3.8086 45.523-19.302 38.116-23.785 27.481-4.4823-10.635 1.6602-33.109-5.8191-63.111-7.4794-30.002-1.9994-37.37 1.5334-37.63zm-117.42 68.529c-2.6089-0.035-4.9725 0.2407-6.9509 0.7836-12.656 3.4797-11.62 11.852-6.788 10.329 4.8324-1.5171 22.341-6.8156 36.684 13.554 0.69171 0.9819 1.2641 2.0677 1.7806 3.2016 0.50277-0.6115 1.016-1.2116 1.5446-1.7946-0.21911-0.4268-0.43364-0.8577-0.68246-1.2582-4.461-7.1875-9.0338-11.151-13.452-12.986 0 0 8.2255 1.5137 14.854 13.472 0.23953-0.2527 0.46892-0.5173 0.71334-0.7639 2.1301-2.1487 4.4344-4.1264 6.8695-5.9427-9.4512-13.196-24.017-18.453-34.572-18.595zm126.73 65.395c-2.2301 9.1907-7.2296 19.103-17.946 25.546l4.8839-23.29c4.2501 0.024 8.6449-0.997 13.062-2.2552zm-33.544 61.561c-1.1245 0.8593-2.1407 1.7731-3.0106 2.7916-0.45088 0.4933-0.82914 1.0435-1.1739 1.5952-0.35541 0.5463-0.61539 1.1474-0.85939 1.7468l-0.84814 2.067-0.30894-2.1793c-0.069-0.4986-0.1575-1.0329-0.25838-1.5475-0.11138-0.5145-0.22436-1.0298-0.36229-1.539-0.13791-0.5092-0.30176-1.0026-0.51394-1.48-0.21749-0.4721-0.4706-0.9403-0.92678-1.2638 0.56227 0.1167 1.0235 0.537 1.3789 0.9773 0.3554 0.4509 0.65127 0.943 0.88467 1.4576 0.22809 0.4933 0.419 1.002 0.57293 1.5165 0.0796-0.1379 0.16539-0.2686 0.25556-0.3959 0.41375-0.6154 0.90779-1.1665 1.4436-1.6598 0.54635-0.4827 1.129-0.9194 1.7496-1.2695 0.62592-0.35 1.2823-0.6528 1.9771-0.8172zm4.2295 0.615c0.75323 0.095 1.5057 0.3527 2.1794 0.7611 0.66307 0.4191 1.2682 0.9484 1.7721 1.5531 0.50392 0.6047 0.9165 1.277 1.2666 1.9771 0.0637 0.1433 0.12733 0.2837 0.19099 0.4269 0.0371-0.074 0.0699-0.156 0.11233-0.2303 0.32888-0.6471 0.73741-1.2457 1.2413-1.7496 0.48801-0.5199 1.0507-0.9481 1.6289-1.3088 0.5994-0.3554 1.2242-0.6586 1.8873-0.8285-1.1086 0.7905-2.0749 1.698-2.8281 2.727-0.37662 0.5093-0.68809 1.0614-0.92678 1.6289-0.24931 0.5676-0.3935 1.1647-0.49429 1.7694l-0.45497 2.6848-0.72177-2.6371c-0.17505-0.6418-0.40474-1.3522-0.6965-1.994-0.27582-0.6578-0.60945-1.2879-0.99137-1.8873-0.38722-0.5942-0.83665-1.1415-1.3565-1.6401-0.51984-0.5039-1.1403-0.8813-1.8086-1.2526z" stroke-width=".53045"/>
   </g>
   <text x="-46.038601" y="-7.1573696" fill="#000000" font-family="'Sinkin Sans'" font-size="3.522px" font-weight="900" letter-spacing="0px" stroke-width=".13207" text-anchor="middle" word-spacing="0px" style="line-height:110%" xml:space="preserve"><tspan x="-46.038601" y="-7.1573696" text-align="center">LITTER</tspan><tspan x="-46.038601" y="-3.1803641" text-align="center">PICKING</tspan></text>
  </g>
 </g>
</svg>
