<?xml version="1.0" encoding="UTF-8"?>
<svg width="64.403mm" height="63.638mm" version="1.1" viewBox="0 0 64.403 63.638" xmlns="http://www.w3.org/2000/svg" xmlns:cc="http://creativecommons.org/ns#" xmlns:dc="http://purl.org/dc/elements/1.1/" xmlns:rdf="http://www.w3.org/1999/02/22-rdf-syntax-ns#">
 <metadata>
  <rdf:RDF>
   <cc:Work rdf:about="">
    <dc:format>image/svg+xml</dc:format>
    <dc:type rdf:resource="http://purl.org/dc/dcmitype/StillImage"/>
    <dc:title/>
   </cc:Work>
  </rdf:RDF>
 </metadata>
 <g transform="translate(-121.26 -110.3)">
  <path d="m183.89 147.48c0.33134-1.7675 1.7676-3.48 1.7676-5.3576 0-1.8784-1.4914-3.5908-1.7676-5.3578-0.33133-1.8232 0.49737-3.9221-0.16589-5.6338-0.60756-1.7125-2.5956-2.8724-3.5345-4.4189-0.9395-1.6022-0.8838-3.8664-2.0995-5.2474-1.1593-1.381-3.4241-1.7675-4.8051-2.9826-1.3806-1.16-2.154-3.3139-3.7556-4.2528-1.6022-0.9389-3.8113-0.49738-5.5237-1.16-1.7124-0.60757-3.148-2.375-4.9712-2.7064-1.7676-0.33133-3.7005 0.82796-5.5783 0.82796-1.8782 0-3.8112-1.1593-5.5787-0.82796-1.8226 0.33133-3.2588 2.0437-4.9712 2.7064-1.7124 0.60757-3.9766 0.22114-5.5231 1.16-1.6022 0.9389-2.375 3.0377-3.7562 4.2528-1.381 1.1599-3.6453 1.5465-4.8052 2.9826-1.16 1.381-1.16 3.6453-2.0989 5.2474-0.9395 1.6016-2.8724 2.7064-3.5351 4.4189-0.60757 1.7118 0.16543 3.8107-0.16589 5.6338-0.33133 1.767-1.7676 3.4794-1.7676 5.3578 0 1.8776 1.4914 3.5902 1.7676 5.3576 0.33132 1.8227-0.49678 3.9215 0.16589 5.6338 0.60757 1.7119 2.5956 2.8718 3.5351 4.4183 0.93891 1.6022 0.88381 3.8664 2.0989 5.2474 1.1599 1.381 3.4241 1.7676 4.8052 2.9826 1.3812 1.16 2.154 3.3141 3.7562 4.253 1.6016 0.93935 3.8107 0.49723 5.5231 1.1599 1.7124 0.60757 3.1486 2.375 4.9712 2.7064 1.7676 0.33193 3.7005-0.82795 5.5787-0.82795 1.8778 0 3.8107 1.1599 5.5783 0.82795 1.8232-0.33133 3.2588-2.0431 4.9712-2.7064 1.7124-0.60757 3.9766-0.22054 5.5237-1.1599 1.6016-0.9389 2.375-3.0378 3.7556-4.253 1.381-1.1599 3.6458-1.5463 4.8051-2.9826 1.16-1.381 1.16-3.6453 2.0995-5.2474 0.93889-1.6016 2.8718-2.7064 3.5345-4.4183 0.66326-1.6573-0.11029-3.756 0.16589-5.6338zm-30.434 22.811c-15.521 0-28.169-12.648-28.169-28.169 0-15.521 12.648-28.17 28.169-28.17 15.521 0 28.169 12.648 28.169 28.17 0 15.576-12.648 28.169-28.169 28.169zm4e-5 -55.676c-15.189 0-27.507 12.317-27.507 27.506 0 15.19 12.318 27.507 27.507 27.507s27.506-12.317 27.506-27.507c0-15.134-12.317-27.506-27.506-27.506zm-5.7867 4.4958h0.81803v14.974h5.8627c2.8853 0 4.4762-1.4318 4.4762-4.0907 0-1.0902-0.13663-1.795-0.40928-2.1358l-0.43201-0.49971-0.29559-0.29559 0.25063-0.2496 0.22686-0.3638c0.38644-0.70425 0.56844-1.4771 0.56844-2.3632 0-2.7041-1.568-4.1357-4.3853-4.1357h-4.3403v5.2033h4.5439c0.7502 0 1.1136-0.36338 1.1136-1.0676 0-0.79522-0.45442-1.2268-1.1136-1.2268h-2.9766v1.5906h-0.81752v-2.3859h3.7941c0.45459 0 0.95505 0.15887 1.25 0.4315 0.45444 0.43162 0.68213 0.95436 0.68213 1.5906 0 1.2045-0.72755 1.8862-1.9322 1.8862h-5.3392v-6.8399h5.2488c3.2043 0 5.0674 1.7952 5.0674 4.9537 0 1.1588-0.27286 2.1586-0.7953 2.9538 0.61341 0.79523 0.90898 1.7726 0.90898 2.9538 0 3.0905-1.9997 4.9088-5.2942 4.9088h-6.6807zm3.1125 1.4996h4.1134c0.61343 0 1.1809 0.13613 1.6583 0.40876 0.95406 0.56839 1.5224 1.659 1.5224 2.9316 0 1.4315-0.61342 2.5221-1.6361 3.0897l0.59118 0.43253c0.74959 0.65846 1.1131 1.5445 1.1131 2.681 0 0.90903-0.34073 1.7042-0.99994 2.3626-0.70425 0.61402-1.4537 0.90899-2.249 0.90899h-5.6808v-5.2715h5.3392c1.2046 0 1.9999 0.72727 1.9999 1.9089 0 0.36346-0.068 0.6814-0.20464 0.93121-0.31782 0.65907-0.90902 0.9772-1.7952 0.9772h-3.7941v-2.3177h0.81752v1.4996h2.9766c0.79583 0 1.1818-0.36391 1.1818-1.0904 0-0.705-0.38601-1.0682-1.1818-1.0682h-4.5439v3.5905h4.8855c0.45444 0 0.86311-0.11398 1.2495-0.34158 0.79523-0.47681 1.1813-1.1586 1.1813-2.0898 0-1.6591-0.97729-2.7042-2.4996-2.7042h-5.5893v-0.81804h5.5893c1.4543 0 2.4086-1.1135 2.4086-2.681 0-0.45459-0.11319-0.88637-0.31781-1.2728-0.45459-0.77225-1.2726-1.2495-2.0221-1.2495h-4.1134zm-9.6656 3.6287s-2e-3 3.3583-3.0618 3.744c0.0195 0.0409 0.01 0.0817-0.0315 0.12247l-0.88419 0.99425c-0.32544 0.39944-0.63336 0.81133-0.92604 1.2335 1.5913-1.4392 4.0199-0.46044 4.0199-0.46044s-1.7678 2.9275-4.64 1.6573c1.1599-0.88381 3.4246-1.2154 3.4246-1.2154-1.999 0.13658-3.1272 0.80318-3.451 1.0154-0.52165 0.85973-0.97671 1.7569-1.3539 2.6856-0.0441 0.10608-0.0824 0.21339-0.12454 0.31988 1.3141-1.7665 3.9352-1.2035 3.9352-1.2035s-1.2706 3.2038-4.3083 2.375c1.0491-1.0497 3.2039-1.7679 3.2039-1.7679-1.7507 0.44785-2.7762 1.193-3.175 1.5332-0.4023 1.1858-0.68768 2.3914-0.86093 3.6034 1.3791-2.5505 4.5878-1.3803 4.5878-1.3803s-1.6567 3.0378-4.5842 1.8226c1.1049-0.9389 3.3693-1.3813 3.3693-1.3813-2.0287 0.23594-3.1176 0.96062-3.4075 1.1772-0.13684 1.0465-0.18903 2.0958-0.16226 3.1393 1.567-2.4818 4.6741-1.0573 4.6741-1.0573s-1.8629 2.8478-4.6612 1.4516c0.0263 0.58331 0.0776 1.1641 0.15348 1.741 2.7505-1.5204 4.7289 1.2258 4.7289 1.2258s-2.8737 1.5099-4.6421-0.63924c0.17038 1.0574 0.41956 2.0994 0.75189 3.1145 2.962-1.071 4.4979 1.9988 4.4979 1.9988s-2.633 0.83469-4.1181-0.94826c0.43172 1.1097 0.96039 2.1814 1.5818 3.2014 0.41107 0.28107 1.5886 0.85231 3.4752 0.89555 0 0-2.2648-0.27629-3.4799-1.1048 2.8172-1.4363 4.6948 1.4361 4.6948 1.4361s-2.549 1.169-4.1941-0.45321c0.68699 1.0195 1.4706 1.9788 2.3456 2.8639-0.01-0.0124-0.0198-0.0231-0.0294-0.0357-0.0551 0 1.3808 0.71787 3.7558 0.38654 0 0-2.2645 0.11045-3.5905-0.49713 2.5411-1.8778 4.8612 0.66301 4.8612 0.66301s-2.3095 1.5524-4.2194 0.22945c0.79771 0.72305 1.6627 1.386 2.5905 1.9808-0.0278-0.0372-0.0581-0.0736-0.0837-0.1111 3.1485-0.33133 3.8664 3.0375 3.8664 3.0375s-3.5629 0.21088-4.0602-2.8112c-0.7557-0.4963-1.4751-1.0417-2.1544-1.6314 1.0102 1.7843-0.19275 3.7801-0.19275 3.7801s-2.7593-2.3294-0.98961-4.8958c-0.7043-0.71795-1.3573-1.4859-1.9492-2.3012 0.43116 1.9153-1.1477 3.4959-1.1477 3.4959s-2.1377-2.8889 0.16484-4.9811c-0.48576-0.80855-0.91566-1.6542-1.2883-2.5296-0.0157 1.9625-1.9151 3.1471-1.9151 3.1471s-1.3852-3.2565 1.2992-4.7832c-0.36647-1.1293-0.6351-2.2804-0.80305-3.4406-0.44497 3.1419-3.8649 3.0318-3.8649 3.0318s0.652-3.5767 3.8344-3.266c-0.0777-0.58367-0.13091-1.1688-0.15813-1.7549-3.13 0.80401-4.284-2.6567-4.284-2.6567s3.3418-0.59074 4.2742 2.3254c-0.0323-1.0699 0.0151-2.14 0.15193-3.2003-3.1143 0.29738-3.8184-3.2127-3.8184-3.2127s3.2753-0.15629 3.883 2.7838c0.16875-1.1166 0.43074-2.2202 0.78962-3.3001-2.6868-1.5254-1.1932-4.7858-1.1932-4.7858s1.8233 1.1939 1.8366 3.1047c0.7631-1.762 1.7335-3.3679 2.914-4.8168l0.88366-0.99477c0.0476-0.0476 0.0955-0.0518 0.14315-0.017 0.58379-1.3582 2.2867-2.7445 2.2867-2.7445-1.9886 1.381-2.5409 2.8171-2.5409 2.8722-0.27624-3.2588 3.3698-3.8111 3.3698-3.8111zm-3.1156 3.6835c-0.0104 0.0243-0.0234 0.0486-0.0331 0.0729 0.0299-3e-3 0.0575-9e-3 0.0868-0.0124-7e-3 -0.0145-0.0169-0.0288-0.0315-0.0434-7e-3 -7e-3 -0.0148-0.0116-0.0222-0.017zm-3.9408 5.8286c-0.0224 0.0517-0.0467 0.10203-0.0687 0.154-0.17118 0.40098-0.32365 0.80799-0.46715 1.217 0.0278 0.0481 0.057 0.0939 0.0863 0.13952 0.098-0.2884 0.2204-0.54134 0.36225-0.76119 0.0621-0.26038 0.089-0.51043 0.0873-0.74931zm-0.0873 0.74931c-0.0643 0.2697-0.16447 0.55003-0.31264 0.84077-0.0172-0.0252-0.0329-0.0535-0.0496-0.0796-0.0212 0.0624-0.0427 0.12431-0.0615 0.19017-0.0145 0.0145 0.0526-0.058 0.19482-0.17931 0.10649-0.31387 0.22122-0.62621 0.34417-0.9369-0.0395 0.0531-0.0782 0.10745-0.11524 0.16485zm-0.44855 0.62167c-0.72274-1.2485-0.96894-3.2603-0.96894-3.2603 0.0439 1.9342 0.64113 3.1194 0.88574 3.5006 0.027-0.0803 0.0551-0.16029 0.0832-0.24029zm-0.0832 0.24029c-8e-3 0.0233-0.0165 0.0464-0.0243 0.0698 0.044 0.025 0.086 0.0509 0.13229 0.0749 0 0.0113-0.0453-0.0469-0.108-0.14469zm-0.81391 3.3698c-9e-3 0.0575-0.0176 0.11499-0.0258 0.1726 0.0213 8e-3 0.0428 0.0187 0.0641 0.0264-0.0108-0.0685-0.0247-0.13356-0.0382-0.19895zm-0.0258 0.1726c-1.364-0.52527-2.8634-2.1828-2.8634-2.1828 1.3018 1.7526 2.5912 2.2983 2.8319 2.39 9e-3 -0.0693 0.0217-0.13803 0.0315-0.20722zm-0.0315 0.20722c-2e-3 0.0164-5e-3 0.0327-7e-3 0.0491 0.0345-3e-3 0.0677-5e-3 0.10283-9e-3 0 0-0.0708-0.0308-0.0956-0.0403zm-0.15916 3.2494c9.7e-4 0.032 1e-3 0.0641 3e-3 0.0961 0.0104 2e-3 0.0211 6e-3 0.0315 9e-3 -0.0106-0.0363-0.0229-0.0697-0.0341-0.1049zm3e-3 0.0961c-1.4304-0.34547-3.1719-1.8138-3.1719-1.8138 1.5622 1.512 2.9822 1.9192 3.1781 2.0211-3e-3 -0.069-4e-3 -0.13818-6e-3 -0.20722zm6e-3 0.20722c4.1e-4 9e-3 6e-4 0.0186 1e-3 0.0279 8e-3 -2e-3 0.016-4e-3 0.0243-6e-3 5e-3 -5e-3 -6e-3 -0.0124-0.0253-0.0222zm0.27956-0.0171c-5.3e-4 -0.0119-5.2e-4 -0.0238-1e-3 -0.0357-0.0105 7e-3 -0.0222 0.0131-0.0326 0.0202 0.0113 6e-3 0.0223 0.01 0.0336 0.0155zm-1e-3 -0.0357c1.2221-0.81225 3.4473-1.0847 3.4473-1.0847-1.8479 0.0419-3.0203 0.59363-3.4541 0.88057 2e-3 0.068 4e-3 0.13613 7e-3 0.20412zm-7e-3 -0.20412c-2e-3 -0.0515-4e-3 -0.10297-5e-3 -0.15451-0.0575 0.091-0.11333 0.18609-0.1664 0.28783 0.0267-0.0299 0.0849-0.076 0.17156-0.13332zm0.1571-3.2939c0.0104-0.0795 0.0233-0.15879 0.0346-0.23823-0.0567 0.10485-0.11159 0.21349-0.16175 0.33125 0 0 0.0776-0.056 0.12713-0.093zm2.7182-7.784c0.20523-0.33825 0.4206-0.67101 0.64647-0.99684-0.29829 0.26978-0.56757 0.62411-0.78548 1.0862-0.01 0.01 0.0692-0.0436 0.13901-0.0894zm32.229-7.091s3.6078 0.54796 3.3708 3.7646l0.82683 0.93069c0.36947 0.45352 0.71575 0.92406 1.0444 1.4082-0.96313-2.0912 0.83302-4.0597 0.83302-4.0597s2.2648 2.8722-0.16588 5.0814c0 0 0.60622-1.4339 0.11162-3.8054 2e-3 0.017 0.27364 2.2644-0.22169 3.6396-8e-3 -0.01-0.0155-0.0196-0.0238-0.0295 0.47749 0.78273 0.90415 1.6032 1.2821 2.4608 0.0863-1.8402 1.8345-2.9833 1.8345-2.9833s1.4819 3.2326-1.1586 4.7661c0.3311 1.0146 0.58216 2.0502 0.75241 3.098 0.72245-2.7101 3.8308-2.5621 3.8308-2.5621s-0.6905 3.4441-3.731 3.22c0.12507 0.96526 0.17895 1.9386 0.1664 2.9125 1.0502-2.5966 4.1724-2.0448 4.1724-2.0448s-1.132 3.388-4.1894 2.6779c-0.0252 0.5761-0.0759 1.1512-0.14986 1.725 3.0934-0.22435 3.7316 3.2747 3.7316 3.2747s-3.196 0.10237-3.8106-2.7296c-0.16838 1.0761-0.41954 2.1438-0.76274 3.1921 2.5588 1.5482 1.2046 4.7294 1.2046 4.7294s-1.7494-1.0908-1.9048-2.913c-0.35413 0.80389-0.75683 1.5822-1.2072 2.3285 2.2437 2.0894 0.12919 4.948 0.12919 4.948s-1.5214-1.5232-1.1694-3.391c-0.58072 0.78927-1.2196 1.533-1.9064 2.2298 1.7228 2.5531-1.0118 4.8622-1.0118 4.8622s-1.165-1.9299-0.2434-3.6907c-0.68472 0.5863-1.4094 1.1275-2.1704 1.6195-0.54375 2.9422-4.0483 2.7337-4.0483 2.7337s0.71787-3.3689 3.8659-3.0375c-0.0408 0.0598-0.0865 0.11837-0.13281 0.17725 0.96994-0.61296 1.8727-1.3 2.7032-2.0521-1.9109 1.3326-4.2271-0.22428-4.2271-0.22428s2.3198-2.5408 4.8607-0.66301c-1.3259 0.60758-3.5905 0.49713-3.5905 0.49713 2.3752 0.33134 3.7558-0.38654 3.7558-0.38654-0.0166 0.0217-0.0339 0.0404-0.0506 0.0615 0.89512-0.90032 1.6957-1.8778 2.3962-2.9176-1.6439 1.6652-4.2235 0.48111-4.2235 0.48111s1.878-2.8724 4.6953-1.4361c-1.2151 0.82856-3.4799 1.1048-3.4799 1.1048 1.9615-0.046 3.1554-0.68816 3.5166-0.94361 0.61949-1.0193 1.147-2.09 1.5772-3.1982-1.4777 1.8425-4.1553 0.99322-4.1553 0.99322s1.543-3.083 4.517-1.9926c0.34894-1.0596 0.60802-2.1484 0.77928-3.2535-1.7572 2.3392-4.7434 0.77204-4.7434 0.77204s1.9881-2.7614 4.7496-1.2149c-1.2702 0.77286-3.5347 0.88367-3.5347 0.88367 1.9546 0.0444 3.145-0.51195 3.5703-0.70539 0.0909-0.64275 0.1485-1.291 0.17725-1.942-2.8127 1.4264-4.6865-1.4397-4.6865-1.4397s3.1386-1.44 4.6984 1.093c0.028-1.0403-0.0229-2.0866-0.15916-3.13-0.23852-0.20015-1.4245-0.98194-3.4897-1.2221 0 0 2.2645 0.44241 3.3693 1.3813-2.9275 1.2151-4.5842-1.8226-4.5842-1.8226s3.3811-1.2326 4.6938 1.5922c-0.17032-1.2685-0.46597-2.5309-0.88986-3.7719-0.3775-0.31365-1.404-1.1072-3.1962-1.5766 0 0 2.1536 0.71815 3.2029 1.7678-3.0378 0.8287-4.3077-2.375-4.3077-2.375s2.6288-0.56476 3.9408 1.2118c-0.0438-0.10928-0.0838-0.2193-0.12971-0.32814-0.37381-0.91981-0.82404-1.8086-1.3394-2.6608-0.34837-0.20941-1.5048-0.90315-3.4659-1.0402 0 0 2.264 0.33163 3.4241 1.2154-2.8724 1.2702-4.6395-1.6573-4.6395-1.6573s2.4283-0.97878 4.0199 0.46044c-0.29271-0.42221-0.60106-0.83407-0.92656-1.2335l-0.82837-0.99426c-0.0382-0.0382-0.0487-0.0764-0.0341-0.11472-3.1135-0.35266-3.114-3.7517-3.114-3.7517zm8.2646 20.339c-0.0125 0.0884-0.0282 0.17634-0.0419 0.26459 0.0781-0.10395 0.15453-0.21294 0.22738-0.3328-0.0108-0.0108-0.082 0.0211-0.18552 0.0682zm-0.82114 3.5181c-2e-3 7e-3 -5e-3 0.0141-8e-3 0.0212 7e-3 -6e-3 0.0141-0.0112 0.0207-0.0171-4e-3 -2e-3 -9e-3 -2e-3 -0.0129-4e-3zm-8e-3 0.0212c-1.1113 0.98289-3.2939 1.4743-3.2939 1.4743 1.6364-0.22829 2.6819-0.81748 3.1647-1.1658 0.0295-0.0711 0.0592-0.14252 0.094-0.21497 5.8e-4 7.9e-4 9.8e-4 2e-3 2e-3 3e-3 0.0108-0.0322 0.0229-0.0639 0.0336-0.0961zm-0.0336 0.0961c-0.0216 0.0643-0.0455 0.12769-0.0677 0.19172 0.0481-0.0354 0.0947-0.0681 0.13022-0.0971-0.0211-0.0312-0.0407-0.0645-0.0625-0.0946zm0.0625 0.0946c0.0181 0.0269 0.0367 0.0534 0.0543 0.0811 0.0298-0.0632 0.0587-0.12863 0.0863-0.19585-2e-3 -4e-3 -3e-3 -5e-3 -6e-3 -9e-3 -0.0194 0.0235-0.0612 0.0633-0.13488 0.1235zm0.13488-0.1235c0.01-0.012 0.0264-0.0295 0.0222-0.0295-5e-3 0.0132-0.0112 0.0252-0.0165 0.0382 0.0291 0.0458 0.0392 0.0623 0.0832 0.14107 0.0141-0.0415 0.0306-0.0819 0.0444-0.1235 4e-3 -0.0115 7e-3 -0.0231 0.0103-0.0346-0.0743-0.045-0.15044-0.0892-0.23151-0.13126 0 0 0.0524 0.0844 0.0879 0.13953zm0.0889 0.14986c-0.0242 0.0709-0.0506 0.14079-0.0755 0.21136 0.71523 1.2532 0.94775 3.1445 0.94775 3.1445-0.0801-1.7266-0.59538-2.8606-0.8723-3.3559zm-0.0755 0.21136c-0.0305-0.0534-0.0618-0.1057-0.094-0.15658-0.12159 0.25747-0.26151 0.48065-0.41392 0.67541-0.0703 0.32702-0.0868 0.637-0.062 0.92811 0.20837-0.473 0.39691-0.95639 0.56999-1.4469zm-0.50797 0.51883c4e-3 -0.0177 7e-3 -0.0349 0.0109-0.0527-0.0108 0.0281-0.0232 0.0556-0.0341 0.0837 8e-3 -0.01 0.0154-0.0209 0.0233-0.031zm-1.6004 3.2293c-0.16308 0.26833-0.33273 0.53286-0.5085 0.79375 0.0488-0.0495 0.0966-0.10303 0.14366-0.15761 0.10428-0.19107 0.22863-0.38336 0.38292-0.5762 3e-3 7e-3 5e-3 0.0136 7e-3 0.0202 0.035-0.0607 0.0702-0.12094 0.10335-0.18603 0 0.01-0.0525 0.0521-0.12867 0.10593zm0.0253 0.0801c-0.12071 0.20971-0.25107 0.39476-0.39016 0.55604-0.17572 0.32195-0.28604 0.63981-0.34416 0.94826 0.29225-0.39722 0.567-0.80746 0.83043-1.2258-0.029-0.0959-0.061-0.18898-0.0961-0.27853zm0.0961 0.27853c0.41904 1.3848 0.22841 3.3466 0.22841 3.3466 0.33124-1.7793 0.0417-3.0313-0.10076-3.5476-0.0416 0.0677-0.0853 0.13384-0.12765 0.20102zm0.12765-0.20102c0.0269-0.0438 0.0556-0.0862 0.0822-0.13022-0.048-0.0447-0.0952-0.0893-0.14728-0.13333-0.014 0 0.0174 0.0907 0.0651 0.26355zm-3.1538 3.5538c-0.24274 0.24415-0.49175 0.4829-0.74827 0.7152 0.25934-0.18085 0.51066-0.41677 0.74827-0.7152zm-3.4515 2.7673c-0.13963 0.0882-0.27666 0.17898-0.41909 0.26407-0.0551 0.0551-0.11039 0.11018-0.0553 0.16588 0.0231 0.0231 0.0341 0.033 0.046 0.0408 0.15721-0.15161 0.30156-0.30937 0.42839-0.47077zm-0.42839 0.47077c-0.95104 0.91716-2.311 1.6159-2.311 1.6159 1.3172-0.55958 2.1546-1.2319 2.6231-1.6878-0.0461 0.0282-0.0906 0.0585-0.13694 0.0863h-0.1111c-0.032 0-0.0477-4e-3 -0.0641-0.0145zm0.31212-0.0718c0.1453-0.0888 0.28872-0.18003 0.4315-0.27233 0.0149-0.0808 0.0284-0.16289 0.0388-0.24856 0 0-0.15277 0.21197-0.47026 0.52089zm2.6019-1.8919c0.35807-0.3066 0.7042-0.62561 1.0397-0.95601-6e-3 -0.0725-0.0126-0.14496-0.0233-0.21446-0.47772 0.36358-0.80303 0.76267-1.0165 1.1705zm1.0397-0.95601c0.12281 1.4263-0.57516 3.376-0.57516 3.376 0.79843-1.7745 0.77665-3.1055 0.73742-3.5383-0.0539 0.0543-0.10775 0.10859-0.16226 0.16227zm0.16226-0.16227c0.0177-0.0178 0.0356-0.0354 0.0532-0.0532-0.0246-0.0364-0.0465-0.0726-0.0729-0.10903 0-0.0108 0.01 0.0563 0.0196 0.16226zm5.6699-11.177c0.0138-0.088 0.0298-0.17592 0.0424-0.26406-0.0327-0.0143-0.0656-0.0309-0.0982-0.0439 0.0149 0.10657 0.0343 0.20876 0.0558 0.30799zm0.0424-0.26406c1.3526 0.59118 2.7745 2.22 2.7745 2.22-1.1856-1.5955-2.3583-2.2239-2.7492-2.404-8e-3 0.0614-0.0166 0.12266-0.0253 0.18397zm0.0253-0.18397c4e-3 -0.0323 7e-3 -0.0648 0.0114-0.0971-0.0629 5e-3 -0.12476 8e-3 -0.18965 0.016 0 0 0.0956 0.0431 0.17828 0.0811zm-7.7458-19.358s1.7365 1.4124 2.3042 2.7828c5e-3 -7e-3 9e-3 -0.0141 0.016-0.0212 0.0551-0.0551 0.11013-0.0551 0.16588 0l0.0289 0.0326c-0.12581-0.31836-0.76109-1.576-2.5151-2.7942zm-33.637 1.1048s2.3197 2.5404 0.27596 4.9155c-0.49738-1.3804-0.22118-3.6452-0.22118-3.6452-0.49682 2.375 0.11111 3.8111 0.11111 3.8111-2.4301-2.2091-0.16589-5.0814-0.16589-5.0814zm41.37 5.579s-0.24016 1.9619-0.94154 3.2132c0.0274 0.0793 0.0542 0.15869 0.0806 0.23823 0.25055-0.43666 0.77737-1.6086 0.86093-3.4515zm-35.658 1.0914 12.814 8.5054 12.814-8.5054 0.16588 0.33124-12.704 8.3954 12.704 8.3954-0.16588 0.33125-12.814-8.5054-12.814 8.5054-0.1664-0.33125 12.704-8.3954-12.704-8.3954zm-2.2226 2.9853c0.58759 0.35896 1.2842 0.77031 1.9632 1.0811 0.59181 0.27099 1.2017 0.41122 1.8299 0.678 0.26093 0.11079 0.36305 0.40612 0.27854 0.77618-0.0523 0.22639-0.18899 0.47571-0.0992 0.6904 0.12558 0.29905 0.4402 0.51809 0.78444 0.57619 0.20598 0.0345 0.46539 0.0515 0.54932 0.30024 0.11962 0.67843 8e-3 0.91365 0.39843 1.4712 0.27382 0.39123 0.52482 0.73262 0.77928 1.2645 0.11029 0.23044 0.37871 0.47609 0.70177 0.57878 0.26107 0.0826 0.58998 0.0957 0.59117 0.31987 2e-3 0.32953-0.53614 0.45916-0.86506 0.47853-0.48792 0.0293-0.91826-0.21387-1.3575-0.55346-0.35595-0.27443-0.55329-0.6283-1.0816-0.7984-0.50909-0.16364-1.1288-0.19091-1.5358-0.60151-0.19171-0.19292-0.18984-0.58742-0.1018-0.81081 0.1788-0.45278 1.087-0.70551 0.4718-0.78238-0.27667-0.0341-0.37921-0.0814-0.5457-0.17466-0.20417-0.11441-0.45195-0.15994-0.53227-0.45734 0.65201-0.10209 1.2607-0.0175 1.2361-0.20516-0.0375-0.28554-0.99052 0.13833-1.4397-0.03-0.55352-0.20702-1.1561-0.4044-1.3601-1.1369 0.34769 0.0669 0.53628 0.22492 0.81958 0.28422 0.53656 0.112 1.6697 0.31468 1.6397 0.12868-0.0385-0.24216-1.5095-0.18104-2.1699-0.52348-0.25567-0.13257-0.4836-0.33378-0.64905-0.56948-0.15719-0.22399-0.21305-0.30437-0.29921-0.76481 0.43401 0.13661 0.85678 0.48438 1.3183 0.64802 0.56419 0.19937 1.7591 0.59443 1.7503 0.39791-0.0122-0.28089-1.1018-0.32336-1.619-0.56792-0.42518-0.20117-0.92369-0.35609-1.2046-0.73381-0.19817-0.26618-0.37485-0.6506-0.25115-0.96377zm40.643 0.78342s-1.4408 1.5914-2.7822 2.1492c0.01 0.0688 0.0223 0.13726 0.0315 0.20619 0.38864-0.16553 1.5631-0.75666 2.7507-2.3554zm-11.04 0.54725h5.2e-4c0.0653 2e-3 0.10949 0.0283 0.12764 0.0868 0.12371 0.1788 0.0408 2.4892-0.22014 3.2995-0.26092 0.80994-0.88255 3.7323-3.0231 3.7269-0.045-0.69539 0-1.8624 0-1.8624s0.36395-0.17494 0.80098 0.12712c0.43747 0.30147 0.80956 0.55267 0.65888 0.22944-0.15071-0.32247-0.68192-1.0851-1.4495-1.1074l-0.0419-3.8246s1.0423-0.0144 1.5508-0.11524c0.62946-0.12484 1.3106-0.56731 1.5958-0.56018zm-6.4492 0.99529c0.29967 0.0146 1.0033 0.51552 1.4444 0.6134 0.78457 0.17429 1.6335 0.26097 1.6335 0.26097v4.3243c-0.76715 0.0224-0.99735-0.20339-1.3456-0.4532-0.34845-0.24922 0.0453 0.46697 0.31626 0.76842 0.27038 0.30207 1.0397 0.4346 1.0397 0.4346s0.0761 0.7514 0.031 1.4469c-2.0889-0.25446-2.8149-2.9789-3.0753-3.7894-0.26106-0.80979-0.30194-3.3496-0.1788-3.528 0.0182-0.0591 0.0658-0.0817 0.13487-0.078zm4.0711 1.0232c-0.0123 0-0.024 4e-3 -0.0362 0.0124-0.12069 0.0914-0.0679 0.80737 0.52555 0.95343 0.59405 0.14653 0.9963-0.38357 0.9741-0.47335-0.0224-0.0896-0.36754 0.0366-0.7891-0.046-0.38178-0.0746-0.55537-0.44588-0.67438-0.44648zm-2.2428 1.1002c-0.61164 5e-3 -0.82836 0.68899-0.73226 0.80564 0.0968 0.1168 0.36232-0.27491 0.79168-0.25735 0.42923 0.0177 0.73605 0.2206 0.77825 0.13849 0.0423-0.0826-0.22604-0.69137-0.83767-0.68678zm16.158 0.2558s-1.6658 1.4026-3.0768 1.7875c-2e-3 0.0665-3e-3 0.13302-5e-3 0.19947 0.37346-0.14308 1.644-0.59477 3.082-1.987zm-6.8492 0.88367s2.2552 0.2755 3.4721 1.1002c3e-3 -0.0611 4e-3 -0.12229 6e-3 -0.18345-0.404-0.2714-1.5826-0.87276-3.4783-0.91674zm-39.91 2.8856c9e-3 0.0662 0.0149 0.13285 0.0243 0.19896 0.50255 0.22093 1.6951 0.71295 3.4866 0.67127 0 0-2.2365-0.11009-3.5109-0.87023zm-0.2713 0.0791c-0.20938 0.0857-1.5244 0.66877-2.8463 2.4479 0 0 1.4897-1.7097 2.8701-2.2629-9e-3 -0.0616-0.0154-0.12336-0.0238-0.185zm24.561 1.7549c1.0392 0.0423 2.5217 0.618 2.3399 3.0334-0.15838 2.1082-2.3047 3.3791-4.1625 5.0798-0.10372 0.0956-0.19344 0.28216-0.35812 0.28216-0.16544 0-0.35915-0.28216-0.35915-0.28216-0.0844-0.0686-2.4805-2.2696-2.4805-2.2696s-0.23552-0.19328-0.0233-0.37568c0.21183-0.18241 0.32867 0.0584 0.32867 0.0584h5.1e-4l2.5342 2.2934c1.0215-1.4133 3.9681-2.5988 4.0385-4.7863 0.16544-2.3105-1.4144-2.5596-1.8578-2.5632-1.3412-9e-3 -2.1807 1.5172-2.1807 1.5172-0.0447 0.0204-0.78796-1.6012-2.1932-1.4934-1.4192 0.10854-1.8204 1.207-1.8697 1.9167-0.0352 0.71717 0.24753 1.5518 0.24753 1.5518h1.4227l0.80098-1.5079s0.0515-0.19851 0.24495-0.185c0.26618 0.0182 0.24029 0.29042 0.24029 0.29042l0.32453 2.1079 0.39584-1.079s0.0282-0.28629 0.22686-0.30851c0.19877-0.0218 0.31109 0.19637 0.31109 0.19637l0.35967 0.48576h1.881s0.23513 0.0118 0.23513 0.19998c0 0.37653-0.22324 0.28216-0.22324 0.28216h-1.8815s-0.20063 0.0237-0.28215-0.0238c-0.13201-0.0763-0.25839-0.37569-0.25839-0.37569l-0.62321 1.787s0.012 0.16465-0.24702 0.14108c-0.25869-0.0234-0.22376-0.14108-0.22376-0.14108l-0.38808-2.5869-0.49352 0.99994s-0.0126 0.0706-0.10593 0.12919c-0.0944 0.0587-0.21136 0.0703-0.21136 0.0703h-3.6339s-0.2701 0.0179-0.25838-0.24133c0.0122-0.25852 0.25838-0.24081 0.25838-0.24081h1.6345s-0.47004-1.7283-0.0119-2.5869c0.38808-0.55232 0.75287-1.2694 2.128-1.3632 1.3758-0.0943 2.1932 1.093 2.1932 1.093 1e-3 3e-3 0.67239-1.1657 2.1807-1.1054zm-23.437 1.8929c0.0315 0.0955 0.0668 0.18971 0.0997 0.28474 0.4823 0.34824 1.5282 0.9384 3.1657 1.1668 0 0-2.147-0.48433-3.2654-1.4516zm-0.26768 0.0765c-0.23169 0.37378-0.85089 1.531-0.94103 3.4737 0 0 0.24652-2.0145 1.0165-3.2628-0.0244-0.0706-0.0518-0.13989-0.0754-0.21084zm2.0417 3.9713c-5e-3 5e-3 4e-3 0.0186 0.0202 0.0362-7e-3 -0.0125-0.0137-0.0235-0.0202-0.0362zm-0.11679 0.18241c-0.13338 0.40119-0.469 1.6681-0.10438 3.6287 0 0-0.19619-2.0176 0.24649-3.405-0.0469-0.075-0.0962-0.14814-0.14211-0.22376zm2.9182 3.7398c-0.041 0.37079-0.0988 1.7413 0.73329 3.5894 0 0-0.71412-1.9958-0.56999-3.4262-0.0547-0.0542-0.10925-0.10847-0.1633-0.16329zm3.6204 2.913c0.42585 0.44604 1.2751 1.2107 2.7471 1.8361 0 0-1.3566-0.69652-2.3074-1.6118-4e-3 3e-3 -0.0129 0.0103-0.0129 0.0103h-0.0548c-0.12587-0.0755-0.24805-0.15645-0.37207-0.23461zm8.4036 3.1166c0.29558 0 0.5277 0.0794 0.6966 0.23875 0.1689 0.15936 0.25322 0.35779 0.25322 0.59479 0 0.13485-0.0243 0.26344-0.0734 0.38603-0.0477 0.12122-0.12404 0.2484-0.22893 0.38188-0.0695 0.0885-0.19504 0.21624-0.37621 0.38241-0.18115 0.16618-0.29615 0.27625-0.34519 0.33073-0.0477 0.0545-0.0863 0.10792-0.11628 0.15968h1.14v0.53278h-2.0123c0.0218-0.20158 0.0869-0.39226 0.19585-0.57205 0.10897-0.18116 0.3245-0.42052 0.64596-0.71882 0.25879-0.24109 0.41736-0.4046 0.47594-0.49041 0.079-0.1185 0.11833-0.23562 0.11833-0.3514 0-0.12804-0.0344-0.22645-0.10387-0.29456-0.0681-0.0695-0.16299-0.10387-0.28421-0.10387-0.11987 0-0.21494 0.0358-0.28577 0.10801-0.0708 0.0722-0.1121 0.19213-0.123 0.35967l-0.57205-0.0574c0.0341-0.31601 0.14112-0.5425 0.32091-0.68007s0.40467-0.20619 0.67437-0.20619zm2.3079 0c0.29013 0 0.51713 0.10354 0.68058 0.31058 0.19478 0.24518 0.29197 0.65157 0.29197 1.2196 0 0.56664-0.0979 0.97373-0.29404 1.2216-0.16208 0.20432-0.38838 0.30644-0.67851 0.30644-0.29148 0-0.52642-0.11148-0.70486-0.33486-0.17844-0.22475-0.26769-0.6246-0.26769-1.1994 0-0.56391 0.0984-0.96959 0.29456-1.2175 0.16209-0.20431 0.38787-0.30644 0.67799-0.30644zm2.3451 0c0.29557 0 0.5277 0.0794 0.6966 0.23875 0.1689 0.15936 0.25321 0.35779 0.25321 0.59479 0 0.13485-0.0243 0.26344-0.0734 0.38603-0.0477 0.12122-0.12404 0.2484-0.22892 0.38188-0.0695 0.0885-0.19453 0.21624-0.37569 0.38241-0.18116 0.16618-0.29668 0.27625-0.34572 0.33073-0.0477 0.0545-0.0863 0.10792-0.11627 0.15968h1.14v0.53278h-2.0123c0.0218-0.20158 0.0869-0.39226 0.19586-0.57205 0.10896-0.18116 0.3245-0.42052 0.64595-0.71882 0.2588-0.24109 0.41738-0.4046 0.47594-0.49041 0.079-0.1185 0.11834-0.23562 0.11834-0.3514 0-0.12804-0.0344-0.22645-0.10387-0.29456-0.0681-0.0695-0.16299-0.10387-0.28422-0.10387-0.11987 0-0.21494 0.0358-0.28577 0.10801-0.0708 0.0722-0.1121 0.19213-0.12299 0.35967l-0.57206-0.0574c0.0341-0.31601 0.14113-0.5425 0.32091-0.68007 0.1798-0.13757 0.40469-0.20619 0.67438-0.20619zm2.3291 0c0.29557 0 0.5277 0.0794 0.6966 0.23875 0.1689 0.15936 0.25373 0.35779 0.25373 0.59479 0 0.13485-0.0249 0.26344-0.0739 0.38603-0.0477 0.12122-0.12352 0.2484-0.22841 0.38188-0.0695 0.0885-0.19504 0.21624-0.3762 0.38241-0.18116 0.16618-0.29617 0.27625-0.3452 0.33073-0.0477 0.0545-0.0863 0.10792-0.11627 0.15968h1.14v0.53278h-2.0128c0.0218-0.20158 0.0874-0.39226 0.19637-0.57205 0.10897-0.18116 0.32399-0.42052 0.64544-0.71882 0.2588-0.24109 0.41737-0.4046 0.47594-0.49041 0.079-0.1185 0.11886-0.23562 0.11886-0.3514 0-0.12804-0.0349-0.22645-0.10439-0.29456-0.0681-0.0695-0.16299-0.10387-0.28422-0.10387-0.11987 0-0.21495 0.0358-0.28577 0.10801-0.0708 0.0722-0.11158 0.19213-0.12248 0.35967l-0.57205-0.0574c0.0341-0.31601 0.14061-0.5425 0.32039-0.68007 0.1798-0.13757 0.40468-0.20619 0.67438-0.20619zm-4.6741 0.47594c-0.0695 0-0.13154 0.0222-0.18603 0.0672-0.0545 0.0436-0.0966 0.12278-0.12661 0.2372-0.0395 0.14847-0.0589 0.3984-0.0589 0.74982 0 0.35143 0.0178 0.5929 0.0532 0.72503 0.0354 0.13076 0.0797 0.21841 0.13281 0.26199 0.0545 0.0436 0.11603 0.0651 0.18551 0.0651 0.0695 0 0.13155-0.0215 0.18604-0.0651 0.0545-0.045 0.0966-0.12484 0.12661-0.23926 0.0395-0.1471 0.0594-0.39633 0.0594-0.74776 0-0.35142-0.0178-0.5927-0.0532-0.72347-0.0354-0.13212-0.0804-0.21996-0.13488-0.26355-0.0531-0.0449-0.11451-0.0672-0.18397-0.0672z" fill="#a73fe9"/>
 </g>
</svg>
