<?xml version="1.0" encoding="UTF-8"?>
<svg width="34.924mm" height="10.25mm" version="1.1" viewBox="0 0 34.924 10.25" xmlns="http://www.w3.org/2000/svg" xmlns:cc="http://creativecommons.org/ns#" xmlns:dc="http://purl.org/dc/elements/1.1/" xmlns:rdf="http://www.w3.org/1999/02/22-rdf-syntax-ns#">
 <metadata>
  <rdf:RDF>
   <cc:Work rdf:about="">
    <dc:format>image/svg+xml</dc:format>
    <dc:type rdf:resource="http://purl.org/dc/dcmitype/StillImage"/>
    <dc:title/>
   </cc:Work>
  </rdf:RDF>
 </metadata>
 <g transform="translate(-31.448 -40.712)">
  <g transform="matrix(.082968 0 0 .082968 31.173 -2.3851)" stroke-opacity="0">
   <g fill="#2f403b">
    <path d="m186.45 635.98h4.017c-0.13274-0.9067-0.28271-1.8805-0.44856-2.921-0.16609-1.0394-0.33131-2.085-0.4974-3.1357-0.16585-1.0514-0.33193-2.0756-0.49802-3.0708-0.16609-0.99628-0.31582-1.9141-0.44789-2.7552-0.17786 0.84109-0.35481 1.7589-0.53117 2.7552-0.17806 0.99519-0.36007 2.0194-0.54749 3.0708-0.18896 1.0508-0.37117 2.0963-0.54816 3.1357-0.17719 1.0405-0.34327 2.0143-0.49826 2.921m7.3689 4.9798c0.0443 0.30906 0.13883 0.5305 0.28268 0.66324 0.14384 0.13273 0.30385 0.22232 0.48104 0.26569 0.17699 0.0442 0.37618 0.0442 0.59762 0v0.82997h-4.8794v-0.82997c0.1992 0.0442 0.37552 0.0442 0.53137 0 0.10983-0.0434 0.20947-0.13296 0.29797-0.26569 0.0885-0.13274 0.11069-0.35418 0.0665-0.66324 0-0.0442-0.0606-0.43765-0.18221-1.1791-0.12184-0.74083-0.27157-1.7208-0.44789-2.9374h-4.2493c-0.22147 1.2166-0.39341 2.1966-0.51418 2.9374-0.12184 0.74149-0.18221 1.1349-0.18221 1.1791-0.0665 0.30906-0.0615 0.5305 0.0162 0.66324 0.0774 0.13273 0.1711 0.22232 0.28271 0.26569 0.13271 0.0442 0.30993 0.0442 0.53026 0v0.82997h-3.1858v-0.82997c0.19923 0.0442 0.39756 0.0442 0.59762 0 0.17636-0.0434 0.33719-0.13296 0.48104-0.26569 0.14408-0.13274 0.2487-0.35418 0.31518-0.66324 0-0.022 0.0554-0.34895 0.16585-0.97993 0.11074-0.63011 0.2598-1.4601 0.4479-2.4886 0.18809-1.0294 0.40364-2.1966 0.64799-3.5026 0.24258-1.3053 0.48602-2.6436 0.73037-4.016l1.9906-10.888h1.6935c0.64101 4.0492 1.2166 7.6677 1.7258 10.854 0.22124 1.3731 0.43158 2.7116 0.63077 4.0167 0.19923 1.3062 0.38144 2.4734 0.54752 3.5019 0.1661 1.0292 0.30382 1.8653 0.41455 2.5065 0.1107 0.64188 0.16609 0.97404 0.16609 0.99606"/>
    <path d="m228.19 619.8c-0.35418 0.0443-0.68027 0.13209-0.97906 0.2657-0.29883 0.13295-0.56452 0.34306-0.79709 0.63011-0.23234 0.28857-0.41455 0.66497-0.54816 1.1297-0.13208 0.46315-0.19833 1.0396-0.19833 1.7258 0 0.92893-6e-3 2.0409-0.017 3.3358-0.011 1.294-0.0162 2.6274-0.0162 3.999 0 1.3945 5e-3 2.7438 0.0162 4.0501 0.011 1.306 0.017 2.4221 0.017 3.3519 0 1.3945 0.2376 2.3846 0.71338 2.9712 0.47602 0.58587 1.0678 0.87967 1.7761 0.87967 0.57538 0 1.0948-0.0776 1.5597-0.23256 0.46488-0.15496 0.86331-0.40954 1.1952-0.76284 0.33217-0.35418 0.58589-0.82496 0.76375-1.4108 0.17632-0.58652 0.26481-1.3119 0.26481-2.1743v-0.89645h0.76371v1.6924c0 1.4389-0.39254 2.556-1.1782 3.3528-0.78596 0.79684-1.8978 1.1835-3.3358 1.1621-0.68635 0-1.3775-0.17109-2.075-0.51503-0.69638-0.34307-1.2668-0.84632-1.7094-1.5096-0.28792-0.42065-0.50323-0.90168-0.64712-1.444-0.14385-0.54227-0.24344-1.2064-0.29879-1.9923-0.0554-0.78486-0.0826-1.7086-0.0826-2.7711v-3.7512c0-1.925 0.0103-3.523 0.0332-4.7968 0.0221-1.2711 0.11074-2.3278 0.26568-3.1697 0.0876-0.70749 0.31495-1.3324 0.68028-1.8749 0.36528-0.54228 0.80206-0.97905 1.3112-1.311 0.81819-0.50915 1.6593-0.76372 2.5226-0.76372h0.31577c0.0988 0 0.20445 0.0111 0.31432 0.0331l-0.0656-0.0665c0.13274 0.0445 0.22037 0.0665 0.26572 0.0665 0.50826 0.1116 0.91759 0.24346 1.2275 0.39843 0.30997 0.15496 0.57561 0.28791 0.79709 0.39841 0.17699 0.0665 0.33194 0.0665 0.46468 0 0.26482-0.15409 0.39776-0.44266 0.39776-0.86332 0.0443 0 0.0783 6e-3 0.10047 0.0172 0.0213 0.0109 0.0434 0.0161 0.0654 0.0161h0.63096v5.809h-0.72973c-0.0229-0.35418-0.0562-0.71861-0.10046-1.0957-0.0442-0.30906-0.10462-0.65212-0.18221-1.0285-0.0774-0.37641-0.20512-0.74148-0.38144-1.0957-0.0451-0.0887-0.13863-0.24367-0.28268-0.46489-0.14384-0.22057-0.34307-0.43679-0.59674-0.64711-0.25546-0.21033-0.57041-0.38644-0.94596-0.53116-0.37706-0.14407-0.80883-0.18221-1.2948-0.11596"/>
    <path d="m264.09 635.98h4.017c-0.13274-0.9067-0.28271-1.8805-0.4488-2.921-0.16585-1.0394-0.33107-2.085-0.49715-3.1357-0.16609-1.0514-0.33194-2.0756-0.49803-3.0708-0.16609-0.99628-0.31495-1.9141-0.44789-2.7552-0.17786 0.84109-0.35505 1.7589-0.53117 2.7552-0.17806 0.99519-0.36027 2.0194-0.54749 3.0708-0.18896 1.0508-0.37117 2.0963-0.5484 3.1357-0.17695 1.0405-0.34304 2.0143-0.49802 2.921m7.3689 4.9798c0.0451 0.30906 0.13883 0.5305 0.28268 0.66324 0.14384 0.13273 0.30384 0.22232 0.48103 0.26569 0.17699 0.0442 0.37619 0.0442 0.59763 0v0.82997h-4.8794v-0.82997c0.1992 0.0442 0.37552 0.0442 0.53137 0 0.10983-0.0434 0.21034-0.13296 0.29792-0.26569 0.0885-0.13274 0.11074-0.35418 0.0674-0.66324 0-0.0442-0.0614-0.43765-0.18308-1.1791-0.12184-0.74083-0.2709-1.7208-0.44789-2.9374h-4.2493c-0.22147 1.2166-0.39254 2.1966-0.51418 2.9374-0.12184 0.74149-0.18221 1.1349-0.18221 1.1791-0.0665 0.30906-0.0615 0.5305 0.0162 0.66324 0.0774 0.13273 0.1711 0.22232 0.2827 0.26569 0.13271 0.0442 0.30994 0.0442 0.53027 0v0.82997h-3.1858v-0.82997c0.1992 0.0442 0.39843 0.0442 0.59763 0 0.17632-0.0434 0.33719-0.13296 0.48104-0.26569 0.14384-0.13274 0.24869-0.35418 0.31514-0.66324 0-0.022 0.0554-0.34895 0.16589-0.97993 0.1107-0.63011 0.26067-1.4601 0.44789-2.4886 0.1881-1.0294 0.40364-2.1966 0.64799-3.5026 0.24345-1.3053 0.48602-2.6436 0.73037-4.016l1.9906-10.888h1.6935c0.641 4.0492 1.2166 7.6677 1.7258 10.854 0.22119 1.3731 0.43153 2.7116 0.63072 4.0167 0.19924 1.3062 0.38144 2.4734 0.54753 3.5019 0.16586 1.0292 0.30468 1.8653 0.41455 2.5065 0.1107 0.64188 0.16609 0.97404 0.16609 0.99606"/>
    <path d="m303.77 619.92v21.907h1.9912c0.3773-0.0442 0.76371-0.14886 1.1621-0.31582 0.39863-0.16608 0.74258-0.4359 1.0294-0.81319 0.35331-0.50826 0.54227-1.2055 0.56451-2.0908v-15.468c0-0.39756-0.0562-0.78421-0.16608-1.1613-0.15495-0.4649-0.37117-0.83521-0.64776-1.112-0.27679-0.27659-0.58087-0.48691-0.91281-0.63077-0.33131-0.14319-0.66909-0.23255-1.0124-0.26568-0.34304-0.0331-0.64688-0.0495-0.91257-0.0495zm6.9711 3.9498v14.041c0 0.59698-0.10552 1.1835-0.31495 1.7591-0.21121 0.5754-0.52615 1.0898-0.94678 1.5436-0.42067 0.45378-0.94596 0.81908-1.5767 1.0957-0.6301 0.27681-1.3665 0.41456-2.2068 0.41456h-0.28267c-0.16609 0-0.37121 5e-3 -0.61402 0.0172-0.24431 0.01-0.51415 0.0152-0.81294 0.0152h-3.369v-0.86245c0.15408 0.0451 0.29883 0.0451 0.43154 0 0.11074-0.0442 0.20946-0.13295 0.29883-0.26481 0.0878-0.13274 0.13207-0.35505 0.13207-0.66411v-20.115c0-0.30993-0.0443-0.53638-0.13207-0.68111-0.0894-0.14385-0.18809-0.23757-0.29883-0.28181-0.13271-0.0443-0.27746-0.0443-0.43154 0v-0.8302h5.0786c0.84024 0 1.5767 0.13797 2.2068 0.41477 0.63077 0.27746 1.1561 0.64276 1.5767 1.0957 0.42063 0.45378 0.73557 0.96816 0.94678 1.5436 0.20943 0.57562 0.31495 1.1613 0.31495 1.7591"/>
    <path d="m349.13 639.29v3.4849h-9.2614v-0.86267c0.17719 0.0665 0.3099 0.0665 0.39839 0 0.11074-0.0211 0.21622-0.10462 0.31582-0.24934 0.0996-0.14298 0.14823-0.37031 0.14823-0.68024v-20.148c0-0.33194-0.0486-0.56951-0.14823-0.71336-0.0996-0.14385-0.20508-0.2367-0.31582-0.28269-0.0885-0.0434-0.2212-0.0434-0.39839 0v-0.79598h9.2614v3.4847h-0.86418c-0.0209-0.50827-0.0885-0.96205-0.19749-1.3605-0.11224-0.33217-0.29445-0.64711-0.54817-0.94592-0.25454-0.29883-0.60283-0.4479-1.0455-0.4479h-3.4524v10.755h2.3243c0.28599 0 0.50916-0.0774 0.66411-0.23235 0.15325-0.15497 0.26395-0.33216 0.33111-0.53138 0.0887-0.24345 0.13294-0.52026 0.13294-0.82997h0.76371v4.0823h-0.76371c0-0.30993-0.0442-0.57475-0.13294-0.79597-0.0672-0.22145-0.17786-0.41564-0.33111-0.58064-0.15495-0.16608-0.37812-0.24956-0.66411-0.24956h-2.3243v10.589h3.4524c0.44268 0 0.79097-0.13186 1.0455-0.39842 0.25372-0.26568 0.43593-0.57475 0.54817-0.9298 0.10899-0.39842 0.17635-0.85133 0.19749-1.3605z"/>
    <path d="m389.74 619.84c-0.17632-0.0443-0.33217-0.0443-0.46405 0-0.0893 0.0443-0.17805 0.13884-0.26568 0.28268-0.0894 0.14386-0.13275 0.38055-0.13275 0.7125v20.148c0 0.31081 0.0434 0.53726 0.13275 0.68111 0.0876 0.14385 0.17636 0.22733 0.26568 0.24847 0.13188 0.0665 0.28773 0.0665 0.46405 0v0.86333h-4.016v-0.86333c0.17696 0.0665 0.30903 0.0665 0.39753 0 0.1116-0.0211 0.22234-0.10462 0.33284-0.24847 0.10983-0.14385 0.16609-0.3703 0.16609-0.68111v-18.222c-0.57629 2.3014-1.0966 4.3702-1.5606 6.2067-0.19923 0.77483-0.38732 1.5385-0.56364 2.2911-0.17787 0.75173-0.34395 1.427-0.49803 2.0237-0.15494 0.59764-0.27769 1.0846-0.36528 1.461-0.0894 0.37707-0.13274 0.57562-0.13274 0.59676h-1.3938c-0.13361-0.50827-0.28856-1.0889-0.46575-1.7428-0.17612-0.65213-0.35331-1.3274-0.5303-2.0246-0.17806-0.69637-0.35505-1.3877-0.53137-2.0732-0.17699-0.687-0.34304-1.3622-0.49802-2.0255-0.39757-1.5486-0.796-3.1202-1.1944-4.7133v18.189c0 0.30993 0.0375 0.53726 0.11575 0.68133 0.0774 0.14384 0.17111 0.2271 0.28267 0.24934 0.13188 0.0656 0.27659 0.0656 0.43158 0v0.89558h-2.8215v-0.89558c0.17636 0.0656 0.3091 0.0656 0.39756 0 0.11073-0.0222 0.21622-0.1055 0.31582-0.24934 0.099-0.14407 0.1491-0.3714 0.1491-0.68133v-20.115c0-0.33195-0.0501-0.56864-0.1491-0.7125-0.0996-0.14384-0.20509-0.23843-0.31582-0.28268-0.0885-0.0443-0.2212-0.0443-0.39756 0v-0.79685h3.2524l3.3186 12.58 3.1545-12.58h3.1196z"/>
    <path d="m423.28 640.98c0 0.31081 0.0493 0.53726 0.14974 0.68111 0.0978 0.14385 0.19246 0.22733 0.28182 0.24847 0.1107 0.0665 0.25367 0.0665 0.43089 0v0.86333h-4.0161v-0.86333c0.17702 0.0665 0.33199 0.0665 0.46407 0 0.0671-0.0211 0.14974-0.10462 0.24931-0.24847 0.0996-0.14385 0.14998-0.3703 0.14998-0.68111v-20.148c0-0.33195-0.0504-0.56952-0.14998-0.71336-0.0996-0.14298-0.1822-0.23671-0.24931-0.28182-0.13208-0.0443-0.28705-0.0443-0.46407 0v-0.79685h4.0161v0.79685c-0.17722-0.0443-0.32019-0.0443-0.43089 0-0.0894 0.0451-0.18399 0.13884-0.28182 0.28182-0.10049 0.14384-0.14974 0.38141-0.14974 0.71336z"/>
   </g>
   <text x="5.418704" y="597.34662" fill="#a73fe9" font-family="sans-serif" font-size="112.17px" letter-spacing="0px" stroke="#3a292e" stroke-width="4.2062" word-spacing="0px" style="line-height:110%" xml:space="preserve"><tspan x="5.418704" y="597.34662" fill="#a73fe9" font-family="'Argon PERSONAL'" stroke="#3a292e" stroke-opacity="0" stroke-width="4.2062">BRANCH</tspan></text>
  </g>
 </g>
</svg>
