<?xml version="1.0" encoding="UTF-8" standalone="no"?>
<svg
   xmlns:dc="http://purl.org/dc/elements/1.1/"
   xmlns:cc="http://creativecommons.org/ns#"
   xmlns:rdf="http://www.w3.org/1999/02/22-rdf-syntax-ns#"
   xmlns:svg="http://www.w3.org/2000/svg"
   xmlns="http://www.w3.org/2000/svg"
   xmlns:xlink="http://www.w3.org/1999/xlink"
   xmlns:sodipodi="http://sodipodi.sourceforge.net/DTD/sodipodi-0.dtd"
   xmlns:inkscape="http://www.inkscape.org/namespaces/inkscape"
   width="100mm"
   height="100mm"
   version="1.1"
   viewBox="0 0 100 100"
   id="svg123"
   sodipodi:docname="Motivate.svg"
   inkscape:version="0.92.3 (2405546, 2018-03-11)">
  <sodipodi:namedview
     pagecolor="#ffffff"
     bordercolor="#666666"
     borderopacity="1"
     objecttolerance="10"
     gridtolerance="10"
     guidetolerance="10"
     inkscape:pageopacity="0"
     inkscape:pageshadow="2"
     inkscape:window-width="1853"
     inkscape:window-height="1025"
     id="namedview125"
     showgrid="false"
     borderlayer="true"
     inkscape:zoom="1.2579155"
     inkscape:cx="227.82205"
     inkscape:cy="134.69225"
     inkscape:window-x="67"
     inkscape:window-y="27"
     inkscape:window-maximized="1"
     inkscape:current-layer="layer1" />
  <defs
     id="defs5">
    <clipPath
       id="XMLID_3_">
      <use
         width="100%"
         height="100%"
         xlink:href="#XMLID_1_"
         id="use2"
         x="0"
         y="0" />
    </clipPath>
  </defs>
  <metadata
     id="metadata7">
    <rdf:RDF>
      <cc:Work
         rdf:about="">
        <dc:format>image/svg+xml</dc:format>
        <dc:type
           rdf:resource="http://purl.org/dc/dcmitype/StillImage" />
        <dc:title />
      </cc:Work>
    </rdf:RDF>
  </metadata>
  <path
     style="fill:#a02b31"
     inkscape:connector-curvature="0"
     id="path39"
     clip-path="url(#XMLID_3_)"
     d="m 593.1,343.4 c -0.07,-2.82 -3.1,-5.09 -6.81,-5.09 h -9.93 c -3.72,0 -6.75,2.26 -6.81,5.09 l -1.81,76.54 c -0.07,2.9 3,5.27 6.81,5.27 h 13.55 c 3.81,0 6.88,-2.38 6.81,-5.27 -0.06,-2.62 0.41,-5.58 -0.25,-8.13 -0.91,-3.47 -5.3,-4.24 -8.54,-6.19 -2.34,-1.41 -3.99,-3.13 -4.26,-5.35 -0.14,-1.16 0.69,-2.46 0.53,-3.51 -0.16,-1.11 -1.36,-2.33 -1.71,-3.48 -0.44,-1.46 -0.57,-3.06 -0.42,-4.58 0.38,-3.88 3.85,-6.44 6.98,-9.28 2.88,-2.61 4.15,-4.97 4.28,-8.44 0.13,-3.31 -2.75,-3.43 -4.82,-5.68 -1.24,-1.35 -0.55,-2.96 0.95,-4 1.33,-0.93 3.93,-0.69 5.15,-1.74 1.66,-1.43 0.55,-5.08 0.51,-6.86 -0.06,-3.11 -0.13,-6.21 -0.21,-9.3 z"
     class="st4"
     transform="matrix(0.05466283,0,0,0.05466283,2.769448,6.3163201)" />
  <path
     style="fill:#a02b31"
     inkscape:connector-curvature="0"
     id="path73"
     clip-path="url(#XMLID_3_)"
     d="m 593.1,343.4 c -0.07,-2.82 -3.1,-5.09 -6.81,-5.09 h -9.93 c -3.72,0 -6.75,2.26 -6.81,5.09 l -1.81,76.54 c -0.07,2.9 3,5.27 6.81,5.27 h 13.55 c 3.81,0 6.88,-2.38 6.81,-5.27 -0.06,-2.62 0.41,-5.58 -0.25,-8.13 -0.91,-3.47 -5.3,-4.24 -8.54,-6.19 -2.34,-1.41 -3.99,-3.13 -4.26,-5.35 -0.14,-1.16 0.69,-2.46 0.53,-3.51 -0.16,-1.11 -1.36,-2.33 -1.71,-3.48 -0.44,-1.46 -0.57,-3.06 -0.42,-4.58 0.38,-3.88 3.85,-6.44 6.98,-9.28 2.88,-2.61 4.15,-4.97 4.28,-8.44 0.13,-3.31 -2.75,-3.43 -4.82,-5.68 -1.24,-1.35 -0.55,-2.96 0.95,-4 1.33,-0.93 3.93,-0.69 5.15,-1.74 1.66,-1.43 0.55,-5.08 0.51,-6.86 -0.06,-3.11 -0.13,-6.21 -0.21,-9.3 z"
     class="st4"
     transform="matrix(-0.05455082,0.00349244,0.00349244,0.05455082,87.898595,21.46079)" />
  <path
     style="fill:#a02b31"
     inkscape:connector-curvature="0"
     id="path109"
     clip-path="url(#XMLID_3_)"
     d="m 593.1,343.4 c -0.07,-2.82 -3.1,-5.09 -6.81,-5.09 h -9.93 c -3.72,0 -6.75,2.26 -6.81,5.09 l -1.81,76.54 c -0.07,2.9 3,5.27 6.81,5.27 h 13.55 c 3.81,0 6.88,-2.38 6.81,-5.27 -0.06,-2.62 0.41,-5.58 -0.25,-8.13 -0.91,-3.47 -5.3,-4.24 -8.54,-6.19 -2.34,-1.41 -3.99,-3.13 -4.26,-5.35 -0.14,-1.16 0.69,-2.46 0.53,-3.51 -0.16,-1.11 -1.36,-2.33 -1.71,-3.48 -0.44,-1.46 -0.57,-3.06 -0.42,-4.58 0.38,-3.88 3.85,-6.44 6.98,-9.28 2.88,-2.61 4.15,-4.97 4.28,-8.44 0.13,-3.31 -2.75,-3.43 -4.82,-5.68 -1.24,-1.35 -0.55,-2.96 0.95,-4 1.33,-0.93 3.93,-0.69 5.15,-1.74 1.66,-1.43 0.55,-5.08 0.51,-6.86 -0.06,-3.11 -0.13,-6.21 -0.21,-9.3 z"
     class="st4"
     transform="matrix(0.05380318,0,0,0.05380318,13.298663,55.91716)" />
  <g
     inkscape:groupmode="layer"
     id="layer1"
     inkscape:label="Circles"
     style="display:inline"
     transform="translate(0,0.72200012)">
    <circle
       cx="32.07304"
       cy="28.300335"
       r="27.09"
       id="circle11"
       style="display:inline;fill:#183f3f;fill-opacity:0.1;stroke:#183f3f;stroke-width:1.99998546;stroke-linecap:round;stroke-miterlimit:4;stroke-dasharray:none;stroke-opacity:1" />
    <circle
       cx="69.164711"
       cy="43.967339"
       r="27.09"
       id="circle13"
       style="display:inline;fill:#183f3f;fill-opacity:0.1;stroke:#183f3f;stroke-width:1.99998546;stroke-linecap:round;stroke-miterlimit:4;stroke-dasharray:none;stroke-opacity:1" />
    <circle
       cx="40.605709"
       cy="71.398338"
       r="27.09"
       id="circle9"
       style="display:inline;fill:#183f3f;fill-opacity:0.1;stroke:#183f3f;stroke-width:1.99998546;stroke-linecap:round;stroke-miterlimit:4;stroke-dasharray:none;stroke-opacity:1" />
  </g>
  <g
     inkscape:groupmode="layer"
     id="layer2"
     inkscape:label="Trowles"
     style="display:inline"
     transform="translate(0,0.72200012)">
    <rect
       style="display:inline;fill:#ffffff;fill-opacity:1;stroke:#183f3f;stroke-width:0.2464122;stroke-miterlimit:4;stroke-dasharray:none;stroke-opacity:1"
       id="rect71-3-6"
       height="3.9213185"
       width="1.3278936"
       y="22.273211"
       x="-43.004795"
       class="st3"
       transform="matrix(-0.99822891,-0.05948993,-0.0317285,0.99949653,0,0)" />
    <rect
       style="display:inline;fill:#ffffff;fill-opacity:1;stroke:#183f3f;stroke-width:0.25874588;stroke-miterlimit:4;stroke-dasharray:none;stroke-opacity:1"
       id="rect71-3-7"
       height="3.9202642"
       width="1.4645443"
       y="72.832443"
       x="-50.810844"
       class="st3"
       transform="matrix(-0.99924181,-0.03893296,0.00704671,0.99997516,0,0)" />
  </g>
  <g
     inkscape:groupmode="layer"
     id="layer3"
     inkscape:label="Flower"
     style="display:inline"
     transform="translate(0,0.72200012)">
    <path
       style="display:inline;fill:#183f3f;stroke:none;stroke-width:0.219;stroke-miterlimit:10;fill-opacity:1;stroke-dasharray:none"
       inkscape:connector-curvature="0"
       id="path19"
       stroke-miterlimit="10"
       d="m 17.106875,16.966227 c 0,0 -0.328523,-3.820931 1.745931,-5.834163"
       class="st1" />
    <path
       style="display:inline;fill:#183f3f;stroke-width:0.219;fill-opacity:1;stroke-miterlimit:10;stroke-dasharray:none;stroke:none"
       inkscape:connector-curvature="0"
       id="path21"
       d="M 17.33154,14.069644 C 17.29328,13.959772 17.31186,13.84006 17.2643,13.728001 17.16591,13.497324 16.968574,13.36504 16.729151,13.313657 c -0.38592,-0.08199 -0.766373,-0.0164 -1.108563,-0.238876 -0.18476,0.422543 -0.114245,0.899203 0.194054,1.241392 0.197879,0.219745 0.419264,0.28534 0.705697,0.28698 0.341096,0.0016 0.563574,-0.190226 0.811197,-0.533509 z"
       class="st0" />
    <path
       style="display:inline;fill:#183f3f;stroke-width:0.219;fill-opacity:1;stroke-miterlimit:10;stroke-dasharray:none;stroke:none"
       inkscape:connector-curvature="0"
       id="path23"
       d="m 17.349578,14.07839 c 0.273861,-0.197333 0.695311,-0.176014 0.992131,-0.05685 0.285886,0.115338 0.445502,0.340003 0.647754,0.558654 0.114245,0.122991 0.230131,0.236143 0.392479,0.291899 0.09675,0.03335 0.19788,0.02351 0.294633,0.0492 -0.326884,0.337816 -0.827595,0.479393 -1.298789,0.47174 -0.252542,-0.0044 -0.506178,-0.08527 -0.710617,-0.238876 -0.276047,-0.208266 -0.364054,-0.585439 -0.383186,-0.730842 -0.01749,-0.126272 0.02077,-0.254729 0.0656,-0.344923 z"
       class="st0" />
    <path
       style="display:inline;fill:#ffffff;fill-opacity:1;stroke:#183f3f;stroke-width:0.13229167;stroke-miterlimit:4;stroke-dasharray:none;stroke-opacity:1"
       inkscape:connector-curvature="0"
       id="path43"
       d="m 19.009142,16.391174 h -3.690835 c -0.264021,0 -0.470647,0.227398 -0.444955,0.490326 l 0.346562,3.56347 c 0.02241,0.229037 0.214825,0.403958 0.444955,0.403958 h 2.99771 c 0.230131,0 0.422544,-0.174921 0.444956,-0.403958 l 0.346562,-3.56347 c 0.02569,-0.262928 -0.180934,-0.490326 -0.444955,-0.490326 z"
       class="st5" />
    <g
       style="display:inline;fill:#bb272d;stroke:#183f3f;stroke-opacity:1"
       id="g35"
       transform="matrix(0.05466283,0,0,0.05466283,9.3983222,5.2754878)">
      <path
         inkscape:connector-curvature="0"
         id="path25"
         d="m 170.9,106.54 c -3.63,0.69 -6.49,1.1 -9.77,3.1 -3.66,2.23 -6.32,4.43 -9.02,7.79 -4.91,6.13 -5.42,16.54 -0.38,22.81 5.16,6.42 15.62,6.85 21.51,1.2 10.6,-10.16 12.87,-25.45 5.55,-38.36"
         class="st2"
         style="stroke:#183f3f;stroke-opacity:1;fill:#ffffff;stroke-width:1.82939669;stroke-miterlimit:4.5454545;stroke-dasharray:none" />
      <path
         inkscape:connector-curvature="0"
         id="path27"
         d="m 174.76,97.68 c -2.43,-6.34 -6.69,-12.13 -12.7,-15.66 -9.89,-5.82 -24.81,-4.98 -31.08,5.72 -5.77,9.84 -2.63,21.77 8.55,25.71 11.81,4.16 26.12,-2.1 34.27,-10.77"
         class="st2"
         style="stroke:#183f3f;stroke-opacity:1;fill:#ffffff;stroke-width:1.82939669;stroke-miterlimit:4.5454545;stroke-dasharray:none" />
      <path
         inkscape:connector-curvature="0"
         id="path29"
         d="m 180.03,99.48 c 2.95,-1.39 5.7,-5.5 7.28,-8.24 3,-5.18 4.13,-12.18 3.77,-18.09 -0.56,-9.31 -6.89,-18.87 -17.24,-17.81 -7.32,0.75 -11.74,9.56 -12.96,16.02 -0.85,4.51 0,9.66 1.69,13.92 1.11,2.79 2.56,5.73 4.34,8.15 2.64,3.58 7.08,5.61 13.12,6.05 z"
         class="st2"
         style="stroke:#183f3f;stroke-opacity:1;fill:#ffffff;stroke-width:1.82939669;stroke-miterlimit:4.5454545;stroke-dasharray:none" />
      <path
         inkscape:connector-curvature="0"
         id="path31"
         d="m 182.07,106.15 c -1.18,7.47 0.92,15.52 5.95,21.26 5.48,6.25 13.81,9.54 21.19,4.35 5.78,-4.06 8.66,-12.17 5.33,-18.78 -5.86,-11.63 -20.8,-11.6 -32.47,-6.83 z"
         class="st2"
         style="stroke:#183f3f;stroke-opacity:1;fill:#ffffff;stroke-width:1.82939669;stroke-miterlimit:4.5454545;stroke-dasharray:none" />
      <path
         inkscape:connector-curvature="0"
         id="path33"
         d="m 182.7,105.17 c 8.98,0.02 18.43,1.57 26.69,-3.06 6.57,-3.68 10.87,-12.1 8.5,-19.67 -2.46,-7.86 -12.8,-10.05 -19.59,-7.07 -4.33,1.9 -9.1,4.85 -11.78,8.84 -3.24,4.86 -6.19,13.98 -3.82,20.96 z"
         class="st2"
         style="stroke:#183f3f;stroke-opacity:1;fill:#ffffff;stroke-width:1.82939669;stroke-miterlimit:4.5454545;stroke-dasharray:none" />
    </g>
    <path
       style="display:inline;fill:#183f3f;stroke:none;stroke-width:0.21521272;stroke-miterlimit:10;fill-opacity:1"
       inkscape:connector-curvature="0"
       id="path89"
       stroke-miterlimit="10"
       d="m 27.514862,67.441548 c 0,0 -0.323357,-3.760842 1.718474,-5.742413"
       class="st1" />
    <path
       style="display:inline;fill:#183f3f;stroke-width:0.05380318;fill-opacity:1;stroke:none"
       inkscape:connector-curvature="0"
       id="path91"
       d="m 27.735994,64.590518 c -0.03766,-0.108145 -0.01937,-0.225974 -0.06618,-0.33627 -0.09685,-0.22705 -0.291076,-0.357253 -0.526734,-0.407828 -0.37985,-0.08071 -0.75432,-0.01614 -1.091128,-0.23512 -0.181855,0.415898 -0.112449,0.885062 0.191001,1.22187 0.194768,0.216289 0.412671,0.280853 0.694599,0.282467 0.335732,0.0016 0.554711,-0.187235 0.79844,-0.525119 z"
       class="st0" />
    <path
       style="display:inline;fill:#183f3f;stroke-width:0.05380318;fill-opacity:1;stroke:none"
       inkscape:connector-curvature="0"
       id="path93"
       d="m 27.753749,64.599126 c 0.269553,-0.194229 0.684376,-0.173246 0.976527,-0.05595 0.281391,0.113525 0.438496,0.334656 0.637568,0.549868 0.112449,0.121057 0.226511,0.23243 0.386307,0.287309 0.09523,0.03282 0.194767,0.02314 0.289999,0.04842 -0.321743,0.332504 -0.81458,0.471854 -1.278364,0.464322 -0.24857,-0.0043 -0.498217,-0.08393 -0.699441,-0.23512 -0.271706,-0.20499 -0.358329,-0.576232 -0.37716,-0.719349 -0.01722,-0.124285 0.02044,-0.250723 0.06456,-0.339498 z"
       class="st0" />
    <g
       style="display:inline;fill:#ffff00;stroke:#183f3f;stroke-opacity:1"
       id="g105"
       transform="matrix(0.05380318,0,0,0.05380318,19.927538,55.934663)">
      <path
         inkscape:connector-curvature="0"
         id="path95"
         d="m 170.9,106.54 c -3.63,0.69 -6.49,1.1 -9.77,3.1 -3.66,2.23 -6.32,4.43 -9.02,7.79 -4.91,6.13 -5.42,16.54 -0.38,22.81 5.16,6.42 15.62,6.85 21.51,1.2 10.6,-10.16 12.87,-25.45 5.55,-38.36"
         class="st2"
         style="fill:#ffffff;stroke:#183f3f;stroke-opacity:1;stroke-width:1.85862621;stroke-miterlimit:4.5454545;stroke-dasharray:none" />
      <path
         inkscape:connector-curvature="0"
         id="path97"
         d="m 174.76,97.68 c -2.43,-6.34 -6.69,-12.13 -12.7,-15.66 -9.89,-5.82 -24.81,-4.98 -31.08,5.72 -5.77,9.84 -2.63,21.77 8.55,25.71 11.81,4.16 26.12,-2.1 34.27,-10.77"
         class="st2"
         style="fill:#ffffff;stroke:#183f3f;stroke-opacity:1;stroke-width:1.85862621;stroke-miterlimit:4.5454545;stroke-dasharray:none" />
      <path
         inkscape:connector-curvature="0"
         id="path99"
         d="m 180.03,99.48 c 2.95,-1.39 5.7,-5.5 7.28,-8.24 3,-5.18 4.13,-12.18 3.77,-18.09 -0.56,-9.31 -6.89,-18.87 -17.24,-17.81 -7.32,0.75 -11.74,9.56 -12.96,16.02 -0.85,4.51 0,9.66 1.69,13.92 1.11,2.79 2.56,5.73 4.34,8.15 2.64,3.58 7.08,5.61 13.12,6.05 z"
         class="st2"
         style="fill:#ffffff;stroke:#183f3f;stroke-opacity:1;stroke-width:1.85862621;stroke-miterlimit:4.5454545;stroke-dasharray:none" />
      <path
         inkscape:connector-curvature="0"
         id="path101"
         d="m 182.07,106.15 c -1.18,7.47 0.92,15.52 5.95,21.26 5.48,6.25 13.81,9.54 21.19,4.35 5.78,-4.06 8.66,-12.17 5.33,-18.78 -5.86,-11.63 -20.8,-11.6 -32.47,-6.83 z"
         class="st2"
         style="fill:#ffffff;stroke:#183f3f;stroke-opacity:1;stroke-width:1.85862621;stroke-miterlimit:4.5454545;stroke-dasharray:none" />
      <path
         inkscape:connector-curvature="0"
         id="path103"
         d="m 182.7,105.17 c 8.98,0.02 18.43,1.57 26.69,-3.06 6.57,-3.68 10.87,-12.1 8.5,-19.67 -2.46,-7.86 -12.8,-10.05 -19.59,-7.07 -4.33,1.9 -9.1,4.85 -11.78,8.84 -3.24,4.86 -6.19,13.98 -3.82,20.96 z"
         class="st2"
         style="fill:#ffffff;stroke:#183f3f;stroke-opacity:1;stroke-width:1.85862621;stroke-miterlimit:4.5454545;stroke-dasharray:none" />
    </g>
    <path
       style="display:inline;fill:#ffffff;fill-opacity:1;stroke:#183f3f;stroke-width:0.13229167;stroke-miterlimit:4;stroke-dasharray:none;stroke-opacity:1"
       inkscape:connector-curvature="0"
       id="path113"
       d="m 29.387213,66.875539 h -3.632791 c -0.259869,0 -0.463245,0.223821 -0.437957,0.482614 l 0.341112,3.507429 c 0.02206,0.225436 0.211446,0.397606 0.437958,0.397606 h 2.950566 c 0.226511,0 0.415899,-0.17217 0.437958,-0.397606 l 0.341112,-3.507429 c 0.02529,-0.258793 -0.178089,-0.482614 -0.437958,-0.482614 z"
       class="st5" />
    <circle
       style="display:inline;fill:#000000;stroke:#183f3f;stroke-width:0.1;stroke-miterlimit:4.5454545;stroke-dasharray:none;stroke-opacity:1"
       id="circle115"
       stroke-miterlimit="10"
       r="0.56439537"
       cy="61.514053"
       cx="29.473297"
       class="st6" />
    <path
       style="display:inline;fill:#183f3f;stroke:none;stroke-width:0.21865001;stroke-miterlimit:10;fill-opacity:1"
       inkscape:connector-curvature="0"
       id="path53"
       stroke-miterlimit="10"
       d="m 87.052475,33.108413 c 0,0 0.08373,-3.834092 -2.115102,-5.710661"
       class="st1" />
    <path
       style="display:inline;fill:#183f3f;stroke-width:0.0546625;fill-opacity:1;stroke:none"
       inkscape:connector-curvature="0"
       id="path55"
       d="m 86.643206,30.232119 c 0.03117,-0.112092 0.005,-0.230371 0.04527,-0.345239 0.08345,-0.23649 0.27193,-0.381111 0.50758,-0.447686 0.37989,-0.106483 0.763755,-0.06533 1.091028,-0.309214 0.211379,0.409874 0.171462,0.890062 -0.114342,1.251248 -0.183434,0.231937 -0.400174,0.311542 -0.685915,0.331479 -0.340293,0.02343 -0.574573,-0.15383 -0.843621,-0.480588 z"
       class="st0" />
    <path
       style="display:inline;fill:#183f3f;stroke-width:0.0546625;fill-opacity:1;stroke:none"
       inkscape:connector-curvature="0"
       id="path57"
       d="m 86.625763,30.241999 c -0.285907,-0.179431 -0.705132,-0.131229 -0.993729,0.0067 -0.277932,0.133368 -0.422866,0.36777 -0.610735,0.598895 -0.106153,0.130039 -0.214571,0.250363 -0.373025,0.316377 -0.09442,0.03946 -0.195972,0.0361 -0.290886,0.06792 0.347797,0.316239 0.856528,0.425535 1.326268,0.387793 0.251745,-0.0205 0.499692,-0.117439 0.693898,-0.283788 0.262176,-0.225476 0.325905,-0.607499 0.335708,-0.753827 0.0094,-0.12713 -0.037,-0.25288 -0.0875,-0.340025 z"
       class="st0" />
    <g
       style="display:inline;fill:#ffffff;stroke:#183f3f;stroke-opacity:1;stroke-width:1.00194371;stroke-miterlimit:4;stroke-dasharray:none"
       id="g69"
       transform="matrix(-0.05455082,0.00349244,0.00349244,0.05455082,93.998303,20.949125)">
      <path
         inkscape:connector-curvature="0"
         id="path59"
         d="m 170.9,106.54 c -3.63,0.69 -6.49,1.1 -9.77,3.1 -3.66,2.23 -6.32,4.43 -9.02,7.79 -4.91,6.13 -5.42,16.54 -0.38,22.81 5.16,6.42 15.62,6.85 21.51,1.2 10.6,-10.16 12.87,-25.45 5.55,-38.36"
         class="st2"
         style="fill:#ffffff;stroke:#183f3f;stroke-opacity:1;stroke-width:1.00194371;stroke-miterlimit:4;stroke-dasharray:none" />
      <path
         inkscape:connector-curvature="0"
         id="path61"
         d="m 174.76,97.68 c -2.43,-6.34 -6.69,-12.13 -12.7,-15.66 -9.89,-5.82 -24.81,-4.98 -31.08,5.72 -5.77,9.84 -2.63,21.77 8.55,25.71 11.81,4.16 26.12,-2.1 34.27,-10.77"
         class="st2"
         style="fill:#ffffff;stroke:#183f3f;stroke-opacity:1;stroke-width:1.00194371;stroke-miterlimit:4;stroke-dasharray:none" />
      <path
         inkscape:connector-curvature="0"
         id="path63"
         d="m 180.03,99.48 c 2.95,-1.39 5.7,-5.5 7.28,-8.24 3,-5.18 4.13,-12.18 3.77,-18.09 -0.56,-9.31 -6.89,-18.87 -17.24,-17.81 -7.32,0.75 -11.74,9.56 -12.96,16.02 -0.85,4.51 0,9.66 1.69,13.92 1.11,2.79 2.56,5.73 4.34,8.15 2.64,3.58 7.08,5.61 13.12,6.05 z"
         class="st2"
         style="fill:#ffffff;stroke:#183f3f;stroke-opacity:1;stroke-width:1.00194371;stroke-miterlimit:4;stroke-dasharray:none" />
      <path
         inkscape:connector-curvature="0"
         id="path65"
         d="m 182.07,106.15 c -1.18,7.47 0.92,15.52 5.95,21.26 5.48,6.25 13.81,9.54 21.19,4.35 5.78,-4.06 8.66,-12.17 5.33,-18.78 -5.86,-11.63 -20.8,-11.6 -32.47,-6.83 z"
         class="st2"
         style="fill:#ffffff;stroke:#183f3f;stroke-opacity:1;stroke-width:1.00194371;stroke-miterlimit:4;stroke-dasharray:none" />
      <path
         inkscape:connector-curvature="0"
         id="path67"
         d="m 182.7,105.17 c 8.98,0.02 18.43,1.57 26.69,-3.06 6.57,-3.68 10.87,-12.1 8.5,-19.67 -2.46,-7.86 -12.8,-10.05 -19.59,-7.07 -4.33,1.9 -9.1,4.85 -11.78,8.84 -3.24,4.86 -6.19,13.98 -3.82,20.96 z"
         class="st2"
         style="fill:#ffffff;stroke:#183f3f;stroke-opacity:1;stroke-width:1.00194371;stroke-miterlimit:4;stroke-dasharray:none" />
    </g>
    <path
       style="display:inline;fill:#ffffff;stroke:#183f3f;stroke-width:0.13229167;stroke-miterlimit:4;stroke-dasharray:none;stroke-opacity:1"
       inkscape:connector-curvature="0"
       id="path77"
       d="m 85.117366,32.656075 3.683271,-0.23581 c 0.26348,-0.01687 0.484211,0.196862 0.475371,0.460893 l -0.11818,3.57831 c -0.0077,0.23 -0.188576,0.416856 -0.418235,0.431559 l -2.991567,0.191525 c -0.229659,0.0147 -0.432853,-0.147566 -0.469853,-0.374702 l -0.573524,-3.534026 c -0.04244,-0.260748 0.149236,-0.50088 0.412717,-0.517749 z"
       class="st5" />
    <circle
       style="display:inline;fill:#183f3f;stroke:none;stroke-width:0.0546625;stroke-miterlimit:10;fill-opacity:1"
       id="circle79"
       stroke-miterlimit="10"
       r="0.57340962"
       cy="32.580467"
       cx="-82.769569"
       class="st6"
       transform="matrix(-0.99795689,0.06389097,0.06389097,0.99795689,0,0)" />
    <circle
       style="display:inline;fill:#183f3f;stroke:#183f3f;stroke-width:0.05466283;stroke-miterlimit:10;fill-opacity:1;stroke-opacity:1"
       id="circle45"
       stroke-miterlimit="10"
       r="0.57341307"
       cy="10.936474"
       cx="19.065672"
       class="st6" />
  </g>
  <g
     inkscape:groupmode="layer"
     id="layer4"
     inkscape:label="Gecko"
     style="display:inline"
     transform="translate(0,0.72200012)">
    <path
       style="display:inline;fill:#183f3f;stroke-width:0.05466283;fill-opacity:1"
       inkscape:connector-curvature="0"
       id="path41"
       d="m 41.735244,23.531264 c 0.506725,0 1.942717,-0.267301 1.886414,-1.295509 -0.0563,-1.027661 -1.435992,-3.350831 -1.914839,-3.350831 -0.478846,0 -1.858536,2.32317 -1.914838,3.350831 -0.0563,1.027661 1.379689,1.295509 1.886414,1.295509"
       class="st3" />
    <path
       style="display:inline;fill:#183f3f;stroke-width:0.0546625;fill-opacity:1"
       inkscape:connector-curvature="0"
       id="path75"
       d="m 63.38829,40.671626 c -0.505686,0.03237 -1.955814,-0.142632 -1.96532,-1.17233 -0.0095,-1.029153 1.218964,-3.435712 1.696829,-3.466305 0.477865,-0.03059 2.003156,2.199666 2.125002,3.221625 0.121845,1.021958 -1.294092,1.381003 -1.799778,1.413378"
       class="st3" />
    <path
       style="display:inline;fill:#183f3f;stroke-width:0.05380318;fill-opacity:1"
       inkscape:connector-curvature="0"
       id="path111"
       d="m 50.705903,72.853328 c 0.498756,0 1.912165,-0.263097 1.856748,-1.275135 -0.05542,-1.0115 -1.413409,-3.298135 -1.884725,-3.298135 -0.471316,0 -1.829308,2.286635 -1.884726,3.298135 -0.05542,1.0115 1.357993,1.275135 1.856748,1.275135"
       class="st3" />
    <rect
       style="display:inline;fill:#183f3f;stroke-width:0.05466283;fill-opacity:1"
       id="rect37"
       height="3.905659"
       width="0.52203006"
       y="22.115498"
       x="41.432411"
       class="st3" />
    <rect
       style="display:inline;fill:#183f3f;stroke-width:0.0546625;fill-opacity:1"
       id="rect71"
       height="3.9056356"
       width="0.5220269"
       y="43.22271"
       x="-60.963062"
       class="st3"
       transform="matrix(-0.99795688,0.06389097,0.06389097,0.99795688,0,0)" />
    <rect
       style="display:inline;fill:#183f3f;stroke-width:0.05380318;fill-opacity:1"
       id="rect107"
       height="3.8442371"
       width="0.51382035"
       y="71.459824"
       x="50.407833"
       class="st3" />
    <rect
       style="display:inline;fill:#ffffff;stroke:#183f3f;stroke-width:0.22879955;stroke-miterlimit:4;stroke-dasharray:none;stroke-opacity:1"
       id="rect71-3"
       height="3.9357312"
       width="1.1406592"
       y="45.266479"
       x="-57.848961"
       class="st3"
       transform="matrix(-0.99957242,0.02923994,0.13876223,0.99032573,0,0)" />
    <path
       d="m 27.557779,7.8058041 c -0.110268,0.0082 -0.225866,0.020496 -0.346382,0.040992 -0.931421,0.1672474 -1.74007,1.00414 -1.405534,3.1462999 0,0 -0.134454,-0.133634 -0.201271,-0.334084 0,0 -0.869399,1.872925 -1.00332,2.877024 -0.133634,1.00414 0.602582,2.610165 2.141873,3.480384 1.289321,0.728879 1.40869,1.802788 1.415618,3.033449 -0.08526,0.0123 -0.166428,0.0287 -0.246772,0.04591 -0.576512,0.0619 -2.353679,0.25989 -2.645747,0.445829 -0.343513,0.218488 -3.589874,4.683746 -3.589874,4.683746 l -1.584382,-3.585365 c 0.310719,-0.201681 0.641935,-0.447428 0.689403,-0.636852 0.0828,-0.333265 -0.44341,-1.333838 -0.359909,-1.958638 0.0082,-0.04099 0.0082,-0.02869 0.0123,-0.06723 a 1.055503,1.055503 0 0 0 0.693831,-0.989916 1.055503,1.055503 0 0 0 -1.055831,-1.055872 1.055503,1.055503 0 0 0 -1.055872,1.055872 1.055503,1.055503 0 0 0 0,0.0082 l -1.065874,0.736299 c -0.156999,0.108219 -0.234884,0.230785 -0.260299,0.35745 a 1.055503,1.055503 0 0 0 -1.035786,-0.856938 1.055503,1.055503 0 0 0 -0.74298,0.30744 0.9658535,0.9658535 0 0 0 0,-0.04263 0.9658535,0.9658535 0 0 0 -0.965321,-0.966427 0.9658535,0.9658535 0 0 0 -0.966509,0.966427 0.9658535,0.9658535 0 0 0 0.674851,0.919533 c 0,0 0.02869,1.228735 0.15331,1.520639 0.111908,0.264809 1.466571,0.40951 1.732937,0.436893 0.0082,0.0205 0.0123,0.03689 0.0205,0.05903 0.03689,0.09797 0.06641,0.198402 0.108219,0.293913 0.04796,0.108629 0.111498,0.302111 0.225866,0.361959 0.234474,0.123386 1.536749,0.222177 1.859151,0.245952 0.350892,1.001066 2.078622,5.861037 2.64132,5.889321 0.351711,0.0164 1.954703,-1.735437 3.243533,-3.206599 -0.75454,2.442057 -1.562164,5.469153 -1.741914,6.774338 -0.04796,0.350891 -0.100841,1.387948 0.25456,2.473703 0.0246,0.413445 0.05985,0.918098 0.09838,1.448001 -2.496905,-0.08649 -3.225743,-3.060216 -3.521664,-5.165401 -0.464849,-3.307891 -3.267391,-4.609551 -4.851404,-4.574298 -0.105349,0.0022 -0.205779,0.0123 -0.299241,0.02459 -1.499406,0.226276 -1.495675,1.200369 -0.920681,1.091576 0.575036,-0.107809 2.655708,-0.474974 4.021152,2.058045 1.366018,2.533018 -2.340193,8.422216 5.044476,9.537199 0.25292,0.03689 0.508177,0.06641 0.764255,0.08731 0.0123,0.131585 0.05124,0.651363 0.05124,0.651363 L 20.99398,39.259049 c -0.09838,-0.194712 -0.560074,-1.073581 -0.995573,-1.235704 -0.488132,-0.181185 -1.213609,-0.0123 -1.349702,0.181184 -0.136094,0.193073 -0.170117,1.021521 -0.646854,1.33966 -0.476655,0.317688 -1.270383,0.329576 -1.270383,0.329576 0,0 0.805985,-0.136504 1.078171,-0.420127 0,0 -0.04509,-0.533306 -0.589915,-0.601107 -0.544415,-0.06846 -0.794426,0.352121 -0.794426,0.352121 0,0 0.170117,0.0787 0.215619,0.328346 0,0 -0.579095,-0.533347 -1.203321,0.0123 -0.624226,0.544414 -0.170117,1.61078 0.488256,1.644681 0.658167,0.03279 0.759746,-0.453659 0.759746,-0.453659 0,0 0.05739,0.147162 0.0246,0.317278 0,0 1.497069,0.03279 2.075958,-0.04468 0.535191,-0.07338 1.675097,-0.511416 1.858085,-0.582127 0.595778,0.218897 4.259889,1.550399 4.558311,1.274851 0.165607,-0.15249 0.364419,-1.622668 0.524,-3.054683 1.054233,-0.237344 2.013978,-0.773232 2.700512,-1.623406 0.07543,-0.09305 0.229556,-0.286534 0.376717,-0.496085 0.651691,-0.286124 1.135437,-0.582497 1.163107,-0.646936 0.0082,-0.0082 0.0041,-0.0164 0.0082,-0.0205 1.625456,-0.412216 3.798893,-0.953515 3.964173,-0.898299 0.190202,0.06313 0.07829,2.116417 0.0164,3.134003 -0.271367,0.576921 -1.223242,2.607911 -1.212297,2.749661 0.0123,0.135684 0.15372,0.134864 0.417913,0.273827 0.263989,0.138962 0.138963,0.228325 0.334085,0.467021 0.195122,0.238164 0.839065,0.355401 0.839065,0.355401 -0.05616,-0.35745 0.145112,-0.565362 0.145112,-0.565362 -0.0246,0.869113 0.503915,1.00082 0.888215,1.014511 0.384095,0.0123 0.901168,-0.282434 0.854683,-0.922893 -0.04632,-0.640623 -0.660299,-0.870384 -0.660299,-0.870384 0,0 0.705636,0.0246 0.884894,0.494979 0.179135,0.468948 0.05575,0.849149 0.05575,0.849149 0,0 0.411355,0.0123 0.699365,-0.15413 0.288174,-0.164788 0.431113,-0.67481 0.09264,-1.10498 -0.338184,-0.430211 -0.852511,-0.318508 -0.852511,-0.318508 0.140603,-0.109449 0.677598,-0.261119 1.03017,0.139783 0.352531,0.400491 0.229965,1.023406 0.229965,1.023406 0.189383,0.06559 0.769133,0.126665 0.913999,-0.494937 0.145521,-0.620947 -0.252921,-1.246608 -0.702767,-1.233491 -0.450379,0.0123 -0.621275,0.321787 -0.621275,0.321787 0,0 -0.756835,-0.143062 -1.232383,-0.442467 -0.467801,-0.294733 -0.708301,-1.437508 -0.716131,-1.47481 0.08035,-0.736996 0.525723,-4.896495 0.280386,-5.166222 -0.196352,-0.216028 -3.627464,0.372617 -5.447017,0.70166 -0.0082,-0.202091 -0.0164,-0.391884 -0.03689,-0.528469 -0.297192,-2.352613 -0.0123,-4.92109 0.508383,-7.22566 0.117237,-0.520393 0.148801,-0.783111 0.323837,-1.284894 0.08649,-0.248412 0.176265,-0.495839 0.262758,-0.744128 0.749949,1.029842 3.232383,4.425497 3.482599,4.425497 0.273006,0 4.083008,-1.557901 4.527156,-1.739619 0.505349,0.487928 1.4223,0.528469 1.4223,0.528469 l 0.04673,-2.098299 c -0.399262,-0.142242 -0.761959,-0.03689 -0.761959,-0.03689 0.30662,-0.370568 0.753023,-0.242673 0.753023,-0.242673 l 0.02869,0.0164 a 0.81336326,0.81336326 0 0 0 -0.0082,0.135273 0.81336326,0.81336326 0 0 0 0.812339,0.813405 0.81336326,0.81336326 0 0 0 0.813322,-0.813405 0.81336326,0.81336326 0 0 0 -0.813322,-0.813404 0.81336326,0.81336326 0 0 0 -0.30826,0.06149 c -1.128715,-1.1124 -2.308465,-0.09469 -2.279278,1.053617 -0.673827,0.224227 -3.774708,1.248617 -4.006599,1.045788 -0.25743,-0.225046 -1.609756,-3.311907 -2.156385,-4.212338 -0.546587,-0.900266 -1.640172,-1.188768 -1.640172,-1.188768 -0.186103,-0.03279 -0.320967,-0.129124 -0.42234,-0.238163 0.0082,-0.125436 0.0041,-0.261939 0.0205,-0.345153 0.09018,-0.448247 0.230785,-0.896905 0.416766,-1.315064 -1.065301,-0.127075 -1.751917,-0.831277 -1.751917,-0.831277 1.932281,0.776225 3.755974,0.396803 4.550932,0.0537 0.794261,-0.343103 1.716048,-3.160115 1.60783,-3.683746 -0.09838,-0.477762 -0.964419,-1.225169 -1.252511,-1.709449 0,0 0.227915,-0.399262 0.143062,-1.070383 -0.08487,-0.67125 -0.320572,-0.919539 -0.320572,-0.919539 0.333265,-1.9295347 -1.080468,-2.2948964 -1.080468,-2.2948964 0.397213,0.5597047 0.415659,1.2457878 0.415659,1.2457878 0,0 -0.541832,-1.265218 -1.553064,-1.5899157 C 30.909941,7.8673741 29.248617,7.93952 29.248617,7.93952 c 0.43349,0.4334904 0.469194,1.3910225 0.469276,1.3910225 0,0 -0.50703,-1.6025002 -2.158638,-1.5172779 z m 0.662554,2.4792779 c 0.05124,-0.0041 0.1033,-0.0041 0.158639,0 0.05903,0.0041 0.120926,0.0164 0.185284,0.03279 1.420659,0.394753 1.183193,2.367576 1.183193,2.367576 -2.20992,1.262635 -2.524534,-0.551958 -2.525067,-0.551958 0,-0.624062 0.237754,-1.775733 0.997746,-1.850256 z m 5.463413,0.611191 c 0.05042,-0.0022 0.10453,0.0016 0.161919,0.0164 0.280385,0.0701 0.43718,0.827465 0.400902,0.95864 0.0123,0.410002 -0.170937,0.919532 -0.170937,0.919532 0,0 -0.858413,-0.586144 -0.951875,-1.351916 0.0246,-0.116417 0.20578,-0.519943 0.559746,-0.541874 z m -1.916171,2.70494 -0.0011,0.0011 c 0.07829,5.33e-4 0.158229,0.0205 0.225866,0.05493 0.136093,0.07338 0.218897,0.201271 0.245952,0.335315 -0.09838,-0.091 -0.202501,-0.161919 -0.30744,-0.188974 -0.05247,-0.0123 -0.1033,-0.0164 -0.15413,-0.0123 -0.0246,0.0082 -0.05042,0.0082 -0.07584,0.0164 -0.0123,0.0041 -0.02459,0.0082 -0.03689,0.0123 l -0.03689,0.0164 c -0.04673,0.0205 -0.08895,0.04837 -0.127485,0.08608 -0.04099,0.03689 -0.07502,0.07994 -0.107399,0.128305 -0.06395,0.09838 -0.111499,0.215618 -0.158639,0.341874 -0.03689,-0.131175 -0.02869,-0.273827 0.0164,-0.409101 0.0246,-0.06723 0.05862,-0.134453 0.109449,-0.192252 0.02459,-0.0287 0.0537,-0.05329 0.0828,-0.07911 0.03279,-0.0205 0.06436,-0.04509 0.10043,-0.05944 0.07133,-0.03279 0.145522,-0.04878 0.223407,-0.05124 z m 2.690428,0.0011 c 0.0783,0.0021 0.152491,0.0164 0.223407,0.05124 0.03689,0.0164 0.06764,0.03689 0.10043,0.05821 0.0287,0.0246 0.05944,0.05042 0.0828,0.08035 0.05042,0.05739 0.08649,0.123386 0.110678,0.191022 0.04755,0.134864 0.05083,0.277926 0.0164,0.409101 -0.04714,-0.126256 -0.09428,-0.242263 -0.158639,-0.340644 -0.03279,-0.04878 -0.06518,-0.09387 -0.104939,-0.129535 -0.03689,-0.03689 -0.08157,-0.06518 -0.128715,-0.08608 l -0.03279,-0.0164 c -0.0123,-0.0082 -0.0246,-0.0041 -0.03689,-0.0082 -0.02459,-0.0123 -0.05124,-0.0123 -0.07706,-0.0164 -0.05083,-0.0041 -0.10166,-0.0014 -0.15413,0.0123 -0.104939,0.02869 -0.209059,0.09633 -0.30744,0.187743 0.02869,-0.133634 0.111089,-0.260299 0.246772,-0.334085 0.06723,-0.03689 0.146342,-0.05411 0.224636,-0.05493 z m -2.737322,0.568682 c 0.1529,-0.03279 0.247181,0.247182 0.146341,0.365238 -0.04427,0.05206 -0.09428,0.05657 -0.15208,0.0287 -0.131175,-0.06764 -0.113548,-0.240623 -0.06354,-0.35745 0.0246,-0.0205 0.04755,-0.0287 0.06928,-0.03279 z m 2.784258,0 c 0.0205,0.0041 0.04468,0.0164 0.06805,0.03279 0.0496,0.116828 0.06846,0.289814 -0.06272,0.357451 -0.05739,0.02869 -0.108629,0.0246 -0.1529,-0.02869 -0.10084,-0.117647 -0.0082,-0.396802 0.147571,-0.364419 z m -6.163967,1.225661 h 0.0033 c 0.06272,0.0022 0.109448,0.02459 0.165197,0.05575 -0.04345,0.04919 -0.09674,0.0742 -0.130764,0.09838 -0.03279,0.0205 -0.04345,0.03689 -0.05944,0.0537 0.09346,0.08198 0.861734,0.731502 1.864808,0.794384 1.070834,0.06641 1.43923,-0.268088 2.309408,-0.268088 0.63681,0 1.308587,0.375077 1.926255,0.144292 0.182004,-0.06805 0.298831,-0.186923 0.446936,-0.300471 0.03279,0.537856 -0.503013,0.990612 -0.918426,1.223447 -0.188153,0.10494 -0.366059,0.224636 -0.56983,0.300471 -0.177905,0.06559 -0.35868,0.0537 -0.54298,0.08035 -0.375077,0.05452 -0.743513,0.06641 -1.121828,0.03279 -0.231605,-0.0205 -0.4653,-0.0164 -0.696085,-0.0414 -0.795778,-0.0869 -1.525599,-0.476368 -2.083706,-1.05251 -0.175855,-0.181595 -0.333674,-0.382456 -0.462553,-0.6 -0.0205,-0.03689 -0.178315,-0.263579 -0.15536,-0.30949 -5.74e-4,0.0011 -2.05e-4,0.0023 -0.0082,0.0041 -0.0205,0.0246 -0.04345,0.05288 -0.06723,0.08485 -0.0246,0.03279 -0.04714,0.07543 -0.0828,0.129535 -0.04673,-0.04427 -0.06928,-0.10289 -0.06928,-0.166428 0,-0.06354 0.0246,-0.126665 0.06682,-0.177495 0.0205,-0.02459 0.05042,-0.05042 0.08362,-0.066 0.03279,-0.0164 0.06887,-0.0205 0.09961,-0.0205 z m -14.321375,1.80332 c -0.515598,-0.0123 -0.930355,0.387374 -0.877065,0.928468 0.07092,0.721542 0.650256,0.834639 0.650256,0.834639 0,0 -0.0205,0.935068 0.04099,1.158638 0.06108,0.223407 0.681533,0.293913 0.681533,0.293913 l -0.07133,-0.86366 c -0.42685,-0.183187 -0.772453,-0.802986 -0.690469,-1.371996 0.08157,-0.56901 0.80332,-0.823447 0.80332,-0.823447 -0.180365,-0.10412 -0.364419,-0.1529 -0.536299,-0.156589 z m 1.58102,1.999958 h 0.0011 a 1.055503,1.055503 0 0 0 -0.0082,0.08485 1.055503,1.055503 0 0 0 0.0082,0.08485 l -0.0992,-0.08936 a 0.9658535,0.9658535 0 0 0 0.09838,-0.08035 z m 2.104981,0.139783 c 0.09305,0.323427 0.433654,0.642386 0.690469,0.822341 0.241033,0.168887 0.398032,0.366468 0.377536,0.670383 -0.03689,-0.03689 -0.08444,-0.066 -0.134044,-0.0951 -0.414388,-0.335314 -1.043492,-0.266038 -1.043615,-0.266038 L 17.36024,20.066712 a 1.055503,1.055503 0 0 0 0.345153,-0.727362 z m 12.088131,2.053576 c 0.426931,0.04878 1.058044,0.968682 0.0082,4.571838 -1.051035,3.603279 -0.413076,6.360319 -1.007788,7.629021 -0.594138,1.268703 -3.433654,2.055872 -2.754089,-3.44796 0.947202,-7.674932 3.306415,-8.804262 3.755195,-8.753022 z m 13.344945,2.292683 c -0.284484,0.0041 -0.597417,0.117647 -0.785447,0.191023 0,0 -0.469933,-0.167248 -0.626809,0.125025 0,0 0.97192,0.198401 0.763148,1.159746 0,0 0.07338,0.105349 0.115187,0.188973 0,0 0.240623,-0.136503 0.658086,-0.115188 0,0 -0.439024,0.08403 -0.616725,0.292683 0,0 0.125436,0.146342 0.07379,0.324247 0,0 -0.10412,-0.251691 -0.323837,-0.335315 0,0 -0.36032,0.596024 -0.964214,0.491617 0,0 -0.122566,0.365649 0.347612,0.658086 0.470097,0.292273 0.762985,-0.07338 0.856938,-0.313999 0,0 -0.0205,0.607051 -0.55413,0.596639 -0.532978,-0.0123 -0.649149,-0.366469 -0.649149,-0.366469 0,0 -0.395163,0.125026 -0.343103,0.585489 0.05247,0.459684 0.411232,0.649149 0.669235,0.700512 0.417668,0.08362 0.751958,-0.323836 0.751958,-0.323836 0,0 0.662512,0.282025 0.965361,0.0123 0.302931,-0.271777 0.455011,-0.773642 -0.08813,-0.972043 0,0 0.558721,-0.113958 0.537365,-0.646936 -0.0205,-0.532937 -0.54298,-0.741873 -0.54298,-0.741873 0,0 0.533428,-0.345153 0.376716,-1.055831 -0.0783,-0.355401 -0.335314,-0.457717 -0.620086,-0.452511 z m -26.525513,3.837965 c 0,0 1.890838,0.578315 2.007829,4.364008 0.109449,3.542119 2.311416,5.242467 4.738265,5.285919 0.04468,0.572822 0.06477,0.817667 0.09387,1.177618 -0.226686,-0.0205 -0.451773,-0.04468 -0.673744,-0.07829 C 15.752124,37.211662 19.136669,31.679218 17.9784,29.197562 17.565159,28.312627 17.095227,27.79498 16.613079,27.523859 Z m 11.517112,9.260093 c -0.325886,0.382045 -0.715802,0.707112 -1.153023,0.95417 -0.381635,0.215618 -0.788809,0.36237 -1.207788,0.465915 0.05985,-0.57356 0.0828,-0.824472 0.117237,-1.178765 0.656897,0.182414 1.492888,0.0164 2.243533,-0.241443 z m -10.251279,1.924 c -0.07829,5.33e-4 -0.169707,0.02869 -0.274646,0.106169 0,0 0.317688,0.215208 0.363189,0.521788 0,0 0.192662,-0.136094 0.260299,-0.374257 3.69e-4,0 -0.113958,-0.255381 -0.348432,-0.253741 z"
       id="path17"
       inkscape:connector-curvature="0"
       style="fill:#183f3f;fill-opacity:1;stroke-width:0.05466283" />
    <path
       d="m 76.271786,25.082531 c 0.110566,0.0011 0.226713,0.006 0.348292,0.01878 0.940197,0.107396 1.800658,0.890909 1.603672,3.050053 0,0 0.12564,-0.141951 0.179513,-0.34626 0,0 0.98728,1.81354 1.185079,2.807026 0.197515,0.993544 -0.434583,2.643316 -1.91512,3.610098 -1.240111,0.80976 -1.290623,1.889095 -1.218909,3.117677 0.08587,0.0068 0.16792,0.018 0.2492,0.03005 0.579285,0.02494 2.36546,0.108979 2.668809,0.275877 0.356768,0.196093 3.881765,4.444789 3.881765,4.444789 l 1.352064,-3.679245 c -0.322968,-0.181415 -0.669205,-0.405497 -0.728679,-0.5915 -0.103927,-0.327292 0.357282,-1.359435 0.234034,-1.97762 -0.0108,-0.04038 -0.01001,-0.02811 -0.01657,-0.0663 a 1.0554966,1.0554966 0 0 1 -0.755655,-0.943558 1.0554966,1.0554966 0 0 1 0.986207,-1.121166 1.0554966,1.0554966 0 0 1 1.121169,0.986249 1.0554966,1.0554966 0 0 1 5.24e-4,0.0082 l 1.110732,0.66669 c 0.163592,0.09797 0.249148,0.215306 0.282603,0.340087 a 1.0554966,1.0554966 0 0 1 0.978913,-0.921358 1.0554966,1.0554966 0 0 1 0.7611,0.25934 0.96584763,0.96584763 0 0 1 -0.0027,-0.04254 0.96584763,0.96584763 0 0 1 0.901597,-1.026122 0.96584763,0.96584763 0 0 1 1.026274,0.902697 0.96584763,0.96584763 0 0 1 -0.614719,0.960764 c 0,0 0.04987,1.228051 -0.05584,1.527319 -0.09476,0.271415 -1.437402,0.502371 -1.701473,0.546715 -0.0069,0.02098 -0.0099,0.0376 -0.01668,0.06022 -0.03056,0.100128 -0.0536,0.202238 -0.08922,0.300225 -0.04092,0.11147 -0.09197,0.308616 -0.202278,0.375648 -0.22611,0.138114 -1.519405,0.319905 -1.839627,0.36423 -0.286214,1.021433 -1.699898,5.98183 -2.259635,6.046008 -0.349943,0.03883 -2.061576,-1.606994 -3.441758,-2.992797 0.909018,2.388845 1.90839,5.358138 2.17116,6.649164 0.07028,0.347108 0.189311,1.378661 -0.09599,2.484898 0.0019,0.41417 -0.0011,0.92004 -0.0057,1.45132 2.486262,-0.245845 3.023614,-3.26004 3.184427,-5.379818 0.252554,-3.330812 2.966189,-4.80886 4.549208,-4.874882 0.105272,-0.0046 0.206144,-8.75e-4 0.3002,0.0054 1.510789,0.130014 1.569302,1.102349 0.988535,1.030516 -0.580746,-0.07085 -2.680612,-0.304326 -3.881422,2.31074 -1.201382,2.615104 2.873497,8.255442 -4.424802,9.83995 -0.250045,0.05298 -0.502894,0.09874 -0.75711,0.135963 -0.0039,0.1321 -0.0095,0.653301 -0.0095,0.653301 l 2.528237,-0.327397 c 0.08574,-0.200598 0.490334,-1.107163 0.914582,-1.296779 0.475557,-0.212 1.210337,-0.08981 1.358513,0.09458 0.14815,0.183982 0.235034,1.008559 0.73112,1.295587 0.495975,0.286583 1.288837,0.247735 1.288837,0.247735 0,0 -0.813055,-0.08473 -1.102805,-0.350381 0,0 0.01093,-0.535094 0.550302,-0.637565 0.538926,-0.1031 0.815294,0.300643 0.815294,0.300643 0,0 -0.164739,0.08941 -0.194197,0.341449 0,0 0.543831,-0.569252 1.20164,-0.06461 0.65773,0.503417 0.272681,1.596611 -0.382176,1.672505 -0.654724,0.07478 -0.787173,-0.404188 -0.787173,-0.404188 0,0 -0.04787,0.150527 -0.0043,0.3182 0,0 -1.491906,0.128374 -2.074559,0.08804 -0.538783,-0.03903 -1.704339,-0.403346 -1.89147,-0.462221 -0.580571,0.256514 -4.152104,1.819389 -4.467519,1.563472 -0.175011,-0.141597 -0.467345,-1.59606 -0.718092,-3.014945 -1.067236,-0.169502 -2.059253,-0.642973 -2.798698,-1.447542 -0.08122,-0.08804 -0.247392,-0.271281 -0.40764,-0.471 -0.668636,-0.243901 -1.170327,-0.508759 -1.202057,-0.571299 -0.0087,-0.0077 -0.0051,-0.0161 -0.0095,-0.01993 -1.648461,-0.307519 -3.852028,-0.708848 -4.013441,-0.643185 -0.18578,0.07515 0.05708,2.117083 0.183869,3.128628 0.307671,0.558402 1.387357,2.524414 1.385491,2.666573 -0.0036,0.136191 -0.144789,0.144408 -0.399562,0.299966 -0.254569,0.155544 -0.124091,0.236736 -0.303562,0.487409 -0.179506,0.250142 -0.814639,0.408281 -0.814639,0.408281 0.03321,-0.360306 -0.180936,-0.554932 -0.180936,-0.554932 0.08007,0.86576 -0.438939,1.030964 -0.821577,1.069181 -0.382522,0.03681 -0.917366,-0.22428 -0.911896,-0.866397 0.0053,-0.642269 0.603337,-0.910786 0.603337,-0.910786 0,0 -0.702619,0.06963 -0.851457,0.5505 -0.148806,0.479433 -0.0014,0.850971 -0.0014,0.850971 0,0 -0.409726,0.03855 -0.707779,-0.109131 -0.298111,-0.146039 -0.473343,-0.645883 -0.16305,-1.096797 0.310005,-0.450936 0.830415,-0.372323 0.830415,-0.372323 -0.147308,-0.100241 -0.692893,-0.217291 -1.019129,0.205315 -0.326221,0.422194 -0.164108,1.036002 -0.164108,1.036002 -0.184804,0.07755 -0.759464,0.175546 -0.943747,-0.435528 -0.184896,-0.610377 0.172756,-1.260212 0.622518,-1.275863 0.450242,-0.0165 0.640561,0.281435 0.640561,0.281435 0,0 0.746144,-0.191124 1.201589,-0.520299 0.448011,-0.324016 0.615006,-1.479815 0.620436,-1.517542 -0.127267,-0.730352 -0.837484,-4.852872 -0.609883,-5.137721 0.182147,-0.22813 3.643837,0.140093 5.480684,0.352209 -0.0047,-0.2022 -0.0087,-0.392128 0.0031,-0.529743 0.146274,-2.366779 -0.302138,-4.911791 -0.968992,-7.178372 -0.150245,-0.511837 -0.198529,-0.771999 -0.405266,-1.261571 -0.102187,-0.242377 -0.207583,-0.483562 -0.309762,-0.725815 -0.682615,1.075646 -2.943013,4.622946 -3.192715,4.638932 -0.272447,0.01744 -4.174177,-1.293843 -4.629025,-1.446811 -0.47314,0.519215 -1.38562,0.618257 -1.38562,0.618257 l -0.180701,-2.091013 c 0.389356,-0.167459 0.758041,-0.0855 0.758041,-0.0855 -0.329668,-0.350218 -0.766985,-0.194064 -0.766985,-0.194064 l -0.02759,0.0182 a 0.81335832,0.81335832 0 0 1 0.01683,0.134473 0.81335832,0.81335832 0 0 1 -0.758705,0.863638 0.81335832,0.81335832 0 0 1 -0.863625,-0.759774 0.81335832,0.81335832 0 0 1 0.759687,-0.863701 0.81335832,0.81335832 0 0 1 0.311557,0.04167 c 1.05533,-1.182234 2.297684,-0.241986 2.341923,0.905834 0.686772,0.180716 3.846747,1.00489 4.065205,0.787662 0.242524,-0.241033 1.394858,-3.407969 1.882837,-4.341479 0.487949,-0.933343 1.56086,-1.291123 1.56086,-1.291123 0.183627,-0.04462 0.31206,-0.149367 0.406259,-0.264659 -0.0162,-0.124655 -0.02083,-0.261141 -0.04251,-0.343136 -0.118637,-0.441567 -0.287616,-0.880322 -0.499932,-1.285742 1.054998,-0.194878 1.695215,-0.941505 1.695215,-0.941505 -1.878728,0.898089 -3.722925,0.635961 -4.538175,0.344351 -0.814554,-0.291654 -1.914433,-3.043999 -1.839891,-3.573472 0.06766,-0.483068 0.884166,-1.284276 1.140727,-1.785969 0,0 -0.252958,-0.383882 -0.211157,-1.059049 0.04179,-0.675331 0.261149,-0.93817 0.261149,-0.93817 -0.455861,-1.904288 0.931631,-2.359225 0.931631,-2.359225 -0.360639,0.583936 -0.335213,1.269791 -0.335213,1.269791 0,0 0.459886,-1.297243 1.448301,-1.685883 0.988417,-0.3886 2.650945,-0.422745 2.650945,-0.422745 -0.404906,0.460299 -0.379359,1.41815 -0.379441,1.418155 0,0 0.403606,-1.631611 2.057275,-1.652085 z m -0.502794,2.516529 c -0.0514,-8.17e-4 -0.10335,0.0025 -0.158314,0.01013 -0.05864,0.0079 -0.119631,0.02409 -0.182809,0.04456 -1.392527,0.484711 -1.029502,2.438319 -1.029502,2.438319 2.286061,1.118855 2.484095,-0.71212 2.484627,-0.712154 -0.03987,-0.622784 -0.350719,-1.756904 -1.113915,-1.782718 z m -5.413169,0.958998 c -0.05045,0.0011 -0.10421,0.0083 -0.160539,0.02671 -0.275332,0.08787 -0.383416,0.853701 -0.338832,0.982289 0.01392,0.409947 0.229336,0.906727 0.229336,0.906727 0,0 0.819205,-0.639788 0.86355,-1.409962 -0.03198,-0.114607 -0.238578,-0.50573 -0.593219,-0.505 z m 2.085065,2.576971 0.0013,0.0011 c -0.0781,0.0055 -0.156595,0.03056 -0.221894,0.06925 -0.131126,0.08192 -0.205589,0.214844 -0.224024,0.350341 0.09237,-0.0971 0.19174,-0.174524 0.294736,-0.208228 0.05158,-0.01563 0.102041,-0.02296 0.153029,-0.02212 0.02507,0.0066 0.05084,0.005 0.07673,0.01152 0.01253,0.0033 0.02507,0.0066 0.0376,0.0099 l 0.03786,0.01401 c 0.04794,0.01747 0.09186,0.04259 0.132724,0.07776 0.04326,0.0342 0.07997,0.07498 0.115376,0.121181 0.0701,0.09409 0.125046,0.208052 0.180156,0.331037 0.02844,-0.133263 0.01114,-0.275099 -0.0425,-0.407214 -0.02884,-0.06552 -0.06709,-0.130433 -0.121508,-0.184866 -0.02638,-0.02706 -0.05699,-0.04975 -0.08769,-0.07366 -0.03404,-0.01836 -0.06711,-0.04089 -0.104022,-0.0529 -0.07328,-0.02817 -0.14834,-0.03938 -0.226222,-0.03686 z m -2.684839,0.173079 c -0.07799,0.0072 -0.15113,0.02611 -0.219675,0.06541 -0.03577,0.01872 -0.06514,0.04114 -0.09651,0.06451 -0.02707,0.02638 -0.0561,0.05411 -0.0775,0.08547 -0.04665,0.06049 -0.07843,0.128659 -0.09825,0.197702 -0.03884,0.137626 -0.03297,0.280604 0.0098,0.40931 0.03898,-0.129009 0.07861,-0.24779 0.13655,-0.350081 0.02961,-0.05078 0.05905,-0.09784 0.09645,-0.135974 0.03446,-0.03917 0.07724,-0.07026 0.122952,-0.09413 l 0.03168,-0.01846 c 0.01175,-0.009 0.02428,-0.0057 0.03629,-0.01054 0.02376,-0.01384 0.05035,-0.01555 0.07586,-0.02129 0.05046,-0.0073 0.101368,-0.0078 0.1546,0.0024 0.106558,0.02193 0.214786,0.08278 0.318805,0.167717 -0.03717,-0.131527 -0.127491,-0.252669 -0.267611,-0.317634 -0.06945,-0.03252 -0.149499,-0.04465 -0.227685,-0.04047 z m 2.768047,0.392628 c -0.154682,-0.02296 -0.230883,0.262468 -0.122706,0.37384 0.04751,0.04913 0.0977,0.05043 0.153602,0.01892 0.126584,-0.07588 0.09794,-0.247384 0.04057,-0.360777 -0.02585,-0.01888 -0.04929,-0.0256 -0.07123,-0.0283 z m -2.778553,0.177888 c -0.02019,0.0054 -0.04354,0.01922 -0.06581,0.03707 -0.04203,0.119757 -0.0498,0.293593 0.08543,0.35271 0.0591,0.02497 0.109977,0.01761 0.150753,-0.0384 0.09312,-0.123849 -0.01717,-0.396513 -0.170552,-0.354244 z m 6.229644,0.82933 -0.0034,2.15e-4 c -0.06245,0.0062 -0.107653,0.03154 -0.161297,0.06619 0.04651,0.04631 0.101283,0.06786 0.136782,0.08983 0.03404,0.01836 0.04572,0.03404 0.06275,0.04979 -0.08803,0.08779 -0.813232,0.78506 -1.810234,0.911899 -1.064396,0.134687 -1.453408,-0.175585 -2.321803,-0.119989 -0.635506,0.04069 -1.281942,0.457915 -1.913089,0.267066 -0.185979,-0.05628 -0.310162,-0.167448 -0.465217,-0.271301 0.0016,0.538849 0.565273,0.956445 0.994711,1.162262 0.194472,0.0927 0.37966,0.200788 0.587859,0.263449 0.181731,0.05409 0.361376,0.03067 0.547001,0.04549 0.377791,0.03044 0.746232,0.01877 1.121624,-0.03895 0.229821,-0.03525 0.463299,-0.04609 0.692013,-0.08579 0.788595,-0.137568 1.492038,-0.572863 2.012191,-1.183483 0.163893,-0.192458 0.308555,-0.40299 0.423271,-0.628323 0.0181,-0.03813 0.16111,-0.274431 0.135268,-0.318782 6.49e-4,0.0011 3.51e-4,0.0023 0.0084,0.0036 0.02203,0.02324 0.04674,0.05 0.07251,0.08038 0.02664,0.03115 0.05186,0.07226 0.09091,0.123979 0.04381,-0.04717 0.06256,-0.107105 0.0585,-0.170513 -0.0041,-0.06341 -0.03264,-0.124834 -0.07802,-0.172862 -0.02202,-0.02324 -0.05354,-0.0471 -0.08767,-0.06052 -0.03377,-0.01427 -0.07004,-0.01605 -0.100716,-0.01409 z m 14.407243,0.884625 c 0.513755,-0.04521 0.953197,0.327139 0.934588,0.87053 -0.02467,0.724593 -0.595598,0.874473 -0.595598,0.874473 0,0 0.0802,0.931843 0.03312,1.158883 -0.04668,0.226851 -0.661359,0.336854 -0.661359,0.336854 l 0.016,-0.866448 c 0.414268,-0.21013 0.719564,-0.85074 0.601393,-1.413346 -0.117761,-0.562632 -0.854284,-0.770435 -0.854284,-0.770435 0.173343,-0.11543 0.353903,-0.17587 0.525195,-0.190533 z m -1.450002,2.096872 -0.0011,6.8e-5 a 1.0554966,1.0554966 0 0 1 0.0136,0.08416 1.0554966,1.0554966 0 0 1 -0.0028,0.0852 l 0.09329,-0.09552 a 0.96584763,0.96584763 0 0 1 -0.103313,-0.07389 z m -2.091736,0.273985 c -0.0722,0.328709 -0.391724,0.668776 -0.636515,0.86477 -0.229749,0.18394 -0.373803,0.391148 -0.333932,0.69313 0.03446,-0.03917 0.08005,-0.07126 0.127694,-0.103471 0.392115,-0.361103 1.024356,-0.332162 1.024479,-0.33217 l 0.209371,-0.418821 a 1.0554966,1.0554966 0 0 1 -0.390916,-0.703819 z m -11.932156,2.821685 c -0.422941,0.07596 -0.993987,1.034296 0.283915,4.562993 1.279096,3.528744 0.818594,6.320893 1.493145,7.549 0.673979,1.228142 3.557969,1.832281 2.528153,-3.616855 -1.435616,-7.598688 -3.862148,-8.574972 -4.306735,-8.495164 z m -13.171119,3.1406 c 0.284163,-0.01409 0.60371,0.07924 0.796043,0.140448 0,0 0.458283,-0.196929 0.633512,0.08472 0,0 -0.957253,0.260091 -0.687488,1.206127 0,0 -0.06649,0.109821 -0.102878,0.195945 0,0 -0.248851,-0.12085 -0.664096,-0.07291 0,0 0.443494,0.05581 0.63416,0.25268 0,0 -0.115828,0.154056 -0.05292,0.328297 0,0 0.08783,-0.257828 0.30175,-0.355318 0,0 0.397662,0.571781 0.993648,0.429006 0,0 0.145676,0.357068 -0.304855,0.678946 -0.450459,0.321708 -0.766108,-0.02448 -0.875243,-0.258605 0,0 0.05924,0.604497 0.591114,0.560012 0.5311,-0.04633 0.624405,-0.407192 0.624405,-0.407192 0,0 0.402341,0.09952 0.379807,0.562368 -0.02299,0.462095 -0.368914,0.674093 -0.623108,0.741835 -0.411468,0.110137 -0.771106,-0.275131 -0.771106,-0.275131 0,0 -0.643136,0.323776 -0.962598,0.07395 -0.319674,-0.251866 -0.503507,-0.742986 0.02585,-0.975682 0,0 -0.564857,-0.07803 -0.577596,-0.611278 -0.0136,-0.533154 0.494469,-0.775044 0.494469,-0.775044 0,0 -0.554388,-0.310364 -0.443402,-1.029599 0.05543,-0.359674 0.305383,-0.478202 0.589904,-0.491201 z m 26.716364,2.135323 c 0,0 -1.850014,0.697937 -1.724896,4.483347 0.117083,3.541853 -1.971735,5.379402 -4.390836,5.577817 -0.008,0.574503 -0.01239,0.82013 -0.01844,1.181203 0.224911,-0.03494 0.447992,-0.07345 0.667361,-0.12118 6.945037,-1.508329 3.213956,-6.813196 4.211299,-9.363769 0.355854,-0.909524 0.791751,-1.456134 1.255589,-1.757505 z m -10.90188,9.976952 c 0.349628,0.360441 0.759514,0.65993 1.211623,0.878548 0.39463,0.190793 0.810345,0.311229 1.235081,0.387794 -0.09637,-0.568561 -0.13531,-0.817492 -0.192309,-1.16886 -0.643896,0.22401 -1.488781,0.111745 -2.254362,-0.09761 z m 10.353198,1.265098 c 0.07817,-0.0045 0.171193,0.01779 0.280867,0.08841 0,0 -0.303287,0.235064 -0.329107,0.543922 0,0 -0.200963,-0.123505 -0.283678,-0.356859 -3.68e-4,2.3e-5 0.09741,-0.262138 0.331507,-0.275482 z"
       id="path51"
       inkscape:connector-curvature="0"
       style="fill:#183f3f;fill-opacity:1;stroke-width:0.0546625" />
    <g
       transform="matrix(-0.06433613,0,0,0.03992038,60.947373,63.060884)"
       id="g87"
       style="fill:#183f3f;fill-opacity:1">
      <path
         transform="matrix(-0.8363,0,0,1.3478,1237,-1297.7)"
         d="m 1038,875.46 c -2.8833,-0.0433 -5.9737,0.2025 -9.2793,0.79688 -17.04,3.06 -31.839,18.371 -25.719,57.561 0,0 -2.4499,-2.4511 -3.6699,-6.1211 0,0 -15.921,34.28 -18.371,52.65 -2.45,18.37 11.022,47.75002 39.182,63.67002 23.625,13.356 25.893,32.856 26.014,55.414 -1.7557,0.2262 -3.451,0.5183 -5.0898,0.8789 -14.624,1.6634 -43.288,5.2368 -47.936,8.1973 -6.28,4 -65.68,85.67 -65.68,85.67 l -28.963,-65.555 c 5.5296,-3.6407 11.769,-8.359 12.604,-11.686 1.52,-6.1 -8.1296,-24.39 -6.5996,-35.82 0.0599,-0.4504 0.11596,-0.7851 0.17578,-1.2227 a 19.31,19.31 0 0 0 12.725,-18.127 19.31,19.31 0 0 0 -19.311,-19.309 19.31,19.31 0 0 0 -19.311,19.309 19.31,19.31 0 0 0 0.006,0.1113 l -19.506,13.459 c -2.8258,1.9485 -4.2826,4.1385 -4.7754,6.416 a 19.31,19.31 0 0 0 -18.934,-15.535 19.31,19.31 0 0 0 -13.609,5.6231 17.67,17.67 0 0 0 0.0391,-0.793 17.67,17.67 0 0 0 -17.67,-17.67 17.67,17.67 0 0 0 -17.67,17.67 17.67,17.67 0 0 0 12.301,16.828 h -0.0117 c 0,0 0.56055,22.469 2.8106,27.809 1.9082,4.5202 24.438,7.2876 31.566,8.0644 0.78125,2.1582 1.6116,4.2993 2.5332,6.3965 0.88,1.99 2.0291,5.5192 4.1191,6.6192 3.9427,2.0734 25.787,3.9084 34.004,4.539 8.6024,24.339 38.586,107.21 48.338,107.7 6.3397,0.3155 35.766,-31.67 59.178,-58.354 -13.761,44.593 -28.443,99.827 -31.719,123.61 -0.87908,6.4112 -1.845,25.348 4.6309,45.184 1.8748,31.452 7.0996,94.457 7.0996,94.457 l -46.531,-3.0293 c -2.3535,-4.5751 -10.639,-19.794 -18.209,-22.611 -8.93,-3.32 -22.209,-0.2097 -24.699,3.3203 -2.49,3.53 -3.1101,18.68 -11.83,24.5 -8.72,5.81 -23.25,6.0195 -23.25,6.0195 0,0 14.739,-2.4897 19.719,-7.6797 0,0 -0.82907,-9.76 -10.789,-11 -9.96,-1.25 -14.531,6.4395 -14.531,6.4395 0,0 3.1114,1.4515 3.9414,6.0215 0,0 -10.59,-9.7611 -22.01,0.209 -11.42,9.9599 -3.1103,29.48 8.9297,30.1 12.04,0.62 13.91,-8.2989 13.91,-8.2989 0,0 1.0399,2.7006 0.41992,5.8106 0,0 27.4,0.6199 37.99,-0.8301 9.2445,-1.2658 28.915,-8.6662 34.008,-10.617 16.327,5.9436 78.226,28.043 83.371,23.297 4.241,-3.9121 9.8036,-55.84 12.656,-85.322 18.198,4.941 44.119,-4.5758 60.107,-12.459 1.2183,0.9509 2.3244,1.7983 3.0391,2.3477 16.298,12.524 39.603,20.084 64.988,22.822 6.5252,0.7042 13.118,1.1119 19.73,1.2812 -0.092,1.7578 -0.1815,3.3334 -0.2715,4.9414 -6.4608,13.782 -22.506,48.274 -22.32,50.668 0.19,2.48 2.8204,2.4697 7.6503,5.0098 4.8301,2.5399 2.5394,4.171 6.1094,8.541 3.57,4.36 15.352,6.5 15.352,6.5 -1.02,-6.54 2.6484,-10.35 2.6484,-10.35 -0.43,15.9 9.22,18.308 16.25,18.559 7.03,0.2499 16.491,-5.1492 15.641,-16.869 -0.8499,-11.72 -12.07,-15.93 -12.07,-15.93 0,0 12.9,0.4886 16.18,9.0586 3.28,8.58 1.0215,15.541 1.0215,15.541 0,0 7.5288,0.19 12.799,-2.83 5.2702,-3.02 7.8912,-12.351 1.7012,-20.221 -6.19,-7.8701 -15.59,-5.8086 -15.59,-5.8086 2.57,-2 12.38,-4.7812 18.83,2.5488 6.45,7.33 4.209,18.711 4.209,18.711 3.46,1.2 14.071,2.329 16.721,-9.041 2.66,-11.36 -4.6215,-22.81 -12.852,-22.57 -8.24,0.25 -11.359,5.8906 -11.359,5.8906 0,0 -13.839,-2.6098 -22.539,-8.0898 -8.1112,-5.1092 -12.502,-24.12 -13.066,-26.699 0.2532,-2.3973 0.4985,-4.7285 0.834,-8.0293 4.7493,-0.2734 9.4821,-0.6324 14.18,-1.0723 161.54,-15.136 80.486,-95.076 110.37,-129.46 29.87,-34.383 75.38,-29.397 87.959,-27.936 12.579,1.4765 12.651,-11.745 -20.148,-14.816 -32.799,-3.0496 -101.82,13.867 -112.66,61.762 -6.4315,28.388 -22.167,68.443 -75.932,70.113 1.7189,-22.212 2.6731,-42.96 0.4883,-45.363 -3.5853,-3.9446 -66.272,6.7834 -99.608,12.81 -0.1407,-3.7553 -0.3833,-7.1051 -0.7031,-9.6406 -5.44,-43.04 -0.2094,-90.03 9.3106,-132.19 2.15,-9.52 2.7297,-14.341 5.9296,-23.521 1.5808,-4.5244 3.1364,-9.0567 4.711,-13.582 18.15,24.809 59.649,80.934 63.799,80.934 4.8167,0 70.598,-26.792 82.826,-31.787 9.2494,8.9143 26.023,9.6465 26.023,9.6465 l 0.8516,-38.391 c -7.3,-2.6 -13.941,-0.6504 -13.941,-0.6504 5.61,-6.78 13.791,-4.4395 13.791,-4.4395 l 0.5527,0.2696 a 14.88,14.88 0 0 0 -0.2226,2.4609 14.88,14.88 0 0 0 14.879,14.881 14.88,14.88 0 0 0 14.881,-14.881 14.88,14.88 0 0 0 -14.881,-14.881 14.88,14.88 0 0 0 -5.5957,1.1036 c -20.707,-20.484 -42.436,-1.6627 -41.814,19.418 -19.105,6.2721 -69.409,22.36 -73.228,19.02 -4.71,-4.12 -29.461,-60.591 -39.461,-77.061 -10,-16.47 -30,-21.76 -30,-21.76 -3.4273,-0.6225 -5.9531,-2.3665 -7.8125,-4.373 0.073,-2.4019 0.1431,-4.699 0.4629,-6.2871 1.65,-8.2 4.2289,-16.42 7.6289,-24.07 -19.49,-2.32 -32.039,-15.199 -32.039,-15.199 35.35,14.2 68.71,7.2702 83.25,0.9902 14.53,-6.28 31.38,-57.811 29.4,-67.39102 -1.8,-8.74 -17.64,-22.429 -22.91,-31.289 0,0 4.1789,-7.2903 2.6289,-19.57 -1.55,-12.2797 -5.8691,-16.82 -5.8691,-16.82 6.1,-35.3 -19.77,-42 -19.77,-42 7.27,10.24 7.5996,22.789 7.5996,22.789 0,0 -9.9102,-23.128 -28.41,-29.068 -18.4998,-5.94 -48.891,-4.6211 -48.891,-4.6211 7.93,7.93 8.5898,25.439 8.5898,25.439 0,0 -8.6793,-27.398 -36.551,-27.816 z m 10.482,45.342 c 1.547,-0.0116 3.2038,0.21195 4.9785,0.70508 25.99,7.22 21.66,43.32 21.66,43.32 -40.43,23.1 -46.199,-10.109 -46.209,-10.109 0,-11.772 4.6154,-33.804 19.57,-33.916 z m 99.346,11.238 c 0.7183,0.0122 1.4724,0.10883 2.2637,0.30664 5.13,1.28 7.99,15.131 7.33,17.531 0.18,7.5 -3.1093,16.818 -3.1093,16.818 0,0 -15.71,-10.709 -17.42,-24.719 0.4441,-2.2022 3.9923,-10.055 10.936,-9.9375 z m 13.463,49.518 c 1.43,0.05 2.7898,0.32945 4.0898,0.93945 0.66,0.26 1.2399,0.70008 1.8399,1.0801 0.53,0.48 1.1015,0.91094 1.5215,1.4609 0.93,1.05 1.5697,2.26 2.0097,3.5 0.87,2.47 0.9491,5.0785 0.2891,7.4785 -0.86,-2.31 -1.7185,-4.4402 -2.8985,-6.2402 -0.58,-0.89 -1.2016,-1.7094 -1.9316,-2.3594 -0.7,-0.69 -1.4896,-1.2001 -2.3496,-1.5801 l -0.6504,-0.27929 c -0.22,-0.1 -0.4692,-0.14094 -0.6992,-0.21094 -0.47,-0.19 -0.9304,-0.20859 -1.4004,-0.30859 -0.93,-0.08 -1.8603,-0.0408 -2.8203,0.19922 -1.92,0.48999 -3.8192,1.7792 -5.6192,3.4492 0.49,-2.44 2.0198,-4.7789 4.5098,-6.1289 1.23,-0.66 2.6794,-0.99 4.1094,-1 z m -49.228,0.01 c 1.43,0.01 2.8693,0.34 4.1093,1 2.49,1.34 4.0198,3.6789 4.5098,6.1289 -1.8,-1.66 -3.6991,-2.9592 -5.6191,-3.4492 -0.96,-0.25 -1.8903,-0.28922 -2.8203,-0.19922 -0.47,0.1 -0.9304,0.1286 -1.4004,0.3086 -0.23,0.08 -0.4793,0.11093 -0.6993,0.21093 l -0.6503,0.2793 c -0.86,0.38 -1.6497,0.89008 -2.3497,1.5801 -0.73,0.65 -1.3416,1.4713 -1.9316,2.3613 -1.17,1.8 -2.0384,3.9283 -2.8984,6.2383 -0.67,-2.4 -0.581,-5.0085 0.289,-7.4785 0.44,-1.23 1.0798,-2.45 2.0098,-3.5 0.42,-0.55 0.9895,-0.98094 1.5195,-1.4609 0.6,-0.38 1.1799,-0.82007 1.8399,-1.0801 1.3,-0.61 2.6618,-0.88946 4.0918,-0.93946 z m 49.498,10.359 c 0.5643,-0.0381 1.1874,0.15617 1.8418,0.66992 0.91,2.14 1.2496,5.301 -1.1504,6.541 -1.05,0.54 -1.981,0.46 -2.791,-0.5 -1.7144,-1.9988 -0.3458,-6.5458 2.0996,-6.7109 z m -49.768,0.006 c 2.4455,0.16009 3.814,4.708 2.0996,6.7148 -0.81,0.95 -1.741,1.04 -2.791,0.5 -2.4,-1.24 -2.0604,-4.401 -1.1504,-6.541 0.6544,-0.51563 1.2775,-0.71078 1.8418,-0.67383 z m -62.352,22.465 c 1.15,0.04 1.9995,0.4096 3.0195,1.0196 -0.79,0.9 -1.7589,1.351 -2.3789,1.791 -0.57,0.38 -0.7901,0.6483 -1.0801,0.9883 1.71,1.5 15.759,13.381 34.109,14.531 19.59,1.22 26.32,-4.9004 42.24,-4.9004 11.65,0 23.94,6.8706 35.24,2.6406 3.33,-1.24 5.4794,-3.4297 8.1894,-5.5097 0.6,9.84 -9.2105,18.119 -16.81,22.379 -3.44,1.92 -6.6997,4.11 -10.43,5.5 -3.25,1.2 -6.5597,0.9807 -9.9297,1.4707 -6.86,1 -13.609,1.2089 -20.529,0.6289 -4.24,-0.35 -8.5105,-0.29 -12.73,-0.75 -14.56,-1.59 -27.899,-8.71 -38.109,-19.25 -3.22,-3.32 -6.1107,-6.9985 -8.4708,-10.978 -0.4099,-0.68 -3.2696,-4.8299 -2.8496,-5.6699 -0.01,0.02 -0.031,0.038 -0.051,0.059 -0.38,0.4599 -0.7888,0.9803 -1.2188,1.5703 -0.44,0.61 -0.8812,1.3693 -1.5312,2.3593 -0.86,-0.81 -1.2598,-1.8888 -1.2598,-3.0488 0.02,-1.16 0.4407,-2.3102 1.2207,-3.2402 0.4,-0.47 0.9291,-0.9192 1.5391,-1.1992 0.61,-0.28 1.2603,-0.4007 1.8203,-0.3907 z m -262.05,32.982 c -9.4326,-0.1927 -17.03,7.098 -16.055,16.998 1.3,13.2 11.9,15.25 11.9,15.25 0,0 -0.38172,17.109 0.73828,21.199 1.12,4.09 12.461,5.3906 12.461,5.3906 l -1.3008,-15.81 c -7.81,-3.35 -14.139,-14.69 -12.639,-25.1 1.49,-10.41 14.689,-15.061 14.689,-15.061 -3.3025,-1.9075 -6.6507,-2.8029 -9.7949,-2.8671 z m 28.941,36.611 a 19.31,19.31 0 0 0 -0.0762,1.5351 19.31,19.31 0 0 0 0.0664,1.5176 l -1.7891,-1.6015 a 17.67,17.67 0 0 0 1.7988,-1.4512 z m 38.479,2.7949 c 1.8097,5.8318 8.0138,11.546 12.645,14.791 4.41,3.09 7.2606,6.6998 6.8906,12.26 -0.672,-0.6456 -1.4991,-1.2351 -2.4141,-1.7715 -7.5809,-6.1355 -19.115,-4.8379 -19.115,-4.8379 l -4.3125,-7.3945 a 19.31,19.31 0 0 0 6.3066,-13.047 z m 220.29,37.289 c 0.3229,-0.016 0.6125,-0.01 0.8691,0.022 7.81,0.8899 19.341,17.721 0.1113,83.641 -19.2297,65.92 -7.5497,116.35 -18.43,139.56 -10.87,23.21 -62.811,37.62 -50.381,-63.07 16.788,-136.02 57.818,-159.66 67.83,-160.15 z m 244.99,41.973 c -5.2062,0.095 -10.914,2.1503 -14.354,3.4903 0,0 -8.6007,-3.061 -11.471,2.289 0,0 17.779,3.6307 13.959,21.221 0,0 1.3415,1.9095 2.1015,3.4395 0,0 4.3991,-2.4896 12.039,-2.0996 0,0 -8.0293,1.5296 -11.279,5.3496 0,0 2.2898,2.6797 1.3398,5.9297 0,0 -1.9096,-4.5892 -5.9296,-6.1192 0,0 -6.5809,10.9 -17.631,8.9903 0,0 -2.2504,6.689 6.3496,12.039 8.6,5.35 13.962,-1.3402 15.682,-5.7402 0,0 -0.3808,11.09 -10.131,10.9 -9.7502,-0.19 -11.891,-6.6895 -11.891,-6.6895 0,0 -7.2196,2.289 -6.2696,10.709 0.96,8.41 7.5203,11.871 12.24,12.811 7.64,1.53 13.76,-5.9297 13.76,-5.9297 0,0 12.13,5.1594 17.67,0.1894 5.5401,-4.97 8.3111,-14.149 -1.6289,-17.779 0,0 10.24,-2.1015 9.8497,-11.852 -0.38,-9.75 -9.9415,-13.568 -9.9415,-13.568 0,0 9.7509,-6.3105 6.8809,-19.31 -1.435,-6.5 -6.1394,-8.3646 -11.346,-8.2696 z m 6.082,105.17 c -10.546,3.6802 -20.818,10.708 -29.857,22.721 -25.338,33.686 48.702,108.79 -105.02,123.2 -4.0882,0.3833 -8.2268,0.7016 -12.393,0.9532 0.4926,-4.9611 0.996,-10.119 1.5254,-15.926 52.361,-1.0968 99.459,-24.177 101.83,-71.703 2.5589,-51.389 43.92,-59.248 43.92,-59.248 z m -175.08,100.93 c 0.3176,-0.01 0.5481,0.015 0.6855,0.061 0.8896,0.2971 1.3868,3.5096 1.6329,8.3164 -1.7084,-0.2421 -3.3787,-0.5123 -4.9707,-0.8203 -5.3081,-1.0296 -10.047,-2.7507 -14.936,-4.2696 8.7916,-1.9593 15.352,-3.2461 17.588,-3.2871 z m -43.455,9.3867 c 3.0151,2.8658 7.8186,5.5692 10.551,7.1778 9.9748,5.8713 22.124,9.8628 35.246,11.894 -0.1576,5.9685 -0.412,12.109 -0.6914,17.977 -18.607,-0.4982 -36.957,-2.9851 -53.293,-8.7168 -9.8409,-3.4502 -18.605,-8.0055 -25.852,-13.385 -0.4627,-0.3435 -1.2893,-1.1833 -2.2461,-2.1816 4.548,-2.5498 7.4721,-4.5719 7.7558,-5.2324 0.072,-0.1694 0.1408,-0.3541 0.211,-0.5313 8.9631,-2.2568 18.755,-4.6773 28.318,-7.002 z m -249.65,59.318 c -1.4309,0.01 -3.1068,0.5428 -5.0293,1.9453 0,0 5.8106,3.9389 6.6406,9.5489 0,0 3.5295,-2.4897 4.7695,-6.8497 0.008,0 -2.088,-4.674 -6.3809,-4.6445 z"
         id="path85"
         inkscape:connector-curvature="0"
         style="fill:#183f3f;fill-opacity:1;stroke-width:0.94191998" />
    </g>
  </g>
</svg>
