<?xml version="1.0" encoding="UTF-8" standalone="no"?>
<svg
   xmlns:dc="http://purl.org/dc/elements/1.1/"
   xmlns:cc="http://creativecommons.org/ns#"
   xmlns:rdf="http://www.w3.org/1999/02/22-rdf-syntax-ns#"
   xmlns:svg="http://www.w3.org/2000/svg"
   xmlns="http://www.w3.org/2000/svg"
   xmlns:sodipodi="http://sodipodi.sourceforge.net/DTD/sodipodi-0.dtd"
   xmlns:inkscape="http://www.inkscape.org/namespaces/inkscape"
   width="110mm"
   height="110mm"
   version="1.1"
   viewBox="0 0 110 110"
   id="svg3379"
   sodipodi:docname="NonDNA.svg"
   inkscape:version="0.92.3 (2405546, 2018-03-11)">
  <defs
     id="defs3383" />
  <sodipodi:namedview
     pagecolor="#ffffff"
     bordercolor="#666666"
     borderopacity="1"
     objecttolerance="10"
     gridtolerance="10"
     guidetolerance="10"
     inkscape:pageopacity="0"
     inkscape:pageshadow="2"
     inkscape:window-width="1853"
     inkscape:window-height="1025"
     id="namedview3381"
     showgrid="false"
     inkscape:zoom="0.8426935"
     inkscape:cx="271.22258"
     inkscape:cy="152.67725"
     inkscape:window-x="67"
     inkscape:window-y="27"
     inkscape:window-maximized="1"
     inkscape:current-layer="svg3379" />
  <metadata
     id="metadata3347">
    <rdf:RDF>
      <cc:Work
         rdf:about="">
        <dc:format>image/svg+xml</dc:format>
        <dc:type
           rdf:resource="http://purl.org/dc/dcmitype/StillImage" />
        <dc:title></dc:title>
      </cc:Work>
    </rdf:RDF>
  </metadata>
  <g
     id="Head-1-3-3"
     style="fill:#a73fe9;fill-opacity:1"
     transform="matrix(-0.08704251,-0.01001219,-0.01001219,0.08704251,166.3863,-1.2687789)" />
  <g
     transform="matrix(0.08088244,0,0,0.08088244,53.762567,42.163071)"
     id="Head-3" />
  <g
     transform="matrix(0.14049929,0,0,0.14049929,61.203417,12.58134)"
     id="Head"
     style="fill:#183f3f;fill-opacity:0.97647059" />
  <g
     inkscape:groupmode="layer"
     id="layer1"
     inkscape:label="Layer 1"
     transform="translate(0,5.2099991)" />
  <g
     inkscape:groupmode="layer"
     id="layer2"
     inkscape:label="Layer 2"
     transform="translate(0,5.2099991)" />
  <g
     id="g5141"
     transform="matrix(1.0397523,0,0,1.051268,0.71056016,-6.2743345)">
    <path
       inkscape:connector-curvature="0"
       id="path3009"
       d="m 58.157852,13.192988 a 9.8205305,9.8205305 0 0 0 -8.485201,10.994967 9.8205305,9.8205305 0 0 0 3.297914,6.141197 l -2.450899,3.44198 A 14.765609,14.765609 0 0 0 42.780369,32.664299 14.765609,14.765609 0 0 0 31.25665,41.149092 L 21.761815,40.489878 A 10.840944,10.840944 0 0 0 21.875525,37.061402 10.840944,10.840944 0 0 0 9.7379653,27.694886 10.840944,10.840944 0 0 0 0.37138606,39.831932 10.840944,10.840944 0 0 0 10.371182,49.25139 C 10.122859,47.417722 9.0161736,45.149304 7.0561001,44.351948 5.0812739,43.548593 3.9542472,41.742119 3.9594576,40.521144 c 0.00521,-1.220975 0.757064,-3.59525 0.757064,-3.59525 C 4.827862,37.155801 5.0084673,37.29521 5.0084673,37.29521 4.2784427,34.786139 5.1046083,33.621982 6.2039859,33.317824 7.3033718,33.013665 8.0072232,34.0614 8.0072202,34.0614 7.8546875,33.511768 7.1227491,32.874327 7.1227491,32.874327 c 0,0 0.9086051,-0.523991 2.8288352,-0.771387 1.9202287,-0.247397 2.9319767,0.02918 2.9319767,0.02918 0,0 -0.547903,0.802332 -0.555217,1.372558 0,0 0.415813,-1.191988 1.556388,-1.176419 1.140576,0.01557 2.234838,0.932304 2.164613,3.544476 0,0 0.138848,-0.180567 0.188292,-0.431188 0,0 1.329733,2.10704 1.64413,3.285887 0.314518,1.179782 -0.318337,3.212994 -2.025049,4.490668 -1.706709,1.277674 -2.197237,3.781036 -1.960079,5.621801 0.0034,0.02609 0.0023,0.04803 0.0047,0.07338 a 10.840944,10.840944 0 0 0 6.28348,-4.522966 l 9.892721,0.686108 a 14.765609,14.765609 0 0 0 -0.05495,4.119092 14.765609,14.765609 0 0 0 3.139121,7.339196 l -5.698409,7.135088 a 9.8205305,9.8205305 0 0 0 -5.57971,-0.929684 9.8205305,9.8205305 0 0 0 -8.485267,10.994457 9.8205305,9.8205305 0 0 0 7.471278,8.295701 c -0.301672,-1.259465 -0.892524,-2.303058 -2.440102,-2.932717 -2.423512,-0.986053 -3.807581,-3.203991 -3.800902,-4.702945 0.0067,-1.498951 0.929411,-4.413075 0.929411,-4.413075 0.135801,0.281796 0.357962,0.453035 0.357962,0.453035 -0.895981,-3.080546 0.132726,-4.461566 1.468038,-4.883147 2.76301,-0.873013 3.956128,1.693763 3.956128,1.693763 0,0 -0.234193,-1.397891 -0.952291,-1.952073 0,0 2.424157,-0.420027 3.969607,-0.134723 1.545449,0.285301 2.579661,2.038353 2.579661,2.038353 0,0 -0.156424,-1.003296 -0.845447,-1.749606 0,0 2.144876,0.270197 2.020372,3.164988 0,0 0.393043,0.319281 0.644299,1.288357 0.251256,0.969074 -0.0084,1.597012 -0.0084,1.597012 0.514328,0.656278 1.926629,1.591059 2.161355,2.273568 0.257846,0.748041 -0.561527,5.055568 -1.662209,5.709516 -1.101485,0.654052 -3.705961,1.554729 -6.688476,0.780961 0,0 1.140032,0.903988 2.727485,0.888665 -0.0925,0.309886 -0.167719,0.628342 -0.227225,0.949944 a 9.8205305,9.8205305 0 0 0 7.819638,-10.875346 9.8205305,9.8205305 0 0 0 -2.256769,-5.100922 l 5.449334,-6.824239 a 14.765609,14.765609 0 0 0 9.572469,2.733874 c -0.838168,-1.655155 -2.021251,-2.911666 -4.39131,-3.296151 -3.771927,-0.611905 -6.46834,-3.319863 -6.947453,-5.455292 -0.479113,-2.135427 -0.116218,-6.58811 -0.116218,-6.58811 0.285409,0.357045 0.657391,0.528563 0.657389,0.528563 -2.281115,-4.093336 -1.267286,-6.393871 0.497279,-7.431511 3.649114,-2.144568 6.184804,1.1211 6.184804,1.1211 0,0 -0.788839,-1.914186 -1.992168,-2.468871 0,0 3.315525,-1.388805 5.609238,-1.485995 2.293712,-0.09719 4.338377,2.060302 4.338377,2.060302 0,0 -0.550428,-1.378431 -1.774697,-2.216573 0,0 3.142611,-0.315765 3.908564,3.848121 0,0 0.664062,0.326951 1.33833,1.624104 0.674085,1.29576 0.508029,2.272955 0.508029,2.272955 0.945862,0.766349 3.262434,1.636747 3.819819,2.532476 0.541715,0.869892 0.790225,6.000407 -0.104265,8.051449 a 14.765609,14.765609 0 0 0 2.132325,-9.708071 14.765609,14.765609 0 0 0 -5.354327,-9.581859 l 2.524603,-3.545262 a 9.8205305,9.8205305 0 0 0 4.026412,0.395146 c -0.250038,-1.069796 -0.847359,-2.120341 -0.847359,-2.120341 1.414373,-0.313666 2.240349,-1.351552 2.240349,-1.351552 -2.490963,1.302704 -4.990875,1.039629 -6.10414,0.685885 -1.113265,-0.35375 -2.729793,-4.013003 -2.654567,-4.730796 0.06819,-0.655484 1.130747,-1.777329 1.451718,-2.466044 0,0 -0.360179,-0.501533 -0.337558,-1.414889 0.02262,-0.913355 0.306813,-1.278552 0.306813,-1.278552 -0.708487,-2.546366 1.141941,-3.228528 1.141941,-3.228528 -0.458718,0.804503 -0.390553,1.728573 -0.390553,1.728573 0,0 0.556915,-1.770408 1.871378,-2.34296 1.314465,-0.572552 3.555074,-0.699265 3.555074,-0.699265 -0.524051,0.639782 -0.44325,1.930231 -0.44325,1.930231 0,0 0.529703,-2.527484 3.16475,-2.321501 1.273657,0.09921 2.472607,1.113257 2.311709,4.035098 0,0 0.161921,-0.197377 0.224724,-0.476001 0,0 1.421545,2.399113 1.736693,3.729347 0.315151,1.330232 -0.456947,3.586496 -2.407145,4.962455 -1.667273,1.17634 -1.658238,2.658433 -1.491248,4.355202 A 9.8205305,9.8205305 0 0 0 69.152818,21.678189 9.8205305,9.8205305 0 0 0 58.157852,13.192988 Z m 4.067688,5.317782 c -0.07862,0.01527 -0.16001,0.03928 -0.24445,0.07214 -1.854826,0.721857 -1.270869,3.339967 -1.270869,3.339967 3.137582,1.397849 3.316678,-1.082874 3.317554,-1.082886 -0.09022,-0.895007 -0.622784,-2.558031 -1.802235,-2.329216 z m -7.14906,1.549432 c -0.03601,0.0071 -0.07294,0.01686 -0.11071,0.03042 -0.366224,0.132039 -0.474472,1.16939 -0.408169,1.341108 0.04343,0.551444 0.353006,1.211258 0.353006,1.211258 0,0 1.074193,-0.901042 1.095074,-1.942306 -0.04988,-0.164439 -0.389104,-0.746914 -0.929201,-0.640476 z m -0.570369,3.725944 c -0.104955,0.01453 -0.202676,0.04455 -0.29306,0.09924 -0.04611,0.02429 -0.085,0.0608 -0.126627,0.09291 -0.03539,0.03903 -0.07445,0.07444 -0.101019,0.117742 -0.06019,0.08406 -0.09802,0.1779 -0.121271,0.271974 -0.04563,0.188139 -0.03274,0.379903 0.03355,0.551623 0.0458,-0.175873 0.09346,-0.338815 0.166894,-0.480014 0.03673,-0.06973 0.07563,-0.134261 0.124858,-0.187506 0.04656,-0.05584 0.100957,-0.09969 0.160955,-0.133802 l 0.04522,-0.0251 c 0.01565,-0.009 0.03343,-0.01328 0.04998,-0.0205 0.03307,-0.0171 0.06678,-0.02222 0.09993,-0.03319 0.06816,-0.01322 0.136672,-0.01733 0.208679,-0.006 0.144875,0.02168 0.294074,0.102533 0.43839,0.211853 -0.05321,-0.175402 -0.183309,-0.335565 -0.377181,-0.416169 -0.09517,-0.03901 -0.204281,-0.05232 -0.309303,-0.043 z m 3.616082,-0.363241 c -0.104994,0.01111 -0.209061,0.04693 -0.295031,0.104183 -0.172778,0.117138 -0.267566,0.300512 -0.284373,0.482123 0.119952,-0.135698 0.249356,-0.245214 0.387121,-0.295283 0.06888,-0.02547 0.136218,-0.03438 0.205425,-0.03534 0.03424,0.004 0.06909,0.0026 0.104271,0.01262 0.01757,0.0033 0.03612,0.0039 0.05285,0.0099 l 0.04897,0.01609 c 0.06601,0.02101 0.127896,0.05335 0.184586,0.09814 0.0584,0.04214 0.109202,0.09772 0.159113,0.159257 0.09983,0.123945 0.178787,0.273484 0.259,0.437127 0.03083,-0.180926 0.0055,-0.371581 -0.07667,-0.546588 -0.04149,-0.08706 -0.09663,-0.17159 -0.172953,-0.242403 -0.03468,-0.0372 -0.07973,-0.06427 -0.122208,-0.09524 -0.04675,-0.02302 -0.09272,-0.05127 -0.142865,-0.06548 -0.0995,-0.03545 -0.201304,-0.04579 -0.307236,-0.03909 z m -3.600159,1.133886 c -0.02872,0.0092 -0.05815,0.02714 -0.08767,0.05558 -0.05123,0.163679 -0.0524,0.398287 0.132598,0.471127 0.08192,0.03218 0.149211,0.01935 0.201629,-0.05672 0.118802,-0.171829 -0.04547,-0.534473 -0.246563,-0.469991 z m 3.739038,-0.375436 c -0.210055,-0.02269 -0.29954,0.364469 -0.148067,0.50885 0.06659,0.06393 0.135997,0.06376 0.208954,0.01632 0.166765,-0.108297 0.118765,-0.337706 0.03611,-0.488172 -0.03458,-0.02187 -0.06698,-0.03376 -0.09699,-0.037 z m 4.698975,1.191129 c -0.08397,0.01078 -0.143909,0.04423 -0.214167,0.09689 0.06391,0.06047 0.137701,0.0866 0.187143,0.113963 0.04413,0.02306 0.063,0.04102 0.08696,0.06434 -0.114864,0.123362 -1.05878,1.098358 -2.397322,1.318109 -1.428598,0.234127 -1.968396,-0.165691 -3.136585,-0.04815 -0.854918,0.08612 -1.706631,0.680385 -2.567558,0.453762 -0.253265,-0.06665 -0.426767,-0.211705 -0.641504,-0.3446 0.02917,0.726886 0.8103,1.262326 1.398247,1.51895 0.267076,0.115535 0.521941,0.252937 0.805977,0.327057 0.246221,0.06412 0.488343,0.02303 0.739105,0.03451 0.511176,0.02372 1.008664,-0.01108 1.512106,-0.104676 0.308531,-0.05765 0.623237,-0.08473 0.929038,-0.149398 1.057211,-0.223806 1.983894,-0.845146 2.655817,-1.693733 0.211916,-0.267511 0.397029,-0.559437 0.540902,-0.868957 0.02469,-0.05291 0.205367,-0.377806 0.167761,-0.436879 l 0.0047,0.0046 c 0.03109,0.03112 0.06564,0.06645 0.10123,0.106275 0.03737,0.04156 0.07452,0.0944 0.129765,0.161997 0.05694,-0.06561 0.0787,-0.147371 0.07052,-0.233131 -0.0099,-0.08486 -0.04854,-0.166511 -0.113355,-0.22872 -0.03284,-0.0311 -0.07522,-0.0605 -0.121882,-0.07652 -0.04755,-0.01688 -0.09585,-0.02064 -0.13697,-0.0157 z M 6.5034618,35.561376 c -0.7606931,0.174593 -0.8506477,1.372565 -0.7690288,2.00607 0,0 0.5576967,1.798727 2.6327662,0.230293 0,0 -0.01745,-2.031515 -1.5096372,-2.246033 -0.067907,-0.0098 -0.1320466,-0.01334 -0.192656,-0.01113 -0.05682,0.0021 -0.1107368,0.0091 -0.1614442,0.0208 z m 7.4998212,-0.966255 c -0.0592,0.01317 -0.120839,0.03305 -0.184056,0.05967 -1.389082,0.585732 -0.891041,2.555329 -0.891041,2.555329 2.405781,0.991134 2.488415,-0.890091 2.488415,-0.890091 -0.08695,-0.674863 -0.525375,-1.922503 -1.413318,-1.724903 z m -5.0338404,4.116037 c -0.093,0.01581 -0.1796537,0.04533 -0.2595487,0.09649 -0.04084,0.02237 -0.07524,0.05585 -0.11044,0.08509 -0.03062,0.03531 -0.06422,0.06813 -0.08663,0.108076 -0.05198,0.07608 -0.084,0.161992 -0.1016887,0.246004 -0.03619,0.169081 -0.01963,0.339932 0.04455,0.491329 0.03658,-0.158677 0.07552,-0.305246 0.137005,-0.432917 0.03087,-0.0629 0.06395,-0.122303 0.106206,-0.170515 0.04002,-0.05078 0.08707,-0.09081 0.139909,-0.123274 l 0.04061,-0.02451 c 0.01318,-0.0084 0.0301,-0.01225 0.04435,-0.01978 0.02837,-0.01601 0.05922,-0.02088 0.0891,-0.03232 0.06005,-0.01338 0.120915,-0.01911 0.185582,-0.01141 0.12937,0.01565 0.264706,0.08438 0.3964701,0.177654 -0.05471,-0.151666 -0.1752641,-0.290934 -0.3484401,-0.35891 -0.08594,-0.03265 -0.18353,-0.04305 -0.277018,-0.03101 z m 3.6100024,-0.462985 c -0.09337,0.01295 -0.185258,0.04686 -0.26011,0.100209 -0.150413,0.108721 -0.231509,0.273625 -0.242819,0.43665 0.100777,-0.12513 0.213979,-0.226074 0.335154,-0.274 0.0606,-0.02396 0.12081,-0.03472 0.182413,-0.036 0.03169,0.0026 0.06205,0.0011 0.09445,0.0092 0.01555,0.0027 0.03209,0.0032 0.04791,0.0079 l 0.04491,0.01297 c 0.05935,0.01801 0.11651,0.04513 0.167164,0.08423 0.05311,0.03592 0.100042,0.08406 0.145959,0.138027 0.09183,0.107917 0.166658,0.23983 0.242263,0.384052 0.0237,-0.162719 -0.0045,-0.332065 -0.08144,-0.486575 -0.03842,-0.07678 -0.09117,-0.151777 -0.160724,-0.212195 -0.0318,-0.03297 -0.07357,-0.05607 -0.111205,-0.08259 -0.0424,-0.01925 -0.0838,-0.04349 -0.128978,-0.05477 -0.09014,-0.0283 -0.180979,-0.03541 -0.274952,-0.0271 z m -3.5781064,1.151365 c -0.0255,0.0088 -0.05154,0.02511 -0.0773,0.05112 -0.04083,0.147819 -0.0365,0.357511 0.1309237,0.417675 0.07376,0.02661 0.133018,0.0132 0.178234,-0.05631 0.102121,-0.156192 -0.05339,-0.474631 -0.231858,-0.412487 z m 3.7199274,-0.479264 c -0.187927,-0.01494 -0.25811,0.33258 -0.119735,0.457785 0.06136,0.05578 0.121571,0.0538 0.186174,0.0094 0.146702,-0.100631 0.09775,-0.304578 0.02078,-0.437221 -0.03139,-0.01865 -0.06038,-0.02779 -0.08722,-0.02992 z m -6.6828613,1.944753 c -0.037518,0.0039 -0.078331,0.01715 -0.1161171,0.04101 -0.037799,0.02388 -0.068665,0.05719 -0.090864,0.09142 -0.043597,0.06738 -0.06105,0.145642 -0.052106,0.222421 0.00976,0.07572 0.045725,0.14314 0.1077549,0.189321 0.034694,-0.07005 0.056146,-0.124149 0.080067,-0.167147 0.023119,-0.04195 0.045871,-0.0797 0.067258,-0.112872 8.482e-4,-0.002 0.00167,-0.0034 0.00354,-0.0046 0.1145548,0.210484 1.439923,2.482708 5.3327365,1.981169 3.892814,-0.501539 4.599481,-3.035564 4.656947,-3.26821 0.0013,0.0017 0.0025,0.0029 0.0046,0.0035 0.02909,0.02667 0.06057,0.05649 0.09367,0.09214 0.03404,0.03553 0.06849,0.08243 0.119818,0.141395 0.04923,-0.06052 0.06613,-0.133791 0.05625,-0.210451 -0.01265,-0.0763 -0.04908,-0.147609 -0.108318,-0.201753 l -5.14e-4,6.6e-5 c -0.03016,-0.02748 -0.06846,-0.0519 -0.111069,-0.0654 -0.04261,-0.01352 -0.08544,-0.01599 -0.122722,-0.01024 -0.07443,0.01241 -0.128477,0.04341 -0.188737,0.09205 0.05888,0.05134 0.125606,0.07411 0.170349,0.09685 0.04065,0.02042 0.05653,0.03555 0.07905,0.05546 -0.0986,0.112491 -0.917239,1.007622 -2.106113,1.236824 -1.269487,0.245287 -1.761162,-0.09822 -2.80168,0.03583 -1.040518,0.134058 -1.4286507,0.590923 -2.7197848,0.675536 -1.2090818,0.07974 -2.2269308,-0.578778 -2.3508311,-0.662606 0.016757,-0.02497 0.028166,-0.04456 0.062416,-0.07369 0.037526,-0.03335 0.096289,-0.07228 0.140239,-0.136864 -0.07155,-0.03165 -0.130875,-0.04897 -0.2059074,-0.04121 z m 45.2182193,0.195306 c -0.02817,0.04249 -0.06355,0.09102 -0.106947,0.160712 -0.257057,0.412768 -0.147468,0.953757 -0.309912,1.408167 -0.07297,0.203536 -0.227003,0.451247 -0.430855,0.57863 0.934513,1.062506 2.554822,1.469458 2.554822,1.469458 0,0 -0.01739,-1.167899 -0.343067,-1.991486 -0.02284,-0.267711 -0.763251,-1.472367 -1.364038,-1.625481 z m -12.833492,3.745908 c -0.49994,1.069386 -0.199984,2.720415 0.151545,3.671492 -0.0016,-0.0012 1.996463,3.444242 5.534768,-0.769878 0,0 -0.187797,-0.784682 -0.657851,-1.652378 -0.817459,0.02254 -2.252742,-0.539586 -2.506592,-0.630032 -0.785261,-0.279905 -1.663588,-0.488097 -2.521869,-0.619206 z m 16.162758,1.174631 c -0.0818,0.01107 -0.16256,0.03072 -0.242712,0.05732 -0.15801,0.06002 -0.304611,0.155401 -0.414611,0.280069 -0.218281,0.251945 -0.293104,0.573263 -0.247235,0.863425 0.131125,-0.257716 0.288328,-0.479324 0.482132,-0.613372 0.0963,-0.06624 0.196984,-0.108651 0.303883,-0.13658 0.05556,-0.0086 0.108673,-0.02408 0.16688,-0.02311 0.02823,-8.14e-4 0.05721,-0.0073 0.08581,-0.0053 l 0.08296,0.0049 c 0.10999,0.0071 0.219558,0.03116 0.324822,0.07851 0.10733,0.04142 0.208892,0.107739 0.310598,0.182464 0.203594,0.150846 0.387198,0.35217 0.577115,0.572772 -0.02499,-0.292851 -0.141286,-0.578162 -0.339276,-0.817559 -0.09892,-0.119001 -0.219055,-0.228189 -0.365036,-0.305712 -0.06796,-0.04366 -0.150828,-0.06818 -0.228496,-0.09926 -0.08163,-0.01782 -0.16369,-0.04275 -0.247521,-0.04471 -0.08454,-0.0075 -0.167516,-0.005 -0.249315,0.0061 z m 0.280004,1.17846 c -0.334901,0.0489 -0.318047,0.685813 -0.02557,0.848935 0.128362,0.0727 0.23521,0.04473 0.329624,-0.0581 0.216255,-0.234686 0.04828,-0.571391 -0.139119,-0.772487 -0.06244,-0.02011 -0.117083,-0.02533 -0.164926,-0.01835 z m -5.731174,0.834777 c -0.08372,0.0099 -0.166863,0.02967 -0.246746,0.05837 -0.157471,0.0642 -0.296574,0.151694 -0.415669,0.271868 -0.06235,0.05477 -0.107994,0.127545 -0.158801,0.195005 -0.03858,0.07439 -0.08483,0.145307 -0.108763,0.22347 -0.06075,0.155153 -0.08113,0.315222 -0.0795,0.470836 0.0045,0.309661 0.101416,0.601765 0.272581,0.841785 6.35e-4,-0.291902 0.0095,-0.563697 0.067,-0.810506 0.02811,-0.122617 0.06269,-0.239331 0.117546,-0.341313 0.04893,-0.104044 0.117159,-0.193545 0.19633,-0.271742 l 0.06036,-0.05727 c 0.02014,-0.0196 0.04656,-0.03404 0.06845,-0.05103 0.04446,-0.03973 0.09436,-0.06191 0.14304,-0.09085 0.100025,-0.0483 0.204307,-0.08178 0.320325,-0.09389 0.233426,-0.02443 0.49751,0.04255 0.765256,0.152544 -0.155524,-0.250533 -0.420507,-0.447577 -0.751103,-0.495646 -0.08221,-0.01137 -0.166586,-0.01152 -0.250306,-0.0016 z m 0.212629,1.209542 c -0.08732,0.0014 -0.172476,0.04821 -0.24098,0.159745 -0.01273,0.275045 0.07803,0.638503 0.394638,0.677042 0.138084,0.01621 0.238621,-0.03045 0.288632,-0.17005 0.100276,-0.26897 -0.180341,-0.670936 -0.44229,-0.666737 z m 7.710523,0.632753 c -0.0159,0.261288 -0.03314,0.524029 -0.08505,0.714876 -0.08681,0.315756 -0.273159,0.428783 -0.72716,0.0056 -0.605744,0.235287 -0.330665,1.108053 -0.968031,1.229835 -0.482553,0.09192 -0.962482,-0.128124 -1.422434,-0.234609 -0.458557,-0.106663 -0.841387,-0.06312 -1.290903,0.05429 -0.954061,0.24758 -1.970246,0.780752 -2.620903,1.536051 -0.484261,0.562452 -0.609941,1.424633 -1.152045,1.944955 -0.407185,0.39103 -0.931069,0.339404 -1.402405,0.07856 -0.673907,-0.370739 -0.905574,-1.31395 -1.570194,-1.579642 -0.846832,-0.338542 -0.824986,0.700847 -1.333253,1.043987 -0.697398,0.4695 -1.625068,0.0975 -2.320209,-0.174171 0.161628,0.528819 1.016921,0.834003 1.532174,0.863947 0.995984,0.05584 1.582916,-1.558243 2.603781,-0.451652 0.182684,0.197453 0.381445,0.419845 0.546055,0.63096 0.394381,0.510167 0.850891,0.734618 1.539243,0.546769 1.72,-0.47092 1.733363,-2.413459 3.148182,-3.262962 0.39313,-0.236223 0.852172,-0.387617 1.302357,-0.466865 0.951575,-0.16793 2.809659,0.796651 3.297707,-0.517093 0.1418,-0.383755 0.25038,-0.794173 0.645043,-0.347792 0.55767,-0.135601 0.322707,-1.235518 0.278043,-1.615081 z m -0.327267,5.960607 c -1.38529,1.294649 -4.769948,3.377211 -9.219901,3.250122 0,0 1.918725,0.914453 4.17382,0.374593 0,0 -0.0195,0.35379 -0.01672,0.869156 a 14.765609,14.765609 0 0 0 5.062797,-4.493871 z m -37.40633,13.14234 c -1.101246,0.253071 -1.231938,1.988102 -1.113941,2.903964 8.02e-4,-1.03e-4 0.807053,2.604127 3.811581,0.333205 0,0 -0.02565,-2.940518 -2.185174,-3.251087 -0.0983,-0.01414 -0.191522,-0.01935 -0.279267,-0.01613 -0.08226,0.003 -0.159791,0.01312 -0.233199,0.03004 z m 8.134636,-0.135706 c -0.51552,0.09918 -0.705589,0.726675 -0.718008,0.901673 0.281972,1.106201 1.652632,1.802966 1.652632,1.802966 0,0 0.167692,-0.78186 0.07574,-1.381645 0.02814,-0.199346 -0.344244,-1.280464 -0.768996,-1.330124 -0.08736,-0.01025 -0.167717,-0.007 -0.241365,0.0071 z m 1.648411,3.824606 c -0.114612,0.01558 -0.227408,0.05675 -0.319255,0.122418 -0.185794,0.134031 -0.284365,0.337844 -0.298454,0.538646 0.127133,-0.152571 0.265898,-0.275658 0.414855,-0.334809 0.07453,-0.02917 0.149059,-0.04188 0.22449,-0.04508 0.03874,0.0032 0.07575,-2.81e-4 0.115412,0.01014 0.01918,0.0033 0.03936,0.004 0.05805,0.0097 l 0.05518,0.01582 c 0.07292,0.0216 0.141635,0.05418 0.204921,0.102293 0.06527,0.04461 0.123427,0.103782 0.179149,0.169183 0.113261,0.132198 0.204338,0.294343 0.297202,0.470761 0.02814,-0.199347 -0.0056,-0.407984 -0.1009,-0.597133 -0.04811,-0.09492 -0.111594,-0.185001 -0.197053,-0.259619 -0.03938,-0.03978 -0.08963,-0.06863 -0.137102,-0.101652 -0.05206,-0.02429 -0.10314,-0.05356 -0.158768,-0.0676 -0.110591,-0.0355 -0.222498,-0.04385 -0.337724,-0.03308 z m -3.948964,0.509293 c -0.114203,0.01875 -0.220779,0.05581 -0.31876,0.11818 -0.05025,0.02768 -0.09224,0.06895 -0.136449,0.105632 -0.03756,0.04398 -0.07892,0.08411 -0.106926,0.132572 -0.06375,0.09384 -0.102162,0.198382 -0.124746,0.3016 -0.04427,0.207133 -0.0248,0.417605 0.05375,0.603209 0.04511,-0.194196 0.09292,-0.374233 0.168173,-0.530721 0.03813,-0.07749 0.07858,-0.149378 0.13042,-0.209064 0.04903,-0.06259 0.107172,-0.112043 0.172234,-0.151405 l 0.04937,-0.02929 c 0.01661,-0.01031 0.03664,-0.01487 0.05426,-0.02367 0.03585,-0.0193 0.07234,-0.02669 0.109008,-0.03957 0.07367,-0.01685 0.148478,-0.02336 0.228072,-0.01323 0.159086,0.01946 0.325133,0.104096 0.486683,0.218657 -0.06463,-0.191474 -0.211575,-0.363135 -0.425169,-0.444896 -0.106295,-0.04013 -0.225107,-0.05198 -0.339923,-0.03801 z m 4.077661,0.319766 c -0.194467,0.03852 -0.257472,0.41726 -0.09929,0.559879 0.0749,0.06864 0.150474,0.06529 0.229124,0.01112 0.179713,-0.124278 0.11982,-0.373939 0.02471,-0.536203 -0.05781,-0.03445 -0.109666,-0.04369 -0.154541,-0.0348 z m -3.99253,0.514906 c -0.04565,0.0029 -0.09351,0.02471 -0.140676,0.07283 -0.05088,0.181073 -0.04547,0.438276 0.159875,0.512942 0.08981,0.03247 0.163666,0.01575 0.218825,-0.06884 0.116784,-0.17871 -0.04019,-0.529376 -0.238023,-0.516944 z M 20.4739,76.418678 c -0.04502,0.005 -0.09549,0.02128 -0.141532,0.05002 -0.04604,0.02877 -0.08388,0.07044 -0.111107,0.112267 -0.05296,0.08267 -0.07479,0.179201 -0.06441,0.272462 0.01199,0.09305 0.0551,0.17538 0.132464,0.231468 0.04191,-0.08613 0.06914,-0.151421 0.09813,-0.204904 0.0284,-0.05177 0.05592,-0.09787 0.08165,-0.138694 0.0014,-0.0018 0.0029,-0.0034 0.0035,-0.0052 -0.02501,0.07172 0.247241,0.374851 0.28716,0.425164 0.230451,0.29488 0.500499,0.560426 0.793121,0.793476 0.927973,0.73999 2.071759,1.173293 3.256185,1.150361 0.34328,-0.0067 0.684935,-0.05583 1.028684,-0.07157 0.561111,-0.02499 1.100243,-0.111786 1.640214,-0.262903 0.265276,-0.07413 0.533482,-0.09071 0.781794,-0.220562 0.284852,-0.150056 0.523547,-0.358966 0.779659,-0.54854 0.565639,-0.420282 1.266979,-1.185959 1.117148,-1.969116 -0.195896,0.194865 -0.345827,0.392565 -0.600142,0.526452 -0.86276,0.456116 -1.919308,0.03209 -2.853862,0.152496 -1.277095,0.164537 -1.754083,0.725117 -3.338191,0.829718 -1.48391,0.09739 -2.733353,-0.710352 -2.886033,-0.813008 0.01975,-0.03027 0.03458,-0.05422 0.07638,-0.0906 0.04519,-0.04171 0.1181,-0.08771 0.172171,-0.168073 -0.08813,-0.03839 -0.160324,-0.05945 -0.252988,-0.05077 z"
       style="opacity:1;fill:#183f3f;fill-opacity:0.98617512;stroke:none;stroke-width:0.30168387;stroke-linecap:round;stroke-linejoin:round;stroke-miterlimit:4;stroke-dasharray:none;stroke-opacity:1" />
    <path
       sodipodi:nodetypes="cccccccsscccccccccccccccsscccsccccccccccccccccccccccccccccccccccccccccccccccccccccccccccccccccccccccccc"
       inkscape:connector-curvature="0"
       id="path3173"
       d="m 87.554475,21.162242 -2.396241,-1.921185 c -5.472207,6.82354 -5.036027,14.51982 -3.805418,21.377059 -2.765966,-0.361927 -6.081876,0.06353 -8.965294,0.532025 -3.304316,0.552959 -6.392914,1.812921 -8.478035,4.595788 -2.052351,2.739138 -2.478818,6.015309 -2.188671,9.289705 0.226985,2.561641 0.868795,5.183257 1.561018,7.798888 -2.873705,-0.08578 -5.786231,-0.06087 -8.56315,0.477669 -3.39058,0.65755 -6.625222,2.14655 -9.017693,5.129824 -2.395018,2.986453 -3.026458,6.386726 -2.822704,9.725171 0.169313,2.774062 0.85619,5.560607 1.538098,8.365887 -1.624166,0.02915 -3.286458,0.124124 -4.957868,0.364242 l -0.08823,-0.0707 -0.07645,0.09533 c -5.067325,0.756411 -10.188051,2.842794 -14.429974,8.326612 l 2.429755,1.879394 c 1.325043,-1.71299 2.712375,-3.03743 4.149401,-4.06616 L 44.719253,103.7088 c -0.691664,1.62582 -1.685154,3.26738 -3.069184,4.9325 l 2.360997,1.9626 c 4.434013,-5.33451 5.357577,-10.788529 4.994275,-15.90134 l 0.07272,-0.0907 -0.08387,-0.0673 c -0.12843,-1.683014 -0.395304,-3.327055 -0.718908,-4.918328 2.885778,0.05635 5.75427,0.121518 8.498266,-0.315589 3.30301,-0.526156 6.484987,-1.880997 8.880006,-4.867451 2.392469,-2.983275 3.143426,-6.464092 3.048917,-9.91655 -0.07741,-2.827731 -0.685334,-5.676229 -1.393235,-8.46281 2.703071,0.107375 5.400551,0.164069 7.950275,-0.170693 3.259238,-0.427899 6.36585,-1.55473 8.593874,-4.152982 2.2636,-2.639737 2.821461,-5.929249 2.643587,-9.274788 0.01958,-3.764519 -0.824933,-5.968367 -1.4269,-8.866655 6.961068,-0.28833 14.5688,-1.533329 20.040967,-8.356775 l -2.39601,-1.921496 c -1.24742,1.555454 -2.61341,2.771826 -4.069121,3.728237 L 84.798952,25.943946 c 0.617431,-1.628682 1.508104,-3.226241 2.755519,-4.781697 z m -3.63492,8.012899 11.763302,9.433707 c -1.274803,0.52609 -2.597233,0.91213 -3.954806,1.193585 l -8.110658,-6.504431 c -0.01991,-1.387115 0.06535,-2.763404 0.302162,-4.122861 z m 0.03955,8.333857 3.581763,2.872435 c -1.01826,0.08403 -2.046646,0.135966 -3.079653,0.17081 -0.189732,-1.015916 -0.363206,-2.03103 -0.50211,-3.043245 z m -5.041521,6.226241 3.639027,2.918358 c 0.406397,2.040045 0.74007,3.960084 0.855031,5.707467 L 73.159731,44.139429 c 1.730652,-0.267298 3.678121,-0.357841 5.757862,-0.404186 z m -9.423499,1.401445 13.741132,11.019849 c -0.252287,1.2515 -0.738152,2.359356 -1.530846,3.356705 L 66.549051,47.35926 c 0.801281,-0.990506 1.778278,-1.704478 2.945044,-2.222572 z m -4.39173,4.99934 14.206651,11.393177 C 78.1284,62.1776 76.75131,62.570499 75.179182,62.802135 L 64.75611,54.443236 c -0.115632,-1.585158 -0.0303,-3.0139 0.346252,-4.307208 z m 0.389113,8.83339 5.110479,4.098406 c -1.320988,-0.0051 -2.704982,-0.05744 -4.10815,-0.114396 -0.361298,-1.35814 -0.710448,-2.695508 -1.002329,-3.98401 z m -1.386879,6.967659 c 0.56162,2.157933 1.063799,4.286655 1.33074,6.312239 l -7.785041,-6.2433 c 2.035862,-0.179151 4.22554,-0.148476 6.454299,-0.06894 z m -10.458923,0.793836 11.9518,9.584874 c -0.106222,1.482747 -0.429941,2.86869 -1.057186,4.173944 L 49.801265,68.66961 c 1.137893,-0.895737 2.420232,-1.512774 3.844411,-1.938699 z m -5.958112,4.180544 15.124374,12.129159 c -0.848978,0.933459 -1.776799,1.617587 -2.797695,2.122554 L 46.223584,74.103604 c 0.272169,-1.106222 0.736913,-2.160511 1.463975,-3.192148 z m -1.753122,6.896708 10.524295,8.440075 c -0.05657,0.0095 -0.11192,0.0202 -0.168951,0.02929 -2.555121,0.407019 -5.538273,0.31327 -8.710117,0.262669 -0.738507,-3.085441 -1.479196,-5.97786 -1.636819,-8.560508 -0.0035,-0.05764 -0.0054,-0.114219 -0.0084,-0.171524 z m -0.804478,11.781601 c 0.16208,0.739683 0.316575,1.478364 0.448693,2.21566 l -2.704583,-2.16896 c 0.747388,-0.03113 1.499513,-0.04505 2.255894,-0.0467 z m -6.586127,0.510453 7.522877,6.033062 c 0.04606,1.471195 -0.0552,2.945437 -0.363127,4.428443 L 34.298084,91.414966 c 1.381175,-0.623431 2.799115,-1.040094 4.245747,-1.314751 z"
       style="color:#000000;font-style:normal;font-variant:normal;font-weight:normal;font-stretch:normal;font-size:medium;line-height:normal;font-family:sans-serif;font-variant-ligatures:normal;font-variant-position:normal;font-variant-caps:normal;font-variant-numeric:normal;font-variant-alternates:normal;font-feature-settings:normal;text-indent:0;text-align:start;text-decoration:none;text-decoration-line:none;text-decoration-style:solid;text-decoration-color:#000000;letter-spacing:normal;word-spacing:normal;text-transform:none;writing-mode:lr-tb;direction:ltr;text-orientation:mixed;dominant-baseline:auto;baseline-shift:baseline;text-anchor:start;white-space:normal;shape-padding:0;clip-rule:nonzero;display:inline;overflow:visible;visibility:visible;opacity:1;isolation:auto;mix-blend-mode:normal;color-interpolation:sRGB;color-interpolation-filters:linearRGB;solid-color:#000000;solid-opacity:1;vector-effect:none;fill:#183f3f;fill-opacity:0.98617512;fill-rule:nonzero;stroke:none;stroke-width:3.07109571;stroke-linecap:butt;stroke-linejoin:miter;stroke-miterlimit:4;stroke-dasharray:none;stroke-dashoffset:0;stroke-opacity:1;color-rendering:auto;image-rendering:auto;shape-rendering:auto;text-rendering:auto;enable-background:accumulate" />
    <path
       inkscape:connector-curvature="0"
       id="path2937"
       d="m 48.478504,5.9683471 c -27.101153,0 -49.16189938,22.0611859 -49.16189938,49.1623399 0,27.101157 22.06074638,49.161903 49.16189938,49.161903 27.101162,0 49.163661,-22.060746 49.163661,-49.161903 0,-27.101154 -22.062499,-49.1623399 -49.163661,-49.1623399 z m 0,8.5029009 c 10.778683,0 20.557016,4.165888 27.823364,10.977496 L 18.796561,82.954054 C 11.984823,75.688079 7.8190655,65.909489 7.8190655,55.130687 c 0,-22.50604 18.1533985,-40.659439 40.6594385,-40.659439 z M 81.876734,31.8971 c 4.578961,6.580101 7.262532,14.584607 7.262532,23.233587 0,22.506043 -18.154719,40.659439 -40.660762,40.659439 -8.648409,0 -16.652415,-2.6831 -23.23227,-7.26121 z"
       style="color:#000000;font-style:normal;font-variant:normal;font-weight:normal;font-stretch:normal;font-size:medium;line-height:normal;font-family:sans-serif;font-variant-ligatures:normal;font-variant-position:normal;font-variant-caps:normal;font-variant-numeric:normal;font-variant-alternates:normal;font-feature-settings:normal;text-indent:0;text-align:start;text-decoration:none;text-decoration-line:none;text-decoration-style:solid;text-decoration-color:#000000;letter-spacing:normal;word-spacing:normal;text-transform:none;writing-mode:lr-tb;direction:ltr;text-orientation:mixed;dominant-baseline:auto;baseline-shift:baseline;text-anchor:start;white-space:normal;shape-padding:0;clip-rule:nonzero;display:inline;overflow:visible;visibility:visible;opacity:0.5;isolation:auto;mix-blend-mode:normal;color-interpolation:sRGB;color-interpolation-filters:linearRGB;solid-color:#000000;solid-opacity:1;vector-effect:none;fill:#183f3f;fill-opacity:1;fill-rule:nonzero;stroke:none;stroke-width:8.50254154;stroke-linecap:round;stroke-linejoin:round;stroke-miterlimit:4;stroke-dasharray:none;stroke-dashoffset:0;stroke-opacity:1;color-rendering:auto;image-rendering:auto;shape-rendering:auto;text-rendering:auto;enable-background:accumulate" />
  </g>
</svg>
