<?xml version="1.0" encoding="UTF-8" standalone="no"?>
<svg
   xmlns:dc="http://purl.org/dc/elements/1.1/"
   xmlns:cc="http://creativecommons.org/ns#"
   xmlns:rdf="http://www.w3.org/1999/02/22-rdf-syntax-ns#"
   xmlns:svg="http://www.w3.org/2000/svg"
   xmlns="http://www.w3.org/2000/svg"
   xmlns:sodipodi="http://sodipodi.sourceforge.net/DTD/sodipodi-0.dtd"
   xmlns:inkscape="http://www.inkscape.org/namespaces/inkscape"
   width="102.93mm"
   height="104.79mm"
   version="1.1"
   viewBox="0 0 102.93 104.79"
   id="svg3379"
   sodipodi:docname="NonElite.svg"
   inkscape:version="0.92.3 (2405546, 2018-03-11)">
  <defs
     id="defs3383" />
  <sodipodi:namedview
     pagecolor="#ffffff"
     bordercolor="#666666"
     borderopacity="1"
     objecttolerance="10"
     gridtolerance="10"
     guidetolerance="10"
     inkscape:pageopacity="0"
     inkscape:pageshadow="2"
     inkscape:window-width="1853"
     inkscape:window-height="1025"
     id="namedview3381"
     showgrid="false"
     inkscape:zoom="0.59587429"
     inkscape:cx="194.51339"
     inkscape:cy="269.22861"
     inkscape:window-x="67"
     inkscape:window-y="27"
     inkscape:window-maximized="1"
     inkscape:current-layer="svg3379" />
  <metadata
     id="metadata3347">
    <rdf:RDF>
      <cc:Work
         rdf:about="">
        <dc:format>image/svg+xml</dc:format>
        <dc:type
           rdf:resource="http://purl.org/dc/dcmitype/StillImage" />
        <dc:title></dc:title>
      </cc:Work>
    </rdf:RDF>
  </metadata>
  <g
     id="g2954"
     transform="matrix(0.85025416,0,0,0.85025416,7.7066675,7.8459349)"
     style="fill:#183f3f;fill-opacity:0.97647059">
    <path
       class="st0"
       d="M 98.187597,78.232493 C 98.448968,76.38515 90.094783,76.632 89.100928,76.715897 c -3.459129,0.295252 -6.853723,1.508529 -9.20606,4.159345 -1.897358,2.136141 -3.268748,4.830519 -5.227416,6.78596 0.424324,-1.347189 0.672788,-2.728259 0.758298,-3.95767 0.185541,-2.655656 0.617932,-8.647824 4.077062,-10.871089 3.459129,-2.223265 5.250003,-3.273589 5.250003,-3.273589 0,0 -7.411959,0.803473 -8.772055,3.21228 -1.358483,2.408806 -4.323912,10.069229 -4.323912,10.069229 -1.172942,1.924786 -2.345884,3.847959 -3.520439,5.772745 -0.306546,0.503381 -0.663108,1.032576 -0.909958,1.585972 -2.626615,-0.262984 -5.250003,-1.193916 -7.902433,-0.976107 -0.914798,0.07583 -1.721498,0.330747 -2.487863,0.664721 0,-0.0097 0,-0.01936 0.0016,-0.02904 0.03549,-0.425938 0.26137,-0.95836 0.119391,-1.384297 -0.04195,-0.127459 -3.100955,-10.87593 -3.100955,-10.87593 l -8.880153,1.189076 c 0,0 2.081286,3.142903 2.081286,3.144517 0.17102,0.259757 0.106484,1.042256 0.153273,1.348802 0.16618,1.103566 0.41787,2.195838 0.761525,3.257455 0.65504,2.02159 1.773126,4.11901 3.394593,5.598498 -0.135525,0.02904 -0.456592,0.04356 -1.216503,-0.248464 -2.294255,-0.879303 -4.007686,-2.455595 -6.539111,-2.663723 -3.572067,-0.293639 -7.089279,1.494008 -10.633919,0.934158 -5.146746,-0.813153 -6.839203,-5.792106 -9.936931,-9.28189 -2.352337,-2.650816 -5.74693,-3.864093 -9.20606,-4.159345 C 12.840351,76.632 4.4861654,76.386763 4.7475362,78.234106 0.9463658,51.46296 23.327451,55.512594 28.036965,53.536179 32.74648,51.55815 40.74733,42.529564 40.74733,42.529564 l 3.070301,-3.956057 7.649129,-0.172634 7.649129,0.172634 3.070301,3.956057 c 0,0 8.00085,9.028586 12.710365,11.006615 4.709514,1.976415 27.090595,-2.073219 23.291042,24.696314 z M 51.565177,41.534096 c -3.159037,0 -5.719503,7.623315 -5.719503,17.02621 0,9.402896 2.560466,17.026211 5.719503,17.026211 3.159038,0 5.719503,-7.623315 5.719503,-17.026211 0,-9.402895 -2.560465,-17.02621 -5.719503,-17.02621 z"
       id="path3349"
       inkscape:connector-curvature="0"
       style="opacity:0.7;fill:#183f3f;fill-opacity:0.97647059;stroke-width:0.16134" />
    <path
       class="st0"
       d="m 41.13616,41.166241 c 0,0 -7.979877,7.733026 -13.765529,10.066003 -5.785652,2.332976 -23.7460212,2.952522 -26.7598524,15.767758 -3.0138312,12.815236 6.1131726,15.883923 6.1131726,15.883923 0,0 -1.5585444,-15.708063 9.8433538,-21.313014 11.401897,-5.604952 22.390765,-12.102114 24.983499,-19.51246"
       id="path3353"
       inkscape:connector-curvature="0"
       style="opacity:0.7;fill:#183f3f;fill-opacity:0.97647059;stroke:#183f3f;stroke-width:0.16139583;stroke-miterlimit:4;stroke-dasharray:none;stroke-opacity:1" />
    <path
       class="st0"
       d="m 61.79736,41.166241 c 0,0 7.979877,7.733026 13.765529,10.066003 5.785652,2.332976 23.746021,2.952522 26.759851,15.767758 3.01383,12.815236 -6.113171,15.883923 -6.113171,15.883923 0,0 1.558544,-15.708063 -9.843354,-21.313014 C 74.964318,55.965959 63.977064,49.472024 61.38433,42.061678"
       id="path3355"
       inkscape:connector-curvature="0"
       style="opacity:0.7;fill:#183f3f;fill-opacity:0.97647059;stroke:#183f3f;stroke-width:0.16139583;stroke-miterlimit:4;stroke-dasharray:none;stroke-opacity:1" />
    <g
       style="fill:#183f3f;fill-opacity:0.97647059"
       transform="matrix(0.16134,0,0,0.16134,-7.261,-8.228)"
       id="Tail">
      <path
         style="fill:#183f3f;fill-opacity:0.97647059"
         inkscape:connector-curvature="0"
         id="path3358"
         d="m 593.85,495.45 c -8.34,-3.12 -38.57,-14.07 -65.67,20.33 -27.11,34.4 13.03,132.39 -100.6,129.78 -113.62,-2.61 -89.64,-107.37 -89.64,-107.37 l 4.34,-0.16 c -1.96,10.04 -16.51,98.92 85.52,101.26 108.13,2.48 71.87,-89.34 95.73,-123.51 8.51,-12.19 16.91,-18.72 24.84,-21.52 0,0 -29.86,3.73 -41.52,60.18 -11.66,56.44 -53.65,75.1 -92.37,65.31 -34.57,-8.75 -48.69,-42.41 -44.34,-82.73 l 25.13,-0.91 11.54,56.68 c 45.87,22.94 70.29,-9.77 86.97,-61.37 16.67,-51.6 67.23,-62.03 89.12,-54.73 21.89,7.3 19.29,21.89 10.95,18.76 z"
         class="st2" />
    </g>
    <path
       class="st2"
       d="m 51.46676,79.78297 c -1.45206,0 -3.63015,0.32268 -3.63015,0.32268 -0.396896,2.382992 -6.114786,12.860411 -6.088972,16.406665 0.395283,1.171328 1.242318,2.641135 1.915106,3.891525 0.80186,0.29525 1.37623,1.06323 1.37623,1.96673 0,1.15842 -0.938998,2.09742 -2.09742,2.09742 -0.822834,0 -1.53273,-0.47434 -1.876384,-1.16487 h -0.150046 c -0.261371,0.85994 -1.060004,1.48755 -2.00707,1.48755 -1.019668,0 -1.868317,-0.72764 -2.057085,-1.69084 -0.05163,-0.005 -0.103257,-0.01 -0.154886,-0.0161 -0.361402,0.63407 -1.040643,1.06162 -1.821529,1.06162 -1.158421,0 -2.09742,-0.939 -2.09742,-2.09742 0,-1.15842 0.938999,-2.09742 2.09742,-2.09742 0.08712,0 0.174248,0.0065 0.258144,0.01775 0.55985,-0.922864 1.235865,-1.834435 1.677936,-2.276507 0.540489,-0.540489 0.879303,-1.231024 1.072911,-1.736018 1.698911,-5.937312 4.306165,-21.461447 4.780505,-31.408058 0,0 1.289106,-0.838968 1.513369,-1.29556 0.224262,-0.456593 -0.02097,-1.60372 -0.02097,-1.60372 0,0 0.856715,-0.890597 0.916411,-1.216504 0.0597,-0.325906 -0.429165,-1.087431 -0.429165,-1.087431 0,0 0.477567,-1.558545 0.148433,-1.997389 -0.329133,-0.438845 -1.463354,-0.969654 -1.463354,-0.969654 0.95352,-9.033426 1.529504,-16.154974 1.529504,-16.154974 l 1.011601,-4.467505 5.595272,-0.07744 5.595271,0.07744 1.011602,4.467505 c 0,0 0.575983,7.121548 1.529503,16.154974 0,0 -1.132607,0.530809 -1.463354,0.969654 -0.329134,0.438844 0.148433,1.997389 0.148433,1.997389 0,0 -0.48886,0.761525 -0.429165,1.087431 0.0597,0.325907 0.916412,1.216504 0.916412,1.216504 0,0 -0.243624,1.147127 -0.02097,1.60372 0.224263,0.456592 1.51337,1.29556 1.51337,1.29556 0.472726,9.946611 3.081594,25.469132 4.780504,31.408058 0.193608,0.504994 0.532422,1.195529 1.072911,1.736018 0.442071,0.442072 1.118086,1.353643 1.677936,2.276507 0.08551,-0.0097 0.17102,-0.01775 0.258144,-0.01775 1.158421,0 2.09742,0.939 2.09742,2.09742 0,1.15842 -0.938999,2.09742 -2.09742,2.09742 -0.780886,0 -1.461741,-0.42755 -1.821529,-1.06162 -0.05163,0.005 -0.101644,0.0113 -0.154886,0.0161 -0.188768,0.9632 -1.037416,1.69084 -2.057085,1.69084 -0.945453,0 -1.745699,-0.626 -2.00707,-1.48755 h -0.150046 c -0.343654,0.68892 -1.05355,1.16487 -1.876384,1.16487 -1.158421,0 -2.09742,-0.939 -2.09742,-2.09742 0,-0.90512 0.572757,-1.6731 1.37623,-1.96673 0.674401,-1.248776 1.519823,-2.720197 1.915106,-3.891525 0.02581,-3.546254 -5.690462,-14.023673 -6.088972,-16.406665 0.0032,0 -2.174863,-0.32268 -3.626923,-0.32268 z M 51.38609,42.99745 c -2.673404,0 -4.8402,7.079599 -4.8402,15.81132 0,8.731721 2.166796,15.81132 4.8402,15.81132 2.673404,0 4.8402,-7.079599 4.8402,-15.81132 0,-8.731721 -2.166796,-15.81132 -4.8402,-15.81132 z m -10.028894,58.16952 c -0.133913,0.13392 -0.243624,0.29526 -0.330747,0.46628 -0.01129,0.0194 -0.01936,0.0403 -0.02904,0.0613 -0.01613,-0.0371 -0.03388,-0.0758 -0.05163,-0.11294 -0.09358,-0.18716 -0.204902,-0.36624 -0.338814,-0.5292 -0.133913,-0.16134 -0.295253,-0.30332 -0.472727,-0.41464 -0.179087,-0.10971 -0.380762,-0.17748 -0.580824,-0.20329 0.179088,0.0984 0.343655,0.20006 0.482407,0.33397 0.138752,0.1323 0.258144,0.27912 0.363015,0.43885 0.101644,0.15973 0.190381,0.32752 0.264598,0.50338 0.07744,0.17102 0.138752,0.35979 0.185541,0.53242 l 0.191994,0.70344 0.122619,-0.71635 c 0.02743,-0.16134 0.06454,-0.32106 0.130685,-0.47272 0.06454,-0.15166 0.146819,-0.29848 0.24685,-0.43562 0.201675,-0.27428 0.459819,-0.51629 0.753458,-0.72764 -0.177474,0.0452 -0.343654,0.12584 -0.503381,0.22103 -0.154886,0.0984 -0.303319,0.21458 -0.434004,0.35172 z m -3.928629,-0.3372 c -0.143593,0.13069 -0.275892,0.27912 -0.385603,0.44369 -0.0242,0.0339 -0.04679,0.0694 -0.06776,0.10648 -0.04033,-0.13714 -0.09196,-0.27266 -0.153273,-0.40496 -0.06131,-0.13714 -0.140366,-0.26944 -0.23717,-0.38883 -0.09519,-0.11617 -0.217809,-0.23072 -0.367855,-0.26137 0.121005,0.0871 0.188768,0.21135 0.248464,0.3372 0.05647,0.12746 0.101644,0.25814 0.138752,0.39367 0.03711,0.13552 0.06776,0.27266 0.0968,0.4098 0.02581,0.13714 0.05163,0.27912 0.06938,0.41303 l 0.08228,0.58244 0.227489,-0.55178 c 0.06615,-0.15973 0.133912,-0.31946 0.229103,-0.46627 0.09196,-0.14682 0.191995,-0.29364 0.313,-0.42594 0.232329,-0.27267 0.50338,-0.51468 0.803473,-0.74539 -0.185541,0.0452 -0.359788,0.12423 -0.527582,0.21781 -0.167794,0.0952 -0.324293,0.21135 -0.469499,0.34042 z m 23.710526,-0.0129 c -0.158113,-0.0952 -0.325907,-0.17425 -0.503381,-0.22104 0.295252,0.21136 0.553396,0.45337 0.753458,0.72764 0.101644,0.13714 0.183928,0.28396 0.24685,0.43562 0.06615,0.15166 0.103258,0.31139 0.130686,0.47273 l 0.122618,0.71635 0.191995,-0.70345 c 0.04679,-0.17263 0.108097,-0.3614 0.185541,-0.53242 0.07422,-0.17586 0.164566,-0.34365 0.264597,-0.50338 0.103258,-0.15811 0.224263,-0.30493 0.363015,-0.43884 0.138753,-0.13392 0.303319,-0.23556 0.482407,-0.33398 -0.200062,0.0258 -0.401737,0.0936 -0.580824,0.20329 -0.177474,0.11133 -0.337201,0.25331 -0.472726,0.41465 -0.133913,0.16295 -0.245237,0.34204 -0.338814,0.52919 -0.01775,0.0387 -0.03388,0.0758 -0.05163,0.11294 -0.0097,-0.021 -0.01775,-0.0419 -0.02904,-0.0613 -0.08712,-0.17263 -0.196835,-0.33236 -0.330747,-0.46627 -0.127459,-0.13876 -0.275892,-0.25492 -0.434005,-0.35172 z m 3.897974,-0.32591 c -0.167793,-0.0936 -0.34204,-0.17263 -0.527581,-0.21781 0.300092,0.2291 0.572757,0.47273 0.803473,0.74539 0.119391,0.1323 0.219422,0.27751 0.312999,0.42594 0.09519,0.14682 0.164567,0.30654 0.229103,0.46627 l 0.22749,0.55178 0.08228,-0.58243 c 0.01936,-0.13392 0.04356,-0.2759 0.06938,-0.41303 0.02904,-0.13714 0.0597,-0.2759 0.0968,-0.40981 0.03711,-0.13552 0.08067,-0.26782 0.138753,-0.39367 0.05808,-0.12584 0.125845,-0.25007 0.248463,-0.3372 -0.148433,0.0307 -0.272664,0.14359 -0.367855,0.26137 -0.09519,0.11939 -0.174247,0.25169 -0.23717,0.38883 -0.0597,0.1323 -0.111324,0.26621 -0.153273,0.40497 -0.02097,-0.0355 -0.04356,-0.0726 -0.06776,-0.10649 -0.109711,-0.16457 -0.24201,-0.31138 -0.385602,-0.44368 -0.14682,-0.13069 -0.303319,-0.24685 -0.4695,-0.34043 z"
       id="path3363"
       inkscape:connector-curvature="0"
       style="fill:#183f3f;fill-opacity:0.97647059;stroke-width:0.16134" />
    <g
       transform="matrix(0.16134,0,0,0.16134,-7.261,-8.228)"
       style="fill:#183f3f;fill-opacity:0.97647059"
       id="Arms">
      <path
         style="fill:#183f3f;fill-opacity:0.97647059"
         inkscape:connector-curvature="0"
         id="path3366"
         d="m 442.34,392.32 c 0,0 -32.37,12.6 -34.41,15.32 -2.04,2.72 1.92,11.38 1.92,11.38 0,0 -3.03,3.72 -2.66,5.74 0.37,2.02 5.68,7.54 5.68,7.54 0,0 -1.51,7.11 -0.13,9.94 1.38,2.83 7.99,5.93 7.99,5.93 l 9.81,-2.6 c 0,0 3.51,7.54 11.45,5.68 7.94,-1.86 8.42,-11.76 2.69,-16.59 0,0 -5.13,4.67 -14.89,2.96 0,0 8.29,-0.89 16.66,-9.94 8.37,-9.05 6.05,-23.1 6.05,-23.1"
         class="st2" />
      <path
         style="fill:#183f3f;fill-opacity:0.97647059"
         inkscape:connector-curvature="0"
         id="path3368"
         d="m 381.24,264.87 c 0,0 9.86,-6.23 18.31,-3.58 8.45,2.65 94.76,65.97 95.79,68.95 1.03,2.98 -45.16,79.71 -45.16,79.71 l -10.72,-13.78 24.45,-56.43 -68.73,-42.22"
         class="st2" />
      <path
         style="fill:#183f3f;fill-opacity:0.97647059"
         inkscape:connector-curvature="0"
         id="path3370"
         d="m 285.66,392.32 c 0,0 32.37,12.6 34.41,15.32 2.04,2.72 -1.92,11.38 -1.92,11.38 0,0 3.03,3.72 2.66,5.74 -0.37,2.02 -5.68,7.54 -5.68,7.54 0,0 1.51,7.11 0.13,9.94 -1.38,2.83 -7.99,5.93 -7.99,5.93 l -9.81,-2.6 c 0,0 -3.51,7.54 -11.45,5.68 -7.94,-1.86 -8.42,-11.76 -2.69,-16.59 0,0 5.13,4.67 14.89,2.96 0,0 -8.29,-0.89 -16.66,-9.94 -8.37,-9.05 -6.05,-23.1 -6.05,-23.1"
         class="st2" />
      <path
         style="fill:#183f3f;fill-opacity:0.97647059"
         inkscape:connector-curvature="0"
         id="path3372"
         d="m 346.76,264.87 c 0,0 -9.86,-6.23 -18.31,-3.58 -8.45,2.65 -94.76,65.97 -95.79,68.95 -1.03,2.98 45.16,79.71 45.16,79.71 l 10.72,-13.78 -24.45,-56.43 68.73,-42.22"
         class="st2" />
    </g>
    <g
       style="fill:#183f3f;fill-opacity:0.97647059"
       id="Head"
       transform="matrix(0.16524387,0,0,0.16524387,-7.868937,-7.20882)">
      <path
         style="fill:#183f3f;fill-opacity:0.97647059"
         id="path2353"
         d="m 406.11,127.11 c 5.98,6.27 21.54,14.52 24.66,21.35 3.42,7.48 -0.71,52.89 -11.44,60.77 -10.74,7.88 -36.78,19.83 -68.43,14.83 0,0 12.71,8.2 29.12,6.44 0,0 -4.2,21.48 0.38,35.26 4.58,13.77 -39.19,1.86 -39.19,1.86 -5.29,-23.09 -8.14,-43.69 -34.21,-51.44 -26.07,-7.75 -42.64,-29.32 -44.08,-44.83 -1.44,-15.51 5.17,-46.61 5.17,-46.61 1.69,2.78 4.16,4.33 4.16,4.33 -12.38,-30.97 -3.13,-46.29 10.27,-52.01 27.71,-11.82 42.64,13.54 42.64,13.54 0,0 -3.83,-14.23 -11.82,-19.24 0,0 24.67,-6.79 40.95,-5.39 16.28,1.4 28.75,18.49 28.75,18.49 0,0 -2.63,-10.23 -10.51,-17.26 0,0 22.47,0.63 24.09,30.72 0,0 4.39,2.91 7.97,12.68 3.58,9.76 1.52,16.51 1.52,16.51 z m -68.91,13.81 c 0,0 -3.23,-30.41 -25.89,-31.44 -16.51,-0.75 -16.33,21.18 -13.88,31.84 -0.01,-0.01 10.96,26.13 39.77,-0.4 z m 36.98,6.83 c -1.14,-0.31 -2.38,-0.31 -3.56,-0.05 -1.17,0.31 -2.23,0.8 -3.18,1.54 -0.49,0.33 -0.88,0.8 -1.3,1.23 -0.34,0.49 -0.73,0.95 -0.97,1.48 -0.57,1.04 -0.86,2.15 -0.99,3.25 -0.25,2.19 0.17,4.34 1.16,6.19 0.27,-2.06 0.58,-3.97 1.21,-5.66 0.31,-0.84 0.66,-1.63 1.14,-2.3 0.44,-0.69 1,-1.26 1.63,-1.74 l 0.48,-0.35 c 0.16,-0.12 0.36,-0.2 0.53,-0.3 0.35,-0.24 0.72,-0.35 1.09,-0.51 0.75,-0.25 1.52,-0.39 2.35,-0.37 1.67,0.04 3.47,0.75 5.26,1.77 -0.87,-1.91 -2.56,-3.54 -4.85,-4.18 z m -3.21,9.4 c -0.34,1.93 -0.03,4.58 2.17,5.14 0.96,0.24 1.71,0 2.19,-0.94 1.27,-2.41 -2.02,-7.1 -4.36,-4.2 z m 34.28,-11.24 c 1.16,-1.7 2.47,-3.12 3.96,-3.89 0.74,-0.38 1.49,-0.59 2.27,-0.69 0.4,-0.01 0.79,-0.07 1.2,-0.01 0.2,0.02 0.41,0 0.61,0.04 l 0.58,0.11 c 0.77,0.15 1.52,0.42 2.22,0.85 0.72,0.39 1.38,0.95 2.03,1.57 1.3,1.25 2.41,2.84 3.55,4.57 0.09,-2.09 -0.47,-4.21 -1.65,-6.08 -0.59,-0.93 -1.34,-1.81 -2.3,-2.49 -0.44,-0.37 -1,-0.62 -1.52,-0.91 -0.56,-0.2 -1.12,-0.45 -1.71,-0.54 -1.18,-0.26 -2.35,-0.23 -3.53,0 -1.17,0.28 -2.29,0.82 -3.18,1.6 -1.77,1.58 -2.59,3.78 -2.53,5.87 z m -2.79,-18.33 c 0,0 0.94,-8.26 -0.61,-14.37 0.09,-2.09 -4.86,-12.91 -9.3,-12.99 -7.31,-0.14 -9.07,8.29 -9.01,10.38 4.03,11.15 18.92,16.98 18.92,16.98 z m 10.22,25.22 c 0.84,0.63 1.62,0.53 2.38,-0.11 1.74,-1.46 0.86,-3.99 -0.28,-5.58 -3.38,-1.59 -4.29,4.07 -2.1,5.69 z m 12.74,19.89 c -0.9,2.15 -2.32,2.78 -5.14,-0.62 -4.49,1.11 -3.34,7.52 -7.95,7.8 -3.49,0.21 -6.68,-1.78 -9.83,-2.95 -3.14,-1.17 -5.88,-1.21 -9.16,-0.79 -6.96,0.88 -14.62,3.72 -19.9,8.46 -3.93,3.53 -5.6,9.5 -9.9,12.68 -3.23,2.39 -6.88,1.55 -9.97,-0.72 -4.42,-3.23 -5.2,-10.1 -9.65,-12.58 -5.67,-3.16 -6.46,4.2 -10.36,6.16 -5.35,2.68 -11.56,-0.79 -16.22,-3.34 0.66,3.88 6.42,6.81 10.03,7.49 6.98,1.3 12.59,-9.56 18.79,-0.82 1.11,1.56 2.31,3.31 3.28,4.95 2.32,3.96 5.34,5.96 10.37,5.26 12.57,-1.76 14.43,-15.46 25.19,-20.17 2.99,-1.31 6.37,-1.96 9.62,-2.11 6.87,-0.32 19.11,8.18 23.75,-0.65 1.35,-2.58 2.49,-5.38 4.87,-1.87 4.06,-0.45 3.4,-8.43 3.43,-11.15 -0.35,1.83 -0.71,3.67 -1.25,4.97 z"
         class="st0"
         inkscape:connector-curvature="0" />
      <path
         style="fill:#183f3f;fill-opacity:0.97647059"
         id="path2355"
         d="m 338.37,126.8 c -1.6,5.97 -19.07,-3.67 -21.43,-4.87 -6.94,-3.53 -15.13,-6.35 -22.76,-8.1 -2.47,-0.57 -5.18,-0.41 -7.48,-1.07 -5.88,-12.58 25.29,-13.45 31.53,-12.61 13.7,1.85 27.92,8.78 26.98,24.7"
         class="st0"
         inkscape:connector-curvature="0" />
      <path
         style="fill:#183f3f;fill-opacity:0.97647059"
         id="path2357"
         d="m 382.41,114.75 c 2.89,1.74 5.75,-1.27 6.92,-3.56 1.56,-3.06 1.28,-6.98 3.47,-9.66 1.25,-1.53 1.95,-1.54 0.71,-3.42 -1.51,-2.28 -4.38,-2.65 -6.96,-2.01 -6.64,1.65 -8.94,10.76 -8.54,16.61"
         class="st0"
         inkscape:connector-curvature="0" />
    </g>
  </g>
  <path
     style="color:#000000;font-style:normal;font-variant:normal;font-weight:normal;font-stretch:normal;font-size:medium;line-height:normal;font-family:sans-serif;font-variant-ligatures:normal;font-variant-position:normal;font-variant-caps:normal;font-variant-numeric:normal;font-variant-alternates:normal;font-feature-settings:normal;text-indent:0;text-align:start;text-decoration:none;text-decoration-line:none;text-decoration-style:solid;text-decoration-color:#000000;letter-spacing:normal;word-spacing:normal;text-transform:none;writing-mode:lr-tb;direction:ltr;text-orientation:mixed;dominant-baseline:auto;baseline-shift:baseline;text-anchor:start;white-space:normal;shape-padding:0;clip-rule:nonzero;display:inline;overflow:visible;visibility:visible;opacity:0.5;isolation:auto;mix-blend-mode:normal;color-interpolation:sRGB;color-interpolation-filters:linearRGB;solid-color:#000000;solid-opacity:1;vector-effect:none;fill:#183f3f;fill-opacity:1;fill-rule:nonzero;stroke:none;stroke-width:8.50254154;stroke-linecap:round;stroke-linejoin:round;stroke-miterlimit:4;stroke-dasharray:none;stroke-dashoffset:0;stroke-opacity:1;color-rendering:auto;image-rendering:auto;shape-rendering:auto;text-rendering:auto;enable-background:accumulate"
     d="m 51.46412,3.2328793 c -27.101154,0 -49.1619017,22.0611857 -49.1619017,49.1623407 0,27.101155 22.0607477,49.1619 49.1619017,49.1619 27.10116,0 49.16366,-22.060745 49.16366,-49.1619 0,-27.101155 -22.0625,-49.1623407 -49.16366,-49.1623407 z m 0,8.5029007 c 10.778683,0 20.557016,4.165888 27.823363,10.977496 L 21.782176,80.218584 C 14.970438,72.95261 10.80468,63.17402 10.80468,52.39522 c 0,-22.50604 18.1534,-40.65944 40.65944,-40.65944 z m 33.398229,17.425852 c 4.57896,6.5801 7.26253,14.584608 7.26253,23.233588 0,22.506042 -18.154718,40.659438 -40.660759,40.659438 -8.648409,0 -16.652416,-2.683104 -23.232271,-7.261208 z"
     id="path2937"
     inkscape:connector-curvature="0" />
</svg>
