<?xml version="1.0" encoding="UTF-8" standalone="no"?>
<!-- Generator: Adobe Illustrator 16.0.0, SVG Export Plug-In . SVG Version: 6.00 Build 0)  -->

<svg
   xmlns:dc="http://purl.org/dc/elements/1.1/"
   xmlns:cc="http://creativecommons.org/ns#"
   xmlns:rdf="http://www.w3.org/1999/02/22-rdf-syntax-ns#"
   xmlns:svg="http://www.w3.org/2000/svg"
   xmlns="http://www.w3.org/2000/svg"
   xmlns:sodipodi="http://sodipodi.sourceforge.net/DTD/sodipodi-0.dtd"
   xmlns:inkscape="http://www.inkscape.org/namespaces/inkscape"
   version="1.1"
   id="Capa_1"
   x="0px"
   y="0px"
   width="418.879px"
   height="418.879px"
   viewBox="0 0 418.879 418.879"
   style="enable-background:new 0 0 418.879 418.879;"
   xml:space="preserve"
   sodipodi:docname="operation.svg"
   inkscape:version="0.92.3 (2405546, 2018-03-11)"><metadata
   id="metadata47"><rdf:RDF><cc:Work
       rdf:about=""><dc:format>image/svg+xml</dc:format><dc:type
         rdf:resource="http://purl.org/dc/dcmitype/StillImage" /><dc:title /></cc:Work></rdf:RDF></metadata><defs
   id="defs45" /><sodipodi:namedview
   pagecolor="#ffffff"
   bordercolor="#666666"
   borderopacity="1"
   objecttolerance="10"
   gridtolerance="10"
   guidetolerance="10"
   inkscape:pageopacity="0"
   inkscape:pageshadow="2"
   inkscape:window-width="1853"
   inkscape:window-height="1025"
   id="namedview43"
   showgrid="false"
   inkscape:zoom="1.1268171"
   inkscape:cx="490.51169"
   inkscape:cy="174.9167"
   inkscape:window-x="67"
   inkscape:window-y="27"
   inkscape:window-maximized="1"
   inkscape:current-layer="layer1" />
<g
   inkscape:groupmode="layer"
   id="layer3"
   inkscape:label="Layer 0"><g
     id="g10"
     style="opacity:1;fill:#103f3f;fill-opacity:1">
	<g
   id="g8"
   style="fill:#103f3f;fill-opacity:1">
		<path
   d="m 188.634,234.066 c 8.462,-5.287 16.126,-11.735 22.767,-19.127 l 23.942,13.826 21.8,-37.76 -23.894,-13.796 c 3.038,-9.275 4.825,-19.113 5.16,-29.311 l 27.183,-4.793 -7.574,-42.938 -27.178,4.793 C 227.084,95.651 222.045,86.995 215.934,79.216 L 233.7,58.046 200.3,30.022 182.549,51.174 C 173.879,46.528 164.49,43.055 154.595,40.971 V 13.385 h -43.6 v 27.586 c -9.896,2.084 -19.285,5.557 -27.956,10.203 l -17.75,-21.152 -33.4,28.025 17.764,21.17 c -6.11,7.779 -11.149,16.436 -14.905,25.744 L 7.57,100.168 0,143.106 l 27.179,4.793 c 0.335,10.199 2.123,20.035 5.161,29.313 l -23.896,13.795 21.801,37.759 23.943,-13.822 c 6.639,7.389 14.303,13.838 22.766,19.125 l -9.451,25.963 40.972,14.91 9.438,-25.928 c 4.864,0.688 9.831,1.053 14.882,1.053 5.051,0 10.019,-0.363 14.883,-1.053 l 9.437,25.93 40.97,-14.914 z m -55.841,-34.001 c -30.702,0 -55.68,-24.977 -55.68,-55.68 0,-30.701 24.978,-55.68 55.68,-55.68 30.702,0 55.68,24.979 55.68,55.68 0,30.703 -24.977,55.68 -55.68,55.68 z"
   id="path2"
   style="fill:#103f3f;fill-opacity:1"
   inkscape:connector-curvature="0" />
		<path
   d="m 376.041,266.807 -18.795,6.08 c -3.584,-6.229 -8.014,-11.869 -13.115,-16.779 l 10.504,-16.764 -26.447,-16.57 -10.498,16.75 c -6.604,-2.438 -13.602,-3.973 -20.826,-4.471 l -2.725,-19.559 -30.912,4.309 2.725,19.559 c -6.809,2.453 -13.125,5.847 -18.812,9.996 l -14.672,-13.244 -20.912,23.168 14.684,13.259 c -3.562,6.118 -6.277,12.752 -8.02,19.726 l -19.744,-0.714 -1.129,31.188 19.743,0.716 c 1.246,7.198 3.486,13.991 6.558,20.271 l -15.578,12.143 19.185,24.615 15.609,-12.164 c 5.438,4.582 11.511,8.396 18.031,11.311 l -4.138,19.344 30.522,6.52 4.133,-19.314 c 3.516,0.01 7.072,-0.229 10.652,-0.727 3.582,-0.498 7.07,-1.25 10.447,-2.215 l 9.256,17.451 27.574,-14.623 -9.266,-17.471 c 5.48,-4.586 10.271,-9.918 14.252,-15.812 l 18.338,7.436 11.727,-28.924 -18.303,-7.422 c 1.234,-6.875 1.529,-14.027 0.764,-21.293 l 18.799,-6.084 z m -78.912,83.199 c -21.771,3.031 -41.949,-12.209 -44.98,-33.977 -3.037,-21.769 12.207,-41.949 33.977,-44.979 21.768,-3.036 41.941,12.207 44.98,33.978 3.029,21.767 -12.21,41.941 -33.977,44.978 z"
   id="path4"
   style="fill:#103f3f;fill-opacity:1"
   inkscape:connector-curvature="0" />
		<path
   d="m 418.146,158.647 0.732,-24.629 -15.586,-0.463 c -0.977,-5.428 -2.723,-10.803 -5.285,-15.971 l 12.24,-9.67 -15.271,-19.33 -12.238,9.666 c -4.365,-3.627 -9.193,-6.584 -14.318,-8.816 l 3.164,-15.291 -24.123,-4.996 -3.17,15.281 c -5.559,0.008 -11.156,0.797 -16.641,2.412 l -7.391,-13.727 -21.695,11.684 7.391,13.729 c -4.363,3.686 -8.107,7.934 -11.176,12.566 l -14.496,-5.77 -9.111,22.893 14.508,5.779 c -0.955,5.508 -1.141,11.158 -0.514,16.799 l -14.809,4.898 7.732,23.395 14.809,-4.896 c 2.9,4.986 6.426,9.396 10.426,13.201 l -8.191,13.268 20.963,12.946 8.209,-13.292 c 5.285,1.896 10.828,3.051 16.453,3.414 l 2.252,15.453 24.383,-3.561 -2.246,-15.434 c 2.602,-0.957 5.17,-2.109 7.684,-3.463 2.516,-1.352 4.891,-2.867 7.123,-4.51 l 11.648,10.371 16.387,-18.398 -11.656,-10.383 c 2.795,-4.9 4.875,-10.164 6.203,-15.619 z m -58.71,13.197 c -15.281,8.227 -34.404,2.492 -42.627,-12.783 -8.23,-15.277 -2.494,-34.404 12.787,-42.627 15.273,-8.229 34.395,-2.49 42.625,12.787 8.222,15.278 2.49,34.395 -12.785,42.623 z"
   id="path6"
   style="fill:#103f3f;fill-opacity:1"
   inkscape:connector-curvature="0" />
	</g>
</g></g>
<g
   id="g12">
</g>
<g
   id="g14">
</g>
<g
   id="g16">
</g>
<g
   id="g18">
</g>
<g
   id="g20">
</g>
<g
   id="g22">
</g>
<g
   id="g24">
</g>
<g
   id="g26">
</g>
<g
   id="g28">
</g>
<g
   id="g30">
</g>
<g
   id="g32">
</g>
<g
   id="g34">
</g>
<g
   id="g36">
</g>
<g
   id="g38">
</g>
<g
   id="g40">
</g>
<g
   inkscape:groupmode="layer"
   id="layer1"
   inkscape:label="Layer 1"><path
     inkscape:connector-curvature="0"
     class="st0"
     d="m 202.7272,134.37783 c 4.71208,7.93241 18.89568,20.18619 20.51768,28.01203 1.77591,8.57172 -13.30749,54.72171 -26.31899,60.33358 -13.01151,5.62371 -30.06978,11.3452 -63.70713,5.92863 0,0 -28.98151,-10.11909 -54.497427,-25.4518 C 53.503411,188.94563 41.450902,162.63848 43.641192,146.19356 45.83148,129.74864 60.086117,99.049065 60.086117,99.049065 c 1.101064,3.291355 3.291353,5.481645 3.291353,5.481645 -5.481642,-35.080138 7.766647,-48.778322 23.027634,-51.525064 l 33.339736,1.408888 c 0,0 27.20694,-1.18394 43.77027,4.14379 l 18.62336,5.611877 c 0,0 23.16973,5.990737 17.69992,37.601919 0,0 3.87149,4.06093 5.2567,15.05973 1.38519,10.99881 -2.36789,17.54598 -2.36789,17.54598 z"
     id="path11853"
     style="fill:#ffffff;fill-opacity:1;stroke-width:1.18394005"
     sodipodi:nodetypes="cccccscccccccsc" /><path
     inkscape:connector-curvature="0"
     class="st3"
     d="m 320.88755,182.99017 c -14.28392,-5.53037 -22.60267,-18.37083 -22.71282,-27.14176 -0.11014,-8.77093 4.99704,-25.92439 4.99704,-25.92439 0.8232,1.63476 2.13912,2.61447 2.13912,2.61447 -5.55357,-17.93605 0.24348,-26.39974 8.10427,-28.71856 6.54486,-3.29852 6.54486,-3.29852 6.54486,-3.29852 0,0 6.46371,-3.872425 20.23169,-5.883997 13.76798,-2.011575 21.06646,-0.150724 21.06646,-0.150724 l 7.21732,1.28694 c 8.19702,-0.02895 16.17375,6.423131 15.98825,25.199751 0,0 0.9797,-1.31592 1.30433,-3.1188 0,0 9.80281,14.97376 12.20858,23.40847 2.40578,8.43469 -1.88984,23.1244 -13.99406,32.50982 -3.81446,2.9565 -7.24632,8.08688 -9.29846,12.45785 -0.85217,1.81448 -1.65796,4.02894 -2.09274,6.02313 0,0 -24.24993,10.60274 -40.3996,-0.48695 -3.09562,-4.09272 -6.36516,-6.8637 -11.30424,-8.77673 z"
     id="path10933-6"
     style="fill:#ffffff;fill-opacity:1;stroke-width:0.57970446"
     sodipodi:nodetypes="csccccsccccsccccc" /><g
     id="g852"><path
       inkscape:connector-curvature="0"
       class="st0"
       d="m 249.65618,289.05125 c -4.06374,4.26081 -14.63762,9.86714 -16.75782,14.50851 -2.32408,5.08307 0.48247,35.94165 7.7741,41.29655 7.29842,5.35489 28.42388,12.33229 46.50195,10.0778 0,0 23.23703,12.40848 29.83247,-5.35489 17.71599,-5.26657 28.97622,-19.92455 29.95478,-30.46445 0.97856,-10.5399 -3.5133,-31.67406 -3.5133,-31.67406 -1.14844,1.88916 -2.82694,2.94246 -2.82694,2.94246 8.41289,-21.04581 2.12701,-31.45659 -6.97903,-35.34366 -10.26107,-1.54922 -20.1355,2.79226 -20.94389,-3.87345 0,0 -16.76462,-4.61419 -27.82778,-3.6628 -6.83839,5.50814 -8.37176,4.80531 -12.39508,0.83586 0,0 -15.26961,0.42811 -16.37048,20.87592 0,0 -2.98325,1.97751 -5.41605,8.61676 -2.43282,6.63246 -1.03293,11.21945 -1.03293,11.21945 z"
       id="path44-9"
       style="fill:#ffffff;fill-opacity:1;stroke-width:0.679555"
       sodipodi:nodetypes="cccccsccccccccc" /><path
       inkscape:connector-curvature="0"
       class="st0"
       d="m 295.68924,288.84059 c 1.08728,4.05693 12.95912,-2.49396 14.56286,-3.30944 4.7161,-2.39882 10.28167,-4.31517 15.46668,-5.50438 1.67849,-0.38735 3.52009,-0.27862 5.08307,-0.72713 3.99578,-8.54881 -17.18595,-9.14002 -21.42637,-8.56919 -9.3099,1.25717 -18.97316,5.96649 -18.3344,16.78501"
       id="path46-1"
       style="opacity:0.31400003;fill:#103f3f;fill-opacity:1;stroke-width:0.679555" /><path
       inkscape:connector-curvature="0"
       class="st0"
       d="m 265.76164,280.65194 c -1.96391,1.18244 -3.90744,-0.86303 -4.70252,-2.4192 -1.0601,-2.07944 -0.86983,-4.74331 -2.35806,-6.5645 -0.84945,-1.03973 -1.32512,-1.04652 -0.48248,-2.32408 1.02611,-1.54939 2.97645,-1.80083 4.7297,-1.36591 4.51224,1.12127 6.07522,7.31201 5.80339,11.28741"
       id="path48-2"
       style="opacity:0.31400003;fill:#103f3f;fill-opacity:1;stroke-width:0.679555" /></g></g><g
   inkscape:groupmode="layer"
   id="layer2"
   inkscape:label="Layer 2"><g
     transform="translate(-504.35486,-44.360147)"
     id="Head"
     style="fill:#103f3f;fill-opacity:1"
     inkscape:export-xdpi="96"
     inkscape:export-ydpi="96" /><g
     transform="matrix(0.51595623,0,0,0.51595623,185.89939,65.981263)"
     id="Head-6"
     style="opacity:0.5;fill:#103f3f;fill-opacity:1"><path
       inkscape:connector-curvature="0"
       class="st3"
       d="m 267.49,218.74 c -24.64,-9.54 -38.99,-31.69 -39.18,-46.82 -0.19,-15.13 8.62,-44.72 8.62,-44.72 1.42,2.82 3.69,4.51 3.69,4.51 -9.58,-30.94 0.42,-45.54 13.98,-49.54 13.56,-4 22.51,8.84 22.51,8.84 -2,-6.78 -11.22,-14.53 -11.22,-14.53 0,0 11.15,-6.68 34.9,-10.15 23.75,-3.47 36.34,-0.26 36.34,-0.26 0,0 -6.61,10.06 -6.59,17.13 0,0 4.9,-14.87 19.04,-14.91 14.14,-0.05 27.9,11.08 27.58,43.47 0,0 1.69,-2.27 2.25,-5.38 0,0 16.91,25.83 21.06,40.38 4.15,14.55 -3.26,39.89 -24.14,56.08 -6.58,5.1 -12.5,13.95 -16.04,21.49 -1.47,3.13 -2.86,6.95 -3.61,10.39 0,0 -41.83154,18.28991 -69.69,-0.84 -5.34,-7.06 -10.98,-11.84 -19.5,-15.14 z m 14.87,-81.51 c 0,0 -0.65,-25.17 -19.18,-27.51 -13.49,-1.71 -14.8,16.31 -13.49,25.22 -0.01,0 7.28,22.18 32.67,2.29 z m 11.1,11.53 c -1.08,-0.39 -2.28,-0.49 -3.44,-0.33 -1.15,0.21 -2.22,0.6 -3.2,1.24 -0.5,0.29 -0.92,0.71 -1.36,1.09 -0.37,0.44 -0.78,0.86 -1.06,1.36 -0.62,0.96 -1,2.02 -1.2,3.07 -0.41,2.11 -0.17,4.22 0.65,6.08 0.42,-1.97 0.87,-3.8 1.6,-5.39 0.36,-0.79 0.77,-1.53 1.28,-2.13 0.48,-0.63 1.06,-1.15 1.71,-1.56 l 0.49,-0.31 c 0.17,-0.1 0.36,-0.16 0.54,-0.25 0.35,-0.2 0.73,-0.27 1.09,-0.41 0.74,-0.18 1.5,-0.26 2.3,-0.18 1.61,0.17 3.3,0.99 4.95,2.13 -0.67,-1.91 -2.19,-3.61 -4.35,-4.41 z m -3.85,8.85 c -0.48,1.84 -0.38,4.44 1.7,5.14 0.92,0.31 1.65,0.13 2.2,-0.73 1.41,-2.24 -1.4,-7.04 -3.9,-4.41 z m 79.8,-40.18 c -1.3,-8.91 -7.71,-25.8 -20.15,-20.3 -17.09,7.55 -10.5,31.85 -10.5,31.85 30.02,11.79 30.65,-11.55 30.65,-11.55 z m -36.77,27.8 c 0.74,-0.31 1.49,-0.45 2.26,-0.49 0.39,0.03 0.77,-0.01 1.17,0.08 0.19,0.04 0.4,0.04 0.59,0.09 l 0.56,0.16 c 0.74,0.21 1.44,0.54 2.09,1 0.67,0.43 1.26,1.03 1.84,1.68 1.16,1.31 2.11,2.94 3.08,4.7 0.26,-2.02 -0.12,-4.11 -1.12,-6.01 -0.5,-0.95 -1.16,-1.86 -2.03,-2.6 -0.41,-0.4 -0.92,-0.68 -1.4,-1 -0.53,-0.23 -1.05,-0.52 -1.61,-0.65 -1.12,-0.33 -2.25,-0.4 -3.42,-0.27 -1.16,0.18 -2.29,0.62 -3.2,1.3 -1.84,1.38 -2.81,3.45 -2.93,5.47 1.24,-1.57 2.62,-2.85 4.12,-3.46 z m 2.53,10.7 c 0.77,0.67 1.53,0.63 2.32,0.07 1.79,-1.27 1.15,-3.79 0.16,-5.42 -3.16,-1.79 -4.47,3.61 -2.48,5.35 z m 44.57,2.76 c -0.38,-0.33 -0.86,-0.63 -1.39,-0.79 -0.53,-0.16 -1.06,-0.18 -1.52,-0.1 -0.92,0.17 -1.58,0.57 -2.32,1.18 0.74,0.63 1.57,0.89 2.13,1.17 0.5,0.24 0.71,0.43 0.99,0.68 -1.2,1.42 -11.15,12.68 -25.85,15.78 -15.69,3.3 -21.85,-0.85 -34.72,1.03 -12.86,1.88 -17.58,7.62 -33.56,8.95 -14.96,1.24 -27.72,-6.7 -29.28,-7.72 0.2,-0.31 0.35,-0.56 0.76,-0.93 0.46,-0.43 1.18,-0.91 1.7,-1.73 -0.89,-0.38 -1.63,-0.57 -2.56,-0.47 -0.46,0.05 -0.97,0.23 -1.43,0.53 -0.46,0.3 -0.84,0.72 -1.11,1.15 -0.52,0.85 -0.73,1.82 -0.6,2.77 0.14,0.94 0.6,1.76 1.38,2.32 0.41,-0.88 0.67,-1.55 0.96,-2.09 0.27,-0.53 0.55,-1 0.81,-1.41 0.01,-0.02 0.02,-0.04 0.04,-0.06 1.46,2.59 18.38,30.46 66.51,23.42 48.13,-7.04 56.37,-38.58 57.02,-41.48 0.02,0.02 0.03,0.03 0.05,0.04 0.37,0.32 0.77,0.7 1.18,1.12 0.43,0.44 0.87,1.01 1.52,1.73 0.59,-0.76 0.79,-1.68 0.66,-2.62 -0.15,-0.93 -0.62,-1.81 -1.37,-2.47 z"
       id="path10933"
       style="fill:#103f3f;fill-opacity:1"
       sodipodi:nodetypes="csccsccscccccscccccccccccccccccccccccccccccccccccccccccsccccccccccccscccccccccccsccccccscccccc" /></g><g
     transform="matrix(-0.62766685,0,0,0.62766685,507.608,210.35356)"
     id="Head-7"
     style="opacity:0.5;fill:#103f3f;fill-opacity:1"><path
       inkscape:connector-curvature="0"
       class="st0"
       d="m 406.11,127.11 c 5.98,6.27 21.54,14.52 24.66,21.35 3.42,7.48 -0.71,52.89 -11.44,60.77 -10.74,7.88 -41.82719,18.1476 -68.43,14.83 0,0 -34.19448,18.25971 -43.9,-7.88 -26.07,-7.75 -42.64,-29.32 -44.08,-44.83 -1.44,-15.51 5.17,-46.61 5.17,-46.61 1.69,2.78 4.16,4.33 4.16,4.33 -12.38,-30.97 -3.13,-46.29 10.27,-52.01 27.71,-11.82 42.64,13.54 42.64,13.54 0,0 -3.83,-14.23 -11.82,-19.24 0,0 24.67,-6.79 40.95,-5.39 16.28,1.4 28.75,18.49 28.75,18.49 0,0 -2.63,-10.23 -10.51,-17.26 0,0 22.47,0.63 24.09,30.72 0,0 4.39,2.91 7.97,12.68 3.58,9.76 1.52,16.51 1.52,16.51 z m -68.91,13.81 c 0,0 -3.23,-30.41 -25.89,-31.44 -16.51,-0.75 -16.33,21.18 -13.88,31.84 -0.01,-0.01 10.96,26.13 39.77,-0.4 z m 36.98,6.83 c -1.14,-0.31 -2.38,-0.31 -3.56,-0.05 -1.17,0.31 -2.23,0.8 -3.18,1.54 -0.49,0.33 -0.88,0.8 -1.3,1.23 -0.34,0.49 -0.73,0.95 -0.97,1.48 -0.57,1.04 -0.86,2.15 -0.99,3.25 -0.25,2.19 0.17,4.34 1.16,6.19 0.27,-2.06 0.58,-3.97 1.21,-5.66 0.31,-0.84 0.66,-1.63 1.14,-2.3 0.44,-0.69 1,-1.26 1.63,-1.74 l 0.48,-0.35 c 0.16,-0.12 0.36,-0.2 0.53,-0.3 0.35,-0.24 0.72,-0.35 1.09,-0.51 0.75,-0.25 1.52,-0.39 2.35,-0.37 1.67,0.04 3.47,0.75 5.26,1.77 -0.87,-1.91 -2.56,-3.54 -4.85,-4.18 z m -3.21,9.4 c -0.34,1.93 -0.03,4.58 2.17,5.14 0.96,0.24 1.71,0 2.19,-0.94 1.27,-2.41 -2.02,-7.1 -4.36,-4.2 z m 34.28,-11.24 c 1.16,-1.7 2.47,-3.12 3.96,-3.89 0.74,-0.38 1.49,-0.59 2.27,-0.69 0.4,-0.01 0.79,-0.07 1.2,-0.01 0.2,0.02 0.41,0 0.61,0.04 l 0.58,0.11 c 0.77,0.15 1.52,0.42 2.22,0.85 0.72,0.39 1.38,0.95 2.03,1.57 1.3,1.25 2.41,2.84 3.55,4.57 0.09,-2.09 -0.47,-4.21 -1.65,-6.08 -0.59,-0.93 -1.34,-1.81 -2.3,-2.49 -0.44,-0.37 -1,-0.62 -1.52,-0.91 -0.56,-0.2 -1.12,-0.45 -1.71,-0.54 -1.18,-0.26 -2.35,-0.23 -3.53,0 -1.17,0.28 -2.29,0.82 -3.18,1.6 -1.77,1.58 -2.59,3.78 -2.53,5.87 z m -2.79,-18.33 c 0,0 0.94,-8.26 -0.61,-14.37 0.09,-2.09 -4.86,-12.91 -9.3,-12.99 -7.31,-0.14 -9.07,8.29 -9.01,10.38 4.03,11.15 18.92,16.98 18.92,16.98 z m 10.22,25.22 c 0.84,0.63 1.62,0.53 2.38,-0.11 1.74,-1.46 0.86,-3.99 -0.28,-5.58 -3.38,-1.59 -4.29,4.07 -2.1,5.69 z m 12.74,19.89 c -0.9,2.15 -2.32,2.78 -5.14,-0.62 -4.49,1.11 -3.34,7.52 -7.95,7.8 -3.49,0.21 -6.68,-1.78 -9.83,-2.95 -3.14,-1.17 -5.88,-1.21 -9.16,-0.79 -6.96,0.88 -14.62,3.72 -19.9,8.46 -3.93,3.53 -5.6,9.5 -9.9,12.68 -3.23,2.39 -6.88,1.55 -9.97,-0.72 -4.42,-3.23 -5.2,-10.1 -9.65,-12.58 -5.67,-3.16 -6.46,4.2 -10.36,6.16 -5.35,2.68 -11.56,-0.79 -16.22,-3.34 0.66,3.88 6.42,6.81 10.03,7.49 6.98,1.3 12.59,-9.56 18.79,-0.82 1.11,1.56 2.31,3.31 3.28,4.95 2.32,3.96 5.34,5.96 10.37,5.26 12.57,-1.76 14.43,-15.46 25.19,-20.17 2.99,-1.31 6.37,-1.96 9.62,-2.11 6.87,-0.32 19.11,8.18 23.75,-0.65 1.35,-2.58 2.49,-5.38 4.87,-1.87 4.06,-0.45 3.4,-8.43 3.43,-11.15 -0.35,1.83 -0.71,3.67 -1.25,4.97 z"
       id="path44"
       style="fill:#103f3f;fill-opacity:1"
       sodipodi:nodetypes="cccccscccccsccccccccccccccccccccccccccccccccccccccccccccccccccccccccccccccccccccccccccc" /><path
       inkscape:connector-curvature="0"
       class="st0"
       d="m 338.37,126.8 c -1.6,5.97 -19.07,-3.67 -21.43,-4.87 -6.94,-3.53 -15.13,-6.35 -22.76,-8.1 -2.47,-0.57 -5.18,-0.41 -7.48,-1.07 -5.88,-12.58 25.29,-13.45 31.53,-12.61 13.7,1.85 27.92,8.78 26.98,24.7"
       id="path46"
       style="fill:#103f3f;fill-opacity:1" /><path
       inkscape:connector-curvature="0"
       class="st0"
       d="m 382.41,114.75 c 2.89,1.74 5.75,-1.27 6.92,-3.56 1.56,-3.06 1.28,-6.98 3.47,-9.66 1.25,-1.53 1.95,-1.54 0.71,-3.42 -1.51,-2.28 -4.38,-2.65 -6.96,-2.01 -6.64,1.65 -8.94,10.76 -8.54,16.61"
       id="path48"
       style="fill:#103f3f;fill-opacity:1" /></g><g
     transform="matrix(1.0872884,0,0,1.0872884,-244.02449,-93.226489)"
     id="Head-5"
     style="opacity:0.5;fill:#103f3f;fill-opacity:1"
     inkscape:export-xdpi="96"
     inkscape:export-ydpi="96"><path
       inkscape:connector-curvature="0"
       class="st0"
       d="m 405.68,210.85 c 3.98,6.7 15.96,17.05 17.33,23.66 1.5,7.24 -11.24,46.22 -22.23,50.96 -10.99,4.75 -36.22,9.99 -62.95,-0.75 l -36.89,-15.74 c -21.3,-12.04 -31.48,-34.26 -29.63,-48.15 1.85,-13.89 13.89,-39.82 13.89,-39.82 0.93,2.78 2.78,4.63 2.78,4.63 -4.63,-29.63 6.56,-41.2 19.45,-43.52 26.66,-4.8 34.66,20.43 34.66,20.43 0,0 -0.5,-13.24 -6.5,-19.24 0,0 22.98,-1 36.97,3.5 13.99,4.5 21.48,21.98 21.48,21.98 0,0 -0.25,-9.49 -5.75,-17.24 0,0 19.57,5.06 14.95,31.76 0,0 3.27,3.43 4.44,12.72 1.17,9.29 -2,14.82 -2,14.82 z m -63.18,-1.74 c 0,0 3.28,-27.3 -16.38,-32.76 -14.32,-3.97 -18.56,15.29 -18.56,25.12 0,0 4.37,25.11 34.94,7.64 z m 31.04,13.42 c -0.94,-0.5 -2.03,-0.75 -3.11,-0.76 -1.08,0.04 -2.11,0.25 -3.09,0.71 -0.5,0.19 -0.94,0.53 -1.39,0.81 -0.4,0.36 -0.83,0.69 -1.15,1.1 -0.7,0.8 -1.19,1.71 -1.52,2.65 -0.66,1.87 -0.72,3.84 -0.22,5.66 0.65,-1.75 1.31,-3.36 2.19,-4.72 0.44,-0.68 0.91,-1.3 1.46,-1.79 0.53,-0.52 1.13,-0.91 1.78,-1.19 l 0.49,-0.21 c 0.17,-0.07 0.35,-0.1 0.53,-0.16 0.35,-0.14 0.7,-0.16 1.06,-0.23 0.7,-0.06 1.41,-0.04 2.13,0.15 1.45,0.37 2.89,1.35 4.25,2.61 -0.37,-1.85 -1.53,-3.62 -3.41,-4.63 z m -4.7,7.59 c -0.69,1.62 -0.94,4.01 0.87,4.94 0.8,0.41 1.5,0.34 2.11,-0.38 1.6,-1.86 -0.34,-6.64 -2.98,-4.56 z m 32.31,-2.96 c 1.36,-1.26 2.8,-2.24 4.25,-2.61 0.72,-0.19 1.43,-0.21 2.13,-0.15 0.35,0.07 0.7,0.09 1.06,0.23 0.18,0.06 0.36,0.08 0.53,0.16 l 0.49,0.21 c 0.65,0.29 1.25,0.68 1.78,1.19 0.56,0.49 1.02,1.11 1.46,1.79 0.89,1.36 1.55,2.97 2.19,4.72 0.5,-1.81 0.44,-3.79 -0.22,-5.66 -0.33,-0.94 -0.81,-1.85 -1.52,-2.65 -0.31,-0.42 -0.75,-0.74 -1.15,-1.1 -0.45,-0.29 -0.89,-0.62 -1.39,-0.81 -0.98,-0.46 -2.01,-0.68 -3.09,-0.71 -1.08,0.01 -2.18,0.26 -3.11,0.76 -1.89,1.01 -3.04,2.78 -3.41,4.63 z m 1.24,-16.64 c 0,0 2.48,-7.05 2.36,-12.72 0.5,-1.81 -1.67,-12.29 -5.54,-13.26 -6.38,-1.6 -9.61,5.44 -9.98,7.29 1.27,10.6 13.16,18.69 13.16,18.69 z m 3.89,24.16 c 0.61,0.72 1.31,0.79 2.11,0.38 1.81,-0.94 1.56,-3.32 0.87,-4.94 -2.64,-2.08 -4.58,2.7 -2.98,4.56 z m 7.05,19.91 c -2.05,1.58 -3.68,3.23 -6.19,4.17 -8.55,3.2 -17.84,-2 -26.65,-2 -12.04,0 -17.13,4.63 -31.95,3.7 -13.88,-0.87 -24.5,-9.85 -25.8,-10.99 0.22,-0.26 0.39,-0.46 0.81,-0.75 0.47,-0.33 1.2,-0.68 1.8,-1.35 -0.77,-0.46 -1.42,-0.74 -2.29,-0.77 -0.43,-0.01 -0.92,0.08 -1.38,0.3 -0.46,0.21 -0.86,0.56 -1.17,0.91 -0.59,0.7 -0.91,1.57 -0.93,2.45 0,0.88 0.31,1.69 0.95,2.31 0.49,-0.75 0.82,-1.32 1.16,-1.79 0.32,-0.44 0.64,-0.84 0.93,-1.19 0.02,-0.02 0.03,-0.03 0.04,-0.05 -0.32,0.64 1.85,3.77 2.15,4.29 1.79,3.01 3.97,5.79 6.4,8.31 7.72,7.97 17.81,13.36 28.82,14.56 3.19,0.35 6.42,0.3 9.63,0.57 5.23,0.44 10.34,0.28 15.52,-0.48 2.55,-0.37 5.05,-0.2 7.51,-1.11 2.82,-1.05 5.28,-2.71 7.89,-4.16 5.78,-3.23 13.2,-9.5 12.75,-16.93 z"
       id="path11853-3"
       style="fill:#103f3f;fill-opacity:1"
       sodipodi:nodetypes="cccccscccccscccsccccccccccccscccccccccccccccccccccccccccccccccccccccscccccccccccccccccccc" /></g><g
     transform="matrix(0.51595623,0,0,0.51595623,187.10013,64.74851)"
     id="Head-6-5"
     style="fill:#103f3f;fill-opacity:1" /></g></svg>