<?xml version="1.0" encoding="UTF-8"?>
<svg width="21.891mm" height="25mm" version="1.1" viewBox="0 0 21.891 25" xmlns="http://www.w3.org/2000/svg" xmlns:cc="http://creativecommons.org/ns#" xmlns:dc="http://purl.org/dc/elements/1.1/" xmlns:rdf="http://www.w3.org/1999/02/22-rdf-syntax-ns#">
 <metadata>
  <rdf:RDF>
   <cc:Work rdf:about="">
    <dc:format>image/svg+xml</dc:format>
    <dc:type rdf:resource="http://purl.org/dc/dcmitype/StillImage"/>
    <dc:title/>
   </cc:Work>
  </rdf:RDF>
 </metadata>
 <g transform="translate(-19.122 -9.2825)">
  <g transform="matrix(.61948 0 0 .61948 114.03 23.889)">
   <g transform="translate(-61.979 42.716)">
    <rect x="-90.724" y="-65.796" width="34.339" height="39.358" ry="6.591" fill="#ccc" stroke="#000" stroke-linecap="round" stroke-width=".99835"/>
    <g transform="translate(-1.6744 .89452)">
     <g>
      <g>
       <g transform="matrix(.043099 0 0 .043099 -87.18 -59.866)">
        <path class="st0" d="m29.13 443.48c7.63-7.9 35.46-36.14 83.9-12.24s55.79 154.29 180.9 91.05c20.22-10.22 39.68-23.72 52.99-42.36 4.88-6.83 8.86-14.3 11.63-22.23 1.24-3.55 6.9-16.99 1.76-18.8-5.19-1.82-10.93 21.66-13.22 26.03-12.06 22.98-34.04 39.03-56.73 50.5-119.06 60.17-127.45-61.29-172.16-86.66-15.95-9.05-28.76-11.86-39.08-10.77 0 0 35.22-11.7 78.17 44.95 42.95 56.64 99.6 55.11 137.5 23.66 8.03-6.67 27.85-24.13 15.05-33.84-14.3-10.85-28.97 10.5-38.69 17.41-10.45 7.43-22.71 11.14-35.53 9.81-30.39-3.16-56.14-28.6-76.01-49.61-45.95-48.59-107.78-33.35-128.27-13.61-20.47 19.76-9.83 34.62-2.21 26.71z"/>
        <path class="st0" d="m430.62 610.43 25.91 0.61s1.72-6.31 12.09-5.85c10.38 0.45 11.81 7.62 11.81 7.62-10.98-1.97-14.21 4.94-14.21 4.94l-15.42 1.9 16.68 2.17s6.82-7.63 14.27-3.91 13.08 11.69 6.38 21.38-16.28 5.05-16.28 5.05c7.81-17.52-15.6-19.82-15.6-19.82-7.45-3.72-14.56-1.25-14.56-1.25 4.13-0.23 9.46 2.57 9.46 2.57-2.01 1.15-6.87 6.6-6.87 6.6 15.87-12.28 24.39 1.22 25.34 8.93 0.68 5.52-5.32 15.82-16.85 13.37-9.32-1.99-14.11-11.63-14.11-11.63s-40.76-7.03-41.97-10.06c-1.21-3.04 0.6-9.91 6.36-24.16s15.17-53.39 1.28-68.69c-8.41-9.27-18.28-17.2-29-23.64-16.59-9.96-33.6-17.94-51.89-24.5-3.51-1.26-7.16-2.07-10.64-3.37-5.48-2.05-8.26-3.42-7.5-9.6 0.82-6.67 5.57-11.9 12.02-13.56 10.7-2.75 26.49 2.55 36.76 5.17 32.45 8.29 64.66 27.5 77.7 59.77 11.62 28.76-1.25 79.66-1.25 79.66"/>
        <path class="st0" d="m285.09 343.43c22.18-44.71 95.52-102.27 95.52-102.27l18.23 3.27 21.28 8.83s22.37 24.23 17.54 32.65c-4.83 8.43-41.66 36.13-54.64 83.82-12.97 47.69-0.37 100.85-4.18 111.01s-99.89 20.17-116.34 3.28c-16.46-16.9 0.41-95.88 22.59-140.59zm112.68-54.71c-10.76-17.72-62 18.25-78.02 64.69s-15.59 90.48 16.55 93.42 16.74-45.21 27.64-82.36 43.89-59.19 33.83-75.75z"/>
        <path class="st0" d="m347.54 473.1c-16.41 5.47-90.28 101.22-111.62 103.41s-45.96-31.73-47.6-36.66c-1.64-4.92 2.74-14.77 8.21-15.87s34.47 9.85 34.47 9.85l53.62-75.51z"/>
        <path class="st0" d="m197.47 543.35s-8.65 11.3-14.56 18.89-27.42 23.84-27.42 23.84c1.69 6.54-2.74 19.2-15.19 16.24-12.45-2.95-8.02-14.98-8.02-14.98s-10.13 1.9-14.35-7.59 3.16-13.5 3.16-13.5c-12.87-4.64-10.13-20.67 0.42-22.99s14.77 5.06 14.77 5.06 7.81-1.48 13.29-5.06c5.48-3.59 14.56-7.92 17.93-15.09 3.38-7.17 13.92-14.77 21.1-13.71 7.17 1.05 12.87 11.18 12.87 11.18zm-63.12 20.88c-0.52-0.39-1.11-0.69-1.72-0.93 0.53-0.68 0.93-1.46 1.2-2.27 0.29-0.84 0.42-1.72 0.4-2.58-0.04-0.86-0.17-1.71-0.58-2.47-0.26 0.8-0.51 1.53-0.84 2.2-0.31 0.68-0.66 1.3-1.04 1.88-0.39 0.57-0.8 1.11-1.27 1.59-0.45 0.5-0.97 0.92-1.49 1.36l-3.21 2.68 4.11-0.18c0.44-0.02 1.11 0.02 1.68 0.11 0.59 0.09 1.17 0.24 1.74 0.44s1.14 0.46 1.7 0.81c0.58 0.33 1.09 0.78 1.69 1.24-0.2-1.47-1.07-2.93-2.37-3.88zm9.31 17.63c-0.72-0.22-1.47-0.35-2.22-0.43 0.2-0.44 0.37-0.89 0.51-1.35 0.19-0.64 0.33-1.29 0.4-1.95 0.07-0.67 0.11-1.33 0.01-2.02-0.46 0.52-0.84 1.04-1.23 1.54l-1.1 1.51c-0.71 0.99-1.39 1.94-2.09 2.81l-2.08 2.55 3.36-0.31c0.58-0.05 1.32-0.1 2-0.11 0.69-0.03 1.39-0.02 2.09-0.01 0.71 0.01 1.42 0.03 2.15 0.07 0.74 0.01 1.47 0.12 2.29 0.14-1.1-1.2-2.56-1.99-4.09-2.44z"/>
       </g>
       <path class="st0" d="m-70.869-48.181s-0.86931 0.10473-1.3218-0.17627c-0.45254-0.28101-2.7484-1.7395-2.7484-1.7395l-2.7657 3.1497-0.39522-0.39781s2.4877-3.9108 2.6954-3.966c0.08016-0.02111 0.21464 0.04655 0.2879 0.07068 0.20472 0.0668 0.40642 0.14352 0.6077 0.22024 0.55943 0.21334 1.1145 0.43875 1.6684 0.66588 0.72406 0.29696 1.4645 0.70941 2.2481 0.78785 0.36117 0.03621 0.51633 0.28575 0.70036 0.55598" stroke-width=".043099"/>
       <path class="st0" d="m-68.42-48.139s0.69002 0.5396 0.81199 1.0577c0.12197 0.51805 0.71889 3.1721 0.71889 3.1721l4.1823-0.27885-4.97e-4 0.56072s-4.5228 1.0141-4.7086 0.90681c-0.18576-0.10732-1.8658-4.2401-1.8658-4.2401" stroke-width=".043099"/>
      </g>
      <g stroke-width=".043099">
       <path class="st1" d="m-58.309-46.779-1.7222-1.1611c-0.22756-0.15343-0.54003-0.11335-0.7413 0.09741-0.53357 0.55942-0.96499 1.2107-1.3037 1.9455-0.12326 0.26721-0.04482 0.57537 0.18446 0.7301l0.51891 0.34996-1.827 2.5066c-0.05948 0.08189-0.01896 0.21119 0.09094 0.28747l0.38919 0.2698c0.10947 0.07585 0.24523 0.06896 0.30083-0.01552 0.05043-0.07629 0.12283-0.15214 0.15473-0.23834 0.0431-0.11766-0.06766-0.22756-0.12197-0.34781-0.03922-0.08706-0.05215-0.16938-0.01594-0.23834 0.01896-0.0362 0.06853-0.05689 0.08534-0.09051 0.01724-0.03491 0.0073-0.09396 0.02026-0.13404 0.01638-0.05086 0.04483-0.09913 0.0793-0.14007 0.08792-0.10387 0.23877-0.10818 0.38574-0.12757 0.1349-0.01767 0.21808-0.06034 0.29135-0.15731 0.06939-0.09266-0.01076-0.15343-0.02543-0.25903-0.0086-0.06379 0.0431-0.09611 0.10688-0.09611 0.05689 0 0.12671 0.05862 0.18274 0.05258 0.07629-0.0078 0.1168-0.1349 0.15128-0.18705 0.03922-0.05948 0.26937-0.38143 0.43961-0.62063l0.5021 0.33833c0.22972 0.15473 0.54477 0.11163 0.74605-0.10258 0.55468-0.5896 0.99688-1.2335 1.3154-1.9377 0.12025-0.26549 0.04008-0.57064-0.18748-0.72406z"/>
       <circle class="st2" cx="-58.265" cy="-47.048" r=".84604"/>
       <path class="st3" d="m-58.701-47.087c-0.07586 0-0.13706-0.05948-0.14137-0.13404-0.01552 0.02284-0.02456 0.05043-0.02456 0.07973 0 0.07844 0.06378 0.14223 0.14223 0.14223 0.07844 0 0.14223-0.06379 0.14223-0.14223 0-3e-3 -7.95e-4 -0.0056-7.95e-4 -0.0082-0.02543 0.03793-0.06896 0.0625-0.11766 0.0625z"/>
       <path class="st3" d="m-58.179-46.998c-0.07585 0-0.13705-0.05948-0.14136-0.13404-0.01551 0.02284-0.02456 0.05043-0.02456 0.07973 0 0.07844 0.06378 0.14223 0.14223 0.14223 0.07844 0 0.14223-0.06379 0.14223-0.14223 0-3e-3 -7.94e-4 -0.0056-7.94e-4 -0.0082-0.02543 0.0375-0.06853 0.0625-0.11766 0.0625z"/>
       <path class="st3" d="m-57.695-46.909c-0.07585 0-0.13705-0.05948-0.14136-0.13404-0.01551 0.02284-0.02456 0.05043-0.02456 0.07973 0 0.07844 0.06379 0.14223 0.14223 0.14223 0.07844 0 0.14223-0.06379 0.14223-0.14223 0-3e-3 -7.94e-4 -0.0056-7.94e-4 -0.0082-0.02543 0.03793-0.06896 0.0625-0.11766 0.0625z"/>
       <path class="st3" d="m-58.143-47.56c-0.07585 0-0.13706-0.05948-0.14136-0.13404-0.01551 0.02284-0.02457 0.05043-0.02457 0.07973 0 0.07844 0.06379 0.14223 0.14223 0.14223 0.07844 0 0.14223-0.06379 0.14223-0.14223 0-3e-3 -7.95e-4 -0.0056-7.95e-4 -0.0082-0.02543 0.0375-0.06896 0.0625-0.11766 0.0625z"/>
       <path class="st3" d="m-58.346-46.507c-0.07586 0-0.13706-0.05948-0.14137-0.13404-0.01551 0.02284-0.02456 0.05042-0.02456 0.07973 0 0.07844 0.06379 0.14223 0.14223 0.14223 0.07844 0 0.14223-0.06379 0.14223-0.14223 0-3e-3 -7.95e-4 -0.0056-7.95e-4 -0.0082-0.02543 0.03749-0.06853 0.06249-0.11766 0.06249z"/>
      </g>
      <g transform="matrix(.043099 0 0 .043099 -87.18 -59.866)">
       <path class="st0" d="m439.84 272.74c-8.2 4.16-16.55 8.23-24.89 12.1-9.93 4.61-22.49-2.63-27.58-11.39-2-3.44-3.76-9.99-3.2-14.04 0.75-5.41 2.7-4.76 6.71-6.52 4.93-2.16 8.6-4.9 9.27-10.39 0.4-3.25 0.36-7.03 0.04-10.23-0.78-7.7-3.25-17.3-7.44-23.8-13.32-20.64-12.01-45.16-3.88-56.64 8.13-11.49 30.93-28.92 30.93-28.92-0.47 2.9 0.31 5.41 0.31 5.41 9.71-28.51 25.21-34.03 37.6-29.63s12.11 18.95 12.11 18.95c2.2-6.2-0.5-17.06-0.5-17.06s12.04 1.07 31.8 11.44 27.48 19.67 27.48 19.67-10.48 3.95-14.32 9.29c0 0 11.81-8.5 22.48-0.81 10.66 7.7 14.93 23.59-3.02 47.77 0 0 2.51-0.78 4.63-2.82 0 0-1.39 28.67-6.23 41.89-4.83 13.22-24.26 28.22-48.82 28.99-8.5 0.27-36.4 13.15-43.48 16.74zm84.95-84.76c3.89-7.41 8.3-23.62-4.06-26.28-16.98-3.66-25.31 18.22-25.31 18.22 16.13 25.27 29.37 8.06 29.37 8.06zm-47.86 1.14c1.8-0.49 3.54-0.69 5-0.34 0.73 0.17 1.37 0.48 1.96 0.87 0.28 0.24 0.58 0.41 0.83 0.7 0.13 0.13 0.28 0.24 0.39 0.38l0.34 0.42c0.44 0.56 0.79 1.19 1.02 1.9 0.27 0.69 0.39 1.46 0.47 2.27 0.15 1.62-0.01 3.36-0.25 5.22 1.3-1.38 2.15-3.16 2.45-5.13 0.14-0.98 0.14-2.03-0.11-3.06-0.09-0.52-0.32-1.01-0.51-1.52-0.27-0.46-0.5-0.96-0.85-1.37-0.66-0.86-1.47-1.53-2.42-2.07-0.97-0.5-2.06-0.79-3.12-0.77-2.15 0.02-4.01 1.05-5.2 2.5zm1.05 9.1c0.21 0.93 0.8 1.31 1.7 1.32 2.05 0.02 2.93-2.22 3.08-3.99-1.38-3.07-5.32 0.28-4.78 2.67zm-29.5-42.93s13.27-19.29 0.61-31.18c-9.22-8.66-20.05 4.18-23.94 11.59 0.01 0-6.64 20.67 23.33 19.59zm2.93 20.44c0.52-1.81 0.31-3.92-0.88-5.7-0.6-0.88-1.45-1.62-2.41-2.13-0.98-0.47-2-0.76-3.08-0.81-0.53-0.06-1.08 0.03-1.61 0.08-0.52 0.13-1.06 0.22-1.54 0.44-0.99 0.38-1.86 0.97-2.58 1.65-1.46 1.36-2.44 3.08-2.84 4.93 1.39-1.25 2.73-2.38 4.15-3.18 0.71-0.39 1.41-0.73 2.13-0.9 0.71-0.21 1.42-0.28 2.14-0.24l0.54 0.04c0.18 0.01 0.36 0.08 0.54 0.11 0.38 0.04 0.7 0.19 1.05 0.28 0.66 0.27 1.27 0.62 1.83 1.12 1.11 1.01 1.93 2.55 2.56 4.31zm-8.61-1.15c-1.36 1.12-2.71 3.13-1.53 4.8 0.52 0.74 1.17 1 2.06 0.65 2.27-0.91 2.79-6.06-0.53-5.45zm-41.4-4.12c-0.41 0.78-0.52 1.65-0.23 2.5 0.79-0.43 1.35-0.8 1.86-1.05 0.49-0.25 0.96-0.45 1.38-0.62 0.02-0.01 0.04-0.01 0.06-0.02-0.32 2.75-2.83 32.96 37.23 53.98 40.05 21.02 63.49 1.79 65.57-0.03 0.01 0.02 0.01 0.04 0.01 0.06 0.1 0.44 0.2 0.94 0.27 1.49 0.08 0.56 0.1 1.23 0.2 2.13 0.86-0.25 1.51-0.83 1.93-1.61 0.4-0.79 0.52-1.71 0.33-2.61-0.1-0.46-0.3-0.95-0.61-1.35-0.31-0.41-0.7-0.72-1.09-0.91-0.79-0.38-1.5-0.44-2.39-0.38 0.21 0.88 0.69 1.53 0.96 2.04 0.25 0.46 0.3 0.71 0.38 1.05-1.68 0.41-15.32 3.44-28.07-2.26-13.61-6.09-15.97-12.58-26.68-18.2-10.7-5.62-17.39-3.88-30.14-11.61-11.93-7.25-17.19-20.2-17.81-21.81 0.32-0.13 0.56-0.23 1.08-0.29 0.58-0.07 1.38-0.04 2.23-0.37-0.46-0.77-0.91-1.32-1.67-1.75-0.38-0.21-0.85-0.36-1.37-0.38-0.51-0.03-1.03 0.09-1.46 0.26-0.86 0.34-1.55 0.96-1.97 1.74z"/>
       <path class="st0" d="m594.38 374.9-7.97 4.17-4.23-7.55s-4.37-5.34-11.25-3.41c0 0 5.32 1.77 8.99 6.88l-18.31 25.2s-11.02-8.37-12.95-18.71c-1.03-5.56 3.88-11.42 7.08-17.44 9.17-17.19 37.52-20.14 38.64 10.86z"/>
       <circle class="st0" cx="591.06" cy="380.37" r="12.07"/>
       <path class="st0" d="m580.88 420.43s5.7 9.05 11.69 8.3 12.08-5.59 7.13-12.61c0 0 7.8 3.33 12.05-3.35s-0.35-13.65-0.35-13.65 9.42 0.3 13.51-9.69-9.1-13.67-14.93-15.07c0 0-4.32-6.02-8.71-3.77 0 0 10.17 10.64-0.5 20.6 0 0 0.01 1.89-0.19 3.27 0 0 4.08 0.38 9 4.17 0 0-6.06-2.69-9.99-1.65 0 0 0.29 2.85-1.85 4.57 0 0 0.85-3.94-1.12-6.82 0 0-9.43 4.22-15.91-2.16 0 0-4.6 3.42-1.33 10.97 3.26 7.55 9.92 5.56 13.1 3.42 0 0-5.38 7.22-11.79 2.58s-4.84-9.96-4.84-9.96-5.88-1.81-9.13 4.24-0.47 11.38 2.24 14.2c4.39 4.55 11.92 2.41 11.92 2.41z"/>
       <circle class="st0" cx="228.27" cy="349.21" r="10.74"/>
       <circle class="st0" cx="197.74" cy="359.95" r="10.74"/>
       <path class="st0" d="m185.49 339.11 3.28 12.46s-5.44 3.17-8.95 0.45-2.94-8.16-0.23-11.44c0 0-4.98-11.21-4.76-13.03s7.48-10.99 7.48-10.99l3.51 12.12z"/>
       <path class="st0" d="m223.56 294.15s15.96 26.85 16.13 27.92-4.28 15.69-5.35 22.29l-11.77-0.18s4.1-8.38 0.89-14.27-5.89-7.67-7.67-7.85-13.91 8.38-14.8 11.59-0.18 13.02-0.18 13.02l0.48 5.53-10.55 1.73-4.41-16.37-8.67-14.21s5.12-6.2 4.87-7.93c-0.13-0.88-6.2 3.58-6.34 2.61-0.33-2.29-0.81-5.66-0.88-6.29-0.16-1.42 28.24-21.66 38.95-25.91m-29.43 28.01c0.49 1.74 1.29 3.4 2.34 4.89 1.08 1.46 2.32 2.8 3.78 3.84 0.35 0.28 0.72 0.53 1.11 0.75 0.38 0.23 0.77 0.45 1.16 0.66 0.81 0.38 1.64 0.72 2.49 0.97-0.56-0.72-1.18-1.31-1.76-1.95-0.55-0.67-1.17-1.22-1.69-1.88-1.12-1.23-2.1-2.53-3.07-3.83-0.93-1.33-1.78-2.71-2.55-4.16-0.77-1.46-1.47-2.97-2.09-4.64-0.4 1.77-0.19 3.62 0.28 5.35z"/>
      </g>
     </g>
     <text x="-86.232285" y="-59.506939" fill="#000000" font-family="'Sinkin Sans'" font-size="3.522px" letter-spacing="0px" stroke-width=".13207" word-spacing="0px" style="line-height:110%" xml:space="preserve"><tspan x="-86.232285" y="-59.506939" font-family="'Sinkin Sans'" font-weight="900" stroke-width=".13207">PICKELBALL</tspan></text>
    </g>
   </g>
  </g>
 </g>
</svg>
