<?xml version="1.0" encoding="UTF-8"?>
<svg width="21.891mm" height="25mm" version="1.1" viewBox="0 0 21.891 25" xmlns="http://www.w3.org/2000/svg" xmlns:cc="http://creativecommons.org/ns#" xmlns:dc="http://purl.org/dc/elements/1.1/" xmlns:rdf="http://www.w3.org/1999/02/22-rdf-syntax-ns#">
 <metadata>
  <rdf:RDF>
   <cc:Work rdf:about="">
    <dc:format>image/svg+xml</dc:format>
    <dc:type rdf:resource="http://purl.org/dc/dcmitype/StillImage"/>
    <dc:title/>
   </cc:Work>
  </rdf:RDF>
 </metadata>
 <g transform="translate(23.774 -3.9372)">
  <g transform="matrix(.61948 0 0 .61948 45.685 17.306)">
   <rect x="-111.63" y="-21.081" width="34.339" height="39.358" ry="6.591" stroke="#ccc" stroke-linecap="round" stroke-width=".998"/>
   <text x="-105.95802" y="-15.586104" fill="#cccccc" font-family="'Sinkin Sans'" font-size="3.522px" letter-spacing="0px" stroke-width=".13207" word-spacing="0px" style="line-height:110%" xml:space="preserve"><tspan x="-105.95802" y="-15.586104" fill="#cccccc" font-family="'Sinkin Sans'" font-weight="900" stroke-width=".13207">RUNNING</tspan></text>
   <g transform="matrix(.1963 0 0 .1963 -158.69 -49.376)" fill="#ccc">
    <g transform="matrix(.26458 0 0 .26458 235.26 158.65)">
     <path class="st0" d="m357.18 508.66s-19.6 83.19-92.03 58.22c-79.73-27.49-97.42-74.4-129.88-110.21s-72.59-38.23-72.59-38.23c25.97-2.33 51.56 11.32 76.04 35.14s28.81 53.97 101.4 87.48 108.99-25.29 108.99-25.29l5.13-10.2-26.35-6.35-13.63 11.42c-72.84 14.62-133.45-19.78-157.56-54.86s-68.76-52.57-92.73-50.78-29.81 26.11-23.45 22.67 34.16-14.85 72.99 12.8 46.75 82.14 129.14 123.29 110.98-21.11 110.98-21.11 7.44-13.53 13.88-32.19c0.54-1.55-6.04-2.58-6.04-2.58z" fill="#ccc"/>
    </g>
    <path transform="scale(.26458)" d="m1271.6 877.09c-1.6038-0.025-3.2219 0.13539-4.8438 0.52539-16.72 4.02-17.36 18.541-17.41 32.941-0.01 2-0.068 9.8701-0.068 11.83-0.01 6.59 0.08 13.18 0.08 19.77 0 1.84 0.3897 13.94 0.3398 16.09-0.2099 8.06-1.171 11.961-2.291 19.961-4.22 30.14-13.07 59.778-24.16 88.068-4.98 12.72-12.179 24.861-16.879 37.541-4.8601 13.11-13.55 26.74-16.48 40.41-2.75 12.82 3.8998 28.37 18.26 29.1 13.28 0.67 27.59-5.2596 40.93-6.5996 13.56-1.36 27.831-0.3898 41.201-2.7598 24.88-4.41 29.869-35.13 34.539-55.59 7.53-32.96 12.56-66.561 15.06-100.28 0.55-7.42 0.9589-14.861 1.1289-22.311 0.03-1.02 0.09-5.6185 0.09-6.8984 0-2.32-0.3896-15.4-0.5098-17.24-0.3115-4.7862-0.7632-9.5711-1.3926-14.332l-0.4355 48.201c-0.011 1.71-1.4111 3.0708-3.1211 3.0508l-11.896-0.18554c-0.7559 14.504-2.4798 31.104-5.5332 50.176-13.27 82.98-51.27 59.55-54.59 38.59-2.7886-17.605 11.497-46.844 16.066-89.449l-12.297-0.1914c-1.7-0.0302-3.0495-1.4192-3.0195-3.1192l0.9394-60.59c0.03-1.75 1.5098-3.1315 3.2598-3.0215l15.496 0.95312c4.2148-22.159 11.864-27.13 16.324-26.373 3.3668 0.57358 12.415 7.4289 18.342 28.504l17.668 1.0859c0.2524 0.0155 0.4909 0.0703 0.7226 0.14258-2.9376-13.553-8.4702-26.899-20.742-34.303-8.67-5.23-16.75-10.909-25.27-16.289-5.85-3.6888-12.558-7.298-19.508-7.4062zm52.316 87.221c0.097 0.0642 0.1928 0.12883 0.2852 0.19727-0.092-0.0682-0.1886-0.13324-0.2852-0.19727zm0.5254 0.38477c0.1182 0.0963 0.2331 0.19689 0.3437 0.30078-0.1111-0.10391-0.225-0.20448-0.3437-0.30078zm0.4941 0.4414c0.1615 0.16162 0.3167 0.32901 0.461 0.50782-0.1442-0.17865-0.2993-0.34659-0.461-0.50782zm-43.859 2.6524c-0.2841 0.20747-0.5605 0.43769-0.8243 0.70703 0.2638-0.26934 0.5402-0.49956 0.8243-0.70703zm-0.9493 6.8555c0.3014 0.28548 0.599 0.52936 0.8946 0.75195-0.2957-0.22253-0.5932-0.46642-0.8946-0.75195zm44.738 3.75c-0.018 0.0165-0.038 0.0306-0.057 0.0469 0.018-0.0162 0.038-0.0305 0.057-0.0469z"/>
    <g stroke-width=".26458">
     <path class="st0" d="m329.55 308.25c0.37835 0.16933 20.344 5.6171 23.151 9.0514 1.6192 1.9817 11.459 13.526 12.626 13.856 1.1986-0.18256 7.0935-5.8711 8.4296-7.1914 1.3361-1.3203 5.0377-5.8367 5.3658-9.6758 0 0 2.3125-0.127 3.0559-2.5109 0.74347-2.3839-0.88636-3.8232-2.831-3.638 0 0 0.56886 1.1218-0.45773 2.9448-1.0266 1.823-3.7782 1.233-3.7782 1.233s2.7517-0.87048 3.2041-2.9157-1.487-4.5006-4.0799-2.7014c0 0 0.4789 0.71173 0.0688 2.54-0.41011 1.8309-2.5718 2.2542-2.5718 2.2542s1.6986-1.524 1.6351-3.5031c-0.0661-1.9791-2.2357-3.2411-3.9211-2.9501-1.6854 0.29104-3.1353 1.9764-2.5056 4.2307 0.62971 2.2569 1.8177 2.2066 1.8177 2.2066s-0.14023 3.9052-1.4843 6.7892c-1.3441 2.884-2.4606 4.0852-2.6882 4.0984-0.12435-0.0476-4.1037-7.9031-5.7468-10.366-1.2647-1.8944-7.6729-6.3474-14.139-9.144"/>
     <path class="st0" d="m327.96 304.3s-16.108 16.989-18.087 17.425c-1.9791 0.43657-19.196-6.7601-19.196-6.7601l1.3811-4.7334s15.737 1.8494 16.391 1.2991c0.65352-0.55034 14.87-21.767 14.87-21.767"/>
     <path class="st0" d="m295.15 310.74s-6.8104-1.6113-7.8184-1.2118c-1.0054 0.39952-3.0956 4.8842-5.4372 7.2099-2.3389 2.3257-4.4027 3.7015-4.4027 3.7015s-3.1194-1.5822-4.9318 0.83609c-1.8124 2.4183-0.63235 5.0482 2.1087 5.9664 2.7411 0.9181 5.1938-1.5928 4.9027-3.8523l2.4342-1.733-1.7013 2.2331s0.29104 1.143-0.53975 2.8707-3.2226 1.86-3.2226 1.86 0.43921 3.3443 3.7968 3.2941c3.3576-0.0503 4.1698-3.8179 3.6433-6.1489l1.8468-2.8046-0.82021 3.2835s0.62442 1.7542 0.0291 3.5983c-0.59795 1.8442-1.7912 2.712-1.7912 2.712s1.7912 1.7595 4.1936 0.41275 2.4897-5.1805 1.0186-6.7178l5.1303-12.097"/>
    </g>
    <path transform="scale(.26458)" d="m1274.9 950.5c-1.73-0.08-3.1885 1.2795-3.2188 3.0195l-0.5312 34.15c-0.03 1.7 1.3195 3.0889 3.0195 3.1191l56.701 0.88086c1.71 0.02 3.1078-1.3508 3.1191-3.0508l0.2109-32.299c0.01-1.65-1.2799-3.0097-2.9199-3.0898zm27.082 12.609c1.2798 0 2.4 0.22749 3.3633 0.68164 0.9633 0.45412 1.7615 1.073 2.3945 1.8574 0.6468 0.77064 1.1288 1.6864 1.4453 2.7461 0.3303 1.0459 0.4961 2.166 0.4961 3.3633 0 1.1973-0.1581 2.3193-0.4746 3.3652-0.3165 1.0321-0.7908 1.9267-1.4238 2.6836-0.6331 0.75689-1.439 1.3565-2.416 1.7969-0.9634 0.42663-2.0912 0.63867-3.3848 0.63867s-2.4234-0.21204-3.3867-0.63867c-0.9496-0.44037-1.7477-1.04-2.3946-1.7969-0.633-0.75689-1.1073-1.6514-1.4238-2.6836-0.3165-1.0459-0.4746-2.168-0.4746-3.3652 0-1.1973 0.1581-2.3174 0.4746-3.3633 0.3303-1.0459 0.82-1.9617 1.4668-2.7461 0.6468-0.78443 1.445-1.4033 2.3945-1.8574 0.9634-0.45415 2.0777-0.68164 3.3438-0.68164zm17.658 0c1.2798 0 2.4019 0.22749 3.3652 0.68164 0.9634 0.45412 1.7615 1.073 2.3946 1.8574 0.6468 0.77064 1.1288 1.6864 1.4453 2.7461 0.3303 1.0459 0.4941 2.166 0.4941 3.3633 0 1.1973-0.1581 2.3193-0.4746 3.3652-0.3165 1.0321-0.7908 1.9267-1.4238 2.6836-0.6331 0.75689-1.437 1.3565-2.4141 1.7969-0.9633 0.42663-2.0931 0.63867-3.3867 0.63867s-2.4214-0.21204-3.3848-0.63867c-0.9495-0.44037-1.7477-1.04-2.3945-1.7969-0.633-0.75689-1.1073-1.6514-1.4238-2.6836-0.3165-1.0459-0.4746-2.168-0.4746-3.3652 0-1.1973 0.1581-2.3174 0.4746-3.3633 0.3303-1.0459 0.818-1.9617 1.4648-2.7461 0.6468-0.78443 1.4451-1.4033 2.3945-1.8574 0.9634-0.45415 2.0777-0.68164 3.3438-0.68164zm-34.803 4e-3c1.1559 0 2.1604 0.12341 3.0136 0.3711 0.8533 0.24767 1.5628 0.59278 2.127 1.0332 0.5642 0.42661 0.9845 0.92787 1.2598 1.5059 0.2889 0.56423 0.4336 1.1696 0.4335 1.8164 0 0.3578-0.069 0.71643-0.207 1.0742-0.1376 0.34407-0.3246 0.67374-0.5586 0.99024-0.2202 0.30276-0.4805 0.57073-0.7832 0.80468-0.3027 0.23383-0.6266 0.40542-0.9707 0.51563v0.043c0.3578 0.0963 0.7087 0.26011 1.0528 0.49414 0.344 0.22022 0.6467 0.49594 0.9082 0.82617 0.2752 0.33028 0.495 0.70239 0.6601 1.1152 0.1646 0.39793 0.2476 0.82274 0.2481 1.2754v4e-3c-6e-4 0.67293-0.1376 1.3252-0.4121 1.957-0.2753 0.63302-0.7091 1.1979-1.3008 1.6934-0.578 0.48167-1.3203 0.87302-2.2285 1.1758-0.9083 0.28901-1.9899 0.4336-3.2422 0.4336-0.7432 0-1.4372-0.054-2.084-0.16407-0.6331-0.0962-1.2462-0.26206-1.8379-0.49609-0.578-0.23383-1.1429-0.53652-1.6934-0.9082-0.5504-0.38534-1.1134-0.84612-1.6914-1.3828l2.5996-2.6426c0.7844 0.74313 1.5499 1.2733 2.293 1.5898s1.5471 0.47461 2.4141 0.47461c0.3991 0 0.7847-0.0424 1.1562-0.125 0.3854-0.0963 0.7227-0.21966 1.0117-0.37109 0.289-0.16504 0.5165-0.36361 0.6817-0.59766 0.1789-0.23383 0.2676-0.49605 0.2676-0.78516 0-0.52296-0.241-0.94901-0.7227-1.2793-0.4679-0.33028-1.2179-0.4961-2.25-0.4961h-0.7637c-0.3303-0.0126-0.6677-0.0262-1.0117-0.041-0.3991-0.0126-0.8174-0.0261-1.2578-0.041v-3.2402c0.4541-0.0126 0.8725-0.0261 1.2578-0.041 0.3303-0.0126 0.6542-0.0195 0.9707-0.0195s0.544-7e-3 0.6817-0.0195c1.032-0.0549 1.7473-0.21879 2.1464-0.49414 0.3991-0.27523 0.5977-0.63385 0.5977-1.0742 0-0.45415-0.2391-0.81275-0.7207-1.0742-0.4679-0.26147-1.1504-0.39062-2.0449-0.39062-0.867 0-1.6864 0.15038-2.4571 0.45312-0.7706 0.28901-1.4782 0.76327-2.125 1.4238l-2.6836-2.6836c0.9909-0.90827 2.0705-1.5811 3.2403-2.0215 1.1835-0.45415 2.5253-0.68164 4.0254-0.68164zm17.164 3.5469c-1.2248 0-2.1463 0.43955-2.7656 1.3203-0.6055 0.88075-0.9082 2.1397-0.9082 3.7773 0 1.6101 0.2969 2.8363 0.8887 3.6758 0.5917 0.83949 1.5133 1.2578 2.7656 1.2578 2.4496 0 3.6738-1.6446 3.6738-4.9336 0-1.6101-0.2892-2.8613-0.8672-3.7559-0.5642-0.89451-1.4935-1.3418-2.7871-1.3418zm17.66 0c-1.2248 0-2.1464 0.43955-2.7656 1.3203-0.6056 0.88075-0.9102 2.1397-0.9102 3.7773 0 1.6101 0.2969 2.8363 0.8887 3.6758 0.5917 0.83949 1.5133 1.2578 2.7656 1.2578 2.4496 0 3.6738-1.6446 3.6738-4.9336 0-1.6101-0.2872-2.8613-0.8652-3.7559-0.5642-0.89451-1.4935-1.3418-2.7871-1.3418z"/>
    <path class="st2" d="m349.28 248.6-3e-3 1.688c0 0.35189 0.27782 0.64029 0.62707 0.65352l2.2886 0.0847c0.35719 0.0132 0.65882-0.26459 0.67469-0.62442l0.0688-1.6166c0.0159-0.35455-0.254-0.65353-0.60854-0.67734l-2.3522-0.1561c-0.3757-0.0265-0.69585 0.26987-0.69585 0.64823z" stroke-width=".26458"/>
    <circle class="st2" cx="338.09" cy="248.82" r="1.0504" stroke-width=".26458"/>
    <g transform="matrix(.26458 0 0 .26458 235.26 158.65)">
     <path class="st0" d="m393.08 292.08s-2.62-11.36-10.49-15.43-113.74-19.87-116.57-18.48-29.64 118.65-29.64 118.65l17.31-2.24 27.96-87.53 78.54 18.4"/>
     <path class="st0" d="m429.04 322.27c6.74 5.75 106.26 45.16 109.34 44.45 3.07-0.71 55.79-108.83 55.79-108.83l-17.37-1.75s-47.09 78.9-47.09 78.9c-8.88-4.39-17.75-8.78-26.63-13.16-7.14-3.53-38.95-17.47-47.06-22.28-7.05-4.18-13.44-8.97-21.82-10.18-4.69-0.67-16.97-0.82-18.34 5.75-0.94 4.5 5.7 8.17 6.66 12.48 1.2 5.4 2.03 10.79 6.52 14.62z"/>
     <path class="st0" d="m251.64 366.8c0.98 0.49 27.7 4.24 29.49 11.98s-5.75 21.43-7.94 23.08-5.59 3-5.59 3-3.13-1.71-3.62-7.89c0 0-1.98 3.93-0.33 8.58s5.31 9.68 5.31 9.68l-0.27-6.37 4.06-1.9s1.92 13.28-1.79 18.29-11.88 4.71-14.27 3.89-12.31-9.26-14.91-21.78c0 0 5.41-0.97 10.91-7.66 0 0-7.79 2.4-16.69 3.47s-17.07 0.77-17.07 0.77 9.68 4.12 17.98 2.99c0 0 1.87 9.18 10.84 19.17 0 0-5.84 3.59-10.85-0.12s-8.48-13.23-8.48-13.23-0.38 6.73 1.64 11.82c0 0-5.89 1.74-9.01-2.42s-5.79-11.16-5.9-19.36c-0.11-8.21 12.9-30.64 25.98-35.04"/>
     <path class="st0" d="m274.84 413.51s4.95-0.93 6.35-5.34-0.6-8.77-3.78-9.96c0 0-0.79 3.9-3.44 5.71z"/>
     <path class="st0" d="m574.3 265.4s-9.59-2.69-12.27-9.07-3.02-23.19-2.16-25.35c0.85-2.16 29.51-3.19 29.51-3.19l3.11 9.56-10.96 5.48"/>
     <circle class="st0" cx="590.82" cy="232.45" r="12.83"/>
     <path class="st0" d="m605.09 231.68c1.1 5.83-1.87 11.64-7.11 14.22 2.08 4.37 7.07 6.73 11.88 5.34 5.35-1.54 8.44-7.13 6.89-12.48-1.46-5.07-6.57-8.1-11.66-7.08z"/>
     <path class="st0" d="m618.79 243.56c-0.33 4.93-1.99 8.71-9.19 10.34-0.64 0.14-2.35-0.08-2.98-0.06 0.03 0.27 0.06 0.53 0.11 0.8 1.01 5.22 6.05 8.64 11.28 7.63 5.22-1.01 8.64-6.05 7.63-11.28-0.71-3.69-3.46-6.47-6.85-7.43z"/>
     <path class="st0" d="m622.45 242.54-3.17-1.5s-1.27-7.18-4.84-10.16c0 0 1.91-9.68 2.15-11.28s6.76-4.07 10.1 3.49-4.24 19.45-4.24 19.45z"/>
     <path class="st0" d="m612.31 229.06s1.41-7.68 1-13.25c-0.41-5.58-3.65-8.34-8.86-8.33s-10.02 2.99-10.02 2.99 5.43 1.73 6.9 11.09c0 0 2.76 1.69 3.48 5.98 0-0.01 4.12-0.49 7.5 1.52z"/>
     <path class="st0" d="m565.5 227.47c-0.06 0.39 12.03-1.31 12.03-1.31s1.41-4.2 6.66-7.22c5.26-3.03 12.63-0.82 14.38 1.46 0 0-4.42-13.01-16.32-13.14s-16.4 17.83-16.75 20.21z"/>
     <path class="st0" d="m584.55 266.1s4.93 3.13 9.06 4.06 14.81-5.82 14.81-5.82-2.74-2.68-3.04-6.83c0 0-8.67-1.42-11.31-9.31 0 0-9.86 1.41-12.89-6.66-3.04-8.06-11.11 13.51-11.11 13.51l6.26 9.42"/>
     <path class="st0" d="m488.02 173.24c3.77 7.81 16.07 20.45 16.95 27.92 0.97 8.18-16.91 50.19-29.56 54.4s-41.14 7.6-69.77-6.88c0 0 9.59 11.72 25.78 15.08 0 0-10.6 19.19-10.46 33.72s-37.92-10.27-37.92-10.27c2.05-23.63 5.66-44.13-16.81-59.53s-31.63-41.03-28.24-56.26 19.24-42.83 19.24-42.83c0.76 3.17 2.64 5.4 2.64 5.4-2.29-33.32 11.23-45.08 25.75-46.41 30.04-2.76 36.48 26 36.48 26s0.72-14.74-5.36-21.96c0 0 25.59 1.1 40.68 7.43s21.72 26.45 21.72 26.45 0.64-10.56-4.72-19.67c0 0 21.22 7.5 13.53 36.67 0 0 3.3 4.12 3.7 14.54s-3.63 16.2-3.63 16.2zm-69.92-8s6.26-29.97-15.02-37.92c-15.5-5.79-22.06 15.17-23.01 26.08 0.01 0 2.44 28.28 38.03 11.84zm33.15 17.86c-0.99-0.64-2.18-1.03-3.38-1.14-1.21-0.06-2.37 0.07-3.5 0.49-0.57 0.17-1.09 0.5-1.62 0.77-0.48 0.36-0.99 0.68-1.38 1.11-0.86 0.82-1.48 1.79-1.94 2.79-0.91 2.01-1.17 4.19-0.79 6.25 0.89-1.88 1.77-3.6 2.89-5.03 0.56-0.71 1.13-1.35 1.79-1.84 0.64-0.52 1.34-0.9 2.09-1.15l0.56-0.19c0.19-0.07 0.4-0.08 0.6-0.12 0.4-0.12 0.8-0.11 1.19-0.16 0.79 0 1.56 0.09 2.35 0.37 1.58 0.55 3.07 1.78 4.46 3.31-0.22-2.07-1.33-4.15-3.32-5.46zm-5.95 7.97c-0.92 1.73-1.43 4.36 0.49 5.57 0.84 0.53 1.63 0.52 2.38-0.22 1.95-1.91 0.26-7.39-2.87-5.35zm36.13-0.18c1.63-1.27 3.32-2.22 4.97-2.49 0.82-0.14 1.6-0.1 2.38 0.04 0.38 0.12 0.77 0.17 1.15 0.36 0.19 0.08 0.39 0.13 0.57 0.23l0.52 0.28c0.69 0.38 1.32 0.87 1.86 1.5 0.57 0.6 1.02 1.33 1.45 2.12 0.86 1.6 1.43 3.45 1.98 5.45 0.73-1.97 0.85-4.16 0.3-6.3-0.28-1.07-0.73-2.13-1.43-3.08-0.31-0.49-0.76-0.89-1.17-1.33-0.48-0.36-0.93-0.77-1.46-1.04-1.04-0.61-2.16-0.94-3.36-1.09-1.2-0.09-2.44 0.08-3.52 0.54-2.2 0.95-3.66 2.8-4.24 4.81zm2.97-18.33s3.43-7.58 3.84-13.88c0.73-1.97-0.67-13.79-4.87-15.24-6.93-2.38-11.19 5.11-11.77 7.12 0.4 11.88 12.8 22 12.8 22zm1.99 27.18c0.61 0.86 1.38 1 2.31 0.62 2.1-0.86 2.05-3.54 1.44-5.4-2.73-2.56-5.33 2.56-3.75 4.78zm5.92 22.75c-2.43 1.55-4.39 3.23-7.27 4.03-9.79 2.72-19.6-3.93-29.37-4.78-13.35-1.16-19.45 3.49-35.79 1.04-15.31-2.3-26.23-13.28-27.56-14.67 0.27-0.27 0.48-0.48 0.98-0.75 0.56-0.32 1.4-0.63 2.12-1.33-0.81-0.59-1.5-0.96-2.46-1.07-0.47-0.05-1.02 0-1.56 0.2-0.53 0.19-1.01 0.53-1.38 0.89-0.73 0.72-1.16 1.66-1.26 2.63-0.08 0.98 0.18 1.91 0.84 2.65 0.62-0.78 1.04-1.39 1.46-1.87 0.4-0.46 0.79-0.87 1.14-1.23l0.05-0.05c-0.42 0.68 1.69 4.36 1.98 4.96 1.69 3.51 3.85 6.81 6.31 9.83 7.8 9.58 18.47 16.53 30.57 18.92 3.5 0.69 7.1 0.95 10.63 1.56 5.76 0.99 11.44 1.31 17.27 0.96 2.86-0.17 5.63 0.26 8.43-0.51 3.23-0.89 6.12-2.5 9.15-3.86 6.67-3.02 15.5-9.25 15.72-17.55z"/>
    </g>
   </g>
  </g>
 </g>
</svg>
