<?xml version="1.0" encoding="UTF-8" standalone="no"?>
<svg
   xmlns:dc="http://purl.org/dc/elements/1.1/"
   xmlns:cc="http://creativecommons.org/ns#"
   xmlns:rdf="http://www.w3.org/1999/02/22-rdf-syntax-ns#"
   xmlns:svg="http://www.w3.org/2000/svg"
   xmlns="http://www.w3.org/2000/svg"
   xmlns:sodipodi="http://sodipodi.sourceforge.net/DTD/sodipodi-0.dtd"
   xmlns:inkscape="http://www.inkscape.org/namespaces/inkscape"
   id="7ebc0697-1fab-4a5d-915f-811f2d1e4cf8"
   data-name="Layer 1"
   width="936.51"
   height="707.22"
   viewBox="0 0 936.51 707.22"
   version="1.1"
   sodipodi:docname="SignUp2.svg"
   inkscape:version="0.92.3 (2405546, 2018-03-11)">
  <metadata
     id="metadata110">
    <rdf:RDF>
      <cc:Work
         rdf:about="">
        <dc:format>image/svg+xml</dc:format>
        <dc:type
           rdf:resource="http://purl.org/dc/dcmitype/StillImage" />
        <dc:title>Lighthouse</dc:title>
      </cc:Work>
    </rdf:RDF>
  </metadata>
  <sodipodi:namedview
     pagecolor="#ffffff"
     bordercolor="#666666"
     borderopacity="1"
     objecttolerance="10"
     gridtolerance="10"
     guidetolerance="10"
     inkscape:pageopacity="0"
     inkscape:pageshadow="2"
     inkscape:window-width="1853"
     inkscape:window-height="1025"
     id="namedview108"
     showgrid="false"
     inkscape:zoom="0.94384891"
     inkscape:cx="468.255"
     inkscape:cy="353.60999"
     inkscape:window-x="67"
     inkscape:window-y="27"
     inkscape:window-maximized="1"
     inkscape:current-layer="7ebc0697-1fab-4a5d-915f-811f2d1e4cf8" />
  <defs
     id="defs9">
    <linearGradient
       id="c3b6ae59-f5c8-462f-a7a0-99e79fdd0e5d"
       x1="326.5"
       y1="672.4"
       x2="326.5"
       y2="143.43"
       gradientUnits="userSpaceOnUse">
      <stop
         offset="0"
         stop-color="gray"
         stop-opacity="0.25"
         id="stop2" />
      <stop
         offset="0.54"
         stop-color="gray"
         stop-opacity="0.12"
         id="stop4" />
      <stop
         offset="1"
         stop-color="gray"
         stop-opacity="0.1"
         id="stop6" />
    </linearGradient>
  </defs>
  <title
     id="title11">Lighthouse</title>
  <polygon
     points="570.22 408.02 580.26 442.79 590.3 477.56 570.22 477.56 550.14 477.56 560.18 442.79 570.22 408.02"
     fill="#3ad29f"
     id="polygon13"
     style="fill:#012c2a;fill-opacity:1" />
  <polygon
     points="589.99 403.31 600.02 438.08 610.06 472.86 589.99 472.86 569.91 472.86 579.95 438.08 589.99 403.31"
     fill="#3ad29f"
     id="polygon15"
     style="fill:#012c2a;fill-opacity:1" />
  <polygon
     points="609.75 403.31 619.79 438.08 629.83 472.86 609.75 472.86 589.67 472.86 599.71 438.08 609.75 403.31"
     fill="#3ad29f"
     id="polygon17"
     style="fill:#012c2a;fill-opacity:1" />
  <polygon
     points="762.4 424.54 772.44 459.31 782.48 494.09 762.4 494.09 742.32 494.09 752.36 459.31 762.4 424.54"
     fill="#3ad29f"
     id="polygon19"
     style="fill:#012c2a;fill-opacity:1" />
  <polygon
     points="120.25 390.33 137.44 422.18 154.63 454.03 135.02 458.29 115.4 462.56 117.82 426.44 120.25 390.33"
     fill="#3ad29f"
     id="polygon21"
     style="fill:#012c2a;fill-opacity:1" />
  <polygon
     points="0 707.09 38 528.09 66 491.09 94 443.09 146 412.09 185 390.09 201 438.09 231.74 458.67 251 487.09 281 477.09 319 446.09 348 438.09 389 412.09 427 422.09 466 408.09 492 390.09 517 420.09 531 459.09 534 473.09 570 473.09 610 473.09 635 446.09 674 438.09 712 438.09 738 446.09 784 459.09 886 707.09 0 707.09"
     fill="#e0e0e0"
     id="polygon23"
     style="fill:#012c2a;fill-opacity:0.50230414" />
  <g
     opacity="0.3"
     id="g31"
     style="fill:#012c2a;fill-opacity:1;opacity:0.2">
    <rect
       x="145.62"
       y="178.78"
       width="154.36"
       height="30.12"
       rx="15.06"
       ry="15.06"
       fill="#e0e0e0"
       id="rect25"
       style="fill:#012c2a;fill-opacity:1" />
    <rect
       x="107.97"
       y="208.9"
       width="154.36"
       height="30.12"
       rx="15.06"
       ry="15.06"
       fill="#e0e0e0"
       id="rect27"
       style="fill:#012c2a;fill-opacity:1" />
    <rect
       x="145.62"
       y="239.02"
       width="154.36"
       height="30.12"
       rx="15.06"
       ry="15.06"
       fill="#e0e0e0"
       id="rect29"
       style="fill:#012c2a;fill-opacity:1" />
  </g>
  <g
     opacity="0.3"
     id="g63"
     style="fill:#012c2a;fill-opacity:1;opacity:0.2">
    <rect
       x="557.62"
       y="39.78"
       width="154.36"
       height="30.12"
       rx="15.06"
       ry="15.06"
       fill="#e0e0e0"
       id="rect57"
       style="fill:#012c2a;fill-opacity:1" />
    <rect
       x="519.97"
       y="69.9"
       width="154.36"
       height="30.12"
       rx="15.06"
       ry="15.06"
       fill="#e0e0e0"
       id="rect59"
       style="fill:#012c2a;fill-opacity:1" />
    <rect
       x="557.62"
       y="100.02"
       width="154.36"
       height="30.12"
       rx="15.06"
       ry="15.06"
       fill="#e0e0e0"
       id="rect61"
       style="fill:#012c2a;fill-opacity:1" />
  </g>
  <g
     opacity="0.3"
     id="g71"
     style="fill:#012c2a;fill-opacity:1;opacity:0.2">
    <rect
       x="685.62"
       y="249.78"
       width="154.36"
       height="30.12"
       rx="15.06"
       ry="15.06"
       fill="#e0e0e0"
       id="rect65"
       style="fill:#012c2a;fill-opacity:1" />
    <rect
       x="647.97"
       y="279.9"
       width="154.36"
       height="30.12"
       rx="15.06"
       ry="15.06"
       fill="#e0e0e0"
       id="rect67"
       style="fill:#012c2a;fill-opacity:1" />
    <rect
       x="685.62"
       y="310.02"
       width="154.36"
       height="30.12"
       rx="15.06"
       ry="15.06"
       fill="#e0e0e0"
       id="rect69"
       style="fill:#012c2a;fill-opacity:1" />
  </g>
  <g
     opacity="0.3"
     id="g77"
     style="fill:#012c2a;fill-opacity:1;opacity:0.54">
    <path
       d="M767.32,355.59h32.94S787.85,377.55,767.32,355.59Z"
       transform="translate(-132.47 -96.39)"
       fill="#030b44"
       id="path73"
       style="fill:#012c2a;fill-opacity:1" />
    <path
       d="M769.31,364.93l21.6-24.87S799.35,363.83,769.31,364.93Z"
       transform="translate(-132.47 -96.39)"
       fill="#030b44"
       id="path75"
       style="fill:#012c2a;fill-opacity:1" />
  </g>
  <g
     opacity="0.3"
     id="g83"
     style="fill:#012c2a;fill-opacity:1;opacity:0.54">
    <path
       d="M649.67,424.3h32.94S670.2,446.26,649.67,424.3Z"
       transform="translate(-132.47 -96.39)"
       fill="#030b44"
       id="path79"
       style="fill:#012c2a;fill-opacity:1" />
    <path
       d="M651.66,433.64l21.59-24.87S681.7,432.54,651.66,433.64Z"
       transform="translate(-132.47 -96.39)"
       fill="#030b44"
       id="path81"
       style="fill:#012c2a;fill-opacity:1" />
  </g>
  <g
     opacity="0.3"
     id="g89"
     style="fill:#012c2a;fill-opacity:1;opacity:0.54">
    <path
       d="M607.06,166.4h35.33S629.08,190,607.06,166.4Z"
       transform="translate(-132.47 -96.39)"
       fill="#030b44"
       id="path85"
       style="fill:#012c2a;fill-opacity:1" />
    <path
       d="M609.19,176.43l23.17-26.69S641.42,175.24,609.19,176.43Z"
       transform="translate(-132.47 -96.39)"
       fill="#030b44"
       id="path87"
       style="fill:#012c2a;fill-opacity:1" />
  </g>
  <path
     d="M1067.53,556.56a1.5,1.5,0,0,0,0-3,1.5,1.5,0,0,0,0,3Z"
     transform="translate(-132.47 -96.39)"
     fill="#4d8af0"
     id="path99" />
  <g
     id="g1629"
     transform="matrix(0.80379465,0.09567469,-0.09567469,0.80379465,-925.14776,2.2787347)"
     style="fill:#012c2a;fill-opacity:1">
    <g
       id="Tail"
       transform="translate(1230.0784,-196.48186)"
       style="fill:#012c2a;fill-opacity:1">
      <path
         id="path920"
         d="m 422.69,532.33 c 0,0 -27.86,80.8 -97.41,48.68 -76.57,-35.36 -89.45,-83.81 -118.15,-122.71 -28.7,-38.9 -68.38,-45.33 -68.38,-45.33 26.07,0.29 50.16,16.45 72.13,42.61 21.97,26.16 23.24,56.59 92.1,97.22 68.86,40.63 110.98,-14.2 110.98,-14.2 l 6.12,-9.63 -25.58,-8.97 -14.71,10 c -73.94,7.22 -130.78,-33.09 -151.24,-70.42 -20.46,-37.33 -63.13,-59.21 -87.16,-59.84 -24.03,-0.63 -32.29,22.98 -25.61,20.2 6.67,-2.79 35.48,-11.34 71.33,20.07 35.85,31.41 38.26,86.42 116.1,135.64 77.84,49.22 112.54,-9.85 112.54,-9.85 0,0 8.76,-12.71 17.05,-30.63 0.69,-1.49 -5.75,-3.18 -5.75,-3.18 z"
         class="st0"
         inkscape:connector-curvature="0"
         style="fill:#012c2a;fill-opacity:1" />
    </g>
    <g
       id="Body"
       transform="translate(1230.0784,-196.48186)"
       style="fill:#012c2a;fill-opacity:1">
      <path
         id="path923"
         d="m 368.45,275.25 c -6.44,0.96 -15.51,15.21 2.27,69.23 17.78,54.02 9.54,96.09 19.19,115 9.65,18.91 53.05,29.37 39.92,-53.62 -18.3,-115.73 -54.6,-131.61 -61.38,-130.61 z m 69.43,85.41 c 8.09,32.83 13.74,66.33 16.81,100.01 1.91,20.9 6.7,51.65 -15.58,63.56 -11.97,6.4 -25.84,9.91 -38.31,15.41 -12.26,5.41 -24.02,15.49 -36.86,18.98 -13.88,3.76 -25.03,-8.95 -26.39,-21.99 -1.46,-13.9 2.58,-29.56 3.13,-43.53 0.53,-13.51 3.61,-27.28 4.4,-40.93 1.76,-30.34 0.98,-61.26 -4.36,-91.22 -1.42,-7.96 -1.71,-11.96 -4.02,-19.68 -0.61,-2.06 -4.74,-13.44 -5.31,-15.19 -2.05,-6.26 -4.18,-12.51 -6.21,-18.77 -0.61,-1.86 29.34,2.63 28.75,0.76 -0.59,-1.87 -31.75,-10.13 -32.36,-12.03 -4.42,-13.7 -8.32,-27.7 6.33,-36.72 7.58,-4.67 17.03,-3.1 25.28,-1.01 9.77,2.47 19.21,5.36 29.08,7.64 17.89,4.14 28.32,20.98 35.77,36.38 2.22,4.58 4.25,9.24 6.13,13.96 0.68,1.71 -13.22,1.2 -12.58,2.93 0.55,1.49 15.91,7.07 16.43,8.57 0.77,2.18 1.27,2.52 1.98,4.73 0.39,1.21 1.76,5.61 2.06,6.59 2.13,7.12 4.05,14.33 5.83,21.55 z"
         class="st0"
         inkscape:connector-curvature="0"
         style="fill:#012c2a;fill-opacity:1" />
      <path
         id="path925"
         d="m 384.83,544.78 c 0,0 -35.64,57.92 -40.5,77.36 -4.86,19.44 -4.05,29.16 -4.46,30.78 -0.41,1.62 -24.3,-8.91 -24.3,-8.91 0,0 20.25,-57.11 22.68,-91.94 2.43,-34.83 46.58,-7.29 46.58,-7.29 z"
         class="st0"
         inkscape:connector-curvature="0"
         style="fill:#012c2a;fill-opacity:1" />
      <path
         id="path927"
         d="m 340.71,630.94 c 0,0 1.36,18.33 7.92,23.76 6.56,5.43 17.65,9.05 17.65,9.05 0,0 3.17,-4.3 9.96,-3.62 6.79,0.68 11.54,10.86 8.15,19.91 -3.39,9.05 -11.98,6.99 -14.7,5.64 0,0 3.06,-9.11 -1.46,-15.82 -4.52,-6.71 -12.87,-5.48 -15.2,-4.11 0,0 7.94,-0.68 12.18,6.43 4.24,7.12 1.1,14.51 -3.56,16.43 -4.66,1.92 -10.81,0.96 -10.81,0.96 0,0 2.6,-5.48 0.82,-12.87 -1.78,-7.39 -12.32,-9.17 -12.32,-9.17 0,0 8.76,4.65 8.21,14.37 -0.55,9.72 -8.9,13.14 -14.65,12.18 -5.75,-0.96 -13.42,-3.97 -11.36,-16.97 0,0 -3.42,2.74 -3.29,8.21 0,0 -9.45,-3.01 -11.91,-6.98 -2.46,-3.97 -0.41,-5.07 -4.11,-7.67 -3.7,-2.6 -5.86,-2.87 -5.75,-4.93 0.13,-2.46 27,-44.34 27,-44.34"
         class="st0"
         inkscape:connector-curvature="0"
         style="fill:#012c2a;fill-opacity:1" />
      <path
         id="path929"
         d="m 412.78,533.24 c 1.6,-0.32 32.96,7.68 62.72,14.72 29.76,7.04 67.37,17.79 71.85,16.19 4.48,-1.6 15.83,-21.95 19.99,-28.03 4.16,-6.08 15.04,-26.24 13.44,-41.28 0,0 8.82,-2.22 9.9,-11.95 1.08,-9.73 -6.27,-14.06 -13.63,-11.9 0,0 3.03,3.89 0.43,11.68 -2.6,7.79 -13.63,7.57 -13.63,7.57 0,0 9.95,-5.41 10.17,-13.63 0.22,-8.22 -9.08,-16.22 -17.74,-7.35 0,0 2.38,2.38 2.16,9.73 -0.22,7.35 -8.22,10.6 -8.22,10.6 0,0 5.41,-7.14 3.68,-14.71 -1.73,-7.57 -11.03,-10.82 -17.3,-8.44 -6.27,2.38 -10.6,9.95 -6.49,18.17 4.11,8.22 8.65,7.14 8.65,7.14 0,0 2.38,15.14 -0.65,27.25 -3.03,12.11 -7.86,19.3 -8.73,19.52 -0.87,0.22 -60.49,-17.36 -87.53,-31.2"
         class="st0"
         inkscape:connector-curvature="0"
         style="fill:#012c2a;fill-opacity:1" />
    </g>
    <g
       id="Arms"
       transform="translate(1230.0784,-196.48186)"
       style="fill:#012c2a;fill-opacity:1">
      <path
         id="path932"
         d="m 375.36,267.83 c 0,0 0.42,-9.99 13.74,-14.16 13.33,-4.16 29.16,-4.71 44.16,-12.62 15,-7.91 88.27,-44.84 88.27,-44.84 l 7.5,16.24 c 0,0 -72.87,39.56 -88.7,50.39 -15.82,10.83 -36.65,23.74 -36.65,23.74 z"
         class="st0"
         inkscape:connector-curvature="0"
         style="fill:#012c2a;fill-opacity:1" />
      <path
         id="path934"
         d="m 514.59,202.31 c 0,0 -5.8,-21.93 -5.62,-24.11 0.18,-2.18 15.23,-23.02 15.23,-23.02 l 9.43,6.16 c 0,0 -7.61,14.5 -7.61,15.77 0,1.27 1.99,6.34 3.44,6.34 1.45,0 9.43,-5.08 9.43,-5.08 0,0 9.06,-18.67 12.51,-21.39 3.44,-2.72 25.01,0.91 25.01,0.91 l -0.36,11.24 c 0,0 -13.23,-0.91 -14.14,0.54 -0.91,1.45 -4.35,12.14 -4.35,12.14 0,0 13.59,-3.26 17.76,-2.72 4.17,0.54 13.59,19.21 13.59,19.21 l -6.71,5.8 c 0,0 -9.61,-8.88 -11.6,-9.24 -1.99,-0.36 -13.05,5.26 -13.05,5.26 0,0 10.15,4.71 11.42,5.8 1.27,1.09 3.08,22.66 3.08,22.66 l -7.07,1.99 c 0,0 -8.34,-15.04 -9.24,-14.86 -0.91,0.18 -4.18,3.58 -15.42,4.67 -11.24,1.09 -18.47,-7.57 -18.47,-7.57"
         class="st0"
         inkscape:connector-curvature="0"
         style="fill:#012c2a;fill-opacity:1" />
      <circle
         id="circle936"
         r="12.52"
         cy="154.37"
         cx="530.77002"
         class="st0"
         style="fill:#012c2a;fill-opacity:1" />
      <circle
         id="circle938"
         r="12.52"
         cy="163.49001"
         cx="583.22998"
         class="st0"
         style="fill:#012c2a;fill-opacity:1" />
      <circle
         id="circle940"
         r="12.52"
         cy="203.83"
         cx="588.59998"
         class="st0"
         style="fill:#012c2a;fill-opacity:1" />
      <circle
         id="circle942"
         r="12.52"
         cy="231.22"
         cx="571.94"
         class="st0"
         style="fill:#012c2a;fill-opacity:1" />
      <path
         id="path944"
         d="m 335.58,260.13 c 0,0 -20.86,-9.35 -29.14,1.44 -8.27,10.79 -6.12,30.22 16.55,39.57 22.67,9.35 138.26,28.29 172.79,25.77 l 1.41,-20.04 c 0,0 -61.25,-3.22 -94.35,-12.21 -33.1,-8.99 -67.26,-34.53 -67.26,-34.53 z"
         class="st0"
         inkscape:connector-curvature="0"
         style="fill:#012c2a;fill-opacity:1" />
      <path
         id="path946"
         d="m 483.74,311.93 c 0,0 15.28,-10.71 22.73,-17.41 3.03,-3.38 22.05,-5.88 26.14,-7.68 1.3,-0.57 15.57,3.64 20.29,5.34 0.1,2.09 -0.5,4.4 -1.02,6.44 -3.31,0.21 -7.47,-0.48 -10.52,0.89 -2.51,1.12 -4.38,3.77 -6.31,5.63 1.76,0.77 3.59,0.16 5.44,0.31 3.66,0.31 5.56,6.82 7.1,9.38 1.67,2.78 5.81,7.79 1.64,10.49 -2.87,1.86 -6.49,1 -9.06,-0.95 -1.79,-1.36 -4.57,-5.52 -7.08,-5.02 -2.32,0.46 -10.66,5.33 -10.66,5.33 0,0 11.58,6.49 12.04,8.11 0.46,1.62 -3.71,22.24 -3.71,22.24 l -9.96,1.16 -4.4,-18.53 c 0,0 -7.18,3.94 -15.98,0.93 -8.8,-3.01 -18.07,-15.98 -18.07,-15.98"
         class="st0"
         inkscape:connector-curvature="0"
         style="fill:#012c2a;fill-opacity:1" />
      <circle
         id="circle948"
         r="11.41"
         cy="361.39999"
         cx="526.40002"
         class="st0"
         style="fill:#012c2a;fill-opacity:1" />
      <circle
         id="circle950"
         r="11.41"
         cy="295.72"
         cx="558.07001"
         class="st0"
         style="fill:#012c2a;fill-opacity:1" />
      <circle
         id="circle952"
         r="11.41"
         cy="326.19"
         cx="549.60999"
         class="st0"
         style="fill:#012c2a;fill-opacity:1" />
      <path
         id="path954"
         d="m 485.79,311.22 c 2.24,-7.84 5.28,-15.71 8.23,-23.34 1.7,-4.39 4.24,-5.36 8.77,-7.58 3.13,-1.53 6.25,-2.52 9.6,-3.35 0.92,-0.23 2.57,-1.14 3.45,-1.01 1.55,0.22 3.48,3.34 4.03,4.79 -3.64,3.03 -7.4,5.68 -9.73,9.92 -3.16,5.74 1.75,8.47 5.7,12.05"
         class="st0"
         inkscape:connector-curvature="0"
         style="fill:#012c2a;fill-opacity:1" />
      <path
         id="path956"
         d="m 518.44,286.1 c 2.47,-0.92 4.87,-1.96 7.43,-2.6 0.86,-0.21 2.51,-0.76 3.75,-0.61 0.81,-1.57 1.27,-3.34 1.27,-5.23 0,-6.3 -5.11,-11.41 -11.41,-11.41 -6.3,0 -11.41,5.11 -11.41,11.41 0,4.4 2.49,8.21 6.13,10.11 1.33,-0.75 2.99,-1.21 4.24,-1.67 z"
         class="st0"
         inkscape:connector-curvature="0"
         style="fill:#012c2a;fill-opacity:1" />
    </g>
    <g
       id="Head"
       transform="translate(1230.0784,-196.48186)"
       style="fill:#012c2a;fill-opacity:1">
      <path
         id="path959"
         d="m 406.11,127.11 c 5.98,6.27 21.54,14.52 24.66,21.35 3.42,7.48 -0.71,52.89 -11.44,60.77 -10.74,7.88 -36.78,19.83 -68.43,14.83 0,0 12.71,8.2 29.12,6.44 0,0 -4.2,21.48 0.38,35.26 4.58,13.77 -39.19,1.86 -39.19,1.86 -5.29,-23.09 -8.14,-43.69 -34.21,-51.44 -26.07,-7.75 -42.64,-29.32 -44.08,-44.83 -1.44,-15.51 5.17,-46.61 5.17,-46.61 1.69,2.78 4.16,4.33 4.16,4.33 -12.38,-30.97 -3.13,-46.29 10.27,-52.01 27.71,-11.82 42.64,13.54 42.64,13.54 0,0 -3.83,-14.23 -11.82,-19.24 0,0 24.67,-6.79 40.95,-5.39 16.28,1.4 28.75,18.49 28.75,18.49 0,0 -2.63,-10.23 -10.51,-17.26 0,0 22.47,0.63 24.09,30.72 0,0 4.39,2.91 7.97,12.68 3.58,9.76 1.52,16.51 1.52,16.51 z m -68.91,13.81 c 0,0 -3.23,-30.41 -25.89,-31.44 -16.51,-0.75 -16.33,21.18 -13.88,31.84 -0.01,-0.01 10.96,26.13 39.77,-0.4 z m 36.98,6.83 c -1.14,-0.31 -2.38,-0.31 -3.56,-0.05 -1.17,0.31 -2.23,0.8 -3.18,1.54 -0.49,0.33 -0.88,0.8 -1.3,1.23 -0.34,0.49 -0.73,0.95 -0.97,1.48 -0.57,1.04 -0.86,2.15 -0.99,3.25 -0.25,2.19 0.17,4.34 1.16,6.19 0.27,-2.06 0.58,-3.97 1.21,-5.66 0.31,-0.84 0.66,-1.63 1.14,-2.3 0.44,-0.69 1,-1.26 1.63,-1.74 l 0.48,-0.35 c 0.16,-0.12 0.36,-0.2 0.53,-0.3 0.35,-0.24 0.72,-0.35 1.09,-0.51 0.75,-0.25 1.52,-0.39 2.35,-0.37 1.67,0.04 3.47,0.75 5.26,1.77 -0.87,-1.91 -2.56,-3.54 -4.85,-4.18 z m -3.21,9.4 c -0.34,1.93 -0.03,4.58 2.17,5.14 0.96,0.24 1.71,0 2.19,-0.94 1.27,-2.41 -2.02,-7.1 -4.36,-4.2 z m 34.28,-11.24 c 1.16,-1.7 2.47,-3.12 3.96,-3.89 0.74,-0.38 1.49,-0.59 2.27,-0.69 0.4,-0.01 0.79,-0.07 1.2,-0.01 0.2,0.02 0.41,0 0.61,0.04 l 0.58,0.11 c 0.77,0.15 1.52,0.42 2.22,0.85 0.72,0.39 1.38,0.95 2.03,1.57 1.3,1.25 2.41,2.84 3.55,4.57 0.09,-2.09 -0.47,-4.21 -1.65,-6.08 -0.59,-0.93 -1.34,-1.81 -2.3,-2.49 -0.44,-0.37 -1,-0.62 -1.52,-0.91 -0.56,-0.2 -1.12,-0.45 -1.71,-0.54 -1.18,-0.26 -2.35,-0.23 -3.53,0 -1.17,0.28 -2.29,0.82 -3.18,1.6 -1.77,1.58 -2.59,3.78 -2.53,5.87 z m -2.79,-18.33 c 0,0 0.94,-8.26 -0.61,-14.37 0.09,-2.09 -4.86,-12.91 -9.3,-12.99 -7.31,-0.14 -9.07,8.29 -9.01,10.38 4.03,11.15 18.92,16.98 18.92,16.98 z m 10.22,25.22 c 0.84,0.63 1.62,0.53 2.38,-0.11 1.74,-1.46 0.86,-3.99 -0.28,-5.58 -3.38,-1.59 -4.29,4.07 -2.1,5.69 z m 12.74,19.89 c -0.9,2.15 -2.32,2.78 -5.14,-0.62 -4.49,1.11 -3.34,7.52 -7.95,7.8 -3.49,0.21 -6.68,-1.78 -9.83,-2.95 -3.14,-1.17 -5.88,-1.21 -9.16,-0.79 -6.96,0.88 -14.62,3.72 -19.9,8.46 -3.93,3.53 -5.6,9.5 -9.9,12.68 -3.23,2.39 -6.88,1.55 -9.97,-0.72 -4.42,-3.23 -5.2,-10.1 -9.65,-12.58 -5.67,-3.16 -6.46,4.2 -10.36,6.16 -5.35,2.68 -11.56,-0.79 -16.22,-3.34 0.66,3.88 6.42,6.81 10.03,7.49 6.98,1.3 12.59,-9.56 18.79,-0.82 1.11,1.56 2.31,3.31 3.28,4.95 2.32,3.96 5.34,5.96 10.37,5.26 12.57,-1.76 14.43,-15.46 25.19,-20.17 2.99,-1.31 6.37,-1.96 9.62,-2.11 6.87,-0.32 19.11,8.18 23.75,-0.65 1.35,-2.58 2.49,-5.38 4.87,-1.87 4.06,-0.45 3.4,-8.43 3.43,-11.15 -0.35,1.83 -0.71,3.67 -1.25,4.97 z"
         class="st0"
         inkscape:connector-curvature="0"
         style="fill:#012c2a;fill-opacity:1" />
      <path
         id="path961"
         d="m 338.37,126.8 c -1.6,5.97 -19.07,-3.67 -21.43,-4.87 -6.94,-3.53 -15.13,-6.35 -22.76,-8.1 -2.47,-0.57 -5.18,-0.41 -7.48,-1.07 -5.88,-12.58 25.29,-13.45 31.53,-12.61 13.7,1.85 27.92,8.78 26.98,24.7"
         class="st0"
         inkscape:connector-curvature="0"
         style="fill:#012c2a;fill-opacity:1" />
      <path
         id="path963"
         d="m 382.41,114.75 c 2.89,1.74 5.75,-1.27 6.92,-3.56 1.56,-3.06 1.28,-6.98 3.47,-9.66 1.25,-1.53 1.95,-1.54 0.71,-3.42 -1.51,-2.28 -4.38,-2.65 -6.96,-2.01 -6.64,1.65 -8.94,10.76 -8.54,16.61"
         class="st0"
         inkscape:connector-curvature="0"
         style="fill:#012c2a;fill-opacity:1" />
    </g>
  </g>
  <path
     inkscape:connector-curvature="0"
     style="fill:#012c2a;fill-opacity:0.67741936"
     d="M 882.87003,707.09 H 0 c 0,0 57,-130.99999 143.4,-154.17999 a 98.17,98.17 0 0 1 38.27,-2.71 c 20.84,2.65 39.69,13.58 53.08,29.77 28.32,34.24 115.05,108.84999 288.58,23.59 0,0 62.12,-62.12 161.89003,11.29 a 191.58,191.58 0 0 0 19,8.2 c 30.61,11.57 91.84,27.68999 135.37,-6.32 60.23,-47.06 43.28,90.35999 43.28,90.35999 z"
     id="path55" />
  <g
     id="g4950"
     transform="matrix(1.2239969,0,0,-1.2239969,875.14007,8.0122982)"
     inkscape:export-filename="/media/asap/a7352e73-b318-4d06-b76b-68d83a8ff5291/Businesses/Charity/ComePlayGlasgow/Marketign/Facebook/ProfilePhoto.png"
     inkscape:export-xdpi="299.73334"
     inkscape:export-ydpi="299.73334"
     style="opacity:0.2">
    <path
       d="m 0,0 c -23.399,0 -42.368,-18.969 -42.368,-42.368 0,-3.879 0.532,-7.631 1.508,-11.2 4.249,4.646 9.294,8.382 16.144,10.252 -0.702,1.29 -1.212,2.485 -1.943,3.524 -2.596,3.687 -2.612,7.767 -0.022,11.378 1.501,2.093 1.67,4.329 0.701,6.753 -0.72,1.799 -0.906,3.812 -1.543,5.644 0.66,-0.642 1.344,-1.258 2.015,-1.889 0.497,-0.466 0.991,-0.934 1.486,-1.402 0.304,0.659 0.726,1.289 0.89,1.981 0.538,2.277 0.983,4.576 1.519,7.127 3.38,-2.314 1.101,-4.97 1.468,-7.669 1.109,1.352 2.217,2.703 3.51,4.28 1.643,-2.994 -1.51,-4.427 -1.397,-6.709 2.401,-0.832 3.843,3.344 6.929,1.098 -1.624,-0.847 -2.994,-1.34 -4.072,-2.199 -0.765,-0.61 -1.137,-1.713 -1.685,-2.597 0.861,-0.118 1.724,-0.23 2.585,-0.358 1.303,-0.195 2.583,-0.543 3.921,-0.504 -2.421,-0.454 -4.809,-1.076 -7.226,-1.546 -3.922,-0.764 -6.382,-4.582 -5.293,-8.408 0.165,-0.576 0.788,-1.048 1.262,-1.502 1.167,-1.122 2.751,-1.999 3.482,-3.347 1.626,-2.993 4.223,-2.417 6.655,-2.134 0.752,0.087 1.836,1.293 1.964,2.112 0.7,4.515 4.575,8.614 9.056,9.098 3.982,0.43 7.983,0.682 11.968,1.087 2.927,0.298 5.253,-0.553 6.658,-3.249 1.478,-2.834 1.505,-5.679 -0.71,-8.113 -2.405,-2.644 -5.162,-4.972 -7.532,-7.644 -1.829,-2.062 -3.844,-3.498 -6.546,-4.175 -3.082,-0.773 -5.924,-1.028 -8.126,1.724 -3.348,-1.316 -4.721,-6.027 -2.887,-8.96 0.982,-1.571 1.484,-3.436 2.358,-5.085 0.392,-0.742 1.081,-1.71 1.777,-1.847 5.434,-1.067 6.264,-1.649 9.536,3.615 1.084,1.744 1.676,3.794 2.902,5.451 0.038,-0.014 0.04,-0.015 0.078,-0.029 -0.1,-1.61 -0.641,-3.149 -0.899,-4.733 -0.107,-0.662 -0.101,-1.341 -0.145,-2.012 0.605,0.194 1.294,0.264 1.8,0.605 1.393,0.941 2.709,1.995 4.1,3.038 0.294,-0.755 -0.804,-2.797 -2.954,-5.721 1.631,0.081 2.941,0.286 4.22,0.161 0.869,-0.085 1.693,-0.632 2.537,-0.972 -0.721,-0.4 -1.405,-0.908 -2.172,-1.17 -1.33,-0.454 -2.806,-0.481 -4.128,-0.959 l 7.857,-2.068 -0.199,-1.252 c -1.603,0 -3.209,-0.066 -4.808,0.019 -1.757,0.094 -3.503,0.394 -5.257,0.559 -0.004,-0.007 -0.005,-0.008 -0.009,-0.015 0.831,-1.261 1.662,-2.522 2.493,-3.783 l -0.57,-0.562 c -1.151,0.755 -2.555,1.299 -3.404,2.308 -2.104,2.5 -4.592,2.903 -7.505,1.998 -3.614,-1.124 -7.451,0.202 -9.75,3.237 -1.023,1.35 -2.282,2.522 -3.609,3.967 -3.387,-4.99 -7.347,-8.702 -11.936,-11.177 7.063,-5.272 15.825,-8.394 25.316,-8.394 23.399,0 42.368,18.969 42.368,42.368 C 42.368,-18.969 23.399,0 0,0"
       style="fill:#012c2a;fill-opacity:1;fill-rule:nonzero;stroke:none"
       id="path4952"
       inkscape:connector-curvature="0" />
  </g>
</svg>
