<?xml version="1.0" encoding="UTF-8" standalone="no"?>
<!-- Created with Inkscape (http://www.inkscape.org/) -->

<svg
   xmlns:dc="http://purl.org/dc/elements/1.1/"
   xmlns:cc="http://creativecommons.org/ns#"
   xmlns:rdf="http://www.w3.org/1999/02/22-rdf-syntax-ns#"
   xmlns:svg="http://www.w3.org/2000/svg"
   xmlns="http://www.w3.org/2000/svg"
   xmlns:xlink="http://www.w3.org/1999/xlink"
   xmlns:sodipodi="http://sodipodi.sourceforge.net/DTD/sodipodi-0.dtd"
   xmlns:inkscape="http://www.inkscape.org/namespaces/inkscape"
   id="svg2"
   sodipodi:version="0.32"
   inkscape:version="0.48.4 r9939"
   width="460"
   height="460"
   version="1.0"
   sodipodi:docname="Sun_of_Vergina.svg"
   inkscape:output_extension="org.inkscape.output.svg.inkscape">
  <metadata
     id="metadata7">
    <rdf:RDF>
      <cc:Work
         rdf:about="">
        <dc:format>image/svg+xml</dc:format>
        <dc:type
           rdf:resource="http://purl.org/dc/dcmitype/StillImage" />
        <dc:title />
      </cc:Work>
    </rdf:RDF>
  </metadata>
  <defs
     id="defs5">
    <inkscape:perspective
       sodipodi:type="inkscape:persp3d"
       inkscape:vp_x="0 : 526.18109 : 1"
       inkscape:vp_y="0 : 1000 : 0"
       inkscape:vp_z="744.09448 : 526.18109 : 1"
       inkscape:persp3d-origin="372.04724 : 350.78739 : 1"
       id="perspective9" />
    <inkscape:perspective
       sodipodi:type="inkscape:persp3d"
       inkscape:vp_x="0 : 526.18109 : 1"
       inkscape:vp_y="0 : 1000 : 0"
       inkscape:vp_z="744.09448 : 526.18109 : 1"
       inkscape:persp3d-origin="372.04724 : 350.78739 : 1"
       id="perspective2535" />
    <inkscape:perspective
       sodipodi:type="inkscape:persp3d"
       inkscape:vp_x="0 : 526.18109 : 1"
       inkscape:vp_y="0 : 1000 : 0"
       inkscape:vp_z="744.09448 : 526.18109 : 1"
       inkscape:persp3d-origin="372.04724 : 350.78739 : 1"
       id="perspective2464" />
    <inkscape:perspective
       id="perspective2498"
       inkscape:persp3d-origin="372.04724 : 350.78739 : 1"
       inkscape:vp_z="744.09448 : 526.18109 : 1"
       inkscape:vp_y="0 : 1000 : 0"
       inkscape:vp_x="0 : 526.18109 : 1"
       sodipodi:type="inkscape:persp3d" />
  </defs>
  <sodipodi:namedview
     inkscape:window-height="706"
     inkscape:window-width="1366"
     inkscape:pageshadow="2"
     inkscape:pageopacity="0.0"
     guidetolerance="10.0"
     gridtolerance="10.0"
     objecttolerance="10.0"
     borderopacity="1.0"
     bordercolor="#666666"
     pagecolor="#ffffff"
     id="base"
     showgrid="false"
     inkscape:zoom="0.53408871"
     inkscape:cx="373.22336"
     inkscape:cy="130.53574"
     inkscape:window-x="-8"
     inkscape:window-y="-8"
     inkscape:current-layer="svg2"
     inkscape:window-maximized="1" />
  <g
     id="g3093"
     transform="matrix(1.8727042,0,0,1.880638,756.25195,-52.575466)"
     style="fill:#000000">
    <use
       xlink:href="#path4352"
       id="use3022"
       transform="matrix(1,0,0,-1,0,301.18804)"
       x="0"
       y="0"
       width="1"
       height="1"
       style="fill:#000000" />
    <use
       xlink:href="#path4352"
       id="use3024"
       transform="matrix(-1,0,0,-1,-561.70444,301.18804)"
       x="0"
       y="0"
       width="1"
       height="1"
       style="fill:#000000" />
    <use
       xlink:href="#path4352"
       id="use3020"
       transform="matrix(-1,0,0,1,-561.70444,0)"
       x="0"
       y="0"
       width="1"
       height="1"
       style="fill:#000000" />
    <use
       xlink:href="#path4350"
       id="use3016"
       transform="matrix(1,0,0,-1,0,301.18804)"
       x="0"
       y="0"
       width="1"
       height="1"
       style="fill:#000000" />
    <use
       xlink:href="#path4350"
       id="use3018"
       transform="matrix(-1,0,0,-1,-561.70444,301.18804)"
       x="0"
       y="0"
       width="1"
       height="1"
       style="fill:#000000" />
    <use
       xlink:href="#path4350"
       id="use3014"
       transform="matrix(-1,0,0,1,-561.70444,0)"
       x="0"
       y="0"
       width="1"
       height="1"
       style="fill:#000000" />
    <use
       xlink:href="#path3343"
       id="use3010"
       transform="matrix(1,0,0,-1,0,301.18804)"
       x="0"
       y="0"
       width="1"
       height="1"
       style="fill:#000000" />
    <use
       xlink:href="#path3343"
       id="use3012"
       transform="matrix(-1,0,0,-1,-561.70444,301.18804)"
       x="0"
       y="0"
       width="1"
       height="1"
       style="fill:#000000" />
    <use
       xlink:href="#path3343"
       id="use3008"
       transform="matrix(-1,0,0,1,-561.70444,0)"
       x="0"
       y="0"
       width="1"
       height="1"
       style="fill:#000000" />
    <use
       xlink:href="#path2301"
       id="use3004"
       transform="matrix(0,1,-1,0,-130.2582,431.44624)"
       x="0"
       y="0"
       width="1"
       height="1"
       style="fill:#000000" />
    <use
       xlink:href="#path2301"
       id="use3006"
       transform="matrix(0,-1,1,0,-431.44624,-130.2582)"
       x="0"
       y="0"
       width="1"
       height="1"
       style="fill:#000000" />
    <use
       xlink:href="#path2301"
       id="use3002"
       transform="matrix(1,0,0,-1,0,301.18804)"
       x="0"
       y="0"
       width="1"
       height="1"
       style="fill:#000000" />
    <path
       style="fill:#000000"
       id="path2299"
       d="m -263.72994,160.01925 a 19.545015,19.545 0 1 1 0.0513,-0.0938"
       inkscape:connector-curvature="0" />
    <path
       style="fill:#000000"
       id="path2301"
       d="m -280.66328,32.594048 -7.48371,84.046952 c -1.12919,3.42869 0.30473,7.30275 3.58724,9.1053 3.70758,2.03613 8.38166,0.67588 10.42153,-3.02473 l 0.0309,-0.0307 c 1.06014,-1.94843 1.18532,-4.16295 0.52572,-6.11138 l -7.0817,-83.985522 z"
       inkscape:connector-curvature="0" />
    <path
       style="fill:#000000"
       id="path3343"
       d="m -364.76693,66.796888 54.25168,64.711832 c 1.63062,3.2213 5.38914,4.9488 8.98725,3.9067 4.06417,-1.1769 6.40556,-5.4375 5.22625,-9.49391 l -3e-5,-0.0434 c -0.63075,-2.12602 -2.11112,-3.78021 -3.95791,-4.69245 l -64.50724,-54.388572 z"
       inkscape:connector-curvature="0" />
    <path
       style="fill:#000000"
       id="path4350"
       d="m -325.88834,42.685658 21.33795,66.299292 c 0.0513,0.17631 0.0867,0.3539 0.15458,0.52467 l 0.12369,0.4013 0.0619,-0.0307 c 0.50092,1.03629 1.32584,1.9345 2.4121,2.53097 2.78082,1.52698 6.26296,0.5223 7.79296,-2.25314 1.14752,-2.08156 0.86123,-4.57116 -0.52567,-6.32749 l -31.35746,-61.144682 z"
       inkscape:connector-curvature="0" />
    <path
       style="fill:#000000"
       id="path4352"
       d="m -389.97877,105.915 62.05824,31.82122 c 0.16119,0.089 0.31202,0.189 0.48104,0.2619 l 0.37173,0.1963 0.0219,-0.065 c 1.08837,0.3794 2.30802,0.4322 3.49866,0.088 3.04815,-0.883 4.79855,-4.0509 3.91417,-7.0933 -0.66325,-2.2818 -2.62942,-3.84007 -4.8544,-4.10319 l -65.4913,-21.10485 z"
       inkscape:connector-curvature="0" />
  </g>
</svg>
